<?xml version="1.0" standalone="no"?>
<!DOCTYPE svg PUBLIC "-//W3C//DTD SVG 1.1//EN" "http://www.w3.org/Graphics/SVG/1.1/DTD/svg11.dtd" >
<svg xmlns="http://www.w3.org/2000/svg" xmlns:xlink="http://www.w3.org/1999/xlink" version="1.1">
<metadata>
Created by FontForge 20161003 at Fri Sep 21 19:14:43 2018
 By www-data
Copyright (c) 2018 by New Channel Design. All rights reserved.
</metadata>
<defs>
<font id="New_Channel_FontBold" horiz-adv-x="568" >
  <font-face 
    font-family="New_Channel_FontBold"
    font-weight="700"
    font-stretch="normal"
    units-per-em="1000"
    panose-1="2 15 6 3 2 0 0 2 0 3"
    ascent="760"
    descent="-240"
    x-height="470"
    cap-height="700"
    bbox="-49 -251 1308 996"
    underline-thickness="50"
    underline-position="-200"
    unicode-range="U+0020-FB06"
  />
<missing-glyph horiz-adv-x="500" 
d="M0 690h500v-690h-500v690zM250 301l-181 -249h361zM69 638l181 -249l180 249h-361zM218 345l-166 229v-458zM282 345l166 -229v458z" />
    <glyph glyph-name="ffj" unicode="ffj" horiz-adv-x="761" 
d="M648 433v-472q0 -95 -48 -148.5t-99 -53.5q-30 0 -30 26q0 27 30 27q32 0 62.5 39t30.5 110v445h-189v-386q0 -10 -6.5 -20t-21.5 -10q-26 0 -26 30v386h-189v-386q0 -10 -6.5 -20t-21.5 -10q-26 0 -26 30v386h-52q-29 0 -29 27q0 14 9.5 20.5t19.5 6.5h52v46
q0 73 60.5 128.5t141.5 55.5q27 0 27 -26q0 -11 -8 -18.5t-19 -8.5q-59 0 -103.5 -39t-44.5 -92v-46h189v46q0 73 60.5 128.5t141.5 55.5q27 0 27 -26q0 -11 -8 -18.5t-19 -8.5q-59 0 -103.5 -39t-44.5 -92v-46h216q5 0 10.5 -1.5t11 -8t5.5 -17.5z" />
    <glyph glyph-name="fj" unicode="fj" horiz-adv-x="498" 
d="M135 460h216q22 0 27 -30v-468q0 -95 -48 -148.5t-99 -53.5q-34 0 -34 26q0 27 34 27q32 0 62.5 39t30.5 110v444h-189v-386q0 -10 -6.5 -20t-21.5 -10q-26 0 -26 30v386h-52q-29 0 -29 27q0 14 9.5 20.5t19.5 6.5h52v46q0 73 60.5 128.5t141.5 55.5q27 0 27 -26
q0 -11 -8 -18.5t-19 -8.5q-59 0 -103.5 -39t-44.5 -92v-46z" />
    <glyph glyph-name="ff" unicode="ff" horiz-adv-x="612" 
d="M168 451h194v70q0 169 134 169q57 0 96 -21q40 -20 40 -44q0 -11 -8 -19.5t-20 -8.5q-5 0 -9 2.5t-11.5 7t-14.5 8.5q-24 13 -59 13q-43 0 -59 -24t-16 -77v-76h127q11 0 19.5 -8.5t8.5 -19.5q0 -13 -8.5 -21.5t-19.5 -8.5h-127v-368q0 -14 -11 -24.5t-26 -10.5
t-25.5 10.5t-10.5 24.5v368h-194v-368q0 -14 -10.5 -24.5t-25.5 -10.5t-26 10.5t-11 24.5v368h-48q-12 0 -20.5 8.5t-8.5 21.5q0 11 8.5 19.5t20.5 8.5h48v71q0 70 31 114t101 44q46 0 88 -20q38 -18 38 -43q0 -28 -24 -28q-5 0 -31 14q-23 12 -54 12q-76 0 -76 -98v-66z
" />
    <glyph glyph-name="fi" unicode="fi" horiz-adv-x="495" 
d="M168 451h218q36 0 36 -35v-391q0 -14 -11 -24.5t-25 -10.5q-16 0 -26.5 10.5t-10.5 24.5v368h-181v-368q0 -14 -10.5 -24.5t-25.5 -10.5t-26 10.5t-11 24.5v368h-48q-12 0 -20.5 8.5t-8.5 21.5q0 11 8.5 19.5t20.5 8.5h48v68q0 171 154 171q64 0 115 -20q45 -20 45 -46
q0 -30 -34 -30q-13 0 -42 15q-33 18 -74 18q-49 0 -70 -30t-21 -88v-58z" />
    <glyph glyph-name="fl" unicode="fl" horiz-adv-x="496" 
d="M423 585v-560q0 -14 -11 -24.5t-25 -10.5q-15 0 -26 10.5t-11 24.5v559q0 17 -24.5 30.5t-64.5 13.5q-50 0 -71.5 -29.5t-21.5 -88.5v-59h121q12 0 20 -8.5t8 -19.5q0 -13 -8 -21.5t-20 -8.5h-121v-368q0 -14 -10.5 -24.5t-25.5 -10.5t-26 10.5t-11 24.5v368h-48
q-12 0 -20.5 8.5t-8.5 21.5q0 11 8.5 19.5t20.5 8.5h48v69q0 76 36.5 123t120.5 47q68 0 115 -21q34 -14 45 -32.5t11 -51.5z" />
    <glyph glyph-name="ffi" unicode="ffi" horiz-adv-x="761" 
d="M95 451v75q0 70 31 114t101 44q46 0 88 -20q38 -18 38 -43q0 -28 -24 -28q-5 0 -31 14q-23 12 -54 12q-76 0 -76 -98v-70h194v68q0 171 154 171q62 0 115 -22q45 -16 45 -44q0 -30 -34 -30q-10 0 -41 16q-33 18 -75 18q-49 0 -70 -30.5t-21 -88.5v-58h217q18 0 27.5 -9.5
t9.5 -25.5v-391q0 -14 -11 -24.5t-26 -10.5t-25.5 10.5t-10.5 24.5v368h-181v-368q0 -14 -11 -24.5t-26 -10.5t-25.5 10.5t-10.5 24.5v368h-194v-368q0 -14 -10.5 -24.5t-25.5 -10.5t-26 10.5t-11 24.5v368h-48q-12 0 -20.5 8.5t-8.5 21.5q0 11 8.5 19.5t20.5 8.5h48z" />
    <glyph glyph-name="ffl" unicode="ffl" horiz-adv-x="763" 
d="M168 451h194v69q0 170 154 170q64 0 113 -21q35 -15 48 -33.5t13 -50.5v-560q0 -14 -10.5 -24.5t-25.5 -10.5t-26 10.5t-11 24.5v559q0 17 -25 30.5t-65 13.5q-49 0 -70.5 -29.5t-21.5 -88.5v-59h115q11 0 19.5 -8.5t8.5 -19.5q0 -13 -8.5 -21.5t-19.5 -8.5h-115v-368
q0 -14 -11 -24.5t-26 -10.5t-25.5 10.5t-10.5 24.5v368h-194v-368q0 -14 -10.5 -24.5t-25.5 -10.5t-26 10.5t-11 24.5v368h-48q-12 0 -20.5 8.5t-8.5 21.5q0 11 8.5 19.5t20.5 8.5h48v75q0 70 31 114t101 44q46 0 88 -20q38 -18 38 -43q0 -28 -24 -28q-5 0 -31 14
q-23 12 -54 12q-76 0 -76 -98v-70z" />
    <glyph glyph-name=".notdef" horiz-adv-x="500" 
d="M0 690h500v-690h-500v690zM250 301l-181 -249h361zM69 638l181 -249l180 249h-361zM218 345l-166 229v-458zM282 345l166 -229v458z" />
    <glyph glyph-name=".null" horiz-adv-x="0" 
 />
    <glyph glyph-name="nonmarkingreturn" horiz-adv-x="333" 
 />
    <glyph glyph-name="space" unicode=" " horiz-adv-x="254" 
 />
    <glyph glyph-name="exclam" unicode="!" horiz-adv-x="235" 
d="M124 145q-18 0 -30 10.5t-12 26.5v487q0 17 13 29t31 12q17 0 28.5 -12t11.5 -29v-487q0 -15 -13.5 -26t-28.5 -11zM126 86q21 0 37 -15.5t16 -37.5t-15.5 -37.5t-37.5 -15.5t-37.5 15.5t-15.5 37.5t15.5 37.5t37.5 15.5z" />
    <glyph glyph-name="quotedbl" unicode="&#x22;" horiz-adv-x="343" 
d="M101 700q19 0 32 -11.5t13 -31.5l-11 -163q-1 -16 -10.5 -25t-23.5 -9q-25 0 -30 34l-14 166q0 17 13 28.5t31 11.5zM237 700q19 0 31.5 -11t12.5 -29v-4l-12 -162q-1 -15 -10 -24.5t-22 -9.5q-15 0 -23.5 9.5t-9.5 24.5l-12 166q0 17 13 28.5t32 11.5z" />
    <glyph glyph-name="numbersign" unicode="#" horiz-adv-x="582" 
d="M430 476h61q15 0 24 -9.5t9 -24.5v-4q-5 -42 -45 -42h-64l-20 -124h60q15 0 26 -10t11 -25q0 -7 -1 -9q-3 -17 -16.5 -28.5t-30.5 -11.5h-64l-29 -162q-6 -36 -47 -36q-15 0 -26 9.5t-11 23.5q0 1 0.5 3t0.5 3l29 159h-92l-30 -162q-3 -16 -15.5 -26t-29.5 -10
q-15 0 -26.5 9t-11.5 23q0 6 1 7l31 159h-63q-14 0 -23 11t-9 28q0 20 12.5 32.5t31.5 12.5h64l22 124h-62q-15 0 -23.5 10.5t-8.5 25.5v5q5 39 45 39h63l33 188q3 15 16 24.5t31 9.5q16 0 26.5 -8t10.5 -22q0 -2 -0.5 -4t-0.5 -3l-31 -185h91l31 187q6 35 46 35
q15 0 26 -8.5t11 -22.5q0 -1 -0.5 -3t-0.5 -3zM333 396h-91l-22 -124h92z" />
    <glyph glyph-name="dollar" unicode="$" horiz-adv-x="553" 
d="M324 620v-237q76 -6 131.5 -61.5t55.5 -133.5q0 -76 -53.5 -135t-133.5 -73v-27q0 -43 -42 -43t-42 43v27q-142 24 -190 157q-2 3 -2 13q0 16 13 28t31 12q29 0 37 -32q21 -70 111 -93v241q-71 19 -119.5 71.5t-48.5 123.5q0 75 45.5 132t122.5 71v22q0 40 41 40
q43 0 43 -40v-19q64 -7 112 -45t65 -96q2 -10 2 -13q0 -17 -12 -28.5t-30 -11.5q-32 0 -40 29q-19 67 -97 78zM426 190q0 45 -29.5 72t-72.5 34v-231q41 9 71.5 43.5t30.5 81.5zM240 395v223q-36 -14 -59.5 -47t-23.5 -71q0 -37 24 -63.5t59 -41.5z" />
    <glyph glyph-name="percent" unicode="%" horiz-adv-x="760" 
d="M342 549q0 -63 -46.5 -109t-109.5 -46q-61 0 -108.5 46.5t-47.5 108.5t46.5 108.5t109.5 46.5t109.5 -45.5t46.5 -109.5zM110 549q0 -37 20.5 -57.5t55.5 -20.5q36 0 56.5 20.5t20.5 57.5q0 35 -20.5 55.5t-56.5 20.5q-35 0 -55.5 -20.5t-20.5 -55.5zM566 645l-312 -622
q-14 -33 -42 -33q-15 0 -29.5 12t-14.5 28q0 8 9 29l313 619q14 26 36 26q17 0 31 -10.5t14 -27.5q0 -11 -5 -21zM562 301q62 0 108.5 -46.5t46.5 -110.5q0 -63 -46 -108.5t-109 -45.5q-61 0 -108.5 45.5t-47.5 108.5q0 62 46.5 109.5t109.5 47.5zM640 144q0 36 -21 56.5
t-57 20.5q-35 0 -55.5 -21t-20.5 -56q0 -36 20.5 -56.5t55.5 -20.5q37 0 57.5 20.5t20.5 56.5z" />
    <glyph glyph-name="ampersand" unicode="&#x26;" horiz-adv-x="684" 
d="M536 171l110 -110q11 -11 11 -29q0 -17 -14 -30t-31 -13q-15 0 -27 12l-108 111q-37 -39 -58.5 -59t-62.5 -41.5t-81 -21.5q-85 0 -152.5 55t-67.5 143q0 29 11.5 56t36.5 53.5t41 40.5t49 40l8 6q-28 28 -43.5 46t-32 50t-16.5 63q0 66 49 116.5t117 50.5
q67 0 118 -49.5t51 -117.5q0 -46 -35 -90.5t-83 -75.5l149 -148l74 80q13 13 29 13q17 0 29 -12.5t14 -30.5q0 -20 -10 -30zM194 543q0 -46 74 -107q90 73 90 107t-24 58t-59 24q-34 0 -57.5 -24t-23.5 -58zM417 169l-159 156q-118 -95 -118 -137q0 -51 40 -82.5t91 -31.5
q25 0 55.5 17.5t90.5 77.5z" />
    <glyph glyph-name="quotesingle" unicode="'" horiz-adv-x="163" 
d="M78 700q19 0 32 -11.5t13 -31.5l-11 -163q-1 -16 -10.5 -25t-23.5 -9q-25 0 -30 34l-14 166q0 17 13 28.5t31 11.5z" />
    <glyph glyph-name="parenleft" unicode="(" horiz-adv-x="309" 
d="M136 376q0 -213 101 -402q6 -14 6 -22q0 -17 -13 -28.5t-31 -11.5q-22 0 -37 27q-108 198 -108 437q0 269 109 449q14 25 37 25q16 0 29.5 -11.5t13.5 -27.5q0 -14 -7 -24q-100 -168 -100 -411z" />
    <glyph glyph-name="parenright" unicode=")" horiz-adv-x="323" 
d="M143 825q110 -176 110 -449q0 -198 -109 -440q-13 -28 -43 -28q-17 0 -28 12.5t-11 30.5q0 8 5 20q102 194 102 405q0 221 -100 410q-8 14 -8 25q0 16 13 28t30 12q22 0 39 -26z" />
    <glyph glyph-name="asterisk" unicode="*" horiz-adv-x="506" 
d="M365 632q15 0 27 -11t12 -28q0 -29 -33 -38l-87 -22l59 -74q10 -13 10 -28t-10.5 -25t-25.5 -10q-21 0 -35 18q-3 5 -8 12t-9.5 14t-10 15t-9.5 14.5t-7.5 11.5t-5.5 8l-2 3q-6 -14 -17 -30l-33 -48q-15 -18 -34 -18q-15 0 -26.5 10.5t-11.5 25.5q0 14 9 27q8 12 22 30
t24.5 31t11.5 13l-32 8q-52 14 -56 15q-31 11 -31 38q0 16 11 27t28 11q9 0 16 -3q1 -1 46 -18q20 -8 40 -15l-2 32l-4 60v4q0 18 11 28.5t28 10.5q18 0 28.5 -11.5t10.5 -31.5q-1 -9 -1.5 -22t-1.5 -25t-1.5 -22.5t-0.5 -16.5l-1 -6q20 7 40 15q8 3 19.5 7t18 7t8.5 4
q8 3 16 3z" />
    <glyph glyph-name="plus" unicode="+" horiz-adv-x="513" 
d="M302 343h124q16 0 27.5 -13t11.5 -31q0 -16 -11 -28t-28 -12h-124v-123q0 -17 -12.5 -28.5t-30.5 -11.5q-17 0 -29 11.5t-12 28.5v123h-120q-17 0 -28.5 12.5t-11.5 28.5q0 18 11.5 30.5t28.5 12.5h120v120q0 17 12.5 28.5t29.5 11.5q18 0 30 -11.5t12 -28.5v-120z" />
    <glyph glyph-name="comma" unicode="," horiz-adv-x="300" 
d="M146 34q11 -28 11 -66q0 -70 -55 -131q-9 -10 -20 -10q-10 0 -16.5 7t-6.5 18q0 10 4 17q20 42 20 77q0 15 -18 54q-9 20 -9 33q0 16 11.5 28.5t28.5 12.5q35 0 50 -40z" />
    <glyph glyph-name="hyphen" unicode="-" horiz-adv-x="526" 
d="M90 342h313q15 0 24.5 -11.5t9.5 -31.5q0 -19 -9.5 -29.5t-24.5 -10.5h-313q-34 0 -34 41q0 42 34 42z" />
    <glyph glyph-name="period" unicode="." horiz-adv-x="220" 
d="M46 31q0 22 15 37.5t37 15.5t37.5 -15.5t15.5 -37.5t-15.5 -37t-37.5 -15t-37 15t-15 37z" />
    <glyph glyph-name="slash" unicode="/" horiz-adv-x="447" 
d="M369 702q17 0 34 -11t17 -28q0 -15 -10 -32l-299 -597q-21 -44 -50 -44q-18 0 -32.5 10.5t-14.5 27.5q0 13 12 39l305 608q13 27 38 27z" />
    <glyph glyph-name="zero" unicode="0" horiz-adv-x="564" 
d="M281 706q71 0 122.5 -30t78.5 -83t39 -112.5t12 -130.5q0 -84 -8 -126q-17 -102 -79.5 -170.5t-164.5 -68.5q-70 0 -121 32.5t-78.5 87.5t-40 116t-12.5 129q0 71 11 129.5t37.5 112t78.5 84t125 30.5zM281 69q42 0 73.5 17t49.5 43t28.5 65t13.5 75.5t3 82.5q0 43 -2 74
t-12 70.5t-27 65t-49.5 43t-77.5 17.5q-168 0 -168 -272q0 -42 2.5 -73.5t12 -72t26.5 -67t49.5 -46.5t77.5 -22z" />
    <glyph glyph-name="one" unicode="1" horiz-adv-x="348" 
d="M236 658v-638q0 -34 -43 -34q-41 0 -41 34v578l-28 -18q-10 -7 -24 -7q-16 0 -30 13t-14 31q0 22 32 40q86 48 98 48q19 0 34.5 -13.5t15.5 -33.5z" />
    <glyph glyph-name="two" unicode="2" horiz-adv-x="574" 
d="M191 74h281q46 0 46 -43q0 -41 -46 -41h-371q-18 0 -31.5 15t-13.5 34t13 31l304 291q22 19 38 51.5t16 55.5q0 79 -42.5 116.5t-100.5 37.5q-62 0 -103 -37t-41 -117q0 -19 -11.5 -33t-30.5 -14q-17 0 -29.5 14.5t-12.5 32.5q0 100 59 169t169 69q100 0 163.5 -64.5
t63.5 -173.5q0 -87 -85 -168z" />
    <glyph glyph-name="three" unicode="3" horiz-adv-x="566" 
d="M421 352q40 -26 64.5 -72t24.5 -96q0 -60 -35.5 -109.5t-94.5 -73.5q-39 -16 -80 -16h-34q-78 0 -144 56t-66 134q0 17 11.5 27t30.5 10q38 0 42 -30q4 -45 39 -79t87 -34h34q48 0 87 33t39 82q0 54 -38.5 87t-87.5 33h-47q-17 0 -29.5 11.5t-12.5 29.5q0 43 40 43h48
q42 0 78.5 37.5t36.5 80.5q0 46 -36.5 79.5t-87.5 35.5q-81 -4 -120 -70q-12 -23 -39 -23q-16 0 -28 13t-12 30q0 9 5 22q29 53 80 82.5t114 29.5q82 0 145 -57t63 -142q0 -90 -77 -154z" />
    <glyph glyph-name="four" unicode="4" horiz-adv-x="562" 
d="M430 244h37q17 0 28 -10t11 -29t-11 -31.5t-31 -12.5h-34v-132q0 -19 -10.5 -31.5t-31.5 -12.5q-42 0 -42 44v132h-246q-19 0 -31.5 14t-12.5 34q0 14 8 32l277 431l5 6l5 7.5t5 6t6.5 6t6.5 4t8.5 3.5t9.5 1q21 0 32 -14.5t11 -37.5v-410zM160 244h186v275z" />
    <glyph glyph-name="five" unicode="5" horiz-adv-x="589" 
d="M205 478h84q102 0 173 -74.5t71 -179.5q0 -47 -17 -93q-26 -68 -86.5 -107t-136.5 -39q-98 0 -167.5 68.5t-69.5 169.5q0 38 42 38q18 0 30 -10t12 -28q0 -63 39 -108.5t114 -45.5q64 0 110.5 49t46.5 106q0 69 -51 120t-110 51h-134q-43 5 -43 48q0 12 53 217
q10 40 45 40h255q17 0 29 -12t12 -31q0 -17 -12 -29t-29 -12h-220z" />
    <glyph glyph-name="six" unicode="6" horiz-adv-x="592" 
d="M298 464q94 0 166 -69.5t72 -170.5q0 -99 -69.5 -169t-168.5 -70q-95 0 -168.5 66.5t-73.5 172.5q0 82 41 143l207 316q13 22 36 22q16 0 32.5 -12t16.5 -28q0 -11 -9 -25l-117 -182q4 6 35 6zM298 69q64 0 109 46t45 110t-44.5 110t-109.5 46t-111.5 -46.5t-46.5 -109.5
q0 -64 46.5 -110t111.5 -46z" />
    <glyph glyph-name="seven" unicode="7" horiz-adv-x="601" 
d="M94 700h408q17 0 30 -13.5t13 -31.5q0 -15 -12 -34l-373 -612q-13 -24 -35 -24q-16 0 -31.5 13.5t-15.5 28.5q0 14 10 30l342 559h-336q-38 0 -38 42q0 18 10.5 30t27.5 12z" />
    <glyph glyph-name="eight" unicode="8" horiz-adv-x="588" 
d="M419 392q113 -52 113 -188q0 -100 -69 -160t-165 -60q-95 0 -168.5 61t-73.5 159q0 62 32.5 111t88.5 76q-28 14 -48 54t-20 82q0 73 51.5 125t137.5 52q84 0 133 -52.5t49 -128.5q0 -93 -61 -131zM140 202q0 -52 44.5 -93.5t113.5 -41.5q66 0 108 39.5t42 99.5
q0 61 -44 100t-106 39q-64 0 -111 -41t-47 -102zM298 620q-48 0 -76.5 -29t-28.5 -68q0 -38 30.5 -66.5t77.5 -29.5q95 0 95 96q0 41 -25.5 68.5t-72.5 28.5z" />
    <glyph glyph-name="nine" unicode="9" horiz-adv-x="594" 
d="M294 700q106 0 174.5 -69.5t68.5 -169.5q0 -97 -92 -198l-228 -252q-19 -21 -39 -21q-14 0 -27.5 14t-13.5 30q0 18 14 32q76 88 130 146q14 14 13 15q-95 0 -166.5 68t-71.5 165q0 95 70 167.5t168 72.5zM290 311q61 0 112 43t51 106q0 66 -45.5 111t-113.5 45
q-64 0 -109 -46t-45 -110q0 -58 41.5 -103.5t108.5 -45.5z" />
    <glyph glyph-name="colon" unicode=":" horiz-adv-x="283" 
d="M56 32q0 22 15 37.5t37 15.5t37.5 -15.5t15.5 -37.5t-15.5 -37t-37.5 -15t-37 15t-15 37zM56 417q0 22 15 37.5t37 15.5t37.5 -15.5t15.5 -37.5t-15.5 -37t-37.5 -15t-37 15t-15 37z" />
    <glyph glyph-name="semicolon" unicode=";" horiz-adv-x="266" 
d="M58 417q0 22 15 37.5t37 15.5t37.5 -15.5t15.5 -37.5t-15.5 -37t-37.5 -15t-37 15t-15 37zM152 45q11 -28 11 -66q0 -70 -55 -131q-9 -10 -20 -10q-10 0 -16.5 7t-6.5 18q0 10 4 17q20 42 20 77q0 15 -18 54q-9 20 -9 33q0 16 11.5 28.5t28.5 12.5q35 0 50 -40z" />
    <glyph glyph-name="less" unicode="&#x3c;" horiz-adv-x="672" 
d="M243 313l301 -169q21 -12 21 -32q0 -19 -13.5 -37t-31.5 -18q-9 0 -20 6l-366 212q-24 14 -24 38t23 38l366 205q10 6 20 6q16 0 29 -17.5t13 -35.5q0 -21 -17 -31z" />
    <glyph glyph-name="equal" unicode="=" horiz-adv-x="665" 
d="M142 238h379q15 0 24.5 -11.5t9.5 -31.5q0 -19 -9.5 -29.5t-24.5 -10.5h-379q-34 0 -34 41q0 42 34 42zM142 455h379q15 0 24.5 -11.5t9.5 -31.5q0 -19 -9.5 -29.5t-24.5 -10.5h-379q-34 0 -34 41q0 42 34 42z" />
    <glyph glyph-name="greater" unicode="&#x3e;" horiz-adv-x="672" 
d="M131 144l301 169l-301 165q-17 10 -17 31q0 18 13 35.5t29 17.5q10 0 20 -6l366 -205q23 -14 23 -38t-24 -38l-366 -212q-11 -6 -20 -6q-18 0 -31.5 18t-13.5 37q0 20 21 32z" />
    <glyph glyph-name="question" unicode="?" horiz-adv-x="558" 
d="M248 711q96 0 159.5 -64t63.5 -156q0 -50 -24 -89.5t-73 -91.5q-25 -25 -37 -38.5t-24 -38t-12 -49.5q0 -17 -11 -26.5t-29 -9.5q-19 0 -31 9.5t-12 26.5q0 50 22.5 87t63.5 78q31 31 45 47.5t26.5 42.5t12.5 52q0 57 -40 96.5t-98 39.5q-54 0 -94 -39t-40 -93
q0 -15 -12 -25t-31 -10q-41 0 -41 34q0 91 62.5 154t153.5 63zM207 32q0 22 15 37.5t37 15.5t37.5 -15.5t15.5 -37.5t-15.5 -37t-37.5 -15t-37 15t-15 37z" />
    <glyph glyph-name="at" unicode="@" horiz-adv-x="845" 
d="M777 347q0 -104 -27 -159q-36 -72 -125 -78q-76 0 -91 67q-45 -35 -125 -35q-79 0 -135.5 61t-56.5 144q0 78 57.5 135.5t138.5 57.5q82 0 140.5 -56t58.5 -136v-140q0 -19 14 -19q71 0 71 158q0 111 -83.5 192.5t-199.5 81.5t-197.5 -80t-81.5 -194q0 -117 82.5 -196.5
t199.5 -81.5h5q59 0 90 10q15 5 21 5q32 0 32 -46q0 -21 -19 -30q-44 -18 -121 -18h-8q-70 0 -134 23.5t-115 67.5t-81.5 113t-30.5 153q0 155 105.5 254t255.5 99q148 0 254 -99t106 -254zM532 347q0 49 -34.5 81.5t-84.5 32.5q-51 0 -83.5 -32t-32.5 -82q0 -48 33.5 -86.5
t82.5 -38.5q52 0 85.5 34.5t33.5 90.5z" />
    <glyph glyph-name="A" unicode="A" horiz-adv-x="709" 
d="M408 675l262 -635q4 -7 4 -17q0 -17 -17.5 -27.5t-37.5 -10.5q-21 0 -32 21l-62 148h-318l-59 -146q-12 -23 -36 -23q-20 0 -37 11t-17 30q0 7 3 16l267 634q7 16 14 22.5t26 6.5q16 0 24.5 -7t15.5 -23zM368 539l-125 -301h248z" />
    <glyph glyph-name="B" unicode="B" horiz-adv-x="648" 
d="M501 353q101 -53 101 -162q0 -82 -58.5 -141.5t-142.5 -59.5h-258q-18 0 -30.5 12.5t-12.5 29.5v625q0 18 12.5 30.5t30.5 12.5h203q115 0 177 -59q55 -52 55 -137q0 -80 -53 -131q-12 -12 -24 -20zM344 616h-160v-221h159q84 0 124 40q26 24 26 69q0 49 -29 75
q-38 37 -120 37zM184 74h216q47 0 82.5 33.5t35.5 83.5q0 37 -23 63.5t-56 37.5t-54.5 15.5t-31.5 4.5h-169v-238z" />
    <glyph glyph-name="C" unicode="C" horiz-adv-x="751" 
d="M655 156q18 0 31.5 -13.5t13.5 -31.5q0 -12 -17 -29q-102 -97 -241 -97q-91 0 -173.5 44.5t-135 128.5t-52.5 187q0 101 51 184.5t133.5 129.5t176.5 46q110 0 218 -76q19 -13 19 -34q0 -17 -11.5 -29.5t-28.5 -12.5q-15 0 -29 9q-80 59 -168 59q-113 0 -194.5 -83
t-81.5 -193q0 -114 82 -195t194 -81q110 0 182 72q10 15 31 15z" />
    <glyph glyph-name="D" unicode="D" horiz-adv-x="719" 
d="M144 700h169q138 0 235.5 -102t97.5 -250q0 -154 -91 -256t-243 -102h-168q-17 0 -29.5 13t-14.5 32v620q0 18 12.5 31.5t31.5 13.5zM184 73h128q107 0 178 81.5t71 193.5q0 113 -69.5 191t-179.5 78h-128v-544z" />
    <glyph glyph-name="E" unicode="E" horiz-adv-x="572" 
d="M157 73h327q39 0 39 -41q0 -19 -10.5 -30.5t-28.5 -11.5h-367q-17 0 -30.5 13.5t-13.5 30.5v620q0 19 13 32.5t31 13.5h365q41 0 41 -43q0 -40 -41 -40h-325v-234h250q37 0 37 -42q0 -18 -10 -29.5t-27 -11.5h-250v-227z" />
    <glyph glyph-name="F" unicode="F" horiz-adv-x="595" 
d="M144 700h367q38 0 38 -43q0 -18 -10.5 -29t-28.5 -11h-326v-234h245q18 0 29 -11t11 -31q0 -18 -11 -29.5t-29 -11.5h-245v-279q0 -17 -11.5 -26.5t-30.5 -9.5q-42 0 -42 36v635q0 17 13 30t31 14z" />
    <glyph glyph-name="G" unicode="G" horiz-adv-x="772" 
d="M704 287v-173q0 -20 -20 -36q-47 -43 -124 -68t-150 -25q-141 0 -245 103.5t-104 255.5q0 153 101 257t248 104q64 0 132.5 -21t115.5 -56q18 -15 18 -33q0 -17 -11.5 -31.5t-29.5 -14.5q-15 0 -32 11q-41 26 -95 43.5t-98 17.5q-107 0 -185.5 -86t-78.5 -191
q0 -102 79.5 -188.5t185.5 -86.5q52 0 112.5 18.5t96.5 48.5v111h-155q-18 0 -29 10t-11 28q0 45 40 45h195q19 0 31.5 -11.5t12.5 -31.5z" />
    <glyph glyph-name="H" unicode="H" horiz-adv-x="643" 
d="M525 705q43 0 43 -37v-646q0 -16 -11 -26.5t-31 -10.5q-42 0 -42 37v279h-325v-280q0 -36 -42 -36q-18 0 -30 9.5t-12 26.5v647q0 16 12 26.5t30 10.5q42 0 42 -37v-284h325v284q0 35 41 37z" />
    <glyph glyph-name="I" unicode="I" horiz-adv-x="283" 
d="M185 664v-643q0 -13 -11 -24.5t-31 -11.5q-21 0 -32 11.5t-11 24.5v644q0 40 43 40q20 0 31 -12.5t11 -28.5z" />
    <glyph glyph-name="J" unicode="J" horiz-adv-x="388" 
d="M302 669v-465q0 -95 -60.5 -157t-153.5 -62q-17 0 -29.5 13.5t-12.5 30.5t11.5 28.5t30.5 11.5q57 0 93.5 38.5t36.5 96.5v466q0 34 41 36q39 0 43 -37z" />
    <glyph glyph-name="K" unicode="K" horiz-adv-x="624" 
d="M304 355l257 -299q15 -17 15 -32q0 -16 -13 -27.5t-30 -11.5q-19 0 -32 15l-252 290l-65 -74v-195q0 -36 -42 -36t-42 36v648q0 17 11.5 26.5t30.5 9.5q42 0 42 -36v-326l290 344q16 18 36 18q16 0 29.5 -12t13.5 -29q0 -14 -12 -28z" />
    <glyph glyph-name="L" unicode="L" horiz-adv-x="566" 
d="M100 34v627q0 6 2.5 13t13 14t26.5 7q22 0 32 -12t10 -22v-588h300q36 0 36 -43q0 -21 -11 -30.5t-25 -9.5h-340q-19 0 -31.5 12t-12.5 32z" />
    <glyph glyph-name="M" unicode="M" horiz-adv-x="888" 
d="M805 691q10 -10 10 -27v-642q0 -17 -12 -27t-32 -10q-40 0 -40 37v496l-215 -347q-27 -45 -60 -45t-59 45l-213 346v-498q0 -16 -12 -25t-30 -9t-30 9.5t-12 24.5v643q0 17 9 29q9 14 33 14q26 0 43 -26l271 -443l278 446q14 23 39 23q18 0 32 -14z" />
    <glyph glyph-name="N" unicode="N" horiz-adv-x="744" 
d="M111 690q15 15 33 15q23 0 38 -20l380 -528v513q0 35 40 35q44 0 44 -35v-638q0 -18 -14.5 -32.5t-32.5 -14.5q-21 0 -33 17l-382 523v-496q0 -20 -11.5 -32t-30.5 -12t-30.5 13t-11.5 31v632q0 18 11 29z" />
    <glyph glyph-name="O" unicode="O" horiz-adv-x="814" 
d="M406 705q147 0 253.5 -106.5t106.5 -253.5q0 -148 -106.5 -254t-253.5 -106q-148 0 -254 106t-106 254q0 147 106 253.5t254 106.5zM407 69q111 0 192.5 83t81.5 194t-81.5 193t-192.5 82q-112 0 -194 -82t-82 -193t82.5 -194t193.5 -83z" />
    <glyph glyph-name="P" unicode="P" horiz-adv-x="623" 
d="M575 471q0 -108 -60.5 -170.5t-155.5 -62.5h-175v-215q0 -16 -12 -27t-30 -11t-30 10.5t-12 27.5v632q0 19 13 32t31 13h215q27 0 56 -8t58 -26t51.5 -43.5t36.5 -65t14 -86.5zM184 321h175q52 0 91.5 47t39.5 103q0 54 -38.5 99.5t-92.5 45.5h-175v-295z" />
    <glyph glyph-name="Q" unicode="Q" horiz-adv-x="813" 
d="M690 129l61 -65q14 -14 14 -31q0 -16 -12.5 -29.5t-29.5 -13.5t-33 16l-60 63q-100 -84 -221 -84q-142 0 -252.5 109t-110.5 253q0 155 107.5 256.5t255.5 101.5q93 0 174 -45t131.5 -128t50.5 -185q0 -110 -75 -218zM575 249l54 -58q51 71 51 157q0 115 -79.5 194
t-191.5 79q-111 0 -195 -78t-84 -196q0 -111 84 -194.5t195 -83.5q81 0 163 63l-60 60q-14 14 -14 31q0 16 12 29t29 13q20 0 36 -16z" />
    <glyph glyph-name="R" unicode="R" horiz-adv-x="576" 
d="M404 247l105 -204q5 -12 5 -20q0 -15 -15.5 -26.5t-32.5 -11.5q-20 0 -31 18l-121 235h-157v-220q0 -33 -42 -33t-42 33v637q0 18 11.5 31.5t30.5 13.5h218q93 0 158.5 -62t65.5 -168q0 -172 -153 -223zM157 321h175q58 0 99 42.5t41 106.5q0 65 -42 105.5t-97 40.5h-176
v-295z" />
    <glyph glyph-name="S" unicode="S" horiz-adv-x="619" 
d="M320 406q254 -21 254 -212q0 -94 -70 -151.5t-179 -57.5q-47 0 -91 9t-86 29t-69.5 58t-33.5 89v4q0 18 10.5 30t29.5 12q40 0 44 -37q9 -59 65.5 -84.5t128.5 -25.5q68 0 117 31t49 92q0 63 -51 94.5t-122 35.5q-43 2 -84.5 12t-82 29t-65.5 55t-25 83q0 92 66 148
t172 56q226 0 264 -146q1 -3 1 -11q0 -16 -9.5 -26.5t-26.5 -10.5q-19 0 -29.5 7t-18.5 29q-24 74 -179 74q-58 0 -106.5 -31.5t-48.5 -88.5q3 -80 176 -95z" />
    <glyph glyph-name="T" unicode="T" horiz-adv-x="596" 
d="M84 700h425q41 0 41 -41q0 -18 -11.5 -30t-29.5 -12h-169v-592q0 -18 -11.5 -29t-31.5 -11q-37 0 -41 40v592h-171q-17 0 -28 12t-11 30q0 41 38 41z" />
    <glyph glyph-name="U" unicode="U" horiz-adv-x="652" 
d="M534 705q43 0 43 -36v-437q0 -100 -72.5 -173.5t-179.5 -73.5q-109 0 -180.5 71.5t-71.5 175.5v437q0 36 42 36t42 -36v-437q0 -64 50 -113.5t118 -49.5q65 0 116.5 49.5t51.5 113.5v437q0 34 41 36z" />
    <glyph glyph-name="V" unicode="V" horiz-adv-x="681" 
d="M644 672q0 -16 -6 -32l-249 -627q-13 -28 -44 -28q-28 0 -43 26q-1 2 -5 13q-55 146 -245 616q-6 16 -6 32q2 16 18 24.5t33 8.5q28 0 39 -32l209 -532l209 532q11 32 41 32q17 0 32 -8.5t17 -24.5z" />
    <glyph glyph-name="W" unicode="W" horiz-adv-x="1059" 
d="M310 -15q-33 0 -44 31l-218 631q-2 6 -2 13q0 20 13 32.5t32 12.5q30 0 41 -31l178 -505l179 505q12 32 43 32t43 -32l178 -504l176 504q5 14 17 22.5t25 8.5q20 0 32.5 -14t12.5 -32q0 -6 -2 -12l-218 -631q-11 -31 -43 -31q-31 0 -42 31l-180 507l-179 -507
q-5 -14 -17 -22.5t-25 -8.5z" />
    <glyph glyph-name="X" unicode="X" horiz-adv-x="601" 
d="M364 344l192 -276q19 -22 19 -36q0 -20 -13.5 -33.5t-32.5 -13.5q-26 0 -53 38l-170 242l-169 -242q-27 -38 -57 -38q-16 0 -29 13.5t-13 33.5q0 9 19 36l192 276l-196 283q-15 17 -15 35q0 16 16.5 29.5t33.5 13.5q21 0 38 -23l180 -258l182 258q17 23 43 23
q14 0 29 -13.5t15 -29.5q0 -11 -15 -35z" />
    <glyph glyph-name="Y" unicode="Y" horiz-adv-x="592" 
d="M519 705q17 0 30 -12.5t13 -30.5q0 -13 -9 -25l-211 -306v-309q0 -17 -12 -27t-31 -10q-18 0 -29.5 10t-11.5 27v308l-213 307q-9 12 -9 25q0 16 12.5 29.5t29.5 13.5q26 0 40 -18l181 -265l186 271q9 12 34 12z" />
    <glyph glyph-name="Z" unicode="Z" horiz-adv-x="645" 
d="M557 -8h-468q-18 0 -30.5 11.5t-12.5 28.5q0 13 8 27l414 556h-385q-17 0 -27 12t-10 31q0 18 10 29t27 11h469q18 0 30 -12t12 -30q0 -14 -8 -24l-413 -557h384q18 0 27.5 -12t9.5 -31q0 -18 -9.5 -29t-27.5 -11z" />
    <glyph glyph-name="bracketleft" unicode="[" horiz-adv-x="378" 
d="M167 -4h93q17 0 28 -12t11 -30t-12 -31t-27 -13h-118q-27 0 -43 17.5t-16 39.5v832q0 21 15.5 36t43.5 15h115q17 0 29.5 -11.5t12.5 -28.5t-12.5 -30.5t-29.5 -13.5h-90v-770z" />
    <glyph glyph-name="backslash" unicode="\" horiz-adv-x="457" 
d="M133 705q31 0 41 -33l196 -617q6 -17 6 -30q0 -18 -11.5 -29.5t-31.5 -11.5q-35 0 -52 53l-192 604q-5 15 -5 26q0 18 14.5 28t34.5 10z" />
    <glyph glyph-name="bracketright" unicode="]" horiz-adv-x="378" 
d="M123 -4h93v770h-90q-17 0 -29.5 13.5t-12.5 30.5t12.5 28.5t29.5 11.5h115q28 0 43.5 -15t15.5 -36v-832q0 -22 -16 -39.5t-43 -17.5h-118q-15 0 -27 13t-12 31t11 30t28 12z" />
    <glyph glyph-name="asciicircum" unicode="^" horiz-adv-x="480" 
d="M279 709l128 -190q4 -7 4 -17q0 -15 -14.5 -25.5t-32.5 -10.5q-24 0 -35 17l-82 122l-81 -122q-11 -17 -35 -17q-17 0 -32 9t-15 25q0 6 5 18l127 191q12 17 31 17q21 0 32 -17z" />
    <glyph glyph-name="underscore" unicode="_" horiz-adv-x="565" 
d="M5 -7h496q15 0 25.5 -13t10.5 -29t-10.5 -28.5t-25.5 -12.5h-496q-15 0 -25.5 13t-10.5 29t10.5 28.5t25.5 12.5z" />
    <glyph glyph-name="grave" unicode="`" horiz-adv-x="322" 
d="M83 726q0 18 14.5 31.5t34.5 13.5q26 0 36 -23l68 -148q4 -7 4 -17q0 -12 -9 -22.5t-22 -10.5q-16 0 -30 20l-90 136q-6 9 -6 20z" />
    <glyph glyph-name="a" unicode="a" horiz-adv-x="539" 
d="M271 475q83 0 139 -41t56 -122v-279q0 -18 -12.5 -30.5t-29.5 -12.5h-219q-71 0 -115 41t-44 117q0 67 45.5 112.5t114.5 45.5h176v11q0 36 -32 55.5t-72 19.5q-54 0 -99 -24q-14 -8 -24 -8q-15 0 -28 13t-13 29q0 21 24 37q54 36 133 36zM382 73v150h-174q-34 0 -56 -21
t-22 -54q0 -75 78 -75h174z" />
    <glyph glyph-name="b" unicode="b" horiz-adv-x="540" 
d="M493 229q0 -98 -65.5 -168.5t-159.5 -70.5h-154q-18 0 -29.5 12.5t-11.5 30.5v636q0 19 11.5 30t29.5 11t30.5 -12.5t12.5 -28.5v-194h110q102 0 164 -71.5t62 -174.5zM267 391h-110v-318h111q59 0 100 45t41 112q0 62 -39 111.5t-103 49.5z" />
    <glyph glyph-name="c" unicode="c" horiz-adv-x="508" 
d="M423 123q16 0 30.5 -13t14.5 -30t-14 -31q-28 -28 -74 -46t-95 -18q-99 0 -171 68.5t-72 175.5q0 106 71.5 176t176.5 70q85 0 147 -47q15 -10 15 -32q0 -16 -13 -30t-31 -14q-15 0 -25 8q-40 31 -93 31q-66 0 -115 -44.5t-49 -117.5q0 -70 52 -115t109 -45q61 0 107 43
q14 11 29 11z" />
    <glyph glyph-name="d" unicode="d" horiz-adv-x="539" 
d="M45 229q0 103 62 174.5t164 71.5h110v194q0 16 12.5 28.5t30.5 12.5t29.5 -11t11.5 -30v-636q0 -18 -11.5 -30.5t-29.5 -12.5h-154q-94 0 -159.5 70.5t-65.5 168.5zM381 391h-110q-64 0 -103 -49.5t-39 -111.5q0 -67 41 -112t100 -45h111v318z" />
    <glyph glyph-name="e" unicode="e" 
d="M292 475q103 0 174 -68t71 -170q0 -23 -15 -36t-39 -13h-346q9 -44 55 -81.5t100 -37.5q83 0 129 37q13 10 29 10t28.5 -11.5t12.5 -28.5q0 -19 -14 -33q-62 -58 -185 -58q-99 0 -172 66t-73 178q0 107 71.5 176.5t173.5 69.5zM136 271h311q-7 43 -52 81.5t-103 38.5
q-59 0 -103 -38t-53 -82z" />
    <glyph glyph-name="f" unicode="f" horiz-adv-x="410" 
d="M195 478h127q20 0 31 -11.5t11 -30.5q0 -18 -11.5 -29.5t-29.5 -11.5h-128v-369q0 -18 -11 -29.5t-32 -11.5q-38 0 -41 40v370h-35q-20 0 -31.5 11t-11.5 30t11.5 30.5t31.5 11.5h35v34q0 77 60.5 135t151.5 58q17 0 29 -11t12 -29t-11.5 -30.5t-29.5 -12.5
q-48 0 -88 -31.5t-40 -78.5v-34z" />
    <glyph glyph-name="g" unicode="g" horiz-adv-x="540" 
d="M267 470h157q19 0 31 -12t12 -32v-477q0 -69 -57 -129t-133 -60q-13 0 -26.5 11.5t-13.5 29.5q0 21 12.5 31.5t27.5 10.5q30 0 68 32.5t38 74.5v40h-115q-94 0 -158 69t-64 170q0 95 62.5 168t158.5 73zM383 386h-116q-57 0 -96.5 -45.5t-39.5 -113.5q0 -58 40 -106
t96 -48h116v313z" />
    <glyph glyph-name="h" unicode="h" horiz-adv-x="546" 
d="M280 471q102 0 158 -74q34 -47 34 -101v-273q0 -17 -11.5 -27.5t-31.5 -10.5q-17 0 -29 10t-12 28v273q0 28 -21 54q-27 37 -87 37q-53 0 -90 -44q-33 -39 -33 -82v-236q0 -17 -11.5 -28.5t-30.5 -11.5q-18 0 -30 10.5t-12 28.5v634q0 19 11.5 30.5t30.5 11.5t30.5 -11
t11.5 -31v-228q42 41 123 41z" />
    <glyph glyph-name="i" unicode="i" horiz-adv-x="238" 
d="M121 643q19 0 32.5 -13t13.5 -33q0 -19 -13.5 -32.5t-32.5 -13.5t-32.5 13.5t-13.5 32.5q0 18 13 31.5t33 14.5zM164 434v-413q0 -13 -11 -24.5t-31 -11.5q-21 0 -32 11.5t-11 24.5v414q0 40 43 40q20 0 31 -12.5t11 -28.5z" />
    <glyph glyph-name="j" unicode="j" horiz-adv-x="327" 
d="M214 475q42 0 42 -46v-451q0 -87 -51 -152.5t-134 -65.5q-18 0 -29 11.5t-11 31.5q0 17 10 28.5t30 11.5q35 0 68 36.5t33 98.5v451q0 19 11 32.5t31 13.5zM214 543q-20 0 -34 14t-14 34q0 19 14 34t34 15q21 0 35 -14t14 -35q0 -19 -14 -33.5t-35 -14.5z" />
    <glyph glyph-name="k" unicode="k" horiz-adv-x="488" 
d="M271 234l168 -175q12 -15 12 -28q0 -18 -10.5 -32t-27.5 -14q-16 0 -29 13l-168 168l-32 -37v-107q0 -37 -44 -37q-40 0 -40 37v644q0 39 40 39q21 0 32.5 -12t11.5 -28v-404l179 202q11 12 29 12q15 0 27.5 -15.5t12.5 -33.5q0 -10 -19 -32z" />
    <glyph glyph-name="l" unicode="l" horiz-adv-x="228" 
d="M157 664v-643q0 -13 -10.5 -24.5t-30.5 -11.5q-21 0 -32.5 11.5t-11.5 24.5v644q0 40 44 40q20 0 30.5 -12.5t10.5 -28.5z" />
    <glyph glyph-name="m" unicode="m" horiz-adv-x="822" 
d="M719 396q33 -45 33 -92v-282q0 -17 -11.5 -27t-29.5 -10t-30.5 10t-12.5 27v281q0 23 -19 47q-29 38 -88 38q-44 0 -69 -25.5t-35 -58.5q-1 -2 -1 -7v-275q0 -17 -11.5 -27t-29.5 -10q-19 0 -30.5 10t-11.5 27v281q-6 29 -20 47q-27 38 -86 38q-36 0 -68.5 -27.5
t-34.5 -56.5q-1 -3 -1 -13v-267q0 -17 -12 -27.5t-30 -10.5t-30 10.5t-12 27.5v411q0 17 12 26.5t30 9.5q17 0 29 -8.5t12 -27.5q33 36 105 36q91 0 148 -63q53 63 146 63q107 0 158 -75z" />
    <glyph glyph-name="n" unicode="n" horiz-adv-x="520" 
d="M280 471q102 0 158 -74q34 -47 34 -101v-273q0 -17 -11.5 -27.5t-31.5 -10.5q-17 0 -29 10t-12 28v273q0 28 -21 54q-27 37 -87 37q-53 0 -90 -44q-33 -39 -33 -82v-236q0 -17 -11.5 -28.5t-30.5 -11.5q-18 0 -30 10.5t-12 28.5v409q0 38 42 38t42 -41q42 41 123 41z" />
    <glyph glyph-name="o" unicode="o" horiz-adv-x="562" 
d="M290 475q109 0 177 -70.5t68 -174.5q0 -98 -69 -171.5t-176 -73.5q-104 0 -174.5 72t-70.5 173q0 98 70 171.5t175 73.5zM290 69q66 0 113.5 48t47.5 113q0 66 -47.5 113.5t-113.5 47.5q-65 0 -113 -47.5t-48 -113.5q0 -64 48.5 -112.5t112.5 -48.5z" />
    <glyph glyph-name="p" unicode="p" horiz-adv-x="566" 
d="M519 233q0 -103 -61.5 -173t-164.5 -70h-110v-189q0 -16 -12.5 -28.5t-30.5 -12.5t-29.5 11t-11.5 30v626q0 18 11.5 30.5t29.5 12.5h154q94 0 159.5 -69.5t65.5 -167.5zM183 73h110q65 0 103.5 48.5t38.5 110.5q0 67 -41 110.5t-100 43.5h-111v-313z" />
    <glyph glyph-name="q" unicode="q" horiz-adv-x="566" 
d="M46 233q0 98 65.5 167.5t159.5 69.5h154q18 0 29.5 -12.5t11.5 -30.5v-630q0 -37 -41 -37q-19 0 -31 10.5t-12 26.5v193h-110q-102 0 -164 70.5t-62 172.5zM272 73h110v313h-111q-59 0 -100 -43.5t-41 -110.5q0 -62 38.5 -110.5t103.5 -48.5z" />
    <glyph glyph-name="r" unicode="r" horiz-adv-x="462" 
d="M386 464q29 -6 29 -37q0 -17 -10.5 -32t-26.5 -15h-2q-1 1 -3.5 1.5t-4.5 0.5q-21 6 -48 6q-64 0 -104 -45q-11 -13 -21.5 -39.5t-10.5 -42.5v-235q0 -20 -11.5 -30.5t-30.5 -10.5q-18 0 -30 11t-12 30v410q0 39 43 39q14 0 27.5 -9.5t13.5 -23.5v-16q39 45 136 45
q42 0 66 -7z" />
    <glyph glyph-name="s" unicode="s" horiz-adv-x="482" 
d="M233 288l38 -8q29 -6 47.5 -11t45.5 -16.5t42.5 -26t27.5 -38.5t12 -54q0 -76 -54.5 -112.5t-132.5 -36.5q-77 0 -133 29q-63 36 -84 106q-1 2 -1 9q0 30 43 35q30 0 43 -30q8 -26 39 -46t92 -20q36 0 70 16t34 48q0 14 -5.5 24t-20 17t-23.5 9.5t-32 8.5l-51 12
q-27 6 -44 11t-42.5 16t-40.5 23.5t-26 33.5t-11 47q0 66 51 103.5t123 37.5q17 0 39.5 -4t53 -13.5t57.5 -32t41 -53.5q4 -9 4 -16q0 -14 -10 -23t-27 -9q-43 0 -55 27q-18 38 -103 42q-90 -4 -90 -59q0 -29 83 -46z" />
    <glyph glyph-name="t" unicode="t" horiz-adv-x="413" 
d="M325 68q45 0 45 -42q0 -19 -12 -30t-33 -11q-81 0 -144.5 56t-63.5 149v200h-31q-22 0 -35.5 10.5t-13.5 28.5q0 9 2.5 17.5t14.5 17.5t32 9h31v186q0 18 11 29.5t29 11.5q19 0 31.5 -11t12.5 -30v-186h110q20 0 32.5 -12.5t12.5 -31.5q0 -18 -12 -28.5t-33 -10.5h-110
v-205q0 -51 40 -84t84 -33z" />
    <glyph glyph-name="u" unicode="u" horiz-adv-x="540" 
d="M467 434v-272q0 -82 -53 -129.5t-145 -47.5q-87 0 -141.5 49.5t-54.5 127.5v272q0 41 42 41t42 -41v-272q0 -37 31.5 -65t80.5 -28q52 0 83 25t31 68v272q0 41 42 41q40 0 42 -41z" />
    <glyph glyph-name="v" unicode="v" horiz-adv-x="456" 
d="M380 475q18 0 37.5 -10.5t19.5 -24.5q0 -8 -5 -21l-161 -407q-15 -27 -44 -27q-31 0 -45 30l-160 405q-3 8 -3 16q0 15 17.5 27t34.5 12q23 0 33 -22l123 -312l123 314q8 20 30 20z" />
    <glyph glyph-name="w" unicode="w" horiz-adv-x="764" 
d="M688 475q18 0 37.5 -10.5t19.5 -24.5q0 -7 -5 -22l-160 -406q-15 -27 -44 -27q-35 0 -45 30l-110 276l-110 -279q-15 -27 -45 -27t-44 30l-160 405q-3 6 -3 16q0 15 17.5 27t34.5 12q23 0 33 -22l122 -312l124 314q8 20 30 20q23 0 32 -22l124 -312l123 314q9 20 29 20z
" />
    <glyph glyph-name="x" unicode="x" horiz-adv-x="446" 
d="M412 403l-130 -168l136 -176q10 -10 10 -28q0 -20 -13.5 -33t-32.5 -13q-22 0 -36 17l-122 158l-123 -158q-14 -17 -36 -17q-20 0 -33 13.5t-13 32.5q0 16 9 28l137 176l-130 168q-9 12 -9 28q0 19 14 31.5t32 12.5q23 0 36 -16l116 -150l116 150q12 16 36 16
q20 0 33 -14t13 -32q0 -13 -10 -26z" />
    <glyph glyph-name="y" unicode="y" horiz-adv-x="498" 
d="M410 475q43 0 43 -40v-484q0 -71 -60 -131t-149 -60q-16 0 -29.5 9t-13.5 33q0 16 9 26t17.5 12.5t16.5 2.5q47 0 86 35t39 82v51q-44 -26 -121 -26q-86 0 -144 46.5t-58 138.5v265q0 18 11 29t31 11t31 -11t11 -29v-265q0 -47 33 -74t85 -27q121 0 121 101v265
q0 17 11.5 28.5t29.5 11.5z" />
    <glyph glyph-name="z" unicode="z" horiz-adv-x="507" 
d="M190 73h220q16 0 27.5 -12t11.5 -32q0 -17 -10 -28t-27 -11h-314q-16 0 -28 11.5t-12 28.5q0 18 8 26l254 331h-224q-16 0 -27 12t-11 30q0 19 10.5 30t26.5 11h315q16 0 27 -13t11 -30q0 -15 -9 -27z" />
    <glyph glyph-name="braceleft" unicode="{" horiz-adv-x="462" 
d="M336 -16q17 0 29.5 -12.5t12.5 -30.5t-12 -29.5t-30 -11.5q-71 0 -108.5 35t-37.5 114v223q0 34 -15 49.5t-48 15.5q-19 0 -31 12.5t-12 29.5t12.5 29t30.5 12q33 0 48 15t15 50v215q2 74 39.5 112t106.5 38q17 0 29.5 -11t12.5 -30q0 -18 -12.5 -30.5t-29.5 -12.5
q-32 0 -46.5 -15.5t-14.5 -50.5v-215q0 -65 -33 -106q33 -43 33 -107v-223q0 -34 14.5 -49.5t46.5 -15.5z" />
    <glyph glyph-name="bar" unicode="|" horiz-adv-x="308" 
d="M112 -53v868q0 16 12.5 25.5t29.5 9.5q15 0 28.5 -10.5t13.5 -24.5v-868q0 -19 -12.5 -28t-29.5 -9q-16 0 -28.5 10t-13.5 27z" />
    <glyph glyph-name="braceright" unicode="}" horiz-adv-x="462" 
d="M126 -16q32 0 46.5 15.5t14.5 49.5v223q0 64 33 107q-33 41 -33 106v215q0 35 -14.5 50.5t-46.5 15.5q-17 0 -29.5 12.5t-12.5 30.5q0 19 12.5 30t29.5 11q69 0 106.5 -38t39.5 -112v-215q0 -35 15 -50t48 -15q18 0 30.5 -12t12.5 -29t-12 -29.5t-31 -12.5
q-33 0 -48 -15.5t-15 -49.5v-223q0 -79 -37.5 -114t-108.5 -35q-18 0 -30 11.5t-12 29.5t12.5 30.5t29.5 12.5z" />
    <glyph glyph-name="asciitilde" unicode="~" horiz-adv-x="607" 
d="M449 346q16 16 38.5 10.5t30.5 -24.5t-5 -41q-37 -49 -97.5 -57.5t-118.5 23.5q-96 44 -137 -4q-17 -19 -41 -12t-31 27t8 41q40 45 106.5 50.5t121.5 -25.5q74 -41 125 12z" />
    <glyph glyph-name="nbspace" unicode="&#xa0;" horiz-adv-x="600" 
 />
    <glyph glyph-name="exclamdown" unicode="&#xa1;" horiz-adv-x="247" 
d="M79 414q0 20 12.5 33t32.5 13t33 -13t13 -33t-13 -32.5t-33 -12.5t-32.5 12.5t-12.5 32.5zM73 -151q0 33 7 101l19 286q2 30 25 30t25 -30l20 -286q6 -58 6 -101q0 -88 -51 -88t-51 88z" />
    <glyph glyph-name="cent" unicode="&#xa2;" horiz-adv-x="513" 
d="M448 87q15 -21 -2 -38q-63 -57 -148 -61v-46q0 -27 -24 -27t-24 27v49q-82 14 -139.5 80t-57.5 152q0 84 56.5 151t140.5 81v44q0 26 23 26q25 0 25 -26v-41q74 -3 133 -49q8 -6 9.5 -17.5t-4.5 -20.5q-16 -20 -38 -5q-50 38 -111 38q-73 0 -126.5 -53t-53.5 -128
q0 -72 52.5 -126.5t127.5 -54.5q69 0 122 47q19 19 39 -2z" />
    <glyph glyph-name="sterling" unicode="&#xa3;" horiz-adv-x="485" 
d="M370 -10h-253q-12 0 -20 8t-8 19q0 5 3 11q54 124 51 249h-63q-11 0 -19 8t-8 19t8 19t19 8h59q-11 61 -37 125l1 -1q-14 36 -14 64q0 71 51 120q50 51 120 51q72 0 123 -51q15 -15 21 -26q6 -7 6 -17q0 -12 -7.5 -19t-18.5 -7q-13 0 -20 7q-10 14 -20 24q-34 34 -84 34
q-47 0 -82 -35q-34 -33 -34 -81q0 -22 9 -43q27 -64 40 -145h140q12 0 20 -8t8 -19t-8 -19t-20 -8h-136q2 -114 -40 -233h196l30 60q6 11 22 11q12 0 20 -7t8 -19q0 -7 -3 -13l-35 -70q-1 -5 -5 -8q-11 -8 -20 -8z" />
    <glyph glyph-name="currency" unicode="&#xa4;" horiz-adv-x="755" 
d="M91 149l82 82q-55 68 -55 157t55 157l-82 83q-22 23 1 46q10 10 23 10t22 -9l82 -84q69 56 158 56q88 0 156 -55l83 82q22 22 46 -1q10 -10 9.5 -23t-9.5 -22l-82 -82q56 -69 56 -158t-56 -158l82 -80q10 -10 9.5 -23t-9.5 -22q-23 -23 -46 -2l-82 81q-68 -55 -157 -55
t-158 56l-82 -82q-9 -10 -22 -9.5t-23 9.5q-24 24 -1 46zM169 388q0 -86 61 -147t147 -61t146.5 61t60.5 147t-61 146.5t-146 60.5q-86 0 -147 -60.5t-61 -146.5z" />
    <glyph glyph-name="yen" unicode="&#xa5;" horiz-adv-x="623" 
d="M556 685q23 -16 5 -40l-183 -248h82q11 0 19.5 -8t8.5 -20q0 -11 -8.5 -19t-19.5 -8h-122v-77h122q11 0 19.5 -8t8.5 -20q0 -11 -8.5 -19t-19.5 -8h-122v-189q0 -30 -27 -30t-27 30v189h-121q-11 0 -19 8t-8 19q0 12 8 20t19 8h121v77h-121q-11 0 -19 8t-8 19q0 12 8 20
t19 8h82l-183 248q-18 24 5 40q23 15 40 -10l204 -278h1l204 279q17 24 40 9z" />
    <glyph glyph-name="brokenbar" unicode="&#xa6;" horiz-adv-x="217" 
d="M68 -204v324q0 15 9.5 25.5t24.5 10.5t24.5 -10.5t9.5 -25.5v-324q0 -15 -9.5 -25.5t-24.5 -10.5t-24.5 10.5t-9.5 25.5zM68 338v316q0 16 9 26t24 10t25 -10.5t10 -25.5v-316q0 -15 -10 -25.5t-25 -10.5t-24 10t-9 26z" />
    <glyph glyph-name="section" unicode="&#xa7;" 
d="M281 63q-71 -2 -122 49.5t-51 121.5q0 91 79 143q-79 51 -79 144q0 70 51.5 119.5t121.5 49.5q72 0 122.5 -49t50.5 -120q0 -12 -7.5 -20t-19.5 -8q-11 0 -19 8t-8 20q0 47 -36 81t-83 34q-48 0 -83 -33.5t-35 -81.5q0 -50 34.5 -83.5t83.5 -33.5q71 0 122 -49.5
t51 -120.5q0 -94 -78 -144q78 -49 78 -143q0 -72 -50.5 -121t-122.5 -49t-122.5 49t-50.5 121q0 11 8 19t19 8q12 0 20 -8t8 -19q0 -48 35 -82t83 -34t83.5 34t35.5 82t-36 82t-83 34zM281 350q-47 2 -82.5 -33.5t-35.5 -82.5q0 -48 35 -82.5t83 -34.5t83.5 34.5t35.5 82.5
q0 47 -36 81.5t-83 34.5z" />
    <glyph glyph-name="dieresis" unicode="&#xa8;" horiz-adv-x="432" 
d="M140 759q-15 0 -26.5 11t-11.5 27q0 17 11 27.5t27 10.5q17 0 27.5 -10.5t10.5 -27.5q0 -16 -10.5 -27t-27.5 -11zM302 759q-16 0 -27 11t-11 27q0 17 11 27.5t27 10.5t27 -10.5t11 -27.5q0 -16 -11.5 -27t-26.5 -11z" />
    <glyph glyph-name="copyright" unicode="&#xa9;" horiz-adv-x="985" 
d="M486 690q142 0 247.5 -103.5t103.5 -244.5q-2 -142 -104.5 -247t-246.5 -105q-137 0 -243.5 104t-106.5 248q0 138 102.5 243t247.5 105zM486 58q113 0 197.5 84.5t86.5 200.5q0 112 -85 195.5t-199 83.5q-112 0 -197 -84.5t-85 -195.5q0 -112 84.5 -198t197.5 -86z
M583 238q9 9 20.5 7.5t20.5 -10.5q16 -20 -3 -39q-52 -53 -132 -53q-79 0 -139 56.5t-60 140.5q0 83 58.5 140.5t140.5 57.5q67 0 121 -42q22 -22 5 -41q-7 -8 -19 -10t-22 4q-44 29 -85 29q-56 0 -95.5 -40.5t-39.5 -97.5q0 -56 39.5 -96.5t95.5 -40.5q62 0 94 35z" />
    <glyph glyph-name="ordfeminine" unicode="&#xaa;" horiz-adv-x="312" 
d="M67 284h179q23 0 23 -18q0 -19 -23 -19h-179q-24 0 -24 19q0 18 24 18zM228 610q28 -24 28 -67v-174q-1 -19 -19 -19h-124q-38 3 -61 29q-24 30 -24 74q0 36 25 64q24 29 60 29h105q-2 27 -15 37q-26 23 -82 15q-19 -3 -38 -15q-15 -8 -25 5q-5 10 -4 14q2 8 11 14
q1 0 5 2.5t9.5 5t15 5.5t18.5 5q10 5 50.5 0.5t64.5 -24.5zM218 509h-105q-20 0 -34 -17.5t-14 -38.5q0 -25 14 -46t34 -21h105v123z" />
    <glyph glyph-name="guillemotleft" unicode="&#xab;" horiz-adv-x="546" 
d="M228 470q21 0 34 -20t1 -40l-95 -180l96 -180q12 -20 -0.5 -40t-34.5 -20q-24 0 -38 24l-102 196q-10 23 -1 43l103 193q15 24 37 24zM363 230l95 -180q9 -21 -2 -40.5t-34 -19.5t-38 24l-101 196q-12 19 -1 43l102 191q15 25 37 25q21 0 33 -19.5t2 -40.5z" />
    <glyph glyph-name="logicalnot" unicode="&#xac;" horiz-adv-x="679" 
d="M136 58h404q15 0 26.5 -11t11.5 -26v-121q0 -15 -10 -28t-24 -13t-24 13t-10 28v90h-374q-14 0 -24.5 10.5t-10.5 25.5t10 23.5t25 8.5z" />
    <glyph glyph-name="uni00AD" unicode="&#xad;" horiz-adv-x="533" 
d="M136 330h225q14 0 24 -11t10 -25q0 -15 -9.5 -23.5t-24.5 -8.5h-225q-15 0 -24.5 9t-9.5 24q0 14 10 24.5t24 10.5z" />
    <glyph glyph-name="registered" unicode="&#xae;" horiz-adv-x="937" 
d="M550 283l56 -82q6 -11 3.5 -23.5t-13.5 -17.5q-9 -7 -22.5 -3t-18.5 15l-63 99h-78v-84q0 -13 -7.5 -22.5t-20.5 -9.5q-15 0 -22.5 9.5t-7.5 22.5v314q0 31 31 31h120q51 -2 86.5 -40t35.5 -90q0 -37 -21.5 -70t-57.5 -49zM414 329h93q27 5 46 27t19 46q0 26 -20.5 49.5
t-52.5 23.5h-85v-146zM471 690q146 0 248.5 -102t102.5 -248t-102.5 -248t-248.5 -102q-145 0 -247.5 102t-102.5 248t102.5 248t247.5 102zM471 58q117 0 200 82t83 199t-83.5 200t-200.5 83t-199 -83t-82 -200t82.5 -199t199.5 -82z" />
    <glyph glyph-name="macron" unicode="&#xaf;" horiz-adv-x="442" 
d="M122 690h203q14 0 24 -11t10 -25q0 -15 -9.5 -23t-24.5 -8h-203q-15 0 -24.5 8.5t-9.5 23.5q0 14 10 24.5t24 10.5z" />
    <glyph glyph-name="degree" unicode="&#xb0;" horiz-adv-x="370" 
d="M286 593q0 42 -29.5 71.5t-71.5 29.5q-43 0 -71.5 -29t-28.5 -72q0 -42 28.5 -71t71.5 -29q42 0 71.5 29t29.5 71zM320 593q0 -56 -39.5 -95.5t-95.5 -39.5t-95.5 39.5t-39.5 95.5t39.5 95.5t95.5 39.5t95.5 -39.5t39.5 -95.5z" />
    <glyph glyph-name="plusminus" unicode="&#xb1;" horiz-adv-x="560" 
d="M103 107h339q14 0 24 -11t10 -25q0 -15 -9.5 -23.5t-24.5 -8.5h-339q-15 0 -24.5 9t-9.5 24q0 14 10 24.5t24 10.5zM306 471h137q14 0 24 -11t10 -25q0 -15 -9.5 -23.5t-24.5 -8.5h-137v-137q0 -14 -11 -24t-25 -10q-15 0 -23.5 9.5t-8.5 24.5v137h-134q-15 0 -24.5 9
t-9.5 24q0 14 10 24.5t24 10.5h134v134q0 15 9 24.5t24 9.5q14 0 24.5 -10t10.5 -24v-134z" />
    <glyph glyph-name="twosuperior" unicode="&#xb2;" horiz-adv-x="311" 
d="M81 367h155q19 0 19 -16q0 -8 -6 -13t-13 -5h-190q-13 0 -17 13q-4 10 3 20h1l158 146q29 31 29 59q0 41 -23.5 64t-54.5 23q-33 0 -56.5 -22.5t-23.5 -64.5q0 -18 -17 -18t-17 18q0 51 29.5 85.5t84.5 34.5q53 -1 82.5 -34t29.5 -86q0 -49 -41 -84z" />
    <glyph glyph-name="threesuperior" unicode="&#xb3;" horiz-adv-x="417" 
d="M316 429q0 -46 -32 -73.5t-88 -27.5q-36 0 -63 9q-34 9 -34 27q0 8 6 14t14 6q9 0 31 -12q21 -8 44 -8q37 0 58.5 19t21.5 49q0 44 -44 59q-10 4 -27 4.5t-23 2.5q-12 4 -12 17t12 17q3 0 22 2t28 6q32 14 32 52q0 25 -17 42.5t-48 17.5q-24 0 -43 -10q-22 -10 -27 -10
q-21 0 -21 19q0 12 20 23q36 17 74 17q47 0 75 -27t28 -67q0 -57 -53 -79q66 -23 66 -89z" />
    <glyph glyph-name="acute" unicode="&#xb4;" horiz-adv-x="417" 
d="M138 592q0 8 6 19l76 138q12 21 28 21q13 0 21.5 -8.5t8.5 -19.5q0 -8 -8 -22l-81 -134q-11 -18 -26 -18q-10 0 -17.5 6.5t-7.5 17.5z" />
    <glyph glyph-name="mu" unicode="&#xb5;" horiz-adv-x="546" 
d="M65 -139v564q0 15 10.5 25t26.5 10q15 0 25.5 -10t10.5 -25v-228q0 -56 19 -88q32 -54 116 -54q86 0 116 54q18 30 18 88v228q0 15 11 25t26 10t26 -10t11 -25v-234q0 -76 -34 -128q-48 -73 -174 -73q-83 0 -135 34v-163q0 -14 -11 -24.5t-25 -10.5q-16 0 -26.5 10.5
t-10.5 24.5z" />
    <glyph glyph-name="mu" unicode="&#x3bc;" horiz-adv-x="546" 
d="M65 -139v564q0 15 10.5 25t26.5 10q15 0 25.5 -10t10.5 -25v-228q0 -56 19 -88q32 -54 116 -54q86 0 116 54q18 30 18 88v228q0 15 11 25t26 10t26 -10t11 -25v-234q0 -76 -34 -128q-48 -73 -174 -73q-83 0 -135 34v-163q0 -14 -11 -24.5t-25 -10.5q-16 0 -26.5 10.5
t-10.5 24.5z" />
    <glyph glyph-name="paragraph" unicode="&#xb6;" horiz-adv-x="620" 
d="M485 655v-822q0 -14 -10 -23t-24 -9t-23.5 9t-9.5 23v822h-117v-822q0 -14 -9.5 -23t-23.5 -9t-24 9t-10 23l1 479q-93 5 -145 59t-52 144q0 97 59.5 149.5t170.5 52.5h306q12 0 21 -9.5t9 -21.5q0 -14 -9 -22.5t-21 -8.5h-89z" />
    <glyph glyph-name="periodcentered" unicode="&#xb7;" horiz-adv-x="192" 
d="M145 345q0 -20 -14 -34t-34 -14t-34 14t-14 34t14 34t34 14t34 -14t14 -34z" />
    <glyph glyph-name="cedilla" unicode="&#xb8;" horiz-adv-x="400" 
d="M297 -110q0 -45 -37 -66.5t-88 -21.5q-21 0 -36 4q-17 6 -17 20q0 8 6 14t14 6q5 0 16 -1.5t21 -1.5q29 0 50 11.5t21 36.5q0 42 -62 42q-11 0 -17 6.5t-4 17.5l5 53h38l1 -45q39 -3 64 -23t25 -52z" />
    <glyph glyph-name="onesuperior" unicode="&#xb9;" horiz-adv-x="417" 
d="M217 691q22 0 22 -23v-295h60q19 0 19 -20t-19 -20h-173q-8 0 -14 6t-6 14t6 14t14 6h67v268l-55 -21q-8 -4 -15 -4q-19 0 -19 19q0 15 17 21l82 32q12 3 14 3z" />
    <glyph glyph-name="ordmasculine" unicode="&#xba;" horiz-adv-x="385" 
d="M95 550q0 -40 24 -67q28 -33 73 -33q44 0 74 33q24 27 24 67t-24 67q-30 34 -74 34t-73 -34q-24 -27 -24 -67zM49 550q0 57 35 95q43 46 108 46q66 0 109 -46q35 -38 35 -95t-35 -95q-44 -46 -109 -46q-64 0 -108 46q-35 38 -35 95zM108 328h179q23 0 23 -18
q0 -19 -23 -19h-179q-24 0 -24 19q0 18 24 18z" />
    <glyph glyph-name="guillemotright" unicode="&#xbb;" horiz-adv-x="546" 
d="M317 470q22 0 37 -24l103 -193q11 -23 -1 -43l-102 -196q-14 -24 -38 -24q-22 0 -34.5 20t-0.5 40l96 180l-95 180q-12 19 1 39.5t34 20.5zM87 50l95 180l-93 179q-10 21 1.5 40.5t33.5 19.5t37 -25l102 -191q11 -24 -1 -43l-101 -196q-15 -24 -38 -24q-22 0 -34 20
t-2 40z" />
    <glyph glyph-name="onequarter" unicode="&#xbc;" horiz-adv-x="853" 
d="M583 689q7 -2 11 -5.5t3.5 -9t-1 -8t-2.5 -8.5l-3 -6l-317 -631q-10 -20 -18 -25.5t-21 1.5q-13 8 -13.5 18.5t8.5 27.5l317 629q5 9 6.5 11.5t6 7t10 3.5t13.5 -5zM187 301q-23 0 -23 29v317l-33 -35q-3 -1 -7 -4t-6 -4t-5.5 -2t-6.5 0.5t-7 4.5q-16 18 7 33l12 12
q12 12 25.5 23.5t14.5 11.5q23 9 35.5 -1.5t12.5 -24.5v-331q0 -29 -19 -29zM637 301l-142 -217h142v217zM673 84h32q21 0 21 -17q0 -19 -21 -19h-32v-38q0 -12 -3.5 -16.5t-14.5 -4.5t-14.5 4.5t-3.5 16.5v38h-164q-14 0 -19 12.5t3 23.5l174 279q1 2 4 6t4 5.5t3.5 4
t5.5 3t6 0.5q19 0 19 -25v-273z" />
    <glyph glyph-name="onehalf" unicode="&#xbd;" horiz-adv-x="825" 
d="M583 689q7 -2 11 -5.5t3.5 -9t-1 -8t-2.5 -8.5l-3 -6l-317 -631q-10 -20 -18 -25.5t-21 1.5q-13 8 -13.5 18.5t8.5 27.5l317 629q5 9 6.5 11.5t6 7t10 3.5t13.5 -5zM533 27h170q20 0 20 -19q0 -8 -6 -13.5t-14 -5.5h-208q-10 0 -19 13q-5 14 5 24l172 159q32 30 32 63
q0 45 -25.5 70t-59.5 25q-36 0 -61.5 -24.5t-25.5 -70.5q0 -19 -20 -19q-7 0 -12.5 5.5t-5.5 13.5q0 57 32 93.5t93 38.5q58 -1 90 -37t32 -95q0 -54 -46 -91zM238 297q-19 0 -19 22v328l-39 -28q-18 -7 -28 9q-8 16 12 29l27 16q27 16 28 16q17 7 27.5 -1t10.5 -19v-350
q0 -22 -19 -22z" />
    <glyph glyph-name="threequarters" unicode="&#xbe;" horiz-adv-x="818" 
d="M583 689q7 -2 11 -5.5t3.5 -9t-1 -8t-2.5 -8.5l-3 -6l-317 -631q-10 -20 -18 -25.5t-21 1.5q-13 8 -13.5 18.5t8.5 27.5l317 629q5 9 6.5 11.5t6 7t10 3.5t13.5 -5zM637 301l-142 -217h142v217zM673 84h32q21 0 21 -17q0 -19 -21 -19h-32v-38q0 -12 -3.5 -16.5
t-14.5 -4.5t-14.5 4.5t-3.5 16.5v38h-164q-14 0 -19 12.5t3 23.5l174 279q1 2 4 6t4 5.5t3.5 4t5.5 3t6 0.5q19 0 19 -25v-273zM270 498q57 -34 57 -90q0 -42 -33 -75q-34 -30 -80 -30h-15q-42 0 -77.5 29.5t-35.5 70.5q0 7 4.5 12.5t12.5 5.5q6 2 11 -3q6 -5 6 -11
q3 -28 25 -49t54 -21h15q30 0 54.5 20t24.5 51q0 32 -24.5 51t-54.5 19h-24q-19 0 -19 16q0 19 18 19h25q23 0 47 21q26 24 26 50q0 29 -23 50t-55 22q-51 -2 -71 -44q-11 -15 -26 -8q-14 11 -6 26q18 33 46 46q26 14 57 14q45 0 77 -29q34 -31 34 -77q0 -53 -50 -86z" />
    <glyph glyph-name="questiondown" unicode="&#xbf;" horiz-adv-x="546" 
d="M429 195q0 12 8 20t20 8q11 0 19 -7.5t8 -19.5q0 -86 -62 -146.5t-146 -60.5q-86 0 -146.5 62t-60.5 145q0 43 18.5 80.5t44.5 65.5t52.5 54t45 58t18.5 67q0 11 8 19t20 8q11 0 18.5 -8t7.5 -19q0 -39 -18.5 -74.5t-45 -63t-52.5 -54.5t-44.5 -61t-18.5 -72
q0 -64 45.5 -108t107.5 -44q63 0 108 45t45 106zM271 622q-14 0 -24.5 10t-10.5 24q0 16 10.5 25.5t25.5 9.5q14 0 24.5 -9.5t10.5 -25.5q0 -14 -11 -24t-25 -10z" />
    <glyph glyph-name="Agrave" unicode="&#xc0;" horiz-adv-x="691" 
d="M345 616q-85 0 -138 -59q-54 -59 -54 -162v-87h385v87q0 101 -55 162q-54 59 -138 59zM618 397v-368q0 -16 -12 -27.5t-28 -11.5q-17 0 -28.5 11.5t-11.5 27.5v208h-385v-208q0 -16 -11.5 -27.5t-28.5 -11.5t-28.5 11.5t-11.5 27.5v368q0 134 84 219q74 74 188 74
q117 0 189 -74q84 -88 84 -219zM416 794q0 -24 -26 -24q-16 0 -26 18l-81 134q-8 14 -8 22q0 11 9 19.5t21 8.5q15 0 28 -21l77 -138q6 -11 6 -19z" />
    <glyph glyph-name="Aacute" unicode="&#xc1;" horiz-adv-x="691" 
d="M345 616q-85 0 -138 -59q-54 -59 -54 -162v-87h385v87q0 101 -55 162q-54 59 -138 59zM618 397v-368q0 -16 -12 -27.5t-28 -11.5q-17 0 -28.5 11.5t-11.5 27.5v208h-385v-208q0 -16 -11.5 -27.5t-28.5 -11.5t-28.5 11.5t-11.5 27.5v368q0 134 84 219q74 74 188 74
q117 0 189 -74q84 -88 84 -219zM275 794q0 8 6 19l76 138q12 21 28 21q13 0 21.5 -8.5t8.5 -19.5q0 -8 -8 -22l-81 -134q-11 -18 -26 -18q-10 0 -17.5 6.5t-7.5 17.5z" />
    <glyph glyph-name="Acircumflex" unicode="&#xc2;" horiz-adv-x="691" 
d="M345 616q-85 0 -138 -59q-54 -59 -54 -162v-87h385v87q0 101 -55 162q-54 59 -138 59zM618 397v-368q0 -16 -12 -27.5t-28 -11.5q-17 0 -28.5 11.5t-11.5 27.5v208h-385v-208q0 -16 -11.5 -27.5t-28.5 -11.5t-28.5 11.5t-11.5 27.5v368q0 134 84 219q74 74 188 74
q117 0 189 -74q84 -88 84 -219zM345 971q12 0 24 -12l123 -127q13 -15 13 -22q0 -12 -7.5 -19.5t-19.5 -7.5q-11 0 -19 8l-114 117l-113 -117q-8 -8 -19 -8q-12 0 -19.5 7.5t-7.5 19.5q0 10 12 22l124 127q12 12 23 12z" />
    <glyph glyph-name="Atilde" unicode="&#xc3;" horiz-adv-x="691" 
d="M345 616q-85 0 -138 -59q-54 -59 -54 -162v-87h385v87q0 101 -55 162q-54 59 -138 59zM618 397v-368q0 -16 -12 -27.5t-28 -11.5q-17 0 -28.5 11.5t-11.5 27.5v208h-385v-208q0 -16 -11.5 -27.5t-28.5 -11.5t-28.5 11.5t-11.5 27.5v368q0 134 84 219q74 74 188 74
q117 0 189 -74q84 -88 84 -219zM510 910q0 -21 -21 -42q-25 -28 -70 -28q-38 0 -79 27q-3 2 -12 7.5t-12.5 8t-11 5.5t-13.5 4.5t-13 1.5q-23 0 -41.5 -22t-30.5 -22q-11 0 -18 7.5t-7 18.5q0 20 22 42q27 29 70 29q39 0 79 -26q3 -2 12.5 -8.5t13 -8.5t10.5 -5.5t13 -5
t13 -1.5q22 0 41 22.5t31 22.5q11 0 17.5 -7.5t6.5 -19.5z" />
    <glyph glyph-name="Adieresis" unicode="&#xc4;" horiz-adv-x="691" 
d="M345 616q-85 0 -138 -59q-54 -59 -54 -162v-87h385v87q0 101 -55 162q-54 59 -138 59zM618 397v-368q0 -16 -12 -27.5t-28 -11.5q-17 0 -28.5 11.5t-11.5 27.5v208h-385v-208q0 -16 -11.5 -27.5t-28.5 -11.5t-28.5 11.5t-11.5 27.5v368q0 134 84 219q74 74 188 74
q117 0 189 -74q84 -88 84 -219zM251 825q-18 0 -31 13t-13 32q0 18 13 30.5t31 12.5q19 0 31.5 -12.5t12.5 -30.5q0 -19 -12.5 -32t-31.5 -13zM439 825q-18 0 -31 13t-13 32q0 18 13 30.5t31 12.5t31 -12.5t13 -30.5q0 -19 -13 -32t-31 -13z" />
    <glyph glyph-name="Aring" unicode="&#xc5;" horiz-adv-x="691" 
d="M345 616q-85 0 -138 -59q-54 -59 -54 -162v-87h385v87q0 101 -55 162q-54 59 -138 59zM618 397v-368q0 -16 -12 -27.5t-28 -11.5q-17 0 -28.5 11.5t-11.5 27.5v208h-385v-208q0 -16 -11.5 -27.5t-28.5 -11.5t-28.5 11.5t-11.5 27.5v368q0 134 84 219q74 74 188 74
q117 0 189 -74q84 -88 84 -219zM460 862q0 -49 -33.5 -82.5t-81.5 -33.5t-82 33.5t-34 82.5q0 48 34 82t82 34t81.5 -34t33.5 -82zM424 862q0 33 -23 56.5t-56 23.5t-56 -23.5t-23 -56.5q0 -34 23 -57t56 -23t56 23t23 57z" />
    <glyph glyph-name="AE" unicode="&#xc6;" horiz-adv-x="1006" 
d="M610 306v-235h330q14 0 24 -11t10 -25t-10 -24.5t-24 -10.5h-370q-17 0 -28.5 11.5t-11.5 27.5v198h-377v-208q0 -16 -11.5 -27.5t-28.5 -11.5t-28.5 11.5t-11.5 27.5v368q0 133 83 219q71 74 186 74q113 0 188 -77v29q0 16 11.5 27.5t28.5 11.5h370q14 0 24 -10.5
t10 -24.5q0 -15 -10 -25.5t-24 -10.5h-330v-233h278q14 0 24.5 -11t10.5 -25t-10.5 -24.5t-24.5 -10.5h-278zM342 616q-84 0 -136 -59q-53 -61 -53 -162v-87h377v87q0 101 -53 162q-52 59 -135 59z" />
    <glyph glyph-name="Ccedilla" unicode="&#xc7;" horiz-adv-x="659" 
d="M508 -110q0 -45 -37 -66.5t-88 -21.5q-21 0 -36 4q-17 6 -17 20q0 8 6 14t14 6q4 0 15 -1.5t22 -1.5q29 0 50 11.5t21 36.5q0 42 -62 42q-10 0 -16.5 6.5t-4.5 17.5l3 34q-142 8 -236.5 104t-94.5 246q0 143 105.5 246t250.5 103q92 0 167 -33q48 -20 48 -50
q0 -17 -10.5 -27t-26.5 -10q-7 0 -16.5 4.5t-25.5 13t-32 14.5q-48 16 -105 16q-111 0 -191.5 -81.5t-80.5 -195.5q0 -122 79.5 -200.5t192.5 -78.5q55 0 106 17q18 6 35 14.5t26.5 13.5t16.5 5q15 0 26 -10.5t11 -26.5q0 -27 -49 -50q-65 -31 -156 -35l1 -25q39 -3 64 -23
t25 -52z" />
    <glyph glyph-name="Egrave" unicode="&#xc8;" horiz-adv-x="602" 
d="M242 955l77 -131q9 -17 -7 -27q-7 -4 -14.5 -2t-10.5 8l-94 123q-5 9 -2.5 20.5t12.5 17.5q24 15 39 -9zM457 -10h-374q-10 0 -21 8q-8 11 -8 21v641q0 13 8 21q9 9 21 9h374q29 0 29 -27t-29 -27h-349v-269h267q30 0 30 -27q0 -15 -10 -21.5t-20 -6.5h-267v-268h349
q9 0 19 -7t10 -22q0 -25 -29 -25z" />
    <glyph glyph-name="Eacute" unicode="&#xc9;" horiz-adv-x="602" 
d="M155 306v-235h381q14 0 24 -10.5t10 -25.5q0 -14 -10 -24.5t-24 -10.5h-421q-17 0 -28.5 11.5t-11.5 27.5v603q0 16 11.5 27.5t28.5 11.5h421q14 0 24 -10.5t10 -24.5q0 -15 -10 -25.5t-24 -10.5h-381v-233h329q15 0 25 -10.5t10 -25.5q0 -14 -10 -24.5t-25 -10.5h-329z
M244 794q0 8 6 19l76 138q12 21 28 21q13 0 21.5 -8.5t8.5 -19.5q0 -8 -8 -22l-81 -134q-11 -18 -26 -18q-10 0 -17.5 6.5t-7.5 17.5z" />
    <glyph glyph-name="Ecircumflex" unicode="&#xca;" horiz-adv-x="602" 
d="M155 306v-235h381q14 0 24 -10.5t10 -25.5q0 -14 -10 -24.5t-24 -10.5h-421q-17 0 -28.5 11.5t-11.5 27.5v603q0 16 11.5 27.5t28.5 11.5h421q14 0 24 -10.5t10 -24.5q0 -15 -10 -25.5t-24 -10.5h-381v-233h329q15 0 25 -10.5t10 -25.5q0 -14 -10 -24.5t-25 -10.5h-329z
M307 971q12 0 24 -12l123 -127q13 -15 13 -22q0 -12 -7.5 -19.5t-19.5 -7.5q-11 0 -19 8l-114 117l-113 -117q-8 -8 -19 -8q-12 0 -19.5 7.5t-7.5 19.5q0 10 12 22l124 127q12 12 23 12z" />
    <glyph glyph-name="Edieresis" unicode="&#xcb;" horiz-adv-x="570" 
d="M224 873q19 0 32.5 -13t13.5 -33q0 -19 -13 -32.5t-33 -13.5q-18 0 -32 13.5t-14 32.5q0 18 13 32t33 14zM386 873q19 0 32.5 -13t13.5 -33q0 -19 -13.5 -32.5t-32.5 -13.5t-32.5 13.5t-13.5 32.5q0 18 13 31.5t33 14.5zM157 73h327q39 0 39 -41q0 -19 -10.5 -30.5
t-28.5 -11.5h-367q-17 0 -30.5 13.5t-13.5 30.5v620q0 19 13 32.5t31 13.5h365q41 0 41 -43q0 -40 -41 -40h-325v-234h250q37 0 37 -42q0 -18 -10 -29.5t-27 -11.5h-250v-227z" />
    <glyph glyph-name="Igrave" unicode="&#xcc;" horiz-adv-x="230" 
d="M75 29v622q0 16 11.5 27.5t28.5 11.5t28.5 -11.5t11.5 -27.5v-622q0 -16 -11.5 -27.5t-28.5 -11.5t-28.5 11.5t-11.5 27.5zM188 794q0 -24 -26 -24q-16 0 -26 18l-81 134q-8 14 -8 22q0 11 9 19.5t21 8.5q15 0 28 -21l77 -138q6 -11 6 -19z" />
    <glyph glyph-name="Iacute" unicode="&#xcd;" horiz-adv-x="230" 
d="M75 29v622q0 16 11.5 27.5t28.5 11.5t28.5 -11.5t11.5 -27.5v-622q0 -16 -11.5 -27.5t-28.5 -11.5t-28.5 11.5t-11.5 27.5zM47 794q0 8 6 19l76 138q12 21 28 21q13 0 21.5 -8.5t8.5 -19.5q0 -8 -8 -22l-81 -134q-10 -18 -26 -18q-10 0 -17.5 6.5t-7.5 17.5z" />
    <glyph glyph-name="Icircumflex" unicode="&#xce;" horiz-adv-x="230" 
d="M75 29v622q0 16 11.5 27.5t28.5 11.5t28.5 -11.5t11.5 -27.5v-622q0 -16 -11.5 -27.5t-28.5 -11.5t-28.5 11.5t-11.5 27.5zM117 971q12 0 24 -12l123 -127q13 -15 13 -22q0 -12 -7.5 -19.5t-19.5 -7.5q-11 0 -19 8l-114 117l-113 -117q-8 -8 -19 -8q-12 0 -19.5 7.5
t-7.5 19.5q0 10 12 22l124 127q12 12 23 12z" />
    <glyph glyph-name="Idieresis" unicode="&#xcf;" horiz-adv-x="274" 
d="M52 873q19 0 32.5 -13t13.5 -33q0 -19 -13 -32.5t-33 -13.5q-18 0 -32 13.5t-14 32.5q0 18 13 32t33 14zM214 873q19 0 32.5 -13t13.5 -33q0 -19 -13.5 -32.5t-32.5 -13.5t-32.5 13.5t-13.5 32.5q0 18 13 31.5t33 14.5zM176 664v-643q0 -13 -11 -24.5t-31 -11.5
q-21 0 -32 11.5t-11 24.5v644q0 40 43 40q20 0 31 -12.5t11 -28.5z" />
    <glyph glyph-name="Eth" unicode="&#xd0;" horiz-adv-x="743" 
d="M303 306h-143v-238h150q114 0 186 42q118 66 118 230q0 117 -63 188q-73 85 -231 85h-160v-239h143q14 0 23.5 -10t9.5 -24t-9.5 -24t-23.5 -10zM80 39v267h-69q-14 0 -23.5 10t-9.5 24t9.5 24t23.5 10h69v268q0 16 11.5 27.5t28.5 11.5h213q188 0 284 -107
q79 -90 79 -234q0 -176 -127 -270q-96 -70 -251 -70h-198q-17 0 -28.5 11.5t-11.5 27.5z" />
    <glyph glyph-name="Ntilde" unicode="&#xd1;" horiz-adv-x="740" 
d="M665 653v-620q0 -18 -13 -30.5t-33 -12.5q-21 0 -40 22l-427 538v-524q0 -15 -11 -25.5t-28 -10.5t-27.5 10.5t-10.5 25.5v621q0 17 13 30t32 13q24 0 40 -22l428 -538v523q0 15 11 26t28 11q16 0 27 -11t11 -26zM535 910q0 -21 -21 -42q-25 -28 -70 -28q-38 0 -79 27
q-3 2 -12 7.5t-12.5 8t-11 5.5t-13.5 4.5t-13 1.5q-23 0 -41.5 -22t-30.5 -22q-11 0 -18 7.5t-7 18.5q0 20 22 42q27 29 70 29q39 0 79 -26q3 -2 12.5 -8.5t13 -8.5t10.5 -5.5t13 -5t13 -1.5q22 0 41 22.5t31 22.5q11 0 17.5 -7.5t6.5 -19.5z" />
    <glyph glyph-name="Ograve" unicode="&#xd2;" horiz-adv-x="806" 
d="M759 339q0 -147 -104 -248t-252 -101t-252 101.5t-104 247.5q0 147 104 249t252 102t252 -102t104 -249zM675 339q0 114 -79 195t-193 81q-113 0 -192 -81t-79 -195t78.5 -194.5t192.5 -80.5t193 80.5t79 194.5zM473 794q0 -24 -26 -24q-15 0 -26 18l-81 134q-8 14 -8 22
q0 11 9 19.5t21 8.5q15 0 28 -21l77 -138q6 -11 6 -19z" />
    <glyph glyph-name="Oacute" unicode="&#xd3;" horiz-adv-x="806" 
d="M759 339q0 -147 -104 -248t-252 -101t-252 101.5t-104 247.5q0 147 104 249t252 102t252 -102t104 -249zM675 339q0 114 -79 195t-193 81q-113 0 -192 -81t-79 -195t78.5 -194.5t192.5 -80.5t193 80.5t79 194.5zM333 794q0 8 6 19l76 138q12 21 28 21q13 0 21.5 -8.5
t8.5 -19.5q0 -8 -8 -22l-81 -134q-10 -18 -26 -18q-10 0 -17.5 6.5t-7.5 17.5z" />
    <glyph glyph-name="Ocircumflex" unicode="&#xd4;" horiz-adv-x="806" 
d="M759 339q0 -147 -104 -248t-252 -101t-252 101.5t-104 247.5q0 147 104 249t252 102t252 -102t104 -249zM675 339q0 114 -79 195t-193 81q-113 0 -192 -81t-79 -195t78.5 -194.5t192.5 -80.5t193 80.5t79 194.5zM402 971q12 0 24 -12l123 -127q13 -15 13 -22
q0 -12 -7.5 -19.5t-19.5 -7.5q-11 0 -19 8l-114 117l-113 -117q-8 -8 -19 -8q-12 0 -19.5 7.5t-7.5 19.5q0 10 12 22l124 127q12 12 23 12z" />
    <glyph glyph-name="Otilde" unicode="&#xd5;" horiz-adv-x="806" 
d="M759 339q0 -147 -104 -248t-252 -101t-252 101.5t-104 247.5q0 147 104 249t252 102t252 -102t104 -249zM675 339q0 114 -79 195t-193 81q-113 0 -192 -81t-79 -195t78.5 -194.5t192.5 -80.5t193 80.5t79 194.5zM566 910q0 -21 -21 -42q-25 -28 -70 -28q-38 0 -79 27
q-3 2 -12 7.5t-12.5 8t-11 5.5t-13.5 4.5t-13 1.5q-23 0 -41.5 -22t-30.5 -22q-11 0 -18 7.5t-7 18.5q0 20 22 42q27 29 70 29q39 0 79 -26q3 -2 12.5 -8.5t13 -8.5t10.5 -5.5t13 -5t13 -1.5q22 0 41 22.5t31 22.5q11 0 17.5 -7.5t6.5 -19.5z" />
    <glyph glyph-name="Odieresis" unicode="&#xd6;" horiz-adv-x="806" 
d="M759 339q0 -147 -104 -248t-252 -101t-252 101.5t-104 247.5q0 147 104 249t252 102t252 -102t104 -249zM675 339q0 114 -79 195t-193 81q-113 0 -192 -81t-79 -195t78.5 -194.5t192.5 -80.5t193 80.5t79 194.5zM308 825q-18 0 -31 13t-13 32q0 18 13 30.5t31 12.5
q19 0 31.5 -12.5t12.5 -30.5q0 -19 -12.5 -32t-31.5 -13zM496 825q-18 0 -31 13t-13 32q0 18 13 30.5t31 12.5t31 -12.5t13 -30.5q0 -19 -13 -32t-31 -13z" />
    <glyph glyph-name="multiply" unicode="&#xd7;" horiz-adv-x="482" 
d="M241 402l148 148q25 24 49 0q11 -12 10.5 -25.5t-10.5 -23.5l-148 -148l148 -148q10 -10 10.5 -23.5t-10.5 -25.5q-24 -24 -49 0l-148 148l-148 -148q-26 -23 -49 0q-24 24 0 49l148 148l-148 148q-24 25 0 49q23 23 49 0z" />
    <glyph glyph-name="Oslash" unicode="&#xd8;" horiz-adv-x="806" 
d="M611 622l46 53q7 10 21 10q11 0 18.5 -8t7.5 -20q0 -11 -7 -18l-44 -51q106 -103 106 -249q0 -147 -104 -248t-251 -101q-117 0 -210 67l-46 -54q-7 -10 -21 -10q-11 0 -18.5 8t-7.5 20q0 11 7 18l44 52q-105 102 -105 248q0 147 105 249t252 102q114 0 207 -68zM675 339
q0 109 -77 186l-351 -408q65 -53 156 -53q112 0 192 81.5t80 193.5zM132 339q0 -109 75 -186l351 408q-66 54 -155 54q-112 0 -191.5 -82t-79.5 -194z" />
    <glyph glyph-name="Ugrave" unicode="&#xd9;" horiz-adv-x="722" 
d="M360 62q103 0 158 61q51 57 51 156v372q0 16 11.5 27.5t28.5 11.5t28.5 -11.5t11.5 -27.5v-382q0 -121 -66 -193q-75 -86 -222 -86t-222 86q-66 72 -66 193v382q0 16 11.5 27.5t28.5 11.5t28.5 -11.5t11.5 -27.5v-372q0 -99 51 -156q55 -61 156 -61zM430 794
q0 -24 -26 -24q-16 0 -26 18l-81 134q-8 14 -8 22q0 11 9 19.5t21 8.5q15 0 28 -21l77 -138q6 -11 6 -19z" />
    <glyph glyph-name="Uacute" unicode="&#xda;" horiz-adv-x="722" 
d="M360 62q103 0 158 61q51 57 51 156v372q0 16 11.5 27.5t28.5 11.5t28.5 -11.5t11.5 -27.5v-382q0 -121 -66 -193q-75 -86 -222 -86t-222 86q-66 72 -66 193v382q0 16 11.5 27.5t28.5 11.5t28.5 -11.5t11.5 -27.5v-372q0 -99 51 -156q55 -61 156 -61zM290 794q0 8 6 19
l76 138q12 21 28 21q13 0 21.5 -8.5t8.5 -19.5q0 -8 -8 -22l-81 -134q-11 -18 -26 -18q-10 0 -17.5 6.5t-7.5 17.5z" />
    <glyph glyph-name="Ucircumflex" unicode="&#xdb;" horiz-adv-x="722" 
d="M360 62q103 0 158 61q51 57 51 156v372q0 16 11.5 27.5t28.5 11.5t28.5 -11.5t11.5 -27.5v-382q0 -121 -66 -193q-75 -86 -222 -86t-222 86q-66 72 -66 193v382q0 16 11.5 27.5t28.5 11.5t28.5 -11.5t11.5 -27.5v-372q0 -99 51 -156q55 -61 156 -61zM360 971q12 0 24 -12
l123 -127q13 -15 13 -22q0 -12 -7.5 -19.5t-19.5 -7.5q-11 0 -19 8l-114 117l-113 -117q-8 -8 -19 -8q-12 0 -19.5 7.5t-7.5 19.5q0 10 12 22l124 127q12 12 23 12z" />
    <glyph glyph-name="Udieresis" unicode="&#xdc;" horiz-adv-x="722" 
d="M360 62q103 0 158 61q51 57 51 156v372q0 16 11.5 27.5t28.5 11.5t28.5 -11.5t11.5 -27.5v-382q0 -121 -66 -193q-75 -86 -222 -86t-222 86q-66 72 -66 193v382q0 16 11.5 27.5t28.5 11.5t28.5 -11.5t11.5 -27.5v-372q0 -99 51 -156q55 -61 156 -61zM260 825
q-18 0 -31 13t-13 32q0 18 13 30.5t31 12.5q19 0 31.5 -12.5t12.5 -30.5q0 -19 -12.5 -32t-31.5 -13zM448 825q-18 0 -31 13t-13 32q0 18 13 30.5t31 12.5t31 -12.5t13 -30.5q0 -19 -13 -32t-31 -13z" />
    <glyph glyph-name="Yacute" unicode="&#xdd;" horiz-adv-x="565" 
d="M556 624l-234 -325v-270q0 -16 -11.5 -27.5t-28.5 -11.5t-28.5 11.5t-11.5 27.5v270l-232 326q-9 13 -9 27q0 17 11 27.5t28 10.5q21 0 35 -20l207 -291l208 291q14 20 35 20q17 0 28 -11t11 -27q0 -14 -8 -28zM216 794q0 8 6 19l76 138q12 21 28 21q13 0 21.5 -8.5
t8.5 -19.5q0 -8 -8 -22l-81 -134q-11 -18 -26 -18q-10 0 -17.5 6.5t-7.5 17.5z" />
    <glyph glyph-name="Thorn" unicode="&#xde;" horiz-adv-x="626" 
d="M75 -107v758q0 16 11.5 27.5t28.5 11.5t28.5 -11.5t11.5 -27.5v-111h197q96 0 157 -47q80 -61 80 -177q0 -118 -86 -181q-59 -43 -161 -43h-187v-199q0 -16 -11.5 -27t-28.5 -11t-28.5 11t-11.5 27zM508 316q0 76 -52 119q-45 35 -116 35h-185v-308h174q80 0 121 30
q58 44 58 124z" />
    <glyph glyph-name="germandbls" unicode="&#xdf;" horiz-adv-x="557" 
d="M310 391q0 -13 15.5 -23.5t47 -23.5t46.5 -22q93 -54 93 -151q0 -76 -53 -128.5t-136 -52.5q-70 0 -120 24q-41 20 -41 47q0 33 29 33q10 0 39 -19q34 -22 91 -22q53 0 87 32.5t34 80.5q0 67 -71 103q-10 5 -34 16t-37 18.5t-29 19.5t-23.5 27.5t-7.5 34.5
q0 17 13.5 29.5t32 22t37.5 20.5t32.5 30.5t13.5 47.5q0 47 -29.5 71t-79.5 24q-52 0 -82.5 -32.5t-30.5 -100.5v-527q0 -15 -11 -25.5t-26 -10.5q-16 0 -27 10.5t-11 25.5v527q0 93 50 143t136 50q89 0 138 -37t49 -109q0 -32 -14 -56.5t-33.5 -37.5t-39.5 -22.5t-34 -18
t-14 -18.5z" />
    <glyph glyph-name="agrave" unicode="&#xe0;" horiz-adv-x="476" 
d="M43 123q0 83 92 118q57 22 202 33v14q0 57 -23 84q-25 29 -81 29q-48 0 -90 -17q-8 -3 -17 -7.5l-14 -7t-10 -4t-9 -1.5q-12 0 -20 8.5t-8 20.5q0 23 49 43q56 24 127 24q90 0 132 -48q38 -45 38 -123v-264q0 -14 -11 -24.5t-26 -10.5t-25.5 9t-11.5 23q-61 -32 -132 -32
q-66 0 -114 34.5t-48 98.5zM226 48q58 0 111 29v141q-109 -7 -149 -18q-76 -19 -76 -73q0 -39 33.5 -59t80.5 -20zM311 592q0 -24 -26 -24q-15 0 -26 18l-81 134q-8 14 -8 22q0 11 9 19.5t21 8.5q15 0 28 -21l77 -138q6 -11 6 -19z" />
    <glyph glyph-name="aacute" unicode="&#xe1;" horiz-adv-x="476" 
d="M43 123q0 83 92 118q57 22 202 33v14q0 57 -23 84q-25 29 -81 29q-48 0 -90 -17q-8 -3 -17 -7.5l-14 -7t-10 -4t-9 -1.5q-12 0 -20 8.5t-8 20.5q0 23 49 43q56 24 127 24q90 0 132 -48q38 -45 38 -123v-264q0 -14 -11 -24.5t-26 -10.5t-25.5 9t-11.5 23q-61 -32 -132 -32
q-66 0 -114 34.5t-48 98.5zM226 48q58 0 111 29v141q-109 -7 -149 -18q-76 -19 -76 -73q0 -39 33.5 -59t80.5 -20zM167 592q0 8 6 19l76 138q12 21 28 21q13 0 21.5 -8.5t8.5 -19.5q0 -8 -8 -22l-81 -134q-11 -18 -26 -18q-10 0 -17.5 6.5t-7.5 17.5z" />
    <glyph glyph-name="acircumflex" unicode="&#xe2;" horiz-adv-x="476" 
d="M43 123q0 83 92 118q57 22 202 33v14q0 57 -23 84q-25 29 -81 29q-48 0 -90 -17q-8 -3 -17 -7.5l-14 -7t-10 -4t-9 -1.5q-12 0 -20 8.5t-8 20.5q0 23 49 43q56 24 127 24q90 0 132 -48q38 -45 38 -123v-264q0 -14 -11 -24.5t-26 -10.5t-25.5 9t-11.5 23q-61 -32 -132 -32
q-66 0 -114 34.5t-48 98.5zM226 48q58 0 111 29v141q-109 -7 -149 -18q-76 -19 -76 -73q0 -39 33.5 -59t80.5 -20zM238 769q12 0 24 -12l123 -127q13 -15 13 -22q0 -12 -7.5 -19.5t-19.5 -7.5q-11 0 -19 8l-114 117l-113 -117q-8 -8 -19 -8q-12 0 -19.5 7.5t-7.5 19.5
q0 10 12 22l124 127q12 12 23 12z" />
    <glyph glyph-name="atilde" unicode="&#xe3;" horiz-adv-x="476" 
d="M43 123q0 83 92 118q57 22 202 33v14q0 57 -23 84q-25 29 -81 29q-48 0 -90 -17q-8 -3 -17 -7.5l-14 -7t-10 -4t-9 -1.5q-12 0 -20 8.5t-8 20.5q0 23 49 43q56 24 127 24q90 0 132 -48q38 -45 38 -123v-264q0 -14 -11 -24.5t-26 -10.5t-25.5 9t-11.5 23q-61 -32 -132 -32
q-66 0 -114 34.5t-48 98.5zM226 48q58 0 111 29v141q-109 -7 -149 -18q-76 -19 -76 -73q0 -39 33.5 -59t80.5 -20zM401 684q0 -21 -21 -42q-25 -28 -70 -28q-38 0 -79 27q-3 2 -12 7.5t-12.5 8t-11 5.5t-13.5 4.5t-13 1.5q-23 0 -41.5 -22t-30.5 -22q-11 0 -18 7.5t-7 18.5
q0 20 22 42q27 29 70 29q39 0 79 -26q3 -2 12.5 -8.5t13 -8.5t10.5 -5.5t13 -5t13 -1.5q22 0 41 22.5t31 22.5q11 0 17.5 -7.5t6.5 -19.5z" />
    <glyph glyph-name="adieresis" unicode="&#xe4;" horiz-adv-x="476" 
d="M43 123q0 83 92 118q57 22 202 33v14q0 57 -23 84q-25 29 -81 29q-48 0 -90 -17q-8 -3 -17 -7.5l-14 -7t-10 -4t-9 -1.5q-12 0 -20 8.5t-8 20.5q0 23 49 43q56 24 127 24q90 0 132 -48q38 -45 38 -123v-264q0 -14 -11 -24.5t-26 -10.5t-25.5 9t-11.5 23q-61 -32 -132 -32
q-66 0 -114 34.5t-48 98.5zM226 48q58 0 111 29v141q-109 -7 -149 -18q-76 -19 -76 -73q0 -39 33.5 -59t80.5 -20zM144 623q-18 0 -31 13t-13 32q0 18 13 30.5t31 12.5q19 0 31.5 -12.5t12.5 -30.5q0 -19 -12.5 -32t-31.5 -13zM332 623q-18 0 -31 13t-13 32q0 18 13 30.5
t31 12.5t31 -12.5t13 -30.5q0 -19 -13 -32t-31 -13z" />
    <glyph glyph-name="aring" unicode="&#xe5;" horiz-adv-x="476" 
d="M43 123q0 83 92 118q57 22 202 33v14q0 57 -23 84q-25 29 -81 29q-48 0 -90 -17q-8 -3 -17 -7.5l-14 -7t-10 -4t-9 -1.5q-12 0 -20 8.5t-8 20.5q0 23 49 43q56 24 127 24q90 0 132 -48q38 -45 38 -123v-264q0 -14 -11 -24.5t-26 -10.5t-25.5 9t-11.5 23q-61 -32 -132 -32
q-66 0 -114 34.5t-48 98.5zM358 662q0 -49 -33.5 -82.5t-81.5 -33.5t-82 33.5t-34 82.5q0 48 34 82t82 34t81.5 -34t33.5 -82zM226 48q58 0 111 29v141q-109 -7 -149 -18q-76 -19 -76 -73q0 -39 33.5 -59t80.5 -20zM322 662q0 33 -23 56.5t-56 23.5t-56 -23.5t-23 -56.5
q0 -34 23 -57t56 -23t56 23t23 57z" />
    <glyph glyph-name="ae" unicode="&#xe6;" horiz-adv-x="806" 
d="M717 91q12 0 20 -8.5t8 -20.5q0 -21 -38 -39q-63 -33 -143 -33q-115 0 -184 79q-77 -79 -179 -79q-73 0 -115.5 37t-42.5 94q0 38 20.5 64t61.5 40.5t88 21.5t114 10v31q0 57 -23 86q-24 30 -77 30q-47 0 -88 -18q-9 -4 -19 -10t-16 -8.5t-12 -2.5q-11 0 -19 8.5t-8 19.5
q0 22 47 43q56 24 123 24q66 0 100 -32q28 -24 40 -68q56 100 177 100q99 0 157 -63q55 -58 55 -147q0 -18 -10.5 -28.5t-28.5 -10.5h-322q3 -64 38 -108q45 -56 128 -56q62 0 107 25q6 3 13.5 7.5t11 6.5t8 3.5t8.5 1.5zM222 44q76 0 134 63q-26 44 -28 104
q-108 -3 -161.5 -23.5t-53.5 -64.5q0 -33 29 -56t80 -23zM403 257h290q-3 65 -37 102q-38 45 -104 45q-73 0 -113 -49q-31 -34 -36 -98z" />
    <glyph glyph-name="ccedilla" unicode="&#xe7;" horiz-adv-x="471" 
d="M393 -110q0 -45 -37 -66.5t-88 -21.5q-21 0 -36 4q-17 6 -17 20q0 8 6 14t14 6q5 0 16 -1.5t21 -1.5q29 0 50 11.5t21 36.5q0 42 -62 42q-11 0 -17 6.5t-4 17.5l3 34q-98 6 -156 67q-62 65 -62 168q0 87 51 149q71 85 193 85q66 0 111 -24q34 -16 34 -39
q0 -12 -8.5 -20.5t-21.5 -8.5q-4 0 -35 13q-36 17 -80 17q-80 0 -130 -58q-40 -46 -40 -114q0 -78 46 -127q47 -48 125 -48q48 0 82 14q7 3 14 7t11.5 5.5t9.5 1.5q12 0 20.5 -9t8.5 -21q0 -14 -10 -22.5t-32 -17.5q-34 -14 -91 -19l1 -25q39 -3 64 -23t25 -52z" />
    <glyph glyph-name="egrave" unicode="&#xe8;" horiz-adv-x="524" 
d="M435 92q12 0 20 -9t8 -21q0 -11 -8 -19t-29 -20q-63 -33 -143 -33q-111 0 -179 74q-59 62 -59 167q0 100 60 163q63 66 165 66q100 0 157 -63q55 -58 55 -147q0 -19 -10 -32t-29 -13h-322q6 -61 39 -100q46 -55 126 -55q62 0 108 24q31 18 41 18zM121 258h290
q-3 62 -37 99q-40 44 -104 44q-72 0 -113 -48q-31 -35 -36 -95zM335 592q0 -24 -26 -24q-15 0 -26 18l-81 134q-8 14 -8 22q0 11 9 19.5t21 8.5q15 0 28 -21l77 -138q6 -11 6 -19z" />
    <glyph glyph-name="eacute" unicode="&#xe9;" horiz-adv-x="524" 
d="M435 92q12 0 20 -9t8 -21q0 -11 -8 -19t-29 -20q-63 -33 -143 -33q-111 0 -179 74q-59 62 -59 167q0 100 60 163q63 66 165 66q100 0 157 -63q55 -58 55 -147q0 -19 -10 -32t-29 -13h-322q6 -61 39 -100q46 -55 126 -55q62 0 108 24q31 18 41 18zM121 258h290
q-3 62 -37 99q-40 44 -104 44q-72 0 -113 -48q-31 -35 -36 -95zM189 592q0 8 6 19l76 138q12 21 28 21q13 0 21.5 -8.5t8.5 -19.5q0 -8 -8 -22l-81 -134q-10 -18 -26 -18q-10 0 -17.5 6.5t-7.5 17.5z" />
    <glyph glyph-name="ecircumflex" unicode="&#xea;" horiz-adv-x="524" 
d="M435 92q12 0 20 -9t8 -21q0 -11 -8 -19t-29 -20q-63 -33 -143 -33q-111 0 -179 74q-59 62 -59 167q0 100 60 163q63 66 165 66q100 0 157 -63q55 -58 55 -147q0 -19 -10 -32t-29 -13h-322q6 -61 39 -100q46 -55 126 -55q62 0 108 24q31 18 41 18zM121 258h290
q-3 62 -37 99q-40 44 -104 44q-72 0 -113 -48q-31 -35 -36 -95zM259 769q12 0 24 -12l123 -127q13 -15 13 -22q0 -12 -7.5 -19.5t-19.5 -7.5q-11 0 -19 8l-114 117l-113 -117q-8 -8 -19 -8q-12 0 -19.5 7.5t-7.5 19.5q0 10 12 22l124 127q12 12 23 12z" />
    <glyph glyph-name="edieresis" unicode="&#xeb;" horiz-adv-x="575" 
d="M210 643q19 0 32.5 -13t13.5 -33q0 -19 -13 -32.5t-33 -13.5q-18 0 -32 13.5t-14 32.5q0 18 13 32t33 14zM372 643q19 0 32.5 -13t13.5 -33q0 -19 -13.5 -32.5t-32.5 -13.5t-32.5 13.5t-13.5 32.5q0 18 13 31.5t33 14.5zM292 475q103 0 174 -68t71 -170q0 -23 -15 -36
t-39 -13h-346q8 -43 55 -81.5t100 -38.5q82 0 129 38q13 10 29 10t28.5 -11.5t12.5 -28.5q0 -19 -14 -33q-62 -58 -185 -58q-99 0 -172 66t-73 178q0 107 71.5 176.5t173.5 69.5zM136 269h311q-6 45 -50.5 83.5t-104.5 38.5t-104 -38t-52 -84z" />
    <glyph glyph-name="igrave" unicode="&#xec;" horiz-adv-x="218" 
d="M72 25v400q0 15 11 25t26 10t26 -10t11 -25v-400q0 -14 -11 -24.5t-26 -10.5t-26 10.5t-11 24.5zM181 592q0 -24 -26 -24q-15 0 -26 18l-81 134q-8 14 -8 22q0 11 9 19.5t21 8.5q15 0 28 -21l77 -138q6 -11 6 -19z" />
    <glyph glyph-name="iacute" unicode="&#xed;" horiz-adv-x="218" 
d="M72 25v400q0 15 11 25t26 10t26 -10t11 -25v-400q0 -14 -11 -24.5t-26 -10.5t-26 10.5t-11 24.5zM40 592q0 8 6 19l76 138q12 21 28 21q13 0 21.5 -8.5t8.5 -19.5q0 -8 -8 -22l-81 -134q-11 -18 -26 -18q-10 0 -17.5 6.5t-7.5 17.5z" />
    <glyph glyph-name="icircumflex" unicode="&#xee;" horiz-adv-x="218" 
d="M72 25v400q0 15 11 25t26 10t26 -10t11 -25v-400q0 -14 -11 -24.5t-26 -10.5t-26 10.5t-11 24.5zM110 769q12 0 24 -12l123 -127q13 -15 13 -22q0 -12 -7.5 -19.5t-19.5 -7.5q-11 0 -19 8l-114 117l-113 -117q-8 -8 -19 -8q-12 0 -19.5 7.5t-7.5 19.5q0 10 12 22l124 127
q12 12 23 12z" />
    <glyph glyph-name="idieresis" unicode="&#xef;" horiz-adv-x="324" 
d="M75 643q19 0 32.5 -13t13.5 -33q0 -19 -13 -32.5t-33 -13.5q-18 0 -32 13.5t-14 32.5q0 18 13 32t33 14zM237 643q19 0 32.5 -13t13.5 -33q0 -19 -13.5 -32.5t-32.5 -13.5t-32.5 13.5t-13.5 32.5q0 18 13 31.5t33 14.5zM198 434v-413q0 -13 -10.5 -24.5t-30.5 -11.5
q-21 0 -32 11.5t-11 24.5v414q0 40 43 40q20 0 30.5 -12.5t10.5 -28.5z" />
    <glyph glyph-name="eth" unicode="&#xf0;" horiz-adv-x="511" 
d="M466 223q0 -112 -61 -172.5t-152 -60.5q-84 0 -139 49q-69 61 -69 168q0 85 55 140q60 60 147 60q61 0 117 -35q-32 96 -113 180l-82 -63q-14 -8 -20 -8q-10 0 -17 7.5t-7 18.5q0 13 12 21l74 58q-4 4 -23 21.5t-30 26.5q-12 10 -12 22q0 15 10 25t24 10q13 0 45 -27
q29 -23 41 -37l73 56q11 8 18 8q11 0 18 -7.5t7 -18.5q0 -14 -13 -21l-65 -50q162 -174 162 -371zM397 223q0 44 -9 86q-60 41 -131 41q-63 0 -106 -45q-38 -38 -38 -98q0 -78 45 -120q38 -35 95 -35q63 0 103.5 43.5t40.5 127.5z" />
    <glyph glyph-name="ntilde" unicode="&#xf1;" horiz-adv-x="553" 
d="M72 25v399q0 15 11 25.5t26 10.5t26 -10.5t11 -25.5v-49q44 85 158 85q84 0 131 -41q54 -48 54 -151v-243q0 -14 -11 -24.5t-26 -10.5t-25.5 10.5t-10.5 24.5v227q0 81 -37 115q-31 29 -89 29q-81 0 -118 -69q-26 -49 -26 -119v-183q0 -14 -11 -24.5t-26 -10.5t-26 10.5
t-11 24.5zM430 684q0 -21 -21 -42q-25 -28 -70 -28q-38 0 -79 27q-3 2 -12 7.5t-12.5 8t-11 5.5t-13.5 4.5t-13 1.5q-23 0 -41.5 -22t-30.5 -22q-11 0 -18 7.5t-7 18.5q0 20 22 42q27 29 70 29q39 0 79 -26q3 -2 12.5 -8.5t13 -8.5t10.5 -5.5t13 -5t13 -1.5q22 0 41 22.5
t31 22.5q11 0 17.5 -7.5t6.5 -19.5z" />
    <glyph glyph-name="ograve" unicode="&#xf2;" 
d="M117 225q0 -72 45 -122q50 -53 122 -53q73 0 123 53q44 49 44 122t-44 122q-50 53 -123 53q-72 0 -122 -53q-45 -50 -45 -122zM45 225q0 104 67 168q67 67 172 67t172 -67q68 -65 68 -168q0 -102 -68 -167q-68 -68 -172 -68t-172 68q-67 64 -67 167zM354 592
q0 -24 -26 -24q-16 0 -26 18l-81 134q-8 14 -8 22q0 11 9 19.5t21 8.5q15 0 28 -21l77 -138q6 -11 6 -19z" />
    <glyph glyph-name="oacute" unicode="&#xf3;" 
d="M117 225q0 -72 45 -122q50 -53 122 -53q73 0 123 53q44 49 44 122t-44 122q-50 53 -123 53q-72 0 -122 -53q-45 -50 -45 -122zM45 225q0 104 67 168q67 67 172 67t172 -67q68 -65 68 -168q0 -102 -68 -167q-68 -68 -172 -68t-172 68q-67 64 -67 167zM213 592q0 8 6 19
l76 138q12 21 28 21q13 0 21.5 -8.5t8.5 -19.5q0 -8 -8 -22l-81 -134q-10 -18 -26 -18q-10 0 -17.5 6.5t-7.5 17.5z" />
    <glyph glyph-name="ocircumflex" unicode="&#xf4;" 
d="M117 225q0 -72 45 -122q50 -53 122 -53q73 0 123 53q44 49 44 122t-44 122q-50 53 -123 53q-72 0 -122 -53q-45 -50 -45 -122zM45 225q0 104 67 168q67 67 172 67t172 -67q68 -65 68 -168q0 -102 -68 -167q-68 -68 -172 -68t-172 68q-67 64 -67 167zM283 769q12 0 24 -12
l123 -127q13 -15 13 -22q0 -12 -7.5 -19.5t-19.5 -7.5q-11 0 -19 8l-114 117l-113 -117q-8 -8 -19 -8q-12 0 -19.5 7.5t-7.5 19.5q0 10 12 22l124 127q12 12 23 12z" />
    <glyph glyph-name="otilde" unicode="&#xf5;" 
d="M117 225q0 -72 45 -122q50 -53 122 -53q73 0 123 53q44 49 44 122t-44 122q-50 53 -123 53q-72 0 -122 -53q-45 -50 -45 -122zM45 225q0 104 67 168q67 67 172 67t172 -67q68 -65 68 -168q0 -102 -68 -167q-68 -68 -172 -68t-172 68q-67 64 -67 167zM447 684
q0 -21 -21 -42q-25 -28 -70 -28q-38 0 -79 27q-3 2 -12 7.5t-12.5 8t-11 5.5t-13.5 4.5t-13 1.5q-23 0 -41.5 -22t-30.5 -22q-11 0 -18 7.5t-7 18.5q0 20 22 42q27 29 70 29q39 0 79 -26q3 -2 12.5 -8.5t13 -8.5t10.5 -5.5t13 -5t13 -1.5q22 0 41 22.5t31 22.5
q11 0 17.5 -7.5t6.5 -19.5z" />
    <glyph glyph-name="odieresis" unicode="&#xf6;" 
d="M117 225q0 -72 45 -122q50 -53 122 -53q73 0 123 53q44 49 44 122t-44 122q-50 53 -123 53q-72 0 -122 -53q-45 -50 -45 -122zM45 225q0 104 67 168q67 67 172 67t172 -67q68 -65 68 -168q0 -102 -68 -167q-68 -68 -172 -68t-172 68q-67 64 -67 167zM189 623
q-18 0 -31 13t-13 32q0 18 13 30.5t31 12.5q19 0 31.5 -12.5t12.5 -30.5q0 -19 -12.5 -32t-31.5 -13zM377 623q-18 0 -31 13t-13 32q0 18 13 30.5t31 12.5t31 -12.5t13 -30.5q0 -19 -13 -32t-31 -13z" />
    <glyph glyph-name="divide" unicode="&#xf7;" horiz-adv-x="582" 
d="M291 613q19 0 32 -13t13 -32q0 -20 -13 -33t-32 -13q-20 0 -33.5 13t-13.5 33q0 19 13.5 32t33.5 13zM547 353q0 -15 -10 -25t-24 -10h-445q-14 0 -23.5 10t-9.5 25q0 14 9.5 24t23.5 10h445q14 0 24 -10t10 -24zM245 137q0 20 13 33.5t33 13.5t33 -13.5t13 -33.5
q0 -19 -13 -32t-33 -13t-33 13t-13 32z" />
    <glyph glyph-name="oslash" unicode="&#xf8;" horiz-adv-x="576" 
d="M45 225q0 104 67 168q67 67 172 67q79 0 143 -43l31 36q6 7 15 7q19 0 19 -19q0 -8 -5 -13l-31 -36q68 -65 68 -167t-68 -167q-68 -68 -172 -68q-80 0 -139 40l-28 -33q-7 -7 -16 -7q-19 0 -19 19q0 7 6 13l27 32q-70 70 -70 171zM117 225q0 -71 42 -119l225 261
q-42 33 -100 33q-72 0 -122 -53q-45 -50 -45 -122zM451 225q0 68 -39 116l-224 -261q43 -30 96 -30q73 0 123 53q44 49 44 122z" />
    <glyph glyph-name="ugrave" unicode="&#xf9;" horiz-adv-x="546" 
d="M65 191v234q0 15 10.5 25t26.5 10q15 0 25.5 -10t10.5 -25v-228q0 -56 19 -88q30 -54 116 -54t116 54q18 30 18 88v228q0 15 11 25t26 10t26 -10t11 -25v-234q0 -76 -34 -128q-48 -73 -174 -73q-125 0 -175 73q-33 50 -33 128zM343 592q0 -24 -26 -24q-15 0 -26 18
l-81 134q-8 14 -8 22q0 11 9 19.5t21 8.5q15 0 28 -21l77 -138q6 -11 6 -19z" />
    <glyph glyph-name="uacute" unicode="&#xfa;" horiz-adv-x="546" 
d="M65 191v234q0 15 10.5 25t26.5 10q15 0 25.5 -10t10.5 -25v-228q0 -56 19 -88q30 -54 116 -54t116 54q18 30 18 88v228q0 15 11 25t26 10t26 -10t11 -25v-234q0 -76 -34 -128q-48 -73 -174 -73q-125 0 -175 73q-33 50 -33 128zM202 592q0 8 6 19l76 138q12 21 28 21
q13 0 21.5 -8.5t8.5 -19.5q0 -8 -8 -22l-81 -134q-11 -18 -26 -18q-10 0 -17.5 6.5t-7.5 17.5z" />
    <glyph glyph-name="ucircumflex" unicode="&#xfb;" horiz-adv-x="546" 
d="M65 191v234q0 15 10.5 25t26.5 10q15 0 25.5 -10t10.5 -25v-228q0 -56 19 -88q30 -54 116 -54t116 54q18 30 18 88v228q0 15 11 25t26 10t26 -10t11 -25v-234q0 -76 -34 -128q-48 -73 -174 -73q-125 0 -175 73q-33 50 -33 128zM272 769q12 0 24 -12l123 -127
q13 -15 13 -22q0 -12 -7.5 -19.5t-19.5 -7.5q-11 0 -19 8l-114 117l-113 -117q-8 -8 -19 -8q-12 0 -19.5 7.5t-7.5 19.5q0 10 12 22l124 127q12 12 23 12z" />
    <glyph glyph-name="udieresis" unicode="&#xfc;" horiz-adv-x="546" 
d="M65 191v234q0 15 10.5 25t26.5 10q15 0 25.5 -10t10.5 -25v-228q0 -56 19 -88q30 -54 116 -54t116 54q18 30 18 88v228q0 15 11 25t26 10t26 -10t11 -25v-234q0 -76 -34 -128q-48 -73 -174 -73q-125 0 -175 73q-33 50 -33 128zM179 623q-18 0 -31 13t-13 32q0 18 13 30.5
t31 12.5q19 0 31.5 -12.5t12.5 -30.5q0 -19 -12.5 -32t-31.5 -13zM367 623q-18 0 -31 13t-13 32q0 18 13 30.5t31 12.5t31 -12.5t13 -30.5q0 -19 -13 -32t-31 -13z" />
    <glyph glyph-name="yacute" unicode="&#xfd;" horiz-adv-x="460" 
d="M414 461q16 0 27.5 -11t11.5 -28q0 -10 -8 -32l-163 -414q-81 -207 -225 -207q-15 0 -25.5 10.5t-10.5 24.5q0 15 10 25.5t26 10.5q51 0 84 32.5t62 100.5l-187 420q-9 21 -9 28q0 17 11.5 28.5t28.5 11.5q29 0 38 -26l154 -368l136 361q13 33 39 33zM160 592q0 8 6 19
l76 138q12 21 28 21q13 0 21.5 -8.5t8.5 -19.5q0 -8 -8 -22l-81 -134q-10 -18 -26 -18q-10 0 -17.5 6.5t-7.5 17.5z" />
    <glyph glyph-name="thorn" unicode="&#xfe;" horiz-adv-x="525" 
d="M72 -199v853q0 15 11 25.5t26 10.5t26 -10.5t11 -25.5v-199q35 5 71 5q125 0 194 -65q69 -63 69 -169t-56 -165q-65 -71 -173 -71q-62 0 -105 20v-209q0 -15 -11 -25t-26 -10t-26 10t-11 25zM146 395v-324q43 -21 98 -21q72 0 118 46q45 45 45 130q0 80 -48 126
q-49 49 -135 49q-44 0 -78 -6z" />
    <glyph glyph-name="ydieresis" unicode="&#xff;" horiz-adv-x="460" 
d="M414 461q16 0 27.5 -11t11.5 -28q0 -10 -8 -32l-163 -414q-81 -207 -225 -207q-15 0 -25.5 10.5t-10.5 24.5q0 15 10 25.5t26 10.5q51 0 84 32.5t62 100.5l-187 420q-9 21 -9 28q0 17 11.5 28.5t28.5 11.5q29 0 38 -26l154 -368l136 361q13 33 39 33zM136 623
q-18 0 -31 13t-13 32q0 18 13 30.5t31 12.5q19 0 31.5 -12.5t12.5 -30.5q0 -19 -12.5 -32t-31.5 -13zM324 623q-18 0 -31 13t-13 32q0 18 13 30.5t31 12.5t31 -12.5t13 -30.5q0 -19 -13 -32t-31 -13z" />
    <glyph glyph-name="Amacron" unicode="&#x100;" horiz-adv-x="691" 
d="M345 616q-85 0 -138 -59q-54 -59 -54 -162v-87h385v87q0 101 -55 162q-54 59 -138 59zM618 397v-368q0 -16 -12 -27.5t-28 -11.5q-17 0 -28.5 11.5t-11.5 27.5v208h-385v-208q0 -16 -11.5 -27.5t-28.5 -11.5t-28.5 11.5t-11.5 27.5v368q0 134 84 219q74 74 188 74
q117 0 189 -74q84 -88 84 -219zM478 881q0 -13 -8.5 -21.5t-21.5 -8.5h-206q-12 0 -21 8.5t-9 21.5q0 12 9 21t21 9h206q13 0 21.5 -9t8.5 -21z" />
    <glyph glyph-name="amacron" unicode="&#x101;" horiz-adv-x="476" 
d="M43 123q0 83 92 118q57 22 202 33v14q0 57 -23 84q-25 29 -81 29q-48 0 -90 -17q-8 -3 -17 -7.5l-14 -7t-10 -4t-9 -1.5q-12 0 -20 8.5t-8 20.5q0 23 49 43q56 24 127 24q90 0 132 -48q38 -45 38 -123v-264q0 -14 -11 -24.5t-26 -10.5t-25.5 9t-11.5 23q-61 -32 -132 -32
q-66 0 -114 34.5t-48 98.5zM226 48q58 0 111 29v141q-109 -7 -149 -18q-76 -19 -76 -73q0 -39 33.5 -59t80.5 -20zM365 658q0 -13 -8.5 -21.5t-21.5 -8.5h-206q-12 0 -21 8.5t-9 21.5q0 12 9 21t21 9h206q13 0 21.5 -9t8.5 -21z" />
    <glyph glyph-name="Abreve" unicode="&#x102;" horiz-adv-x="691" 
d="M345 616q-85 0 -138 -59q-54 -59 -54 -162v-87h385v87q0 101 -55 162q-54 59 -138 59zM618 397v-368q0 -16 -12 -27.5t-28 -11.5q-17 0 -28.5 11.5t-11.5 27.5v208h-385v-208q0 -16 -11.5 -27.5t-28.5 -11.5t-28.5 11.5t-11.5 27.5v368q0 134 84 219q74 74 188 74
q117 0 189 -74q84 -88 84 -219zM345 879q24 0 43.5 13t29.5 29t21.5 29t22.5 13t19.5 -7.5t8.5 -18.5q0 -20 -30 -54q-47 -58 -115 -58t-115 58q-30 34 -30 54q0 11 8.5 18.5t19.5 7.5t22.5 -13t21.5 -29t29.5 -29t43.5 -13z" />
    <glyph glyph-name="abreve" unicode="&#x103;" horiz-adv-x="476" 
d="M43 123q0 83 92 118q57 22 202 33v14q0 57 -23 84q-25 29 -81 29q-48 0 -90 -17q-8 -3 -17 -7.5l-14 -7t-10 -4t-9 -1.5q-12 0 -20 8.5t-8 20.5q0 23 49 43q56 24 127 24q90 0 132 -48q38 -45 38 -123v-264q0 -14 -11 -24.5t-26 -10.5t-25.5 9t-11.5 23q-61 -32 -132 -32
q-66 0 -114 34.5t-48 98.5zM226 48q58 0 111 29v141q-109 -7 -149 -18q-76 -19 -76 -73q0 -39 33.5 -59t80.5 -20zM238 640q24 0 43.5 13t29.5 29t21.5 29t22.5 13t19.5 -7.5t8.5 -18.5q0 -20 -30 -54q-47 -58 -115 -58t-115 58q-30 34 -30 54q0 11 8.5 18.5t19.5 7.5
t22.5 -13t21.5 -29t29.5 -29t43.5 -13z" />
    <glyph glyph-name="Aogonek" unicode="&#x104;" horiz-adv-x="691" 
d="M618 397v-368q0 -16 -12 -27.5t-28 -11.5q-10 0 -17 3q-19 -47 -19 -80q0 -58 74 -58q16 0 31 3.5t18 3.5q22 0 22 -22q0 -20 -23 -28q-27 -9 -53 -9q-118 0 -118 93q0 54 45 137v204h-385v-208q0 -16 -11.5 -27.5t-28.5 -11.5t-28.5 11.5t-11.5 27.5v368q0 134 84 219
q74 74 188 74q117 0 189 -74q84 -88 84 -219zM345 616q-85 0 -138 -59q-54 -59 -54 -162v-87h385v87q0 101 -55 162q-54 59 -138 59z" />
    <glyph glyph-name="aogonek" unicode="&#x105;" horiz-adv-x="476" 
d="M241 460q90 0 132 -48q38 -45 38 -123v-264q0 -14 -10.5 -24t-25.5 -11q-17 -45 -17 -77q0 -58 74 -58q16 0 31 3.5t18 3.5q22 0 22 -22q0 -20 -23 -28q-27 -9 -53 -9q-118 0 -118 93q0 47 32 113q-4 7 -4 13q-61 -32 -132 -32q-66 0 -114 34.5t-48 98.5q0 83 92 118
q57 22 202 33v14q0 57 -23 84q-25 29 -81 29q-48 0 -90 -17q-8 -3 -17 -7.5l-14 -7t-10 -4t-9 -1.5q-12 0 -20 8.5t-8 20.5q0 23 49 43q56 24 127 24zM226 48q58 0 111 29v141q-109 -7 -149 -18q-76 -19 -76 -73q0 -39 33.5 -59t80.5 -20z" />
    <glyph glyph-name="Cacute" unicode="&#x106;" horiz-adv-x="659" 
d="M618 607q0 -17 -10.5 -27t-26.5 -10q-7 0 -16.5 4.5t-25.5 13t-32 14.5q-48 16 -105 16q-111 0 -191.5 -81.5t-80.5 -195.5q0 -122 79.5 -200.5t192.5 -78.5q55 0 106 17q18 6 35 14.5t26.5 13.5t16.5 5q15 0 26 -10.5t11 -26.5q0 -27 -49 -50q-75 -35 -171 -35
q-151 0 -253.5 97.5t-102.5 253.5q0 143 105.5 246t250.5 103q92 0 167 -33q48 -20 48 -50zM315 794q0 8 6 19l76 138q12 21 28 21q13 0 21.5 -8.5t8.5 -19.5q0 -8 -8 -22l-81 -134q-10 -18 -26 -18q-10 0 -17.5 6.5t-7.5 17.5z" />
    <glyph glyph-name="cacute" unicode="&#x107;" horiz-adv-x="471" 
d="M434 397q0 -12 -8.5 -20.5t-21.5 -8.5q-4 0 -35 13q-36 17 -80 17q-80 0 -130 -58q-40 -46 -40 -114q0 -78 46 -127q47 -48 125 -48q48 0 82 14q7 3 14 7t11.5 5.5t9.5 1.5q12 0 20.5 -9t8.5 -21q0 -14 -10 -22.5t-32 -17.5q-48 -19 -106 -19q-116 0 -181 68
q-62 65 -62 168q0 87 51 149q71 85 193 85q66 0 111 -24q34 -16 34 -39zM205 592q0 8 6 19l76 138q12 21 28 21q13 0 21.5 -8.5t8.5 -19.5q0 -8 -8 -22l-81 -134q-10 -18 -26 -18q-10 0 -17.5 6.5t-7.5 17.5z" />
    <glyph glyph-name="Ccaron" unicode="&#x10c;" horiz-adv-x="659" 
d="M618 607q0 -17 -10.5 -27t-26.5 -10q-7 0 -16.5 4.5t-25.5 13t-32 14.5q-48 16 -105 16q-111 0 -191.5 -81.5t-80.5 -195.5q0 -122 79.5 -200.5t192.5 -78.5q55 0 106 17q18 6 35 14.5t26.5 13.5t16.5 5q15 0 26 -10.5t11 -26.5q0 -27 -49 -50q-75 -35 -171 -35
q-151 0 -253.5 97.5t-102.5 253.5q0 143 105.5 246t250.5 103q92 0 167 -33q48 -20 48 -50zM230 944q0 12 8 19.5t19 7.5q13 0 22 -11l110 -114l111 114q9 11 22 11q11 0 19 -7.5t8 -19.5q0 -10 -13 -23l-123 -127q-11 -11 -24 -11q-12 0 -23 11l-124 127q-12 12 -12 23z
" />
    <glyph glyph-name="ccaron" unicode="&#x10d;" horiz-adv-x="471" 
d="M434 397q0 -12 -8.5 -20.5t-21.5 -8.5q-4 0 -35 13q-36 17 -80 17q-80 0 -130 -58q-40 -46 -40 -114q0 -78 46 -127q47 -48 125 -48q48 0 82 14q7 3 14 7t11.5 5.5t9.5 1.5q12 0 20.5 -9t8.5 -21q0 -14 -10 -22.5t-32 -17.5q-48 -19 -106 -19q-116 0 -181 68
q-62 65 -62 168q0 87 51 149q71 85 193 85q66 0 111 -24q34 -16 34 -39zM104 742q0 12 8 19.5t19 7.5q13 0 22 -11l110 -114l111 114q9 11 22 11q11 0 19 -7.5t8 -19.5q0 -10 -13 -23l-123 -127q-11 -11 -24 -11q-12 0 -23 11l-124 127q-12 12 -12 23z" />
    <glyph glyph-name="Dcaron" unicode="&#x10e;" horiz-adv-x="738" 
d="M691 340q0 -177 -127 -271q-95 -69 -251 -69h-198q-17 0 -28.5 11.5t-11.5 27.5v603q0 16 11.5 27.5t28.5 11.5h213q188 0 284 -107q79 -89 79 -234zM155 613v-545h150q123 0 199 54q105 74 105 218q0 116 -64 188q-78 85 -230 85h-160zM205 944q0 12 8 19.5t19 7.5
q13 0 22 -11l110 -114l111 114q9 11 22 11q11 0 19 -7.5t8 -19.5q0 -10 -13 -23l-123 -127q-11 -11 -24 -11q-12 0 -23 11l-124 127q-12 12 -12 23z" />
    <glyph glyph-name="dcaron" unicode="&#x10f;" horiz-adv-x="631" 
d="M311 61h65v319q-49 18 -98 18q-84 0 -128 -65q-30 -43 -30 -108q0 -69 40 -112q51 -52 151 -52zM408 0h-104q-131 0 -200 69q-59 59 -59 155q0 90 46 151q65 86 183 86q48 0 102 -18v211q0 15 10.5 25.5t26.5 10.5q15 0 25.5 -10.5t10.5 -25.5v-615q0 -39 -41 -39z
M522 530q0 8 17 24t17 31q0 11 -18 25t-18 36q0 19 12 31.5t35 12.5q27 0 41.5 -18t14.5 -49q0 -44 -30.5 -75.5t-55.5 -31.5q-15 0 -15 14z" />
    <glyph glyph-name="Dcroat" unicode="&#x110;" horiz-adv-x="743" 
d="M303 306h-143v-238h150q114 0 186 42q118 66 118 230q0 117 -63 188q-73 85 -231 85h-160v-239h143q14 0 23.5 -10t9.5 -24t-9.5 -24t-23.5 -10zM80 39v267h-69q-14 0 -23.5 10t-9.5 24t9.5 24t23.5 10h69v268q0 16 11.5 27.5t28.5 11.5h213q188 0 284 -107
q79 -90 79 -234q0 -176 -127 -270q-96 -70 -251 -70h-198q-17 0 -28.5 11.5t-11.5 27.5z" />
    <glyph glyph-name="dcroat" unicode="&#x111;" horiz-adv-x="522" 
d="M531 518h-82v-479q0 -39 -41 -39h-104q-131 0 -200 69q-59 59 -59 155q0 90 46 151q65 86 183 86q48 0 102 -18v75h-88q-14 0 -24 10.5t-10 24.5t10 24t24 10h88v67q0 15 10.5 25.5t26.5 10.5q15 0 25.5 -10.5t10.5 -25.5v-67h82q14 0 24 -10t10 -24t-10 -24.5t-24 -10.5
zM311 61h65v319q-49 18 -98 18q-84 0 -128 -65q-30 -43 -30 -108q0 -69 40 -112q51 -52 151 -52z" />
    <glyph glyph-name="Emacron" unicode="&#x112;" horiz-adv-x="602" 
d="M155 306v-235h381q14 0 24 -10.5t10 -25.5q0 -14 -10 -24.5t-24 -10.5h-421q-17 0 -28.5 11.5t-11.5 27.5v603q0 16 11.5 27.5t28.5 11.5h421q14 0 24 -10.5t10 -24.5q0 -15 -10 -25.5t-24 -10.5h-381v-233h329q15 0 25 -10.5t10 -25.5q0 -14 -10 -24.5t-25 -10.5h-329z
M444 881q0 -13 -8.5 -21.5t-21.5 -8.5h-206q-12 0 -21 8.5t-9 21.5q0 12 9 21t21 9h206q13 0 21.5 -9t8.5 -21z" />
    <glyph glyph-name="emacron" unicode="&#x113;" horiz-adv-x="524" 
d="M393 658q0 -13 -8.5 -21.5t-20.5 -8.5h-207q-12 0 -20.5 8.5t-8.5 21.5q0 12 8.5 21t20.5 9h207q12 0 20.5 -9t8.5 -21zM435 92q12 0 20 -9t8 -21q0 -11 -8 -19t-29 -20q-63 -33 -143 -33q-111 0 -179 74q-59 62 -59 167q0 100 60 163q63 66 165 66q100 0 157 -63
q55 -58 55 -147q0 -19 -10 -32t-29 -13h-322q6 -61 39 -100q46 -55 126 -55q62 0 108 24q31 18 41 18zM121 258h290q-3 62 -37 99q-40 44 -104 44q-72 0 -113 -48q-31 -35 -36 -95z" />
    <glyph glyph-name="Edotaccent" unicode="&#x116;" horiz-adv-x="602" 
d="M155 306v-235h381q14 0 24 -10.5t10 -25.5q0 -14 -10 -24.5t-24 -10.5h-421q-17 0 -28.5 11.5t-11.5 27.5v603q0 16 11.5 27.5t28.5 11.5h421q14 0 24 -10.5t10 -24.5q0 -15 -10 -25.5t-24 -10.5h-381v-233h329q15 0 25 -10.5t10 -25.5q0 -14 -10 -24.5t-25 -10.5h-329z
M319 831q-18 0 -31 12.5t-13 31.5q0 18 13 30.5t31 12.5t31 -12.5t13 -30.5q0 -19 -13 -31.5t-31 -12.5z" />
    <glyph glyph-name="edotaccent" unicode="&#x117;" horiz-adv-x="524" 
d="M435 92q12 0 20 -9t8 -21q0 -11 -8 -19t-29 -20q-63 -33 -143 -33q-111 0 -179 74q-59 62 -59 167q0 100 60 163q63 66 165 66q100 0 157 -63q55 -58 55 -147q0 -19 -10 -32t-29 -13h-322q6 -61 39 -100q46 -55 126 -55q62 0 108 24q31 18 41 18zM121 258h290
q-3 62 -37 99q-40 44 -104 44q-72 0 -113 -48q-31 -35 -36 -95zM260 624q-18 0 -31 12.5t-13 31.5q0 18 13 30.5t31 12.5t31 -12.5t13 -30.5q0 -19 -13 -31.5t-31 -12.5z" />
    <glyph glyph-name="Eogonek" unicode="&#x118;" horiz-adv-x="602" 
d="M155 306v-235h381q14 0 24 -10.5t10 -25.5q0 -14 -10 -24.5t-24 -10.5h-87q-24 -50 -24 -87q0 -25 15 -41.5t60 -16.5q14 0 29.5 3.5t19.5 3.5q21 0 21 -22q0 -21 -22 -28q-27 -9 -54 -9q-118 0 -118 93q0 42 30 104h-291q-17 0 -28.5 11.5t-11.5 27.5v603
q0 16 11.5 27.5t28.5 11.5h421q14 0 24 -10.5t10 -24.5q0 -15 -10 -25.5t-24 -10.5h-381v-233h329q15 0 25 -10.5t10 -25.5q0 -14 -10 -24.5t-25 -10.5h-329z" />
    <glyph glyph-name="eogonek" unicode="&#x119;" horiz-adv-x="524" 
d="M435 92q12 0 20 -9t8 -21q0 -11 -8 -19t-29 -20q-30 -16 -69 -25q-21 -50 -21 -85q0 -25 15 -41.5t60 -16.5q14 0 29.5 3.5t19.5 3.5q21 0 21 -22q0 -21 -22 -28q-27 -9 -54 -9q-118 0 -118 93q0 42 25 95q-11 -1 -29 -1q-111 0 -179 74q-59 62 -59 167q0 100 60 163
q63 66 165 66q100 0 157 -63q55 -58 55 -147q0 -19 -10 -32t-29 -13h-322q6 -61 39 -100q46 -55 126 -55q62 0 108 24q31 18 41 18zM121 258h290q-3 62 -37 99q-40 44 -104 44q-72 0 -113 -48q-31 -35 -36 -95z" />
    <glyph glyph-name="Ecaron" unicode="&#x11a;" horiz-adv-x="602" 
d="M155 306v-235h381q14 0 24 -10.5t10 -25.5q0 -14 -10 -24.5t-24 -10.5h-421q-17 0 -28.5 11.5t-11.5 27.5v603q0 16 11.5 27.5t28.5 11.5h421q14 0 24 -10.5t10 -24.5q0 -15 -10 -25.5t-24 -10.5h-381v-233h329q15 0 25 -10.5t10 -25.5q0 -14 -10 -24.5t-25 -10.5h-329z
M165 944q0 12 8 19.5t19 7.5q13 0 22 -11l110 -114l111 114q9 11 22 11q11 0 19 -7.5t8 -19.5q0 -10 -13 -23l-123 -127q-11 -11 -24 -11q-12 0 -23 11l-124 127q-12 12 -12 23z" />
    <glyph glyph-name="ecaron" unicode="&#x11b;" horiz-adv-x="524" 
d="M435 92q12 0 20 -9t8 -21q0 -11 -8 -19t-29 -20q-63 -33 -143 -33q-111 0 -179 74q-59 62 -59 167q0 100 60 163q63 66 165 66q100 0 157 -63q55 -58 55 -147q0 -19 -10 -32t-29 -13h-322q6 -61 39 -100q46 -55 126 -55q62 0 108 24q31 18 41 18zM121 258h290
q-3 62 -37 99q-40 44 -104 44q-72 0 -113 -48q-31 -35 -36 -95zM105 742q0 12 8 19.5t19 7.5q13 0 22 -11l110 -114l111 114q9 11 22 11q11 0 19 -7.5t8 -19.5q0 -10 -13 -23l-123 -127q-11 -11 -24 -11q-12 0 -23 11l-124 127q-12 12 -12 23z" />
    <glyph glyph-name="Gbreve" unicode="&#x11e;" horiz-adv-x="742" 
d="M407 338h225q37 0 37 -39v-270q0 -17 -10.5 -28t-28.5 -11t-28.5 11t-10.5 28v16q-83 -55 -193 -55q-152 0 -251.5 93t-99.5 258q0 144 104.5 246.5t250.5 102.5q85 0 167 -33q49 -20 49 -50q0 -17 -10.5 -27t-26.5 -10q-11 0 -35 12.5t-48 20.5q-45 15 -97 15
q-112 0 -191.5 -82t-79.5 -195q0 -126 77.5 -203t193.5 -77q108 0 190 60v146h-184q-14 0 -24 10.5t-10 25.5q0 14 10 24.5t24 10.5zM370 857q24 0 43.5 13t29.5 29t21.5 29t22.5 13t19.5 -7.5t8.5 -18.5q0 -20 -30 -54q-47 -58 -115 -58t-115 58q-30 34 -30 54
q0 11 8.5 18.5t19.5 7.5t22.5 -13t21.5 -29t29.5 -29t43.5 -13z" />
    <glyph glyph-name="gbreve" unicode="&#x11f;" horiz-adv-x="531" 
d="M74 -147q0 13 8.5 23t22.5 10q7 0 12.5 -2t9 -5t11.5 -9.5t16 -12.5q43 -29 95 -29q71 0 104 38q32 35 32 107v61q-54 -43 -135 -43q-90 0 -146 62q-59 67 -59 174q0 106 58 171q52 62 146 62q77 0 136 -44v9q0 15 10.5 25t26.5 10q15 0 25.5 -10t10.5 -25v-441
q0 -108 -56 -164q-53 -52 -152 -52q-70 0 -126 30q-50 27 -50 55zM257 52q70 0 128 48v248q-21 16 -32 24t-38.5 18t-56.5 10q-62 0 -100 -46q-39 -48 -39 -127q0 -85 38 -130q37 -45 100 -45zM264 640q24 0 43.5 13t29.5 29t21.5 29t22.5 13t19.5 -7.5t8.5 -18.5
q0 -20 -30 -54q-47 -58 -115 -58t-115 58q-30 34 -30 54q0 11 8.5 18.5t19.5 7.5t22.5 -13t21.5 -29t29.5 -29t43.5 -13z" />
    <glyph glyph-name="Gcommaaccent" unicode="&#x122;" horiz-adv-x="742" 
d="M407 338h225q37 0 37 -39v-270q0 -17 -10.5 -28t-28.5 -11t-28.5 11t-10.5 28v16q-83 -55 -193 -55q-152 0 -251.5 93t-99.5 258q0 144 104.5 246.5t250.5 102.5q85 0 167 -33q49 -20 49 -50q0 -17 -10.5 -27t-26.5 -10q-11 0 -35 12.5t-48 20.5q-45 15 -97 15
q-112 0 -191.5 -82t-79.5 -195q0 -126 77.5 -203t193.5 -77q108 0 190 60v146h-184q-14 0 -24 10.5t-10 25.5q0 14 10 24.5t24 10.5zM350 -221q0 8 17 24t17 31q0 11 -18 25t-18 36q0 19 12 31.5t35 12.5q27 0 41.5 -18t14.5 -49q0 -44 -30.5 -75.5t-55.5 -31.5
q-15 0 -15 14z" />
    <glyph glyph-name="gcommaaccent" unicode="&#x123;" horiz-adv-x="531" 
d="M74 -147q0 13 8.5 23t22.5 10q7 0 12.5 -2t9 -5t11.5 -9.5t16 -12.5q43 -29 95 -29q71 0 104 38q32 35 32 107v61q-54 -43 -135 -43q-90 0 -146 62q-59 67 -59 174q0 106 58 171q52 62 146 62q77 0 136 -44v9q0 15 10.5 25t26.5 10q15 0 25.5 -10t10.5 -25v-441
q0 -108 -56 -164q-53 -52 -152 -52q-70 0 -126 30q-50 27 -50 55zM257 52q70 0 128 48v248q-21 16 -32 24t-38.5 18t-56.5 10q-62 0 -100 -46q-39 -48 -39 -127q0 -85 38 -130q37 -45 100 -45zM313 718q0 -9 -17 -25t-17 -30q0 -11 18 -25.5t18 -35.5q0 -19 -12.5 -32
t-35.5 -13q-26 0 -41 18.5t-15 48.5q0 44 31 76t56 32q15 0 15 -14z" />
    <glyph glyph-name="Imacron" unicode="&#x12a;" horiz-adv-x="230" 
d="M75 29v622q0 16 11.5 27.5t28.5 11.5t28.5 -11.5t11.5 -27.5v-622q0 -16 -11.5 -27.5t-28.5 -11.5t-28.5 11.5t-11.5 27.5zM249 881q0 -13 -8.5 -21.5t-21.5 -8.5h-206q-12 0 -21 8.5t-9 21.5q0 12 9 21t21 9h206q13 0 21.5 -9t8.5 -21z" />
    <glyph glyph-name="imacron" unicode="&#x12b;" horiz-adv-x="218" 
d="M72 25v400q0 15 11 25t26 10t26 -10t11 -25v-400q0 -14 -11 -24.5t-26 -10.5t-26 10.5t-11 24.5zM242 658q0 -13 -8.5 -21.5t-20.5 -8.5h-207q-12 0 -21 8.5t-9 21.5q0 12 9 21t21 9h207q12 0 20.5 -9t8.5 -21z" />
    <glyph glyph-name="Iogonek" unicode="&#x12e;" horiz-adv-x="230" 
d="M29 -104q0 50 46 138v617q0 16 11.5 27.5t28.5 11.5t28.5 -11.5t11.5 -27.5v-622q0 -16 -11.5 -27.5t-28.5 -11.5q-10 0 -17 4q-20 -48 -20 -81q0 -25 15 -41.5t60 -16.5q14 0 29.5 3.5t19.5 3.5q21 0 21 -22q0 -21 -22 -28q-27 -9 -54 -9q-118 0 -118 93z" />
    <glyph glyph-name="iogonek" unicode="&#x12f;" horiz-adv-x="218" 
d="M72 25v400q0 15 11 25t26 10t26 -10t11 -25v-400q0 -14 -11 -24.5t-26 -10.5l-9 1q-18 -42 -18 -78q0 -58 74 -58q16 0 31 3.5t18 3.5q22 0 22 -22q0 -20 -23 -28q-27 -9 -53 -9q-119 0 -119 93q0 45 40 127v2zM108 623q-18 0 -31 13t-13 31t13 31t31 13t31 -13t13 -31
t-13 -31t-31 -13z" />
    <glyph glyph-name="Idotaccent" unicode="&#x130;" horiz-adv-x="230" 
d="M75 29v622q0 16 11.5 27.5t28.5 11.5t28.5 -11.5t11.5 -27.5v-622q0 -16 -11.5 -27.5t-28.5 -11.5t-28.5 11.5t-11.5 27.5zM115 831q-18 0 -31 12.5t-13 31.5q0 18 13 30.5t31 12.5t31 -12.5t13 -30.5q0 -19 -13 -31.5t-31 -12.5z" />
    <glyph glyph-name="dotlessi" unicode="&#x131;" horiz-adv-x="218" 
d="M72 25v400q0 15 11 25t26 10t26 -10t11 -25v-400q0 -14 -11 -24.5t-26 -10.5t-26 10.5t-11 24.5z" />
    <glyph glyph-name="Kcommaaccent" unicode="&#x136;" horiz-adv-x="593" 
d="M531 625l-246 -242l275 -331q7 -10 7 -22q0 -16 -11 -28t-28 -12q-20 0 -37 21l-260 316l-76 -74v-224q0 -16 -11.5 -27.5t-28.5 -11.5t-28.5 11.5t-11.5 27.5v622q0 16 11.5 27.5t28.5 11.5t28.5 -11.5t11.5 -27.5v-297l320 323q13 13 30 13q15 0 26 -11t11 -28
q0 -15 -11 -26zM258 -221q0 8 17 24t17 31q0 11 -18 25t-18 36q0 19 12 31.5t35 12.5q27 0 41.5 -18t14.5 -49q0 -44 -30.5 -75.5t-55.5 -31.5q-15 0 -15 14z" />
    <glyph glyph-name="kcommaaccent" unicode="&#x137;" horiz-adv-x="469" 
d="M426 403l-162 -148l175 -205q10 -14 10 -25q0 -15 -10.5 -25t-25.5 -10q-16 0 -30 17l-170 203l-65 -60v-125q0 -14 -11 -24.5t-26 -10.5t-26 10.5t-11 24.5v628q0 15 11 25.5t26 10.5t26 -10.5t11 -25.5v-419l231 216q11 10 23 10q15 0 24.5 -10t9.5 -23q0 -15 -10 -24z
M201 -221q0 8 17 24t17 31q0 11 -18 25t-18 36q0 19 12 31.5t35 12.5q27 0 41.5 -18t14.5 -49q0 -44 -30.5 -75.5t-55.5 -31.5q-15 0 -15 14z" />
    <glyph glyph-name="Lacute" unicode="&#x139;" horiz-adv-x="533" 
d="M75 39v612q0 16 11.5 27.5t28.5 11.5t28.5 -11.5t11.5 -27.5v-580h326q14 0 24 -10.5t10 -25.5q0 -14 -10 -24.5t-24 -10.5h-366q-17 0 -28.5 11.5t-11.5 27.5zM82 794q0 8 6 19l76 138q12 21 28 21q13 0 21.5 -8.5t8.5 -19.5q0 -8 -8 -22l-81 -134q-11 -18 -26 -18
q-10 0 -17.5 6.5t-7.5 17.5z" />
    <glyph glyph-name="lacute" unicode="&#x13a;" horiz-adv-x="223" 
d="M74 25v629q0 15 11 25.5t26 10.5t26 -10.5t11 -25.5v-629q0 -14 -11 -24.5t-26 -10.5t-26 10.5t-11 24.5zM42 792q0 8 6 19l76 138q12 21 28 21q13 0 21.5 -8.5t8.5 -19.5q0 -8 -8 -22l-81 -134q-10 -18 -26 -18q-10 0 -17.5 6.5t-7.5 17.5z" />
    <glyph glyph-name="Lcommaaccent" unicode="&#x13b;" horiz-adv-x="533" 
d="M75 39v612q0 16 11.5 27.5t28.5 11.5t28.5 -11.5t11.5 -27.5v-580h326q14 0 24 -10.5t10 -25.5q0 -14 -10 -24.5t-24 -10.5h-366q-17 0 -28.5 11.5t-11.5 27.5zM245 -221q0 8 17 24t17 31q0 11 -18 25t-18 36q0 19 12 31.5t35 12.5q27 0 41.5 -18t14.5 -49
q0 -44 -30.5 -75.5t-55.5 -31.5q-15 0 -15 14z" />
    <glyph glyph-name="lcommaaccent" unicode="&#x13c;" horiz-adv-x="223" 
d="M74 25v629q0 15 11 25.5t26 10.5t26 -10.5t11 -25.5v-629q0 -14 -11 -24.5t-26 -10.5t-26 10.5t-11 24.5zM62 -221q0 8 17 24t17 31q0 11 -18 25t-18 36q0 19 12 31.5t35 12.5q27 0 41.5 -18t14.5 -49q0 -44 -30.5 -75.5t-55.5 -31.5q-15 0 -15 14z" />
    <glyph glyph-name="Lcaron" unicode="&#x13d;" horiz-adv-x="533" 
d="M75 39v612q0 16 11.5 27.5t28.5 11.5t28.5 -11.5t11.5 -27.5v-580h326q14 0 24 -10.5t10 -25.5q0 -14 -10 -24.5t-24 -10.5h-366q-17 0 -28.5 11.5t-11.5 27.5zM289 530q0 8 17 24t17 31q0 11 -18 25t-18 36q0 19 12 31.5t35 12.5q27 0 41.5 -18t14.5 -49
q0 -44 -30.5 -75.5t-55.5 -31.5q-15 0 -15 14z" />
    <glyph glyph-name="lcaron" unicode="&#x13e;" horiz-adv-x="316" 
d="M74 25v629q0 15 11 25.5t26 10.5t26 -10.5t11 -25.5v-629q0 -14 -11 -24.5t-26 -10.5t-26 10.5t-11 24.5zM207 530q0 8 17 24t17 31q0 11 -18 25t-18 36q0 19 12 31.5t35 12.5q27 0 41.5 -18t14.5 -49q0 -44 -30.5 -75.5t-55.5 -31.5q-15 0 -15 14z" />
    <glyph glyph-name="Lslash" unicode="&#x141;" horiz-adv-x="543" 
d="M81 39v216l-60 -39q-12 -6 -21 -6q-14 0 -22.5 9t-8.5 22q0 18 16 28l96 61v322q0 16 11.5 27t28.5 11t28.5 -11t11.5 -27v-271l87 56q8 6 20 6q31 0 31 -31q0 -18 -16 -28l-122 -78v-236h327q14 0 24 -10.5t10 -24.5q0 -15 -10 -25t-24 -10h-367q-17 0 -28.5 11.5
t-11.5 27.5z" />
    <glyph glyph-name="lslash" unicode="&#x142;" horiz-adv-x="223" 
d="M-30 276l105 67v311q0 15 10.5 25.5t25.5 10.5q16 0 26.5 -10.5t10.5 -25.5v-264l88 57q27 16 45 -8q8 -12 5 -24.5t-14 -19.5l-124 -80v-290q0 -14 -11 -24.5t-26 -10.5t-25.5 10.5t-10.5 24.5v244l-70 -45q-11 -8 -23.5 -5t-19.5 14q-8 12 -5 24.5t13 18.5z" />
    <glyph glyph-name="Nacute" unicode="&#x143;" horiz-adv-x="740" 
d="M665 653v-620q0 -18 -13 -30.5t-33 -12.5q-21 0 -40 22l-427 538v-524q0 -15 -11 -25.5t-28 -10.5t-27.5 10.5t-10.5 25.5v621q0 17 13 30t32 13q24 0 40 -22l428 -538v523q0 15 11 26t28 11q16 0 27 -11t11 -26zM300 794q0 8 6 19l76 138q12 21 28 21q13 0 21.5 -8.5
t8.5 -19.5q0 -8 -8 -22l-81 -134q-11 -18 -26 -18q-10 0 -17.5 6.5t-7.5 17.5z" />
    <glyph glyph-name="nacute" unicode="&#x144;" horiz-adv-x="553" 
d="M72 25v399q0 15 11 25.5t26 10.5t26 -10.5t11 -25.5v-49q44 85 158 85q84 0 131 -41q54 -48 54 -151v-243q0 -14 -11 -24.5t-26 -10.5t-25.5 10.5t-10.5 24.5v227q0 81 -37 115q-31 29 -89 29q-81 0 -118 -69q-26 -49 -26 -119v-183q0 -14 -11 -24.5t-26 -10.5t-26 10.5
t-11 24.5zM207 592q0 8 6 19l76 138q12 21 28 21q13 0 21.5 -8.5t8.5 -19.5q0 -8 -8 -22l-81 -134q-10 -18 -26 -18q-10 0 -17.5 6.5t-7.5 17.5z" />
    <glyph glyph-name="Ncommaaccent" unicode="&#x145;" horiz-adv-x="740" 
d="M665 653v-620q0 -18 -13 -30.5t-33 -12.5q-21 0 -40 22l-427 538v-524q0 -15 -11 -25.5t-28 -10.5t-27.5 10.5t-10.5 25.5v621q0 17 13 30t32 13q24 0 40 -22l428 -538v523q0 15 11 26t28 11q16 0 27 -11t11 -26zM322 -221q0 8 17 24t17 31q0 11 -18 25t-18 36
q0 19 12 31.5t35 12.5q27 0 41.5 -18t14.5 -49q0 -44 -30.5 -75.5t-55.5 -31.5q-15 0 -15 14z" />
    <glyph glyph-name="ncommaaccent" unicode="&#x146;" horiz-adv-x="553" 
d="M72 25v399q0 15 11 25.5t26 10.5t26 -10.5t11 -25.5v-49q44 85 158 85q84 0 131 -41q54 -48 54 -151v-243q0 -14 -11 -24.5t-26 -10.5t-25.5 10.5t-10.5 24.5v227q0 81 -37 115q-31 29 -89 29q-81 0 -118 -69q-26 -49 -26 -119v-183q0 -14 -11 -24.5t-26 -10.5t-26 10.5
t-11 24.5zM225 -221q0 8 17 24t17 31q0 11 -18 25t-18 36q0 19 12 31.5t35 12.5q27 0 41.5 -18t14.5 -49q0 -44 -30.5 -75.5t-55.5 -31.5q-15 0 -15 14z" />
    <glyph glyph-name="Ncaron" unicode="&#x147;" horiz-adv-x="740" 
d="M665 653v-620q0 -18 -13 -30.5t-33 -12.5q-21 0 -40 22l-427 538v-524q0 -15 -11 -25.5t-28 -10.5t-27.5 10.5t-10.5 25.5v621q0 17 13 30t32 13q24 0 40 -22l428 -538v523q0 15 11 26t28 11q16 0 27 -11t11 -26zM212 944q0 12 8 19.5t19 7.5q13 0 22 -11l110 -114
l111 114q9 11 22 11q11 0 19 -7.5t8 -19.5q0 -10 -13 -23l-123 -127q-11 -11 -24 -11q-12 0 -23 11l-124 127q-12 12 -12 23z" />
    <glyph glyph-name="ncaron" unicode="&#x148;" horiz-adv-x="553" 
d="M72 25v399q0 15 11 25.5t26 10.5t26 -10.5t11 -25.5v-49q44 85 158 85q84 0 131 -41q54 -48 54 -151v-243q0 -14 -11 -24.5t-26 -10.5t-25.5 10.5t-10.5 24.5v227q0 81 -37 115q-31 29 -89 29q-81 0 -118 -69q-26 -49 -26 -119v-183q0 -14 -11 -24.5t-26 -10.5t-26 10.5
t-11 24.5zM117 742q0 12 8 19.5t19 7.5q13 0 22 -11l110 -114l111 114q9 11 22 11q11 0 19 -7.5t8 -19.5q0 -10 -13 -23l-123 -127q-11 -11 -24 -11q-12 0 -23 11l-124 127q-12 12 -12 23z" />
    <glyph glyph-name="Omacron" unicode="&#x14c;" horiz-adv-x="806" 
d="M759 339q0 -147 -104 -248t-252 -101t-252 101.5t-104 247.5q0 147 104 249t252 102t252 -102t104 -249zM675 339q0 114 -79 195t-193 81q-113 0 -192 -81t-79 -195t78.5 -194.5t192.5 -80.5t193 80.5t79 194.5zM537 881q0 -13 -8.5 -21.5t-21.5 -8.5h-206q-12 0 -21 8.5
t-9 21.5q0 12 9 21t21 9h206q13 0 21.5 -9t8.5 -21z" />
    <glyph glyph-name="omacron" unicode="&#x14d;" 
d="M417 658q0 -13 -8.5 -21.5t-20.5 -8.5h-207q-12 0 -20.5 8.5t-8.5 21.5q0 12 8.5 21t20.5 9h207q12 0 20.5 -9t8.5 -21zM117 225q0 -72 45 -122q50 -53 122 -53q73 0 123 53q44 49 44 122t-44 122q-50 53 -123 53q-72 0 -122 -53q-45 -50 -45 -122zM45 225q0 104 67 168
q67 67 172 67t172 -67q68 -65 68 -168q0 -102 -68 -167q-68 -68 -172 -68t-172 68q-67 64 -67 167z" />
    <glyph glyph-name="Ohungarumlaut" unicode="&#x150;" horiz-adv-x="806" 
d="M759 339q0 -147 -104 -248t-252 -101t-252 101.5t-104 247.5q0 147 104 249t252 102t252 -102t104 -249zM675 339q0 114 -79 195t-193 81q-113 0 -192 -81t-79 -195t78.5 -194.5t192.5 -80.5t193 80.5t79 194.5zM240 794q0 8 6 19l76 138q12 21 29 21q12 0 21 -8.5
t9 -19.5q0 -8 -9 -22l-81 -134q-11 -18 -26 -18q-10 0 -17.5 6.5t-7.5 17.5zM425 794q0 8 6 19l76 138q12 21 28 21q13 0 21.5 -8.5t8.5 -19.5q0 -8 -8 -22l-81 -134q-10 -18 -26 -18q-10 0 -17.5 6.5t-7.5 17.5z" />
    <glyph glyph-name="ohungarumlaut" unicode="&#x151;" 
d="M117 225q0 -72 45 -122q50 -53 122 -53q73 0 123 53q44 49 44 122t-44 122q-50 53 -123 53q-72 0 -122 -53q-45 -50 -45 -122zM45 225q0 104 67 168q67 67 172 67t172 -67q68 -65 68 -168q0 -102 -68 -167q-68 -68 -172 -68t-172 68q-67 64 -67 167zM121 592q0 8 6 19
l76 138q12 21 29 21q12 0 21 -8.5t9 -19.5q0 -8 -9 -22l-81 -134q-11 -18 -26 -18q-10 0 -17.5 6.5t-7.5 17.5zM306 592q0 8 6 19l76 138q12 21 28 21q13 0 21.5 -8.5t8.5 -19.5q0 -8 -8 -22l-81 -134q-11 -18 -26 -18q-10 0 -17.5 6.5t-7.5 17.5z" />
    <glyph glyph-name="OE" unicode="&#x152;" horiz-adv-x="1102" 
d="M693 44h331q9 0 19 -7t10 -22q0 -25 -29 -25h-356q-10 0 -21 8q-8 11 -8 21v62q-100 -92 -233 -92q-142 0 -246.5 103.5t-104.5 249.5q0 142 102 245t249 103q132 0 233 -88v58q0 13 8 21q9 9 21 9h356q29 0 29 -27t-29 -27h-331v-269h249q30 0 30 -27q0 -15 -10 -21.5
t-20 -6.5h-249v-268zM406 44q68 0 129 32t104 87v358q-92 115 -233 115q-116 0 -206.5 -88t-90.5 -206t87.5 -208t209.5 -90z" />
    <glyph glyph-name="oe" unicode="&#x153;" horiz-adv-x="952" 
d="M631 458q87 0 162 -69t75 -159q0 -20 -8.5 -27t-31.5 -7h-376q8 -63 61 -108.5t118 -45.5q99 0 145 42q10 8 21.5 7t18.5 -9q16 -20 -3 -39q-62 -55 -182 -55q-94 0 -164 68q-71 -68 -164 -68q-95 0 -165 68.5t-70 166.5q0 94 69 164.5t166 70.5q96 0 164 -68
q68 68 164 68zM122 224q0 -73 52.5 -127.5t128.5 -54.5q78 0 130 55q-37 58 -37 125q0 66 38 128q-54 54 -131 54q-74 0 -127.5 -51.5t-53.5 -128.5zM452 250h361q-10 63 -63 108.5t-119 45.5q-65 0 -116 -43t-63 -111z" />
    <glyph glyph-name="Racute" unicode="&#x154;" horiz-adv-x="649" 
d="M155 266v-237q0 -16 -11.5 -27.5t-28.5 -11.5t-28.5 11.5t-11.5 27.5v613q0 16 11.5 27.5t28.5 11.5h239q107 0 166 -39q81 -52 81 -169q0 -104 -80 -163q-38 -28 -98 -40l167 -213q11 -14 11 -27q0 -16 -12 -28t-29 -12q-20 0 -34 19l-195 257h-176zM345 613h-190v-280
h188q77 0 117 23q59 35 59 117q0 83 -57 116q-40 24 -117 24zM251 794q0 8 6 19l76 138q12 21 28 21q13 0 21.5 -8.5t8.5 -19.5q0 -8 -8 -22l-81 -134q-10 -18 -26 -18q-10 0 -17.5 6.5t-7.5 17.5z" />
    <glyph glyph-name="racute" unicode="&#x155;" horiz-adv-x="377" 
d="M273 460q50 0 83 -21q29 -18 29 -41q0 -15 -9.5 -24.5t-23.5 -9.5q-10 0 -37 14.5t-54 14.5q-51 0 -81 -40q-32 -45 -34 -122v-206q0 -14 -11 -24.5t-26 -10.5t-26 10.5t-11 24.5v400q0 15 11 25t26 10t26 -10t11 -25v-38q34 73 127 73zM158 592q0 8 6 19l76 138
q12 21 28 21q13 0 21.5 -8.5t8.5 -19.5q0 -8 -8 -22l-81 -134q-11 -18 -26 -18q-10 0 -17.5 6.5t-7.5 17.5z" />
    <glyph glyph-name="Rcommaaccent" unicode="&#x156;" horiz-adv-x="649" 
d="M155 266v-237q0 -16 -11.5 -27.5t-28.5 -11.5t-28.5 11.5t-11.5 27.5v613q0 16 11.5 27.5t28.5 11.5h239q107 0 166 -39q81 -52 81 -169q0 -104 -80 -163q-38 -28 -98 -40l167 -213q11 -14 11 -27q0 -16 -12 -28t-29 -12q-20 0 -34 19l-195 257h-176zM345 613h-190v-280
h188q77 0 117 23q59 35 59 117q0 83 -57 116q-40 24 -117 24zM274 -221q0 8 17 24t17 31q0 11 -18 25t-18 36q0 19 12 31.5t35 12.5q27 0 41.5 -18t14.5 -49q0 -44 -30.5 -75.5t-55.5 -31.5q-15 0 -15 14z" />
    <glyph glyph-name="rcommaaccent" unicode="&#x157;" horiz-adv-x="377" 
d="M273 460q50 0 83 -21q29 -18 29 -41q0 -15 -9.5 -24.5t-23.5 -9.5q-10 0 -37 14.5t-54 14.5q-51 0 -81 -40q-32 -45 -34 -122v-206q0 -14 -11 -24.5t-26 -10.5t-26 10.5t-11 24.5v400q0 15 11 25t26 10t26 -10t11 -25v-38q34 73 127 73zM78 -221q0 8 17 24t17 31
q0 11 -18 25t-18 36q0 19 12 31.5t35 12.5q27 0 41.5 -18t14.5 -49q0 -44 -30.5 -75.5t-55.5 -31.5q-15 0 -15 14z" />
    <glyph glyph-name="Rcaron" unicode="&#x158;" horiz-adv-x="649" 
d="M155 266v-237q0 -16 -11.5 -27.5t-28.5 -11.5t-28.5 11.5t-11.5 27.5v613q0 16 11.5 27.5t28.5 11.5h239q107 0 166 -39q81 -52 81 -169q0 -104 -80 -163q-38 -28 -98 -40l167 -213q11 -14 11 -27q0 -16 -12 -28t-29 -12q-20 0 -34 19l-195 257h-176zM345 613h-190v-280
h188q77 0 117 23q59 35 59 117q0 83 -57 116q-40 24 -117 24zM161 944q0 12 8 19.5t19 7.5q13 0 22 -11l110 -114l111 114q9 11 22 11q11 0 19 -7.5t8 -19.5q0 -10 -13 -23l-123 -127q-11 -11 -24 -11q-12 0 -23 11l-124 127q-12 12 -12 23z" />
    <glyph glyph-name="rcaron" unicode="&#x159;" horiz-adv-x="377" 
d="M273 460q50 0 83 -21q29 -18 29 -41q0 -15 -9.5 -24.5t-23.5 -9.5q-10 0 -37 14.5t-54 14.5q-51 0 -81 -40q-34 -48 -34 -132v-196q0 -14 -11 -24.5t-26 -10.5t-26 10.5t-11 24.5v400q0 15 11 25t26 10t26 -10t11 -25v-38q34 73 127 73zM56 742q0 12 8 19.5t19 7.5
q13 0 22 -11l110 -114l111 114q9 11 22 11q11 0 19 -7.5t8 -19.5q0 -10 -13 -23l-123 -127q-11 -11 -24 -11q-12 0 -23 11l-124 127q-12 12 -12 23z" />
    <glyph glyph-name="Sacute" unicode="&#x15a;" horiz-adv-x="556" 
d="M489 614q0 -16 -10.5 -26.5t-27.5 -10.5q-11 0 -33.5 11t-34.5 15q-46 18 -100 18q-153 0 -153 -110q0 -36 24.5 -59t73.5 -42q23 -8 64.5 -19.5t75 -23t61.5 -27.5q88 -52 88 -148q0 -95 -66 -148.5t-176 -53.5q-104 0 -194 48q-38 21 -38 46q0 17 11 28t28 11
q7 0 15 -5t23.5 -14.5t34.5 -17.5q56 -27 120 -27q78 0 117 34.5t39 91.5q0 67 -86 104q-23 10 -90.5 30t-107.5 40q-101 49 -101 150q0 86 62 133.5t179 47.5q93 0 156 -29q46 -21 46 -47zM207 794q0 8 6 19l76 138q12 21 28 21q13 0 21.5 -8.5t8.5 -19.5q0 -8 -8 -22
l-81 -134q-10 -18 -26 -18q-10 0 -17.5 6.5t-7.5 17.5z" />
    <glyph glyph-name="sacute" unicode="&#x15b;" horiz-adv-x="403" 
d="M356 406q0 -12 -8 -20t-20 -8q-13 0 -47.5 11t-67.5 11q-92 0 -92 -61q0 -23 14 -36.5t41 -24.5q15 -6 53.5 -20t55.5 -22q83 -39 83 -113q0 -62 -45 -97.5t-122 -35.5q-76 0 -127 25q-38 20 -38 45q0 12 8 20.5t21 8.5q17 0 40 -15q43 -25 93 -25q94 0 94 68
q0 27 -16 42t-48 29q-12 6 -50.5 19.5t-58.5 22.5q-74 34 -74 109q0 58 43 90t122 32q62 0 104 -15q42 -14 42 -40zM134 592q0 8 6 19l76 138q12 21 28 21q13 0 21.5 -8.5t8.5 -19.5q0 -8 -8 -22l-81 -134q-11 -18 -26 -18q-10 0 -17.5 6.5t-7.5 17.5z" />
    <glyph glyph-name="Scedilla" unicode="&#x15e;" horiz-adv-x="556" 
d="M381 -110q0 -45 -37 -66.5t-88 -21.5q-21 0 -36 4q-17 6 -17 20q0 8 6 14t14 6q5 0 16 -1.5t21 -1.5q29 0 50 11.5t21 36.5q0 42 -62 42q-11 0 -17 6.5t-4 17.5l3 34q-97 6 -170 47q-38 21 -38 46q0 17 11 28t28 11q7 0 15 -5t23.5 -14.5t34.5 -17.5q56 -27 120 -27
q78 0 117 34.5t39 91.5q0 67 -86 104q-23 10 -90.5 30t-107.5 40q-101 49 -101 150q0 86 62 133.5t179 47.5q93 0 156 -29q46 -21 46 -47q0 -16 -10.5 -26.5t-27.5 -10.5q-11 0 -33.5 11t-34.5 15q-46 18 -100 18q-153 0 -153 -110q0 -36 24.5 -59t73.5 -42
q23 -8 64.5 -19.5t75 -23t61.5 -27.5q88 -52 88 -148q0 -91 -62 -144t-164 -57l1 -26q39 -3 64 -23t25 -52z" />
    <glyph glyph-name="scedilla" unicode="&#x15f;" horiz-adv-x="403" 
d="M305 -110q0 -45 -37 -66.5t-88 -21.5q-21 0 -36 4q-17 6 -17 20q0 8 6 14t14 6q5 0 16 -1.5t21 -1.5q29 0 50 11.5t21 36.5q0 42 -62 42q-11 0 -17 6.5t-4 17.5l3 34q-62 5 -101 24q-38 20 -38 45q0 12 8 20.5t21 8.5q17 0 40 -15q43 -25 93 -25q94 0 94 68q0 27 -16 42
t-48 29q-12 6 -50.5 19.5t-58.5 22.5q-74 34 -74 109q0 58 43 90t122 32q62 0 104 -15q42 -14 42 -40q0 -12 -8 -20t-20 -8q-13 0 -47.5 11t-67.5 11q-92 0 -92 -61q0 -23 14 -36.5t41 -24.5q15 -6 53.5 -20t55.5 -22q83 -39 83 -113q0 -59 -41 -94t-112 -38l1 -26
q39 -3 64 -23t25 -52z" />
    <glyph glyph-name="Scaron" unicode="&#x160;" horiz-adv-x="578" 
d="M259 767l-94 74q-22 17 -14 43t34 26q10 0 21 -8l76 -61l78 61q10 7 20 7q28 0 34.5 -26t-14.5 -42l-94 -74q-21 -16 -47 0zM551 188q0 -91 -72.5 -144.5t-170.5 -53.5q-50 0 -92.5 8t-83.5 26.5t-67 55.5t-31 89q-2 16 6.5 27t25.5 11q35 0 39 -31q6 -43 39.5 -71
t74 -37.5t87.5 -9.5q44 0 81.5 10.5t66.5 41t29 76.5q0 37 -16.5 63t-47.5 39.5t-60 19t-70 9.5q-241 26 -241 180q0 89 68.5 141t163.5 52q38 0 76 -7t76.5 -22t67 -44t38.5 -68q9 -35 -27 -39q-31 0 -42 31q-25 81 -187 81q-65 0 -115 -32t-50 -94q1 -30 18 -51.5t48 -33
t57 -16.5t62 -9q25 -2 32 -3t34 -4.5t38 -7.5t35 -12t35.5 -17t28.5 -24t25 -33t14.5 -43t6.5 -54z" />
    <glyph glyph-name="scaron" unicode="&#x161;" horiz-adv-x="476" 
d="M192 553l-94 74q-22 17 -14 43t34 26q10 0 21 -8l76 -61l78 61q10 7 20 7q28 0 34.5 -26t-14.5 -42l-94 -74q-21 -16 -47 0zM259 269q4 -1 24.5 -6t27.5 -7.5t26 -8.5t27 -10.5t23 -12.5t22 -17t15 -20.5t11.5 -25.5t3.5 -31q0 -69 -54 -104.5t-129 -35.5
q-176 0 -215 133q-5 15 3 24.5t26 11.5q7 -1 11 0t8 -1.5t6 -3t4.5 -5t3.5 -6.5t3.5 -7.5t3.5 -7.5q20 -40 53 -55t92 -15q41 0 78.5 16.5t37.5 53.5q0 13 -9 24t-26 18.5t-31 12.5t-35 10t-26 7q-3 1 -21 5.5l-24 6t-23.5 7t-24.5 9t-21.5 10.5t-21.5 13t-17 15.5t-14.5 19
t-8 22t-3.5 26.5q0 67 48 99.5t124 32.5q61 0 114.5 -23t73.5 -74q8 -15 -0.5 -27t-26.5 -12q-29 0 -44 23q-28 45 -117 45q-104 0 -104 -64q0 -8 4 -15.5t12.5 -13t17 -10t22 -8.5t23 -6.5t25 -6t22.5 -5.5z" />
    <glyph glyph-name="Tcommaaccent" unicode="&#x162;" horiz-adv-x="564" 
d="M530 610h-208v-581q0 -16 -11.5 -27.5t-28.5 -11.5t-28.5 11.5t-11.5 27.5v581h-207q-15 0 -25 10.5t-10 25.5q0 14 10 24.5t25 10.5h495q14 0 24 -10.5t10 -24.5q0 -15 -10 -25.5t-24 -10.5zM233 -221q0 8 17 24t17 31q0 11 -18 25t-18 36q0 19 12 31.5t35 12.5
q27 0 41.5 -18t14.5 -49q0 -44 -30.5 -75.5t-55.5 -31.5q-15 0 -15 14z" />
    <glyph glyph-name="tcommaaccent" unicode="&#x163;" horiz-adv-x="353" 
d="M43 451h43v75q0 15 10.5 25.5t26.5 10.5q14 0 25 -10.5t11 -25.5v-75h138q12 0 20.5 -8.5t8.5 -19.5q0 -12 -8.5 -21t-20.5 -9h-138v-242q0 -50 18 -73.5t64 -23.5q29 0 58 16.5t35 16.5q12 0 19.5 -8.5t7.5 -20.5q0 -29 -48 -50q-41 -18 -85 -18q-142 0 -142 154v249
h-43q-12 0 -20.5 9t-8.5 21q0 11 8.5 19.5t20.5 8.5zM184 -221q0 8 17 24t17 31q0 11 -18 25t-18 36q0 19 12 31.5t35 12.5q27 0 41.5 -18t14.5 -49q0 -44 -30.5 -75.5t-55.5 -31.5q-15 0 -15 14z" />
    <glyph glyph-name="Tcaron" unicode="&#x164;" horiz-adv-x="564" 
d="M530 610h-208v-581q0 -16 -11.5 -27.5t-28.5 -11.5t-28.5 11.5t-11.5 27.5v581h-207q-15 0 -25 10.5t-10 25.5q0 14 10 24.5t25 10.5h495q14 0 24 -10.5t10 -24.5q0 -15 -10 -25.5t-24 -10.5zM123 944q0 12 8 19.5t19 7.5q13 0 22 -11l110 -114l111 114q9 11 22 11
q11 0 19 -7.5t8 -19.5q0 -10 -13 -23l-123 -127q-11 -11 -24 -11q-12 0 -23 11l-124 127q-12 12 -12 23z" />
    <glyph glyph-name="tcaron" unicode="&#x165;" horiz-adv-x="419" 
d="M43 451h43v75q0 15 10.5 25.5t26.5 10.5q14 0 25 -10.5t11 -25.5v-75h138q12 0 20.5 -8.5t8.5 -19.5q0 -12 -8.5 -21t-20.5 -9h-138v-242q0 -50 18 -73.5t64 -23.5q29 0 58 16.5t35 16.5q12 0 19.5 -8.5t7.5 -20.5q0 -29 -48 -50q-41 -18 -85 -18q-142 0 -142 154v249
h-43q-12 0 -20.5 9t-8.5 21q0 11 8.5 19.5t20.5 8.5zM309 530q0 8 17 24t17 31q0 11 -18 25t-18 36q0 19 12 31.5t35 12.5q27 0 41.5 -18t14.5 -49q0 -44 -30.5 -75.5t-55.5 -31.5q-15 0 -15 14z" />
    <glyph glyph-name="Umacron" unicode="&#x16a;" horiz-adv-x="722" 
d="M360 62q103 0 158 61q51 57 51 156v372q0 16 11.5 27.5t28.5 11.5t28.5 -11.5t11.5 -27.5v-382q0 -121 -66 -193q-75 -86 -222 -86t-222 86q-66 72 -66 193v382q0 16 11.5 27.5t28.5 11.5t28.5 -11.5t11.5 -27.5v-372q0 -99 51 -156q55 -61 156 -61zM493 881
q0 -13 -8.5 -21.5t-21.5 -8.5h-206q-12 0 -21 8.5t-9 21.5q0 12 9 21t21 9h206q13 0 21.5 -9t8.5 -21z" />
    <glyph glyph-name="umacron" unicode="&#x16b;" horiz-adv-x="546" 
d="M406 658q0 -13 -8.5 -21.5t-21.5 -8.5h-206q-12 0 -21 8.5t-9 21.5q0 12 9 21t21 9h206q13 0 21.5 -9t8.5 -21zM65 191v234q0 15 10.5 25t26.5 10q15 0 25.5 -10t10.5 -25v-228q0 -56 19 -88q30 -54 116 -54t116 54q18 30 18 88v228q0 15 11 25t26 10t26 -10t11 -25v-234
q0 -76 -34 -128q-48 -73 -174 -73q-125 0 -175 73q-33 50 -33 128z" />
    <glyph glyph-name="Uring" unicode="&#x16e;" horiz-adv-x="722" 
d="M360 62q103 0 158 61q51 57 51 156v372q0 16 11.5 27.5t28.5 11.5t28.5 -11.5t11.5 -27.5v-382q0 -121 -66 -193q-75 -86 -222 -86t-222 86q-66 72 -66 193v382q0 16 11.5 27.5t28.5 11.5t28.5 -11.5t11.5 -27.5v-372q0 -99 51 -156q55 -61 156 -61zM475 862
q0 -49 -33.5 -82.5t-81.5 -33.5t-82 33.5t-34 82.5q0 48 34 82t82 34t81.5 -34t33.5 -82zM439 862q0 33 -23 56.5t-56 23.5t-56 -23.5t-23 -56.5q0 -34 23 -57t56 -23t56 23t23 57z" />
    <glyph glyph-name="uring" unicode="&#x16f;" horiz-adv-x="546" 
d="M65 191v234q0 15 10.5 25t26.5 10q15 0 25.5 -10t10.5 -25v-228q0 -56 19 -88q30 -54 116 -54t116 54q18 30 18 88v228q0 15 11 25t26 10t26 -10t11 -25v-234q0 -76 -34 -128q-48 -73 -174 -73q-125 0 -175 73q-33 50 -33 128zM388 662q0 -49 -33.5 -82.5t-81.5 -33.5
t-82 33.5t-34 82.5q0 48 34 82t82 34t81.5 -34t33.5 -82zM352 662q0 33 -23 56.5t-56 23.5t-56 -23.5t-23 -56.5q0 -34 23 -57t56 -23t56 23t23 57z" />
    <glyph glyph-name="Uhungarumlaut" unicode="&#x170;" horiz-adv-x="722" 
d="M360 62q103 0 158 61q51 57 51 156v372q0 16 11.5 27.5t28.5 11.5t28.5 -11.5t11.5 -27.5v-382q0 -121 -66 -193q-75 -86 -222 -86t-222 86q-66 72 -66 193v382q0 16 11.5 27.5t28.5 11.5t28.5 -11.5t11.5 -27.5v-372q0 -99 51 -156q55 -61 156 -61zM198 794q0 8 6 19
l76 138q12 21 29 21q12 0 21 -8.5t9 -19.5q0 -8 -9 -22l-81 -134q-11 -18 -26 -18q-10 0 -17.5 6.5t-7.5 17.5zM383 794q0 8 6 19l76 138q12 21 28 21q13 0 21.5 -8.5t8.5 -19.5q0 -8 -8 -22l-81 -134q-10 -18 -26 -18q-10 0 -17.5 6.5t-7.5 17.5z" />
    <glyph glyph-name="uhungarumlaut" unicode="&#x171;" horiz-adv-x="546" 
d="M65 191v234q0 15 10.5 25t26.5 10q15 0 25.5 -10t10.5 -25v-228q0 -56 19 -88q30 -54 116 -54t116 54q18 30 18 88v228q0 15 11 25t26 10t26 -10t11 -25v-234q0 -76 -34 -128q-48 -73 -174 -73q-125 0 -175 73q-33 50 -33 128zM125 592q0 8 6 19l76 138q12 21 29 21
q12 0 21 -8.5t9 -19.5q0 -8 -9 -22l-81 -134q-11 -18 -26 -18q-10 0 -17.5 6.5t-7.5 17.5zM310 592q0 8 6 19l76 138q12 21 28 21q13 0 21.5 -8.5t8.5 -19.5q0 -8 -8 -22l-81 -134q-11 -18 -26 -18q-10 0 -17.5 6.5t-7.5 17.5z" />
    <glyph glyph-name="Uogonek" unicode="&#x172;" horiz-adv-x="722" 
d="M360 62q103 0 158 61q51 57 51 156v372q0 16 11.5 27.5t28.5 11.5t28.5 -11.5t11.5 -27.5v-382q0 -121 -66 -193q-73 -79 -203 -85q-17 -42 -17 -78q0 -58 74 -58q15 0 30 3.5t19 3.5q22 0 22 -22q0 -20 -23 -28q-27 -9 -53 -9q-119 0 -119 93q0 39 24 95q-130 7 -198 85
q-66 72 -66 193v382q0 16 11.5 27.5t28.5 11.5t28.5 -11.5t11.5 -27.5v-372q0 -99 51 -156q55 -61 156 -61z" />
    <glyph glyph-name="uogonek" unicode="&#x173;" horiz-adv-x="546" 
d="M65 191v234q0 15 10.5 25t26.5 10q15 0 25.5 -10t10.5 -25v-232q0 -51 19 -88q33 -54 116 -54t116 54q18 35 18 88v232q0 15 11 25t26 10t26 -10t11 -25v-234q0 -76 -34 -128q-43 -66 -153 -72q-18 -43 -18 -78q0 -58 74 -58q16 0 31 3.5t18 3.5q22 0 22 -22
q0 -20 -23 -28q-27 -9 -53 -9q-118 0 -118 93q0 39 24 95q-110 6 -153 72q-33 50 -33 128z" />
    <glyph glyph-name="Wcircumflex" unicode="&#x174;" horiz-adv-x="1073" 
d="M536 134q-26 -71 -86 -109q-55 -35 -126 -35q-121 0 -189 72q-62 65 -62 186v403q0 16 11.5 27.5t28.5 11.5t28.5 -11.5t11.5 -27.5v-403q0 -89 42 -134q47 -50 131 -50q66 0 110 41q60 57 60 159v387q0 16 11.5 27.5t28.5 11.5t28.5 -11.5t11.5 -27.5v-387
q0 -101 61 -159q44 -41 110 -41q85 0 130 50q43 46 43 134v403q0 16 11.5 27.5t28.5 11.5t28.5 -11.5t11.5 -27.5v-403q0 -121 -62 -186q-68 -72 -189 -72q-71 0 -126 35q-59 38 -87 109zM535 971q12 0 24 -12l123 -127q13 -15 13 -22q0 -12 -7.5 -19.5t-19.5 -7.5
q-11 0 -19 8l-114 117l-113 -117q-8 -8 -19 -8q-12 0 -19.5 7.5t-7.5 19.5q0 10 12 22l124 127q12 12 23 12z" />
    <glyph glyph-name="wcircumflex" unicode="&#x175;" horiz-adv-x="796" 
d="M65 191v234q0 15 10.5 25.5t26.5 10.5q15 0 25.5 -10.5t10.5 -25.5v-230q0 -56 17 -90q24 -49 93 -49q71 0 97 54q16 32 16 87v228q0 15 11 25.5t26 10.5t26 -10.5t11 -25.5v-228q0 -54 15 -87q25 -54 98 -54q67 0 93 48q17 34 17 91v230q0 15 10.5 25.5t25.5 10.5
t26 -10.5t11 -25.5v-234q0 -81 -27 -128q-42 -73 -150 -73q-85 0 -129 54q-16 17 -27 41q-9 -20 -27 -41q-46 -54 -128 -54q-108 0 -151 74q-27 47 -27 127zM396 769q12 0 24 -12l123 -127q13 -15 13 -22q0 -12 -7.5 -19.5t-19.5 -7.5q-11 0 -19 8l-114 117l-113 -117
q-8 -8 -19 -8q-12 0 -19.5 7.5t-7.5 19.5q0 10 12 22l124 127q12 12 23 12z" />
    <glyph glyph-name="Ycircumflex" unicode="&#x176;" horiz-adv-x="571" 
d="M559 624l-234 -325v-270q0 -16 -11.5 -27.5t-28.5 -11.5t-28.5 11.5t-11.5 27.5v270l-232 326q-9 13 -9 27q0 17 11 27.5t28 10.5q21 0 35 -20l207 -291l208 291q14 20 35 20q17 0 28 -11t11 -27q0 -14 -8 -28zM284 971q12 0 24 -12l123 -127q13 -15 13 -22
q0 -12 -7.5 -19.5t-19.5 -7.5q-11 0 -19 8l-114 117l-113 -117q-8 -8 -19 -8q-12 0 -19.5 7.5t-7.5 19.5q0 10 12 22l124 127q12 12 23 12z" />
    <glyph glyph-name="ycircumflex" unicode="&#x177;" horiz-adv-x="460" 
d="M414 461q16 0 27.5 -11t11.5 -28q0 -10 -8 -32l-163 -414q-81 -207 -225 -207q-15 0 -25.5 10.5t-10.5 24.5q0 15 10 25.5t26 10.5q51 0 84 32.5t62 100.5l-187 420q-9 21 -9 28q0 17 11.5 28.5t28.5 11.5q29 0 38 -26l154 -368l136 361q13 33 39 33zM226 769
q12 0 24 -12l123 -127q13 -15 13 -22q0 -12 -7.5 -19.5t-19.5 -7.5q-11 0 -19 8l-114 117l-113 -117q-8 -8 -19 -8q-12 0 -19.5 7.5t-7.5 19.5q0 10 12 22l124 127q12 12 23 12z" />
    <glyph glyph-name="Ydieresis" unicode="&#x178;" horiz-adv-x="565" 
d="M528 684q23 -16 5 -40l-223 -302v-322q0 -30 -27 -30t-27 30v322l-222 302q-18 24 5 40q23 15 40 -10l204 -279l205 280q17 24 40 9zM204 756q-15 0 -26.5 11t-11.5 27q0 17 11 27.5t27 10.5q17 0 27.5 -10.5t10.5 -27.5q0 -16 -10.5 -27t-27.5 -11zM366 756
q-16 0 -27 11t-11 27q0 17 11 27.5t27 10.5t27 -10.5t11 -27.5q0 -16 -11.5 -27t-26.5 -11z" />
    <glyph glyph-name="Zacute" unicode="&#x179;" horiz-adv-x="554" 
d="M42 681h445q15 0 25 -10.5t10 -24.5q0 -13 -7 -23l-384 -552h377q14 0 24.5 -11t10.5 -25t-10.5 -24.5t-24.5 -10.5h-450q-14 0 -24.5 10.5t-10.5 24.5q0 12 9 25l383 550h-373q-14 0 -24 10.5t-10 25.5q0 14 10 24.5t24 10.5zM206 794q0 8 6 19l76 138q12 21 28 21
q13 0 21.5 -8.5t8.5 -19.5q0 -8 -8 -22l-81 -134q-11 -18 -26 -18q-10 0 -17.5 6.5t-7.5 17.5z" />
    <glyph glyph-name="zacute" unicode="&#x17a;" horiz-adv-x="395" 
d="M115 64h246q13 0 22 -9.5t9 -22.5q0 -14 -9 -23t-22 -9h-316q-31 0 -31 29q0 14 13 30l253 329h-244q-13 0 -22 9t-9 23q0 13 9 22.5t22 9.5h314q14 0 22.5 -8t8.5 -20q0 -14 -14 -33zM130 592q0 8 6 19l76 138q12 21 28 21q13 0 21.5 -8.5t8.5 -19.5q0 -8 -8 -22
l-81 -134q-11 -18 -26 -18q-10 0 -17.5 6.5t-7.5 17.5z" />
    <glyph glyph-name="Zdotaccent" unicode="&#x17b;" horiz-adv-x="554" 
d="M42 681h445q15 0 25 -10.5t10 -24.5q0 -13 -7 -23l-384 -552h377q14 0 24.5 -11t10.5 -25t-10.5 -24.5t-24.5 -10.5h-450q-14 0 -24.5 10.5t-10.5 24.5q0 12 9 25l383 550h-373q-14 0 -24 10.5t-10 25.5q0 14 10 24.5t24 10.5zM276 831q-18 0 -31 12.5t-13 31.5
q0 18 13 30.5t31 12.5t31 -12.5t13 -30.5q0 -19 -13 -31.5t-31 -12.5z" />
    <glyph glyph-name="zdotaccent" unicode="&#x17c;" horiz-adv-x="395" 
d="M115 64h246q13 0 22 -9.5t9 -22.5q0 -14 -9 -23t-22 -9h-316q-31 0 -31 29q0 14 13 30l253 329h-244q-13 0 -22 9t-9 23q0 13 9 22.5t22 9.5h314q14 0 22.5 -8t8.5 -20q0 -14 -14 -33zM198 624q-18 0 -31 12.5t-13 31.5q0 18 13 30.5t31 12.5t31 -12.5t13 -30.5
q0 -19 -13 -31.5t-31 -12.5z" />
    <glyph glyph-name="Zcaron" unicode="&#x17d;" horiz-adv-x="648" 
d="M86 690h-4h476q18 0 27 -16q7 -15 -4 -31l-447 -599h425q29 0 29 -27t-29 -27h-476q-18 0 -27 16q-8 18 4 31l447 599h-421q-33 0 -33 27t33 27zM283 796l-96 76q-14 12 -14 27q0 18 15.5 23.5t29.5 -6.5l84 -68l86 68q15 11 30 5.5t15 -22.5q0 -15 -14 -27l-96 -76
q-17 -15 -40 0z" />
    <glyph glyph-name="zcaron" unicode="&#x17e;" horiz-adv-x="431" 
d="M197 563l-102 81q-19 17 -4 35q15 19 35 3l90 -73l94 74q11 9 22.5 5.5t17.5 -19.5q4 -12 -9 -24l-104 -82q-17 -15 -40 0zM28 4q-7 15 4 29l291 373h-270q-11 0 -19 7t-8 20t8 20t19 7h324q17 0 25 -15q7 -16 -3 -28l-292 -373h270q10 0 18.5 -7.5t8.5 -20.5t-8.5 -19.5
t-18.5 -6.5h-324q-19 0 -25 14z" />
    <glyph glyph-name="florin" unicode="&#x192;" horiz-adv-x="489" 
d="M285 470h120q40 0 40 -40q0 -17 -11 -29.5t-29 -12.5h-120v-409q0 -90 -59.5 -155t-150.5 -65q-18 0 -31 11.5t-13 29.5t13 31t31 13q54 0 91.5 39t37.5 96v409h-36q-16 0 -29 10t-13 30q0 19 11 30.5t31 11.5h36v34q0 89 61 142.5t153 53.5q18 0 29 -11t11 -29
q0 -19 -11.5 -31.5t-28.5 -12.5q-53 0 -93 -33.5t-40 -78.5v-34z" />
    <glyph glyph-name="Scommaaccent" unicode="&#x218;" horiz-adv-x="556" 
d="M489 614q0 -16 -10.5 -26.5t-27.5 -10.5q-11 0 -33.5 11t-34.5 15q-46 18 -100 18q-153 0 -153 -110q0 -36 24.5 -59t73.5 -42q23 -8 64.5 -19.5t75 -23t61.5 -27.5q88 -52 88 -148q0 -95 -66 -148.5t-176 -53.5q-104 0 -194 48q-38 21 -38 46q0 17 11 28t28 11
q7 0 15 -5t23.5 -14.5t34.5 -17.5q56 -27 120 -27q78 0 117 34.5t39 91.5q0 67 -86 104q-23 10 -90.5 30t-107.5 40q-101 49 -101 150q0 86 62 133.5t179 47.5q93 0 156 -29q46 -21 46 -47zM233 -221q0 8 17 24t17 31q0 11 -18 25t-18 36q0 19 12 31.5t35 12.5
q27 0 41.5 -18t14.5 -49q0 -44 -30.5 -75.5t-55.5 -31.5q-15 0 -15 14z" />
    <glyph glyph-name="scommaaccent" unicode="&#x219;" horiz-adv-x="403" 
d="M356 406q0 -12 -8 -20t-20 -8q-13 0 -47.5 11t-67.5 11q-92 0 -92 -61q0 -23 14 -36.5t41 -24.5q15 -6 53.5 -20t55.5 -22q83 -39 83 -113q0 -62 -45 -97.5t-122 -35.5q-76 0 -127 25q-38 20 -38 45q0 12 8 20.5t21 8.5q17 0 40 -15q43 -25 93 -25q94 0 94 68
q0 27 -16 42t-48 29q-12 6 -50.5 19.5t-58.5 22.5q-74 34 -74 109q0 58 43 90t122 32q62 0 104 -15q42 -14 42 -40zM159 -221q0 8 17 24t17 31q0 11 -18 25t-18 36q0 19 12 31.5t35 12.5q27 0 41.5 -18t14.5 -49q0 -44 -30.5 -75.5t-55.5 -31.5q-15 0 -15 14z" />
    <glyph glyph-name="uni021A" unicode="&#x21a;" horiz-adv-x="564" 
d="M530 610h-208v-581q0 -16 -11.5 -27.5t-28.5 -11.5t-28.5 11.5t-11.5 27.5v581h-207q-15 0 -25 10.5t-10 25.5q0 14 10 24.5t25 10.5h495q14 0 24 -10.5t10 -24.5q0 -15 -10 -25.5t-24 -10.5zM233 -221q0 8 17 24t17 31q0 11 -18 25t-18 36q0 19 12 31.5t35 12.5
q27 0 41.5 -18t14.5 -49q0 -44 -30.5 -75.5t-55.5 -31.5q-15 0 -15 14z" />
    <glyph glyph-name="uni021B" unicode="&#x21b;" horiz-adv-x="353" 
d="M43 451h43v75q0 15 10.5 25.5t26.5 10.5q14 0 25 -10.5t11 -25.5v-75h138q12 0 20.5 -8.5t8.5 -19.5q0 -12 -8.5 -21t-20.5 -9h-138v-242q0 -50 18 -73.5t64 -23.5q29 0 58 16.5t35 16.5q12 0 19.5 -8.5t7.5 -20.5q0 -29 -48 -50q-41 -18 -85 -18q-142 0 -142 154v249
h-43q-12 0 -20.5 9t-8.5 21q0 11 8.5 19.5t20.5 8.5zM184 -221q0 8 17 24t17 31q0 11 -18 25t-18 36q0 19 12 31.5t35 12.5q27 0 41.5 -18t14.5 -49q0 -44 -30.5 -75.5t-55.5 -31.5q-15 0 -15 14z" />
    <glyph glyph-name="circumflex" unicode="&#x2c6;" horiz-adv-x="476" 
d="M259 765l94 -74q21 -17 14 -43t-34 -26q-10 0 -21 8l-76 61l-78 -61q-10 -7 -20 -7q-28 0 -34.5 26t14.5 42l94 74q21 16 47 0z" />
    <glyph glyph-name="caron" unicode="&#x2c7;" horiz-adv-x="417" 
d="M69 758l120 -179l120 179q10 11 22.5 11t20.5 -11t0 -23l-142 -212q-7 -12 -21.5 -11t-20.5 11l-143 212q-8 11 -0.5 22t20.5 12t24 -11z" />
    <glyph glyph-name="breve" unicode="&#x2d8;" horiz-adv-x="417" 
d="M106 712q-16 13 -12.5 28.5t18.5 19.5t30 -7q43 -37 73.5 -36.5t67.5 34.5q20 20 37.5 3t3.5 -37q-44 -48 -103.5 -50t-114.5 45z" />
    <glyph glyph-name="dotaccent" unicode="&#x2d9;" horiz-adv-x="417" 
d="M216 621q-17 0 -29.5 12t-12.5 29q0 20 13 31t30 11t29.5 -11t12.5 -31q0 -17 -13 -29t-30 -12z" />
    <glyph glyph-name="ring" unicode="&#x2da;" horiz-adv-x="417" 
d="M323 662q0 -49 -33.5 -82.5t-81.5 -33.5t-82 33.5t-34 82.5q0 48 34 82t82 34t81.5 -34t33.5 -82zM287 662q0 33 -23 56.5t-56 23.5t-56 -23.5t-23 -56.5q0 -34 23 -57t56 -23t56 23t23 57z" />
    <glyph glyph-name="ogonek" unicode="&#x2db;" horiz-adv-x="417" 
d="M155 10h41q-28 -65 -28 -97q0 -25 15 -41.5t60 -16.5q15 0 30 3.5t19 3.5q22 0 22 -22q0 -20 -23 -28q-27 -9 -53 -9q-119 0 -119 93q0 47 36 114z" />
    <glyph glyph-name="tilde" unicode="&#x2dc;" horiz-adv-x="613" 
d="M460 787q16 16 38.5 10.5t30.5 -24.5t-5 -41q-37 -49 -97.5 -57.5t-118.5 23.5q-96 44 -137 -4q-17 -19 -41 -12t-31 27t8 41q40 45 106.5 50.5t121.5 -25.5q74 -41 125 12z" />
    <glyph glyph-name="hungarumlaut" unicode="&#x2dd;" horiz-adv-x="417" 
d="M45 592q0 8 6 19l76 138q12 21 29 21q12 0 21 -8.5t9 -19.5q0 -8 -9 -22l-81 -134q-11 -18 -26 -18q-10 0 -17.5 6.5t-7.5 17.5zM230 592q0 8 6 19l76 138q12 21 28 21q13 0 21.5 -8.5t8.5 -19.5q0 -8 -8 -22l-81 -134q-11 -18 -26 -18q-10 0 -17.5 6.5t-7.5 17.5z" />
    <glyph glyph-name="Delta" unicode="&#x394;" horiz-adv-x="614" 
d="M533 0h-452q-21 0 -33 11.5t-12 28.5q0 7 5 22l215 587q14 40 51 40t51 -40l215 -587q5 -15 5 -22q0 -17 -12 -28.5t-33 -11.5zM307 568l-179 -498h358z" />
    <glyph glyph-name="Delta" unicode="&#x2206;" horiz-adv-x="614" 
d="M533 0h-452q-21 0 -33 11.5t-12 28.5q0 7 5 22l215 587q14 40 51 40t51 -40l215 -587q5 -15 5 -22q0 -17 -12 -28.5t-33 -11.5zM307 568l-179 -498h358z" />
    <glyph glyph-name="Omega" unicode="&#x3a9;" horiz-adv-x="753" 
d="M377 690q133 0 211.5 -73.5t78.5 -211.5q0 -122 -82 -226q-16 -21 -37.5 -46t-33.5 -40.5t-19 -29.5h156q13 0 22 -9.5t9 -22.5t-9 -22t-22 -9h-196q-16 0 -25 9t-9 23q0 11 3.5 21t12.5 23.5t16 23t23.5 30t26.5 32.5q82 105 82 231q0 110 -55 168t-153 58t-153 -58
t-55 -168q0 -122 81 -231q11 -14 27 -33.5t24 -29t16.5 -22.5t12 -23.5t3.5 -21.5q0 -32 -35 -32h-195q-13 0 -22.5 9t-9.5 22t9.5 22.5t22.5 9.5h155q-7 14 -18.5 29.5t-33 40.5t-37.5 46q-83 106 -83 226q0 138 78.5 211.5t212.5 73.5z" />
    <glyph glyph-name="Omega" unicode="&#x2126;" horiz-adv-x="753" 
d="M377 690q133 0 211.5 -73.5t78.5 -211.5q0 -122 -82 -226q-16 -21 -37.5 -46t-33.5 -40.5t-19 -29.5h156q13 0 22 -9.5t9 -22.5t-9 -22t-22 -9h-196q-16 0 -25 9t-9 23q0 11 3.5 21t12.5 23.5t16 23t23.5 30t26.5 32.5q82 105 82 231q0 110 -55 168t-153 58t-153 -58
t-55 -168q0 -122 81 -231q11 -14 27 -33.5t24 -29t16.5 -22.5t12 -23.5t3.5 -21.5q0 -32 -35 -32h-195q-13 0 -22.5 9t-9.5 22t9.5 22.5t22.5 9.5h155q-7 14 -18.5 29.5t-33 40.5t-37.5 46q-83 106 -83 226q0 138 78.5 211.5t212.5 73.5z" />
    <glyph glyph-name="pi" unicode="&#x3c0;" horiz-adv-x="586" 
d="M473 -10q-24 0 -48 25q-40 43 -40 121v252h-187l-21 -258q-7 -78 -47 -115q-26 -25 -50 -25q-39 0 -39 30q0 4 2.5 8.5t4.5 7t8 8t9 8.5q36 33 41 95l19 241h-59q-13 0 -22 9t-9 23q0 13 9 22.5t22 9.5h455q13 0 21.5 -9.5t8.5 -22.5q0 -14 -8.5 -23t-21.5 -9h-64v-242
q0 -54 23 -85q5 -7 14 -15.5t12.5 -13.5t3.5 -12q0 -30 -37 -30z" />
    <glyph glyph-name="afii10023" unicode="&#x401;" horiz-adv-x="570" 
d="M224 873q19 0 32.5 -13t13.5 -33q0 -19 -13 -32.5t-33 -13.5q-18 0 -32 13.5t-14 32.5q0 18 13 32t33 14zM386 873q19 0 32.5 -13t13.5 -33q0 -19 -13.5 -32.5t-32.5 -13.5t-32.5 13.5t-13.5 32.5q0 18 13 31.5t33 14.5zM157 73h327q39 0 39 -41q0 -19 -10.5 -30.5
t-28.5 -11.5h-367q-17 0 -30.5 13.5t-13.5 30.5v620q0 19 13 32.5t31 13.5h365q41 0 41 -43q0 -40 -41 -40h-325v-234h250q37 0 37 -42q0 -18 -10 -29.5t-27 -11.5h-250v-227z" />
    <glyph glyph-name="afii10051" unicode="&#x402;" horiz-adv-x="748" 
d="M683 253v-24q0 -123 -48 -187q-39 -52 -92 -52q-18 0 -28.5 9t-10.5 24q0 10 7 17t24 17t28 19q47 40 47 136v29q0 87 -40 126q-33 33 -99 33q-86 0 -126 -61q-28 -43 -28 -100v-210q0 -16 -12 -27.5t-28 -11.5q-17 0 -28.5 11.5t-11.5 27.5v581h-208q-14 0 -24.5 10.5
t-10.5 25.5q0 14 10.5 24.5t24.5 10.5h495q14 0 24.5 -10.5t10.5 -24.5q0 -15 -10.5 -25.5t-24.5 -10.5h-207v-242q22 42 60 65q45 27 108 27q89 0 137 -42q61 -51 61 -165z" />
    <glyph glyph-name="afii10052" unicode="&#x403;" horiz-adv-x="533" 
d="M75 29v613q0 16 11.5 27.5t28.5 11.5h366q14 0 24 -10.5t10 -24.5q0 -15 -10 -25.5t-24 -10.5h-326v-581q0 -16 -11.5 -27.5t-28.5 -11.5t-28.5 11.5t-11.5 27.5zM203 794q0 8 6 19l76 138q12 21 28 21q13 0 21.5 -8.5t8.5 -19.5q0 -8 -8 -22l-81 -134q-10 -18 -26 -18
q-10 0 -17.5 6.5t-7.5 17.5z" />
    <glyph glyph-name="afii10053" unicode="&#x404;" horiz-adv-x="690" 
d="M407 705q111 0 208 -71q20 -15 20 -37q0 -17 -13.5 -29t-29.5 -12q-14 0 -26 9q-73 56 -159 56q-99 0 -179 -68.5t-94 -168.5h293q19 0 31.5 -12t12.5 -30q0 -17 -13.5 -29t-30.5 -12h-292q18 -98 95.5 -165t170.5 -67q103 0 179 73q14 13 33 13t31 -14q10 -10 10 -28
q0 -19 -14 -33q-58 -48 -113 -71q-60 -24 -126 -24q-145 0 -250 107t-105 253q0 102 52.5 186t135 129t173.5 45z" />
    <glyph glyph-name="afii10054" unicode="&#x405;" horiz-adv-x="618" 
d="M320 406q254 -21 254 -212q0 -94 -70 -151.5t-179 -57.5q-47 0 -91 9t-86 29t-69.5 58t-33.5 89v4q0 18 10.5 30t29.5 12q40 0 44 -37q9 -59 65.5 -84.5t128.5 -25.5q68 0 117 31t49 92q0 63 -51 94.5t-122 35.5q-43 2 -84.5 12t-82 29t-65.5 55t-25 83q0 92 66 148
t172 56q226 0 264 -146q1 -3 1 -11q0 -16 -9.5 -26.5t-26.5 -10.5q-19 0 -29.5 7t-18.5 29q-24 74 -179 74q-58 0 -106.5 -31.5t-48.5 -88.5q3 -80 176 -95z" />
    <glyph glyph-name="afii10055" unicode="&#x406;" horiz-adv-x="252" 
d="M158 664v-643q0 -13 -11 -24.5t-31 -11.5q-21 0 -32 11.5t-11 24.5v644q0 40 43 40q20 0 31 -12.5t11 -28.5z" />
    <glyph glyph-name="afii10056" unicode="&#x407;" horiz-adv-x="273" 
d="M52 873q19 0 32.5 -13t13.5 -33q0 -19 -13 -32.5t-33 -13.5q-18 0 -32 13.5t-14 32.5q0 18 13 32t33 14zM214 873q19 0 32.5 -13t13.5 -33q0 -19 -13.5 -32.5t-32.5 -13.5t-32.5 13.5t-13.5 32.5q0 18 13 31.5t33 14.5zM176 664v-643q0 -13 -11 -24.5t-31 -11.5
q-21 0 -32 11.5t-11 24.5v644q0 40 43 40q20 0 31 -12.5t11 -28.5z" />
    <glyph glyph-name="afii10057" unicode="&#x408;" horiz-adv-x="388" 
d="M302 669v-465q0 -95 -60.5 -157t-153.5 -62q-17 0 -29.5 13.5t-12.5 30.5t11.5 28.5t30.5 11.5q57 0 93.5 38.5t36.5 96.5v466q0 34 41 36q39 0 43 -37z" />
    <glyph glyph-name="afii10058" unicode="&#x409;" horiz-adv-x="1090" 
d="M199 610v-97q0 -297 -65 -439q-22 -49 -38.5 -66.5t-36.5 -17.5q-17 0 -28.5 11.5t-11.5 28.5q0 13 21.5 46t33.5 63q45 120 45 374v129q0 16 11.5 27.5t28.5 11.5h413q17 0 28.5 -11.5t11.5 -27.5v-263h189q47 0 86 -8t76 -27.5t58 -58.5t21 -94q0 -98 -67.5 -144.5
t-167.5 -46.5h-235q-17 0 -28.5 11.5t-11.5 27.5v571h-333zM961 191q0 61 -43 92t-122 31h-184v-248h189q72 0 116 32t44 93z" />
    <glyph glyph-name="afii10059" unicode="&#x40a;" horiz-adv-x="1122" 
d="M644 652v-273h188q47 0 86 -8t76 -27.5t58 -58.5t21 -94q0 -98 -67 -144.5t-168 -46.5h-234q-17 0 -28.5 11.5t-11.5 27.5v275h-409v-285q0 -16 -11.5 -27.5t-28.5 -11.5t-28.5 11.5t-11.5 27.5v622q0 16 11.5 27.5t28.5 11.5t28.5 -11.5t11.5 -27.5v-273h409v274
q0 16 11.5 27t28.5 11t28.5 -11t11.5 -27zM992 191q0 61 -43 92t-122 31h-183v-248h188q72 0 116 32t44 93z" />
    <glyph glyph-name="afii10060" unicode="&#x40b;" horiz-adv-x="748" 
d="M524 610h-207v-242q22 42 60 65q45 27 108 27q89 0 137 -42q61 -51 61 -165v-227q0 -15 -11 -25.5t-25 -10.5q-16 0 -26.5 10.5t-10.5 25.5v215q0 87 -40 126q-33 33 -99 33q-86 0 -126 -61q-28 -43 -28 -100v-210q0 -16 -12 -27.5t-28 -11.5q-17 0 -28.5 11.5
t-11.5 27.5v581h-208q-14 0 -24.5 10.5t-10.5 25.5q0 14 10.5 24.5t24.5 10.5h495q14 0 24.5 -10.5t10.5 -24.5q0 -15 -10.5 -25.5t-24.5 -10.5z" />
    <glyph glyph-name="afii10061" unicode="&#x40c;" horiz-adv-x="597" 
d="M548 624l-253 -278l261 -289q11 -11 11 -29q0 -16 -10.5 -27t-27.5 -11q-19 0 -38 21l-261 295h-75v-277q0 -16 -11.5 -27.5t-28.5 -11.5t-28.5 11.5t-11.5 27.5v623q0 16 11.5 27t28.5 11t28.5 -11t11.5 -27v-275h73l261 296q15 17 34 17q16 0 26.5 -11t10.5 -28
q0 -13 -12 -27zM228 818q0 8 6 19l76 138q12 21 28 21q13 0 21.5 -8.5t8.5 -19.5q0 -8 -8 -22l-81 -134q-11 -18 -26 -18q-10 0 -17.5 6.5t-7.5 17.5z" />
    <glyph glyph-name="afii10062" unicode="&#x40e;" horiz-adv-x="564" 
d="M73 60q61 0 100.5 30t76.5 91l-233 445q-7 13 -7 25q0 17 11.5 28t27.5 11q25 0 41 -29l201 -392l188 392q14 29 41 29q16 0 27 -10.5t11 -27.5q0 -12 -7 -25l-203 -424q-49 -106 -114.5 -159.5t-158.5 -53.5q-20 0 -30.5 9.5t-10.5 25.5q0 15 10.5 25t28.5 10zM281 857
q24 0 43.5 13t29.5 29t21.5 29t22.5 13t19.5 -7.5t8.5 -18.5q0 -20 -30 -54q-47 -58 -115 -58t-115 58q-30 34 -30 54q0 11 8.5 18.5t19.5 7.5t22.5 -13t21.5 -29t29.5 -29t43.5 -13z" />
    <glyph glyph-name="afii10145" unicode="&#x40f;" horiz-adv-x="705" 
d="M540 654v-625q0 -16 -11 -27.5t-28 -11.5h-177v-196q0 -17 -5.5 -25.5t-21.5 -8.5t-21.5 8.5t-5.5 25.5v196h-176q-17 0 -28.5 11.5t-11.5 27.5v624q0 37 27 37t27 -37v-609h377v610q0 36 29 36q16 0 21 -9t5 -27z" />
    <glyph glyph-name="afii10017" unicode="&#x410;" horiz-adv-x="654" 
d="M369 675l262 -635q4 -7 4 -17q0 -17 -17.5 -27.5t-37.5 -10.5q-22 0 -32 21l-62 148h-318l-59 -146q-12 -23 -36 -23q-20 0 -37 11t-17 30q0 7 3 16l267 634q7 16 14 22.5t26 6.5q27 0 40 -30zM329 539l-125 -301h248z" />
    <glyph glyph-name="afii10018" unicode="&#x411;" horiz-adv-x="635" 
d="M184 452h185q95 0 155.5 -62t60.5 -170q0 -97 -61.5 -163.5t-156.5 -66.5h-223q-17 0 -30.5 13.5t-13.5 31.5v621q0 18 12.5 31t31.5 13h331q19 0 32 -11t13 -31q0 -41 -45 -41h-291v-165zM184 74h183q56 0 94.5 44.5t38.5 101.5t-40 103t-94 46h-182v-295z" />
    <glyph glyph-name="afii10019" unicode="&#x412;" horiz-adv-x="624" 
d="M474 353q101 -53 101 -162q0 -82 -58.5 -141.5t-142.5 -59.5h-258q-18 0 -30.5 12.5t-12.5 29.5v625q0 18 12.5 30.5t30.5 12.5h203q115 0 177 -59q55 -52 55 -137q0 -80 -53 -131q-12 -12 -24 -20zM317 616h-160v-221h159q84 0 124 40q26 24 26 69q0 49 -29 75
q-38 37 -120 37zM157 74h216q47 0 82.5 33.5t35.5 83.5q0 37 -23 63.5t-56 37.5t-54.5 15.5t-31.5 4.5h-169v-238z" />
    <glyph glyph-name="afii10020" unicode="&#x413;" horiz-adv-x="506" 
d="M118 700h330q45 0 45 -43q0 -40 -45 -40h-291v-590q0 -37 -41 -37q-39 0 -43 37v628q0 18 12.5 31t32.5 14z" />
    <glyph glyph-name="afii10021" unicode="&#x414;" horiz-adv-x="688" 
d="M586 73h42q18 0 30 -11.5t12 -29.5v-133q0 -17 -11 -28t-31 -11q-16 0 -29 11t-13 28v91h-484v-93q0 -16 -12 -26.5t-30 -10.5q-37 0 -42 37v135q0 17 12.5 29t30.5 12h69q16 20 26 57.5t10 69.5v456q0 19 12 31.5t30 12.5h329q23 0 36 -12.5t13 -33.5v-581zM250 617
v-415q0 -76 -25 -129h277v544h-252z" />
    <glyph glyph-name="afii10022" unicode="&#x415;" horiz-adv-x="570" 
d="M157 73h327q39 0 39 -41q0 -19 -10.5 -30.5t-28.5 -11.5h-367q-17 0 -30.5 13.5t-13.5 30.5v620q0 19 13 32.5t31 13.5h365q41 0 41 -43q0 -40 -41 -40h-325v-234h250q37 0 37 -42q0 -18 -10 -29.5t-27 -11.5h-250v-227z" />
    <glyph glyph-name="afii10024" unicode="&#x416;" horiz-adv-x="905" 
d="M560 290l-65 -74v-193q0 -17 -11.5 -27.5t-30.5 -10.5q-42 0 -42 38v193l-65 74l-255 -293q-10 -12 -30 -12q-15 0 -29 12t-14 28q0 12 14 29l259 301l-235 279q-13 16 -13 32q0 15 12 27.5t29 12.5q21 0 34 -16l293 -347v327q0 35 42 35t42 -36v-326l295 349
q10 14 29 14q15 0 29.5 -14.5t14.5 -30.5q0 -11 -11 -25l-237 -281l257 -299q12 -13 12 -28q0 -16 -13 -29.5t-31 -13.5t-27 13z" />
    <glyph glyph-name="afii10025" unicode="&#x417;" horiz-adv-x="618" 
d="M470 355q103 -48 103 -163q0 -92 -76.5 -149.5t-174.5 -57.5q-93 0 -170 43.5t-101 127.5q-1 1 -1 9q0 17 15 27.5t34 10.5q21 0 36 -28q27 -55 71 -81t116 -26q66 0 116.5 32t50.5 96q0 56 -44 86.5t-104 30.5h-69q-19 0 -32 11.5t-13 30.5q0 41 45 41h48
q55 0 102.5 26.5t47.5 79.5q0 57 -39 88t-111 31q-69 0 -105.5 -20.5t-53.5 -69.5q-12 -33 -44 -33q-15 0 -27.5 10.5t-12.5 25.5q0 7 1 9q44 162 243 162q92 0 162.5 -54t70.5 -145q0 -42 -23 -84.5t-61 -66.5z" />
    <glyph glyph-name="afii10026" unicode="&#x418;" horiz-adv-x="692" 
d="M609 690q11 -11 11 -29v-632q0 -18 -11.5 -31t-30.5 -13t-30.5 12t-11.5 32v496l-382 -523q-12 -17 -33 -17q-18 0 -32.5 14.5t-14.5 32.5v638q0 35 44 35q40 0 40 -35v-513l380 528q15 20 38 20q18 0 33 -15z" />
    <glyph glyph-name="afii10027" unicode="&#x419;" horiz-adv-x="691" 
d="M320 643q-16 0 -29.5 12t-13.5 29q0 16 11 30l94 128q13 19 36 19q17 0 30.5 -11.5t13.5 -28.5q0 -16 -11 -30l-95 -128q-14 -20 -36 -20zM607 690q11 -11 11 -29v-632q0 -18 -11.5 -31t-30.5 -13t-30.5 12t-11.5 32v496l-382 -523q-12 -17 -33 -17q-18 0 -32.5 14.5
t-14.5 32.5v638q0 35 44 35q40 0 40 -35v-513l380 528q15 20 38 20q18 0 33 -15z" />
    <glyph glyph-name="afii10028" unicode="&#x41a;" horiz-adv-x="570" 
d="M279 355l257 -299q15 -17 15 -32q0 -16 -13 -27.5t-30 -11.5q-18 0 -32 15l-252 290l-65 -74v-195q0 -36 -42 -36t-42 36v648q0 17 11.5 26.5t30.5 9.5q42 0 42 -36v-326l290 344q17 18 36 18q16 0 29.5 -12t13.5 -29q0 -14 -12 -28z" />
    <glyph glyph-name="afii10029" unicode="&#x41b;" horiz-adv-x="622" 
d="M172 700h335q19 0 31 -11.5t12 -29.5v-634q0 -16 -11.5 -28t-29.5 -12q-19 0 -31 10.5t-12 29.5v592h-252v-424q0 -88 -40 -148t-125 -60q-18 0 -31.5 12.5t-13.5 30.5q0 17 12.5 29t31.5 12q45 0 63.5 37.5t18.5 86.5v464q0 19 11 31t31 12z" />
    <glyph glyph-name="afii10030" unicode="&#x41c;" horiz-adv-x="860" 
d="M778 691q10 -10 10 -27v-642q0 -17 -12 -27t-32 -10q-40 0 -40 37v496l-215 -347q-27 -45 -60 -45t-59 45l-213 346v-498q0 -16 -12 -25t-30 -9t-30 9.5t-12 24.5v643q0 17 9 29q9 14 33 14q26 0 43 -26l271 -443l278 446q14 23 39 23q18 0 32 -14z" />
    <glyph glyph-name="afii10031" unicode="&#x41d;" horiz-adv-x="639" 
d="M523 705q43 0 43 -37v-646q0 -16 -11 -26.5t-31 -10.5q-42 0 -42 37v279h-325v-280q0 -36 -42 -36q-18 0 -30 9.5t-12 26.5v647q0 16 12 26.5t30 10.5q42 0 42 -37v-284h325v284q0 35 41 37z" />
    <glyph glyph-name="afii10032" unicode="&#x41e;" horiz-adv-x="811" 
d="M433 705q147 0 253.5 -106.5t106.5 -253.5q0 -148 -106.5 -254t-253.5 -106q-148 0 -254 106t-106 254q0 147 106 253.5t254 106.5zM434 69q111 0 192.5 83t81.5 194t-81.5 193t-192.5 82q-112 0 -194 -82t-82 -193t82.5 -194t193.5 -83z" />
    <glyph glyph-name="afii10033" unicode="&#x41f;" horiz-adv-x="674" 
d="M110 700h455q15 0 24.5 -10.5t9.5 -26.5v-641q0 -11 -11.5 -24t-31.5 -13t-30.5 12.5t-10.5 24.5v595h-358v-595q0 -15 -11.5 -26t-30.5 -11q-18 0 -30 11t-12 26v641q0 14 11.5 25.5t25.5 11.5z" />
    <glyph glyph-name="afii10034" unicode="&#x420;" horiz-adv-x="593" 
d="M548 471q0 -108 -60.5 -170.5t-155.5 -62.5h-175v-215q0 -16 -12 -27t-30 -11t-30 10.5t-12 27.5v632q0 19 13 32t31 13h215q27 0 56 -8t58 -26t51.5 -43.5t36.5 -65t14 -86.5zM157 321h175q52 0 91.5 48t39.5 102t-38.5 99.5t-92.5 45.5h-175v-295z" />
    <glyph glyph-name="afii10035" unicode="&#x421;" horiz-adv-x="735" 
d="M646 156q18 0 31.5 -13.5t13.5 -31.5q0 -12 -17 -29q-102 -97 -241 -97q-91 0 -173.5 44.5t-135 128.5t-52.5 187q0 101 51 184.5t133.5 129.5t176.5 46q110 0 218 -76q19 -13 19 -34q0 -17 -11.5 -29.5t-28.5 -12.5q-16 0 -29 9q-80 59 -168 59q-113 0 -194.5 -83
t-81.5 -193q0 -114 82 -195t194 -81q110 0 182 72q10 15 31 15z" />
    <glyph glyph-name="afii10036" unicode="&#x422;" horiz-adv-x="595" 
d="M85 700h425q41 0 41 -41q0 -18 -11.5 -30t-29.5 -12h-169v-592q0 -18 -11.5 -29t-31.5 -11q-37 0 -41 40v592h-171q-17 0 -28 12t-11 30q0 41 38 41z" />
    <glyph glyph-name="afii10037" unicode="&#x423;" horiz-adv-x="598" 
d="M528 706q17 0 32.5 -12t15.5 -29q0 -6 -5 -19l-233 -536q-23 -53 -72.5 -89t-107.5 -36q-20 0 -33.5 10.5t-13.5 30.5q0 40 44 42q47 5 71.5 32t52.5 86l-204 459q-5 7 -5 20q0 17 14.5 29t32.5 12q22 0 34 -26l173 -387l169 389q11 24 35 24z" />
    <glyph glyph-name="afii10038" unicode="&#x424;" horiz-adv-x="905" 
d="M289 700h326q91 -4 153.5 -66t62.5 -163q0 -104 -59.5 -168.5t-146.5 -64.5h-132v-209q0 -18 -12 -31t-30 -13q-17 0 -29.5 12.5t-12.5 31.5v209h-120q-89 0 -152.5 60t-63.5 172q0 102 62.5 166t153.5 64zM409 616h-121q-54 0 -92 -44.5t-38 -101.5q0 -58 34.5 -103.5
t97.5 -45.5h119v295zM493 616v-295h126q57 0 92 46t35 104q0 54 -38 99.5t-93 45.5h-122z" />
    <glyph glyph-name="afii10039" unicode="&#x425;" horiz-adv-x="623" 
d="M375 344l192 -276q19 -22 19 -36q0 -20 -13.5 -33.5t-32.5 -13.5q-26 0 -53 38l-170 242l-169 -242q-27 -38 -57 -38q-16 0 -29 13.5t-13 33.5q0 9 19 36l192 276l-196 283q-15 17 -15 35q0 16 16.5 29.5t33.5 13.5q21 0 38 -23l180 -258l182 258q17 23 43 23
q14 0 29 -13.5t15 -29.5q0 -11 -15 -35z" />
    <glyph glyph-name="afii10040" unicode="&#x426;" horiz-adv-x="774" 
d="M730 33v-134q0 -17 -11.5 -28t-30.5 -11q-18 0 -30 10.5t-12 28.5v91h-502q-18 0 -31 13.5t-13 31.5v630q0 18 11 29t31 11q42 0 42 -40v-592h358v592q0 18 11 29t31 11q19 0 30.5 -11.5t11.5 -28.5v-592h62q18 0 30 -11t12 -29z" />
    <glyph glyph-name="afii10041" unicode="&#x427;" horiz-adv-x="604" 
d="M516 705q18 0 30 -10t12 -27v-645q0 -18 -11.5 -28t-30.5 -10q-18 0 -30 10.5t-12 27.5v215h-195q-86 0 -145.5 64.5t-59.5 154.5v210q0 16 12.5 27t30.5 11q41 0 41 -38v-208q0 -61 38.5 -99.5t90.5 -38.5h187v347q0 17 12 27t30 10z" />
    <glyph glyph-name="afii10042" unicode="&#x428;" horiz-adv-x="1082" 
d="M939 705q43 0 43 -36v-634q0 -18 -12 -31.5t-30 -13.5h-798q-17 0 -29.5 13.5t-12.5 31.5v633q0 16 11.5 26.5t30.5 10.5q42 0 42 -37v-595h316v594q0 16 10.5 27t31.5 11q22 0 32 -8.5t10 -30.5v-593h314v596q0 36 41 36z" />
    <glyph glyph-name="afii10043" unicode="&#x429;" horiz-adv-x="1103" 
d="M1084 32v-136q0 -16 -12 -26t-30 -10t-30 9.5t-12 26.5v94h-855q-17 0 -30 13.5t-15 31.5v629q0 23 10 32t32 9q42 0 42 -41v-591h316v591q0 18 10.5 29.5t29.5 11.5q17 0 30.5 -10t13.5 -31v-591h314v591q0 18 11.5 29.5t31.5 11.5q19 0 30 -11.5t11 -29.5v-591h60
q40 0 42 -41z" />
    <glyph glyph-name="afii10044" unicode="&#x42a;" horiz-adv-x="665" 
d="M216 465h191q84 0 146 -71.5t62 -160.5q0 -94 -59.5 -168.5t-148.5 -74.5h-232q-17 0 -29 13.5t-14 31.5v582h-74q-18 0 -29 11.5t-11 29.5t11 30t29 12h116q19 0 30.5 -12t11.5 -32v-191zM216 74h190q53 0 89 51t36 107q0 55 -36 103.5t-89 48.5h-190v-310z" />
    <glyph glyph-name="afii10045" unicode="&#x42b;" horiz-adv-x="859" 
d="M184 467h185q91 -4 155 -68.5t64 -170.5q0 -112 -62 -175t-157 -63h-225q-18 0 -31 13.5t-13 31.5v629q0 17 11.5 29t30.5 12t30.5 -11.5t11.5 -30.5v-196zM184 74h185q56 0 95 41t39 113q0 74 -37.5 115t-96.5 41h-185v-310zM786 664v-643q0 -13 -10.5 -24.5
t-30.5 -11.5q-21 0 -32 11.5t-11 24.5v644q0 40 43 40q20 0 30.5 -12.5t10.5 -28.5z" />
    <glyph glyph-name="afii10046" unicode="&#x42c;" horiz-adv-x="604" 
d="M184 467h185q91 -4 155 -68.5t64 -170.5q0 -112 -62 -175t-157 -63h-225q-18 0 -31 13.5t-13 31.5v629q0 17 11.5 29t30.5 12t30.5 -11.5t11.5 -30.5v-196zM184 74h185q56 0 95 41t39 113q0 73 -37.5 113.5t-96.5 42.5h-185v-310z" />
    <glyph glyph-name="afii10047" unicode="&#x42d;" horiz-adv-x="669" 
d="M266 705q91 0 173.5 -45t135 -129t52.5 -186q0 -146 -105 -253t-250 -107q-66 0 -126 24q-55 23 -113 71q-14 14 -14 33q0 18 10 28q12 14 31 14t33 -13q76 -73 179 -73q93 0 170.5 67t95.5 165h-292q-17 0 -30.5 12t-13.5 29q0 18 12.5 30t31.5 12h293
q-14 100 -94 168.5t-179 68.5q-86 0 -159 -56q-12 -9 -26 -9q-16 0 -29.5 12t-13.5 29q0 22 20 37q97 71 208 71z" />
    <glyph glyph-name="afii10048" unicode="&#x42e;" horiz-adv-x="1031" 
d="M622 705q149 0 254.5 -106.5t105.5 -253.5q0 -141 -104 -250.5t-254 -109.5q-81 0 -158 36.5t-133 110.5t-68 168h-108v-276q0 -16 -12 -27.5t-30 -11.5t-30 10.5t-12 28.5v644q0 38 42 38t42 -38v-285h107q10 128 111.5 225t246.5 97zM624 69q113 0 193 83t80 193
q0 111 -80 193.5t-196 82.5q-111 0 -192.5 -83.5t-81.5 -192.5q0 -117 84.5 -196.5t192.5 -79.5z" />
    <glyph glyph-name="afii10049" unicode="&#x42f;" horiz-adv-x="603" 
d="M172 247q-70 24 -107 69q-46 57 -46 154q0 106 65.5 168t158.5 62h218q19 0 30.5 -13.5t11.5 -31.5v-637q0 -33 -42 -33t-42 33v220h-157l-121 -235q-11 -18 -31 -18q-17 0 -32.5 11.5t-15.5 26.5q0 10 110 224zM244 321h175v295h-176q-55 0 -97 -40.5t-42 -105.5
q0 -64 41 -106.5t99 -42.5z" />
    <glyph glyph-name="afii10065" unicode="&#x430;" horiz-adv-x="553" 
d="M272 475q83 0 139 -41t56 -122v-279q0 -18 -12.5 -30.5t-29.5 -12.5h-219q-71 0 -115 41t-44 117q0 67 45.5 112.5t114.5 45.5h176v11q0 36 -32 55.5t-72 19.5q-54 0 -99 -24q-14 -8 -24 -8q-15 0 -28 13t-13 29q0 21 24 37q54 36 133 36zM383 73v150h-174
q-33 0 -55.5 -21t-22.5 -54q0 -75 78 -75h174z" />
    <glyph glyph-name="afii10066" unicode="&#x431;" horiz-adv-x="576" 
d="M287 470q100 0 172.5 -64.5t72.5 -177.5q0 -102 -71.5 -172.5t-173.5 -70.5q-104 0 -173.5 73t-69.5 172v110q0 84 21.5 148.5t74.5 106.5t133 42h42q62 0 116 22q8 2 12 2q18 0 29.5 -13.5t11.5 -32.5q0 -20 -17 -29q-35 -19 -75.5 -26t-116.5 -7q-59 0 -95.5 -41.5
t-46.5 -92.5q63 51 154 51zM287 69q66 0 113.5 46.5t47.5 112.5q0 68 -48.5 113t-112.5 45q-63 0 -111 -46.5t-48 -109.5t48 -112t111 -49z" />
    <glyph glyph-name="afii10067" unicode="&#x432;" horiz-adv-x="524" 
d="M478 132q0 -66 -40 -104t-100 -38h-195q-17 0 -30 13t-13 30v395q0 18 12.5 30t30.5 12h168q59 0 100.5 -37.5t41.5 -102.5q0 -24 -15 -50t-37 -37q36 -8 56.5 -38t20.5 -73zM184 387v-115h126q24 0 42 16.5t18 41.5t-18 41t-42 16h-126zM184 73h145q65 0 65 58t-70 58
h-140v-116z" />
    <glyph glyph-name="afii10068" unicode="&#x433;" horiz-adv-x="447" 
d="M141 470h246q18 0 29 -10.5t11 -30.5t-11 -31t-29 -11h-212v-362q0 -18 -11.5 -29t-31.5 -11q-41 0 -41 40v396q0 20 15 34.5t35 14.5z" />
    <glyph glyph-name="afii10069" unicode="&#x434;" horiz-adv-x="584" 
d="M481 73h43q19 0 30 -12t11 -31v-131q0 -16 -11.5 -27.5t-30.5 -11.5q-17 0 -28.5 11.5t-13.5 27.5v91h-378v-91q0 -16 -12.5 -27.5t-30.5 -11.5q-16 0 -28.5 11t-12.5 28v131q0 17 12.5 30t30.5 13h39q15 19 25 57t10 68v229q0 18 11 30.5t29 12.5h258q22 0 34.5 -12
t12.5 -33v-352zM220 200v-7q0 -73 -25 -120h202v313h-177v-186z" />
    <glyph glyph-name="afii10070" unicode="&#x435;" horiz-adv-x="596" 
d="M309 475q103 0 174 -68t71 -170q0 -23 -15 -36t-39 -13h-346q9 -44 55 -81.5t100 -37.5q83 0 129 37q13 10 29 10t28.5 -11.5t12.5 -28.5q0 -19 -14 -33q-62 -58 -185 -58q-99 0 -172 66t-73 178q0 107 71.5 176.5t173.5 69.5zM153 271h311q-7 43 -52 81.5t-103 38.5
q-59 0 -103 -38t-53 -82z" />
    <glyph glyph-name="afii10072" unicode="&#x436;" horiz-adv-x="663" 
d="M466 235l173 -177q12 -14 12 -28q0 -18 -10.5 -31.5t-27.5 -13.5q-16 0 -29 13l-172 170l-37 -37v-109q0 -37 -40 -37q-13 0 -21 1.5t-15.5 10.5t-7.5 25v109l-38 37l-172 -170q-13 -13 -29 -13q-15 0 -26.5 13.5t-11.5 31.5q0 11 12 28l173 177l-147 158q-18 28 -18 34
q0 18 12 33t27 15q18 0 29 -12l189 -210v183q0 39 39 39q45 0 45 -39v-183l188 210q12 12 29 12q15 0 27.5 -15t12.5 -33q0 -5 -3 -10.5t-8.5 -13t-7.5 -10.5z" />
    <glyph glyph-name="afii10073" unicode="&#x437;" horiz-adv-x="467" 
d="M334 245q33 -8 55 -40t22 -73q0 -147 -196 -147q-182 0 -196 141q0 15 11.5 26t28.5 11q39 0 43 -33q6 -36 37 -49.5t83 -13.5q107 0 107 68q-4 63 -77 63h-67q-15 0 -27.5 12t-12.5 29q0 16 10.5 28.5t27.5 12.5h42q32 0 60.5 12t28.5 40q0 29 -30 44.5t-62 15.5
q-36 0 -52 -8t-38 -37q-14 -18 -37 -18q-15 0 -32.5 9.5t-17.5 23.5q0 7 3 14q30 52 71.5 75.5t104.5 23.5q65 0 119 -38t54 -103q0 -30 -18 -55.5t-45 -33.5z" />
    <glyph glyph-name="afii10074" unicode="&#x438;" horiz-adv-x="540" 
d="M467 432v-404q0 -18 -12 -30.5t-30 -12.5q-19 0 -30.5 13t-11.5 30v278l-230 -305q-13 -16 -34 -16q-19 0 -32.5 12t-13.5 32v409q0 15 12 26t29 11q18 0 30.5 -9.5t12.5 -27.5v-285l231 304q14 18 36 18q17 0 29 -12.5t14 -30.5z" />
    <glyph glyph-name="afii10075" unicode="&#x439;" horiz-adv-x="554" 
d="M261 466q-15 0 -28.5 11.5t-13.5 26.5q0 13 12 28l79 101q17 20 35 20q15 0 27.5 -12t12.5 -29q0 -13 -10 -26l-80 -101q-13 -19 -34 -19zM467 432v-404q0 -18 -12 -30.5t-30 -12.5q-19 0 -30.5 13t-11.5 30v278l-230 -305q-13 -16 -34 -16q-19 0 -32.5 12t-13.5 32v409
q0 15 12 26t29 11q18 0 30.5 -9.5t12.5 -27.5v-285l231 304q14 18 36 18q17 0 29 -12.5t14 -30.5z" />
    <glyph glyph-name="afii10076" unicode="&#x43a;" horiz-adv-x="453" 
d="M244 234l168 -175q12 -15 12 -28q0 -18 -10.5 -32t-27.5 -14q-16 0 -29 13l-168 168l-32 -37v-107q0 -37 -44 -37q-40 0 -40 37v414q0 39 40 39q21 0 32.5 -12t11.5 -28v-174l179 202q11 12 29 12q15 0 27.5 -15.5t12.5 -33.5q0 -10 -19 -32z" />
    <glyph glyph-name="afii10077" unicode="&#x43b;" horiz-adv-x="517" 
d="M152 470h251q17 0 29.5 -12t12.5 -29v-408q0 -16 -12 -26t-30 -10q-42 0 -42 36v365h-168v-256q0 -65 -34.5 -105t-99.5 -40q-20 0 -30 12t-10 29q0 18 10.5 30.5t28.5 12.5q27 0 39 18t12 43v298q0 18 12.5 30t30.5 12z" />
    <glyph glyph-name="afii10078" unicode="&#x43c;" horiz-adv-x="652" 
d="M577 433v-408q0 -18 -12 -29t-30 -11t-30 11t-12 29v260q-45 -70 -80 -128l-35 -56q-23 -37 -51 -37q-31 0 -53 36l-117 187v-263q0 -17 -12.5 -28t-30.5 -11q-17 0 -29 11t-12 28v408q0 21 10.5 32t28.5 11q27 0 41 -22l173 -290l171 289q14 23 39 23q18 0 29.5 -11
t11.5 -31z" />
    <glyph glyph-name="afii10079" unicode="&#x43d;" horiz-adv-x="566" 
d="M493 435v-411q0 -15 -11.5 -27t-31.5 -12q-17 0 -29 11.5t-12 27.5v165h-252v-165q0 -17 -11.5 -28t-30.5 -11q-16 0 -29 11t-13 28v410q0 17 12 29t30 12q19 0 30.5 -10.5t11.5 -30.5v-162h252v162q0 16 12 28.5t29 12.5q19 0 31 -11t12 -29z" />
    <glyph glyph-name="afii10080" unicode="&#x43e;" horiz-adv-x="584" 
d="M299 475q109 0 177 -70.5t68 -174.5q0 -98 -69 -171.5t-176 -73.5q-104 0 -174.5 72t-70.5 173q0 98 70 171.5t175 73.5zM299 69q66 0 113.5 48t47.5 113q0 66 -47.5 113.5t-113.5 47.5q-65 0 -113 -47.5t-48 -113.5q0 -64 48.5 -112.5t112.5 -48.5z" />
    <glyph glyph-name="afii10081" unicode="&#x43f;" horiz-adv-x="566" 
d="M115 470h336q18 0 30 -13t12 -32v-400q0 -17 -12.5 -28.5t-29.5 -11.5q-18 0 -30 11t-12 29v362h-252v-362q0 -18 -11.5 -29t-30.5 -11q-17 0 -28.5 11t-13.5 29v400q0 18 12 31.5t30 13.5z" />
    <glyph glyph-name="afii10082" unicode="&#x440;" horiz-adv-x="592" 
d="M520 233q0 -103 -61.5 -173t-164.5 -70h-110v-189q0 -16 -12.5 -28.5t-30.5 -12.5t-29.5 11t-11.5 30v626q0 18 11.5 30.5t29.5 12.5h154q94 0 159.5 -69.5t65.5 -167.5zM184 73h110q65 0 103.5 48.5t38.5 110.5q0 67 -41 110.5t-100 43.5h-111v-313z" />
    <glyph glyph-name="afii10083" unicode="&#x441;" horiz-adv-x="522" 
d="M431 123q16 0 30.5 -13t14.5 -30t-14 -31q-28 -28 -74 -46t-95 -18q-99 0 -171 68.5t-72 175.5q0 106 71.5 176t176.5 70q85 0 147 -47q15 -10 15 -32q0 -16 -13 -30t-31 -14q-15 0 -25 8q-40 31 -93 31q-66 0 -115 -44.5t-49 -117.5q0 -70 52 -115t109 -45q61 0 107 43
q14 11 29 11z" />
    <glyph glyph-name="afii10084" unicode="&#x442;" horiz-adv-x="500" 
d="M209 15v372h-159q-14 0 -22.5 12t-8.5 30t8 29.5t23 11.5h393q38 0 38 -43q0 -40 -38 -40h-150v-372q0 -30 -41 -30q-18 0 -30.5 8t-12.5 22z" />
    <glyph glyph-name="afii10085" unicode="&#x443;" horiz-adv-x="519" 
d="M441 475q18 0 33.5 -10.5t15.5 -27.5q0 -11 -4 -19l-219 -535q-50 -123 -182 -123q-21 0 -35.5 10.5t-14.5 32.5q0 20 13.5 32t34.5 13q33 1 55 10t37 31t23 41.5t22 60.5l-187 425q-4 7 -4 18q0 17 13.5 29t31.5 12q24 0 37 -27l153 -349l145 353q11 23 32 23z" />
    <glyph glyph-name="afii10086" unicode="&#x444;" horiz-adv-x="847" 
d="M465 470h111q92 0 158.5 -69.5t66.5 -167.5q0 -105 -64 -174t-162 -69h-110v-189q0 -18 -11.5 -29.5t-31.5 -11.5q-17 0 -29 11.5t-12 29.5v189h-111q-95 0 -160 68t-65 175q0 94 63 165.5t158 71.5h115v9q0 17 11.5 29.5t30.5 12.5q41 0 42 -42v-9zM465 73h110
q63 0 102.5 48.5t39.5 110.5q0 66 -41 110t-100 44h-111v-313zM381 386h-114q-58 0 -98 -44t-40 -110q0 -62 38.5 -110.5t102.5 -48.5h111v313z" />
    <glyph glyph-name="afii10087" unicode="&#x445;" horiz-adv-x="440" 
d="M412 403l-130 -168l136 -176q10 -10 10 -28q0 -20 -13.5 -33t-32.5 -13q-22 0 -36 17l-122 158l-123 -158q-14 -17 -36 -17q-20 0 -33 13.5t-13 32.5q0 16 9 28l137 176l-130 168q-9 12 -9 28q0 19 14 31.5t32 12.5q23 0 36 -16l116 -150l116 150q12 16 36 16
q20 0 33 -14t13 -32q0 -13 -10 -26z" />
    <glyph glyph-name="afii10088" unicode="&#x446;" horiz-adv-x="574" 
d="M471 73h43q18 0 29.5 -11t11.5 -28v-137q0 -15 -12 -26t-29 -11q-16 0 -29.5 10.5t-13.5 26.5v93h-353q-17 0 -31 13.5t-14 30.5v400q0 18 11.5 29.5t30.5 11.5t30.5 -10.5t11.5 -30.5v-361h230v362q0 18 12 29t30 11q19 0 30.5 -10.5t11.5 -28.5v-363z" />
    <glyph glyph-name="afii10089" unicode="&#x447;" horiz-adv-x="497" 
d="M424 437v-412q0 -16 -12.5 -28t-29.5 -12q-19 0 -30.5 11t-11.5 29v123h-143q-70 0 -110.5 46t-40.5 118v126q0 17 12 27t30 10t30 -9.5t12 -27.5v-136q0 -32 18 -51.5t54 -19.5h138v206q0 36 41 38q43 0 43 -38z" />
    <glyph glyph-name="afii10090" unicode="&#x448;" horiz-adv-x="776" 
d="M661 475q18 0 30 -11.5t12 -29.5v-398q0 -18 -11.5 -32t-30.5 -14h-547q-35 3 -41 46v398q0 16 12 28.5t29 12.5q43 0 43 -41v-361h189v362q0 17 11.5 28.5t30.5 11.5q18 0 30 -10.5t12 -29.5v-362h189v361q0 18 11 29.5t31 11.5z" />
    <glyph glyph-name="afii10091" unicode="&#x449;" horiz-adv-x="833" 
d="M730 73h42q18 0 30 -10.5t12 -27.5v-137q0 -15 -12.5 -26.5t-29.5 -11.5q-18 0 -30 10.5t-12 27.5v92h-589q-16 0 -27.5 13.5t-13.5 31.5v399q0 18 11 29.5t31 11.5q37 0 42 -41v-361h189v361q0 18 10.5 29.5t30.5 11.5q19 0 31 -10.5t12 -30.5v-361h189v362q0 40 42 40
t42 -41v-361z" />
    <glyph glyph-name="afii10092" unicode="&#x44a;" horiz-adv-x="546" 
d="M209 322h139q63 0 107.5 -48t44.5 -114t-44 -118t-109 -52h-178q-17 0 -30.5 13t-13.5 32v352h-58q-15 0 -26 12.5t-11 28.5q0 18 10 30t27 12h101q19 0 30 -11.5t11 -32.5v-104zM341 239h-132v-166h132q28 0 51 25t23 60q0 33 -22 57t-52 24z" />
    <glyph glyph-name="afii10093" unicode="&#x44b;" horiz-adv-x="745" 
d="M604 475q16 0 29 -9.5t13 -26.5v-419q0 -14 -12.5 -24.5t-29.5 -10.5q-16 0 -29 10.5t-13 24.5v419q0 15 12 25t30 11zM184 322h139q62 0 107 -50t45 -115q0 -66 -44 -116.5t-109 -50.5h-179q-18 2 -30.5 14.5t-12.5 30.5v398q0 19 11.5 30.5t31.5 11.5q19 0 30 -12
t11 -32v-109zM184 239v-166h134q26 0 49 28t23 56q0 31 -21.5 56.5t-50.5 25.5h-134z" />
    <glyph glyph-name="afii10094" unicode="&#x44c;" horiz-adv-x="521" 
d="M184 322h139q62 0 107 -50t45 -115q0 -66 -44 -116.5t-109 -50.5h-179q-18 2 -30.5 14.5t-12.5 30.5v398q0 19 11.5 30.5t31.5 11.5q19 0 30 -12t11 -32v-109zM184 239v-166h134q26 0 49 28t23 56q0 31 -21.5 56.5t-50.5 25.5h-134z" />
    <glyph glyph-name="afii10095" unicode="&#x44d;" horiz-adv-x="522" 
d="M224 475q105 0 177 -70t72 -177t-72 -175t-172 -68q-49 0 -94.5 17.5t-73.5 45.5q-15 12 -15 31q0 17 15 30.5t31 13.5q14 0 28 -12q45 -42 107 -42q48 0 95 32.5t62 86.5h-165q-17 0 -30 10t-13 30q0 22 13 33t30 11h165q-14 55 -59.5 87.5t-100.5 32.5q-53 0 -93 -31
q-8 -8 -25 -8q-18 0 -30.5 13.5t-12.5 29.5q0 21 14 32q62 47 147 47z" />
    <glyph glyph-name="afii10096" unicode="&#x44e;" horiz-adv-x="785" 
d="M495 475q108 0 177 -69t69 -179q0 -101 -72 -171.5t-172 -70.5q-97 0 -159.5 56t-83.5 148h-70v-167q0 -15 -13 -26t-29 -11t-29 11.5t-13 28.5v413q0 17 12 27t30 10t30 -9.5t12 -27.5v-167h70q10 82 78 140q74 64 163 64zM497 69q63 0 111.5 49t48.5 111
q0 67 -48 114.5t-113 47.5q-63 0 -112.5 -49.5t-49.5 -112.5q0 -62 49.5 -111t113.5 -49z" />
    <glyph glyph-name="afii10097" unicode="&#x44f;" horiz-adv-x="477" 
d="M407 427v-403q0 -18 -11.5 -28.5t-31.5 -10.5q-19 0 -30 10.5t-11 28.5v114h-86l-78 -133q-14 -20 -36 -20q-16 0 -30 12t-14 29q0 7 5 20l64 108q-41 22 -66.5 62t-25.5 87q0 65 43.5 116t108.5 51h154q19 0 31.5 -11.5t13.5 -31.5zM323 221v166h-110q-29 0 -50.5 -27.5
t-21.5 -56.5t22 -55.5t50 -26.5h110z" />
    <glyph glyph-name="afii10071" unicode="&#x451;" horiz-adv-x="586" 
d="M210 643q19 0 32.5 -13t13.5 -33q0 -19 -13 -32.5t-33 -13.5q-18 0 -32 13.5t-14 32.5q0 18 13 32t33 14zM372 643q19 0 32.5 -13t13.5 -33q0 -19 -13.5 -32.5t-32.5 -13.5t-32.5 13.5t-13.5 32.5q0 18 13 31.5t33 14.5zM292 475q103 0 174 -68t71 -170q0 -23 -15 -36
t-39 -13h-346q8 -43 55 -81.5t100 -38.5q82 0 129 38q13 10 29 10t28.5 -11.5t12.5 -28.5q0 -19 -14 -33q-62 -58 -185 -58q-99 0 -172 66t-73 178q0 107 71.5 176.5t173.5 69.5zM136 269h311q-6 45 -50.5 83.5t-104.5 38.5t-104 -38t-52 -84z" />
    <glyph glyph-name="afii10099" unicode="&#x452;" horiz-adv-x="556" 
d="M491 268v-171q0 -131 -30 -185q-41 -72 -101 -72q-18 0 -29 9.5t-11 24.5q0 10 10 18t24.5 17.5t29 24.5t24.5 48t10 80v190q0 81 -37 115q-31 29 -89 29q-81 0 -118 -69q-26 -49 -26 -119v-183q0 -14 -11 -24.5t-26 -10.5t-26 10.5t-11 24.5v519h-43q-12 0 -20.5 8.5
t-8.5 20.5t8.5 20.5t20.5 8.5h43v52q0 15 11 25.5t26 10.5t26 -10.5t11 -25.5v-52h138q11 0 19.5 -8.5t8.5 -20.5t-8.5 -20.5t-19.5 -8.5h-138v-169q44 85 158 85q84 0 131 -41q54 -48 54 -151z" />
    <glyph glyph-name="afii10100" unicode="&#x453;" horiz-adv-x="421" 
d="M382 387h-234v-362q0 -14 -11 -24.5t-26 -10.5t-25.5 10.5t-10.5 24.5v392q0 14 10.5 24.5t25.5 10.5h271q14 0 23.5 -9.5t9.5 -23.5t-9.5 -23t-23.5 -9zM166 592q0 8 6 19l76 138q12 21 28 21q13 0 21.5 -8.5t8.5 -19.5q0 -8 -8 -22l-81 -134q-11 -18 -26 -18
q-10 0 -17.5 6.5t-7.5 17.5z" />
    <glyph glyph-name="afii10101" unicode="&#x454;" horiz-adv-x="502" 
d="M293 475q85 0 147 -47q14 -11 14 -32q0 -16 -12.5 -29.5t-30.5 -13.5q-17 0 -25 8q-40 31 -93 31q-55 0 -100.5 -32.5t-59.5 -87.5h165q17 0 30 -11t13 -33q0 -20 -13 -30t-30 -10h-165q15 -54 62 -86.5t95 -32.5q62 0 107 42q13 12 28 12q16 0 31 -13.5t15 -30.5
q0 -19 -15 -31q-28 -28 -73.5 -45.5t-94.5 -17.5q-100 0 -172 68t-72 175t72 177t177 70z" />
    <glyph glyph-name="afii10102" unicode="&#x455;" horiz-adv-x="482" 
d="M233 288l38 -8q29 -6 47.5 -11t45.5 -16.5t42.5 -26t27.5 -38.5t12 -54q0 -76 -54.5 -112.5t-132.5 -36.5q-77 0 -133 29q-63 36 -84 106q-1 2 -1 9q0 30 43 35q30 0 43 -30q8 -26 39 -46t92 -20q36 0 70 16t34 48q0 14 -5.5 24t-20 17t-23.5 9.5t-32 8.5l-51 12
q-27 6 -44 11t-42.5 16t-40.5 23.5t-26 33.5t-11 47q0 66 51 103.5t123 37.5q17 0 39.5 -4t53 -13.5t57.5 -32t41 -53.5q4 -9 4 -16q0 -14 -10 -23t-27 -9q-43 0 -55 27q-18 38 -103 42q-90 -4 -90 -59q0 -29 83 -46z" />
    <glyph glyph-name="afii10103" unicode="&#x456;" horiz-adv-x="293" 
d="M146 643q19 0 32.5 -13t13.5 -33q0 -19 -13.5 -32.5t-32.5 -13.5t-32.5 13.5t-13.5 32.5q0 18 13 31.5t33 14.5zM189 434v-413q0 -13 -11 -24.5t-31 -11.5q-21 0 -32 11.5t-11 24.5v414q0 40 43 40q20 0 31 -12.5t11 -28.5z" />
    <glyph glyph-name="afii10104" unicode="&#x457;" horiz-adv-x="327" 
d="M75 643q19 0 32.5 -13t13.5 -33q0 -19 -13 -32.5t-33 -13.5q-18 0 -32 13.5t-14 32.5q0 18 13 32t33 14zM237 643q19 0 32.5 -13t13.5 -33q0 -19 -13.5 -32.5t-32.5 -13.5t-32.5 13.5t-13.5 32.5q0 18 13 31.5t33 14.5zM199 434v-413q0 -13 -11 -24.5t-31 -11.5
q-21 0 -32 11.5t-11 24.5v414q0 40 43 40q20 0 31 -12.5t11 -28.5z" />
    <glyph glyph-name="afii10105" unicode="&#x458;" horiz-adv-x="338" 
d="M212 470q40 0 42 -46v-444q0 -84 -43 -152t-122 -68q-18 0 -32.5 12t-14.5 31q0 20 13 31.5t34 11.5q40 0 60.5 42.5t20.5 91.5v444q0 19 11 32.5t31 13.5zM212 543q-20 0 -34 14t-14 34q0 19 14 34t34 15q21 0 35 -14t14 -35q0 -19 -14 -33.5t-35 -14.5z" />
    <glyph glyph-name="afii10106" unicode="&#x459;" horiz-adv-x="830" 
d="M709 128q0 74 -108 74h-127v-148h132q103 0 103 74zM105 417q0 14 11 24.5t26 10.5h295q15 0 26 -10.5t11 -24.5v-161h144q74 0 118.5 -31t44.5 -97t-44 -97t-117 -31h-182q-37 0 -37 37v350h-223q-10 -225 -55 -322q-20 -43 -35.5 -59t-34.5 -16q-15 0 -25.5 10.5
t-10.5 25.5q0 13 20 42.5t30 57.5q36 92 38 291z" />
    <glyph glyph-name="afii10107" unicode="&#x45a;" horiz-adv-x="842" 
d="M414 37v165h-266v-177q0 -14 -11 -24.5t-26 -10.5t-25.5 10.5t-10.5 24.5v400q0 15 10.5 25t25.5 10t26 -10t11 -25v-169h266v169q0 15 10.5 25t25.5 10t25.5 -10t10.5 -25v-169h145q74 0 118.5 -31t44.5 -97t-44 -97t-118 -31h-182q-36 0 -36 37zM722 128q0 74 -108 74
h-128v-148h132q104 0 104 74z" />
    <glyph glyph-name="afii10108" unicode="&#x45b;" horiz-adv-x="556" 
d="M74 25v519h-43q-12 0 -20.5 8.5t-8.5 20.5t8.5 20.5t20.5 8.5h43v52q0 15 11 25.5t26 10.5t26 -10.5t11 -25.5v-52h138q11 0 19.5 -8.5t8.5 -20.5t-8.5 -20.5t-19.5 -8.5h-138v-169q44 85 158 85q84 0 131 -41q54 -48 54 -151v-243q0 -14 -11 -24.5t-26 -10.5t-25.5 10.5
t-10.5 24.5v227q0 81 -37 115q-31 29 -89 29q-81 0 -118 -69q-26 -49 -26 -119v-183q0 -14 -11 -24.5t-26 -10.5t-26 10.5t-11 24.5z" />
    <glyph glyph-name="afii10109" unicode="&#x45c;" horiz-adv-x="473" 
d="M148 425v-166h66l163 185q12 16 31 16q15 0 24.5 -10t9.5 -25q0 -13 -11 -26l-155 -168l163 -179q11 -11 11 -27q0 -15 -10 -25t-25 -10q-17 0 -35 19l-166 186h-66v-170q0 -14 -11 -24.5t-26 -10.5t-25.5 10.5t-10.5 24.5v400q0 15 10.5 25t25.5 10t26 -10t11 -25z
M181 592q0 8 6 19l76 138q12 21 28 21q13 0 21.5 -8.5t8.5 -19.5q0 -8 -8 -22l-81 -134q-11 -18 -26 -18q-10 0 -17.5 6.5t-7.5 17.5z" />
    <glyph glyph-name="afii10110" unicode="&#x45e;" horiz-adv-x="460" 
d="M229 640q24 0 43.5 13t29.5 29t21.5 29t22.5 13t19.5 -7.5t8.5 -18.5q0 -20 -30 -54q-47 -58 -115 -58t-115 58q-30 34 -30 54q0 11 8.5 18.5t19.5 7.5t22.5 -13t21.5 -29t29.5 -29t43.5 -13zM414 461q16 0 27.5 -11t11.5 -28q0 -10 -8 -32l-163 -414q-81 -207 -225 -207
q-15 0 -25.5 10.5t-10.5 24.5q0 15 10 25.5t26 10.5q51 0 84 32.5t62 100.5l-187 420q-9 21 -9 28q0 17 11.5 28.5t28.5 11.5q29 0 38 -26l154 -368l136 361q13 33 39 33z" />
    <glyph glyph-name="afii10193" unicode="&#x45f;" horiz-adv-x="548" 
d="M147 64h253v361q0 14 11 24.5t26 10.5q14 0 25 -10.5t11 -24.5v-392q0 -14 -9.5 -23.5t-23.5 -9.5h-130v-131q0 -14 -10.5 -24.5t-25.5 -10.5q-16 0 -26.5 10.5t-10.5 24.5v131h-130q-14 0 -23.5 9.5t-9.5 23.5v392q0 14 11 24.5t26 10.5t25.5 -10.5t10.5 -24.5v-361z
" />
    <glyph glyph-name="afii10050" unicode="&#x490;" horiz-adv-x="580" 
d="M509 830q17 0 29.5 -11t12.5 -26v-144q0 -18 -13 -30t-32 -12h-312v-584q0 -17 -12 -27.5t-30 -10.5q-20 0 -31 12.5t-11 25.5v621q0 19 12 32.5t32 13.5h313v103q0 16 13 26.5t29 10.5z" />
    <glyph glyph-name="afii10098" unicode="&#x491;" horiz-adv-x="469" 
d="M441 526v-99q0 -17 -12 -28.5t-30 -11.5h-232v-364q0 -16 -11 -27t-31 -11q-18 0 -30 10.5t-12 27.5v405q0 18 12 30t30 12h232v55q0 17 11.5 27.5t30.5 11.5q40 0 42 -38z" />
    <glyph glyph-name="endash" unicode="&#x2013;" horiz-adv-x="437" 
d="M-7 330h281q15 0 24.5 -11.5t9.5 -29.5q0 -20 -9.5 -31.5t-24.5 -11.5h-281q-15 0 -24.5 12t-9.5 32q0 18 9.5 29t24.5 11z" />
    <glyph glyph-name="emdash" unicode="&#x2014;" horiz-adv-x="714" 
d="M118 330h478q15 0 24.5 -11.5t9.5 -29.5q0 -20 -9.5 -31.5t-24.5 -11.5h-478q-15 0 -24.5 12t-9.5 32q0 18 10 29t24 11z" />
    <glyph glyph-name="afii00208.001" unicode="&#x2015;" horiz-adv-x="703" 
d="M21 330h657q14 0 24 -9.5t10 -23.5q0 -15 -10 -25t-24 -10h-657q-14 0 -24 10.5t-10 25.5q0 14 10 23t24 9z" />
    <glyph glyph-name="quoteleft" unicode="&#x2018;" horiz-adv-x="272" 
d="M95 500q-11 28 -11 66q0 70 55 131q9 10 20.5 10t19.5 -12q7 -13 -1 -30q-20 -42 -20 -77q0 -16 16 -50q1 -1 3.5 -7.5t3.5 -9t2.5 -8t1.5 -8.5v-8t-2 -9.5t-5 -9.5q-12 -18 -33 -18q-35 0 -50 40z" />
    <glyph glyph-name="quoteright" unicode="&#x2019;" horiz-adv-x="294" 
d="M174 666q11 -28 11 -66q0 -70 -55 -131q-9 -10 -20.5 -10t-19.5 12q-7 13 1 30q20 42 20 77q0 16 -16 50q-1 1 -3.5 7.5t-3.5 9t-2.5 8t-1.5 8.5v8t2 9.5t5 9.5q12 18 33 18q35 0 50 -40z" />
    <glyph glyph-name="quotesinglbase" unicode="&#x201a;" horiz-adv-x="297" 
d="M174 34q11 -28 11 -66q0 -70 -55 -131q-9 -10 -20.5 -10t-19.5 12q-7 13 1 30q20 42 20 77q0 16 -16 50q-1 1 -3.5 7.5t-3.5 9t-2.5 8t-1.5 8.5v8t2 9.5t5 9.5q12 18 33 18q35 0 50 -40z" />
    <glyph glyph-name="quotedblleft" unicode="&#x201c;" horiz-adv-x="504" 
d="M294 494q-11 28 -11 66q0 70 55 131q9 10 20.5 10t19.5 -12q7 -13 -1 -30q-20 -42 -20 -77q0 -16 16 -50q1 -1 3.5 -7.5t3.5 -9t2.5 -8t1.5 -8.5v-8t-2 -9.5t-5 -9.5q-12 -18 -33 -18q-35 0 -50 40zM123 494q-11 28 -11 66q0 70 55 131q9 10 20.5 10t19.5 -12
q7 -13 -1 -30q-20 -42 -20 -77q0 -16 16 -50q1 -1 3.5 -7.5t3.5 -9t2.5 -8t1.5 -8.5v-8t-2 -9.5t-5 -9.5q-12 -18 -33 -18q-35 0 -50 40z" />
    <glyph glyph-name="quotedblright" unicode="&#x201d;" horiz-adv-x="494" 
d="M222 666q11 -28 11 -66q0 -70 -55 -131q-9 -10 -20.5 -10t-19.5 12q-7 13 1 30q20 42 20 77q0 16 -16 50q-1 1 -3.5 7.5t-3.5 9t-2.5 8t-1.5 8.5v8t2 9.5t5 9.5q12 18 33 18q35 0 50 -40zM393 666q11 -28 11 -66q0 -70 -55 -131q-9 -10 -20.5 -10t-19.5 12q-7 13 1 30
q20 42 20 77q0 16 -16 50q-1 1 -3.5 7.5t-3.5 9t-2.5 8t-1.5 8.5v8t2 9.5t5 9.5q12 18 33 18q35 0 50 -40z" />
    <glyph glyph-name="quotedblbase" unicode="&#x201e;" horiz-adv-x="476" 
d="M169 34q11 -28 11 -66q0 -70 -55 -131q-9 -10 -20.5 -10t-19.5 12q-7 13 1 30q20 42 20 77q0 16 -16 50q-1 1 -3.5 7.5t-3.5 9t-2.5 8t-1.5 8.5v8t2 9.5t5 9.5q12 18 33 18q35 0 50 -40zM344 34q11 -28 11 -66q0 -70 -55 -131q-9 -10 -20.5 -10t-19.5 12q-7 13 1 30
q20 42 20 77q0 16 -16 50q-1 1 -3.5 7.5t-3.5 9t-2.5 8t-1.5 8.5v8t2 9.5t5 9.5q12 18 33 18q35 0 50 -40z" />
    <glyph glyph-name="dagger" unicode="&#x2020;" horiz-adv-x="596" 
d="M330 532v-584q0 -16 -9 -27t-24 -11q-14 0 -23.5 11.5t-9.5 26.5v584h-127q-15 0 -25 10t-10 25q0 14 9.5 23.5t25.5 9.5h127v201q0 39 33 39q15 0 24 -11t9 -28v-201h126q15 0 24.5 -9t9.5 -24t-9.5 -25t-24.5 -10h-126z" />
    <glyph glyph-name="daggerdbl" unicode="&#x2021;" horiz-adv-x="594" 
d="M331 205h127q14 0 23.5 -9.5t9.5 -25.5q0 -14 -9 -23.5t-24 -9.5h-127v-189q0 -16 -9 -27t-24 -11q-14 0 -23.5 11.5t-9.5 26.5v189h-127q-15 0 -25 9t-10 24t10 25t25 10h127v327h-127q-15 0 -25 10t-10 25q0 14 9.5 23.5t25.5 9.5h127v201q0 39 33 39q15 0 24 -11
t9 -28v-201h126q15 0 24.5 -9t9.5 -24t-9.5 -25t-24.5 -10h-126v-327z" />
    <glyph glyph-name="bullet" unicode="&#x2022;" horiz-adv-x="486" 
d="M242 148q-61 0 -102.5 42.5t-41.5 101.5q0 63 41.5 104.5t102.5 41.5q62 0 104 -42t42 -104q0 -61 -42 -102.5t-104 -41.5z" />
    <glyph glyph-name="ellipsis" unicode="&#x2026;" horiz-adv-x="650" 
d="M84 32q0 22 15 37.5t37 15.5t37.5 -15.5t15.5 -37.5t-15.5 -37t-37.5 -15t-37 15t-15 37zM252 32q0 22 15 37.5t37 15.5t37.5 -15.5t15.5 -37.5t-15.5 -37t-37.5 -15t-37 15t-15 37zM421 32q0 22 15 37.5t37 15.5t37.5 -15.5t15.5 -37.5t-15.5 -37t-37.5 -15t-37 15
t-15 37z" />
    <glyph glyph-name="perthousand" unicode="&#x2030;" horiz-adv-x="1116" 
d="M342 549q0 -63 -46.5 -109t-109.5 -46q-61 0 -108.5 46.5t-47.5 108.5t46.5 108.5t109.5 46.5t109.5 -45.5t46.5 -109.5zM110 549q0 -37 20.5 -57.5t55.5 -20.5q36 0 56.5 20.5t20.5 57.5q0 35 -20.5 55.5t-56.5 20.5q-35 0 -55.5 -20.5t-20.5 -55.5zM566 645l-312 -622
q-14 -33 -42 -33q-15 0 -29.5 12t-14.5 28q0 8 9 29l313 619q14 26 36 26q17 0 31 -10.5t14 -27.5q0 -11 -5 -21zM562 301q62 0 108.5 -46.5t46.5 -110.5q0 -63 -46 -108.5t-109 -45.5q-61 0 -108.5 45.5t-47.5 108.5q0 62 46.5 109.5t109.5 47.5zM640 144q0 36 -21 56.5
t-57 20.5q-35 0 -55.5 -21t-20.5 -56q0 -36 20.5 -56.5t55.5 -20.5q37 0 57.5 20.5t20.5 56.5zM921 301q62 0 108.5 -46.5t46.5 -110.5q0 -63 -46 -108.5t-109 -45.5q-61 0 -108.5 45.5t-47.5 108.5q0 62 46.5 109.5t109.5 47.5zM999 144q0 36 -20.5 56.5t-57.5 20.5
q-35 0 -55.5 -21t-20.5 -56q0 -36 20.5 -56.5t55.5 -20.5q37 0 57.5 20.5t20.5 56.5z" />
    <glyph glyph-name="guilsinglleft" unicode="&#x2039;" horiz-adv-x="441" 
d="M206 229l128 -190q9 -17 -3 -35q-8 -14 -26 -14t-31 20l-133 200q-10 23 -1 38l133 198q13 20 31 20q17 0 27.5 -15.5t1.5 -32.5z" />
    <glyph glyph-name="guilsinglright" unicode="&#x203a;" horiz-adv-x="408" 
d="M106 39l128 190l-127 189q-9 17 1.5 32.5t27.5 15.5q18 0 31 -20l133 -198q9 -15 -1 -38l-133 -200q-13 -20 -31 -20t-26 14q-12 18 -3 35z" />
    <glyph glyph-name="fraction" unicode="&#x2044;" horiz-adv-x="373" 
d="M-6 49l317 618q12 24 37 24q14 0 25.5 -10.5t11.5 -24.5q0 -11 -7 -25l-317 -617q-13 -24 -37 -24q-14 0 -25.5 10.5t-11.5 24.5q0 10 7 24z" />
    <glyph glyph-name="Euro" unicode="&#x20ac;" horiz-adv-x="778" 
d="M708 146q26 -31 -3 -63q-107 -93 -239 -93q-110 0 -203 67t-139 179h-27q-17 0 -28 11t-11 28q0 16 11.5 27.5t29.5 11.5h12q-2 29 -1 42h-11q-41 0 -41 39q0 36 38 38h22q34 115 130.5 191t217.5 76q120 0 217 -71q14 -9 16 -28.5t-8 -33.5q-22 -31 -60 -5
q-77 56 -165 56q-81 0 -155 -52.5t-106 -132.5h334q19 0 33 -9.5t14 -26.5q0 -18 -12 -29.5t-31 -11.5h-351q0 -25 3 -42h274q18 0 28.5 -10.5t10.5 -28.5q0 -37 -40 -39h-253q37 -73 106.5 -118.5t144.5 -45.5q100 0 180 74q13 13 31 13.5t31 -13.5z" />
    <glyph glyph-name="afii61352" unicode="&#x2116;" horiz-adv-x="1087" 
d="M832 246q-66 0 -116.5 49t-50.5 117q0 31 14 62q18 45 60.5 74t92.5 29q64 0 115 -48.5t51 -116.5q0 -65 -49 -115.5t-117 -50.5zM832 509q-42 0 -70 -27.5t-28 -68.5q0 -42 28 -69.5t70 -27.5t69.5 27.5t27.5 69.5t-27.5 69t-69.5 27zM577 653v-625q4 -14 -9.5 -26
t-28.5 -12q-14 0 -28 14l-408 551v-528q0 -16 -9 -26t-26 -10q-15 0 -24 10t-10 26v627q0 14 12 26q13 11 28.5 9.5t27.5 -15.5l408 -548v527q0 15 9 26t25 11q31 0 33 -37zM703 157h267q37 0 37 -32q0 -34 -37 -35h-267q-38 0 -38 34q0 33 38 33z" />
    <glyph glyph-name="trademark" unicode="&#x2122;" horiz-adv-x="688" 
d="M183 529v204h-66q-15 0 -15 14q0 13 15 13h159q15 0 15 -13q0 -14 -15 -14h-66v-204q0 -15 -15 -15q-12 0 -12 15zM345 708v-180q0 -14 -14 -14q-13 0 -13 14v221q0 11 12 11t23 -14l102 -173l100 172q12 21 26 15q7 -4 7 -11v-220q0 -15 -13 -15q-14 0 -14 15v179
l-95 -161q-3 -5 -10.5 -5t-10.5 5z" />
    <glyph glyph-name="partialdiff" unicode="&#x2202;" horiz-adv-x="511" 
d="M466 223q0 -112 -61 -172.5t-152 -60.5q-84 0 -139 49q-69 61 -69 168q0 85 55 140q60 60 147 60q58 0 115 -34q-59 137 -204 261q-12 9 -12 22q0 15 10 25t24 10q10 0 46 -27q102 -79 171 -195.5t69 -245.5zM397 223q0 44 -9 86q-60 41 -131 41q-63 0 -106 -45
q-38 -38 -38 -98q0 -78 45 -120q38 -35 95 -35q63 0 103.5 43.5t40.5 127.5z" />
    <glyph glyph-name="product" unicode="&#x220f;" horiz-adv-x="689" 
d="M594 651v-762q0 -17 -5.5 -25t-21.5 -8t-21.5 8t-5.5 25v747h-405v-745q0 -35 -27 -35t-27 35v760q0 16 11.5 27.5t28.5 11.5h434q17 0 28 -11.5t11 -27.5z" />
    <glyph glyph-name="summation" unicode="&#x2211;" horiz-adv-x="518" 
d="M106 44h355q11 0 18.5 -7.5t7.5 -18.5t-7.5 -19.5t-18.5 -8.5h-406q-18 0 -27 15t2 29l263 309l-263 306q-11 12 -3.5 26.5t23.5 14.5h411q11 0 18.5 -7t7.5 -18q0 -12 -7.5 -20.5t-18.5 -8.5h-355l241 -277q15 -15 0 -32z" />
    <glyph glyph-name="minus" unicode="&#x2212;" horiz-adv-x="536" 
d="M115 325h310q34 0 34 -26q0 -25 -34 -25h-310q-34 0 -34 26q0 25 34 25z" />
    <glyph glyph-name="radical" unicode="&#x221a;" horiz-adv-x="742" 
d="M84 248h116q23 0 36 -21l89 -149l325 623q13 21 34 21q15 0 25 -10.5t10 -25.5q0 -9 -5 -19l-353 -674q-12 -22 -34 -22q-21 0 -33 20l-111 185h-99q-15 0 -25.5 10.5t-10.5 25.5t10.5 25.5t25.5 10.5z" />
    <glyph glyph-name="infinity" unicode="&#x221e;" horiz-adv-x="813" 
d="M704 269q0 63 -33 104t-94 41q-94 0 -140 -145q46 -145 140 -145q61 0 94 41t33 104zM406 205q-58 -140 -172 -140q-89 0 -137.5 57.5t-48.5 146.5t48.5 146.5t137.5 57.5q113 0 172 -139q59 139 173 139q89 0 138 -57.5t49 -146.5t-49 -146.5t-138 -57.5
q-115 0 -173 140zM109 269q0 -63 33 -104t93 -41q95 0 141 145q-46 145 -141 145q-60 0 -93 -41t-33 -104z" />
    <glyph glyph-name="integral" unicode="&#x222b;" horiz-adv-x="396" 
d="M96 -174h-40q-15 0 -25 10t-10 26t10 25.5t25 9.5h32q71 0 71 77v555q0 70 36.5 109t104.5 39h39q16 0 26 -10t10 -26t-10 -25.5t-26 -9.5h-31q-70 0 -70 -77v-555q0 -70 -37 -109t-105 -39z" />
    <glyph glyph-name="approxequal" unicode="&#x2248;" horiz-adv-x="504" 
d="M338 474q27 0 47 10t32.5 19.5t20.5 9.5q12 0 20.5 -7.5t8.5 -18.5q0 -35 -36.5 -57t-86.5 -22q-37 0 -93 25.5t-87 25.5q-28 0 -47.5 -9.5t-31 -19.5t-20.5 -10q-13 0 -21 7.5t-8 18.5q0 35 36.5 57t86.5 22q40 0 95.5 -25.5t83.5 -25.5zM338 242q27 0 47 10t32.5 19.5
t20.5 9.5q12 0 20.5 -7.5t8.5 -18.5q0 -35 -36.5 -57t-86.5 -22q-37 0 -93 25.5t-87 25.5q-28 0 -47.5 -9.5t-31 -19.5t-20.5 -10q-13 0 -21 7.5t-8 18.5q0 33 36.5 56t86.5 23q40 0 95.5 -25.5t83.5 -25.5z" />
    <glyph glyph-name="notequal" unicode="&#x2260;" horiz-adv-x="560" 
d="M376 507h116q14 0 23.5 -10t9.5 -24q0 -15 -9.5 -25t-23.5 -10h-147l-76 -171h223q14 0 23.5 -10t9.5 -24q0 -15 -9.5 -25t-23.5 -10h-254l-49 -111q-8 -17 -25 -17q-12 0 -19.5 8t-7.5 19q0 6 4 15l38 86h-110q-14 0 -24 10t-10 25q0 14 10 24t24 10h141l75 171h-216
q-14 0 -24 10t-10 25q0 14 10 24t24 10h248l52 117q8 17 25 17q12 0 19.5 -8t7.5 -19q0 -8 -4 -15z" />
    <glyph glyph-name="lessequal" unicode="&#x2264;" horiz-adv-x="561" 
d="M179 440l301 -167q21 -12 21 -32q0 -19 -13.5 -37t-31.5 -18q-10 0 -20 6l-366 212q-24 14 -24 38t23 38l366 205q11 6 20 6q16 0 29 -17.5t13 -35.5q0 -21 -17 -31zM76 73h396q15 0 24.5 -11.5t9.5 -31.5q0 -19 -9.5 -29.5t-24.5 -10.5h-396q-34 0 -34 41q0 42 34 42z
" />
    <glyph glyph-name="greaterequal" unicode="&#x2265;" horiz-adv-x="561" 
d="M68 273l301 167l-301 167q-17 10 -17 31q0 18 13 35.5t29 17.5q9 0 20 -6l366 -205q23 -14 23 -38t-24 -38l-366 -212q-10 -6 -20 -6q-18 0 -31.5 18t-13.5 37q0 20 21 32zM76 73h396q34 0 34 -42q0 -41 -34 -41h-396q-15 0 -24.5 10.5t-9.5 29.5q0 20 9.5 31.5
t24.5 11.5z" />
    <glyph glyph-name="lozenge" unicode="&#x25ca;" horiz-adv-x="588" 
d="M36 340q0 14 10 25l218 308q11 17 30 17t30 -17l218 -308q10 -11 10 -25t-10 -25l-218 -308q-11 -17 -30 -17t-30 17l-218 308q-10 11 -10 25zM474 340l-180 258l-180 -258l180 -258z" />
    <glyph glyph-name="A.2" unicode="&#xe000;" horiz-adv-x="709" 
d="M408 675l262 -635q4 -7 4 -17q0 -17 -17.5 -27.5t-37.5 -10.5q-21 0 -32 21l-62 148h-318l-59 -146q-12 -23 -36 -23q-20 0 -37 11t-17 30q0 7 3 16l267 634q7 16 14 22.5t26 6.5q16 0 24.5 -7t15.5 -23zM368 539l-125 -301h248z" />
    <glyph glyph-name="A.3" unicode="&#xe001;" horiz-adv-x="640" 
d="M84 597q0 28 53 53q83 40 191 40q128 0 187 -72q52 -65 52 -187v-402q0 -16 -11.5 -27.5t-28.5 -11.5t-28.5 11.5t-11.5 27.5v13q-86 -52 -200 -52q-58 0 -109.5 18.5t-88 63t-36.5 107.5q0 111 102 167q99 51 332 66v14q0 97 -39 145q-40 48 -126 48q-71 0 -141 -36
q-44 -23 -60 -23t-26.5 10.5t-10.5 26.5zM139 182q0 -65 51 -95t124 -30q97 0 173 50v241q-190 -11 -260 -44q-88 -38 -88 -122z" />
    <glyph glyph-name="A.calt" unicode="&#xe002;" horiz-adv-x="709" 
d="M408 675l262 -635q4 -7 4 -17q0 -17 -17.5 -27.5t-37.5 -10.5q-21 0 -32 21l-62 148h-318l-59 -146q-12 -23 -36 -23q-20 0 -37 11t-17 30q0 7 3 16l267 634q7 16 14 22.5t26 6.5q16 0 24.5 -7t15.5 -23zM368 539l-125 -301h248z" />
    <glyph glyph-name="AE.3" unicode="&#xe003;" horiz-adv-x="1161" 
d="M53 179q0 119 140 169q92 33 294 40v38q0 97 -39 145q-40 49 -126 49q-78 0 -142 -37l-16 -8l-15 -7.5t-13 -5t-15 -2.5q-16 0 -26.5 10.5t-10.5 26.5q0 28 53 53q83 40 191 40q128 0 186 -72q22 -28 34 -60q4 7 25 32q92 100 239 100q141 0 227 -93q80 -86 80 -219
q0 -58 -51 -58h-493q7 -106 65 -173q73 -85 195 -85q76 0 133 24q20 8 39 19t30 17.5t19 6.5q15 0 25 -10t10 -27q0 -36 -78 -68q-84 -34 -178 -34q-164 0 -258 102q-117 -102 -288 -102q-95 0 -165.5 48t-70.5 141zM576 389h460q-4 98 -58 158q-62 69 -165 69
q-114 0 -180 -79q-49 -57 -57 -148zM314 57q124 0 224 87q-44 74 -50 176q-162 0 -244 -27q-105 -34 -105 -111q0 -65 51 -95t124 -30z" />
    <glyph glyph-name="AE.calt" unicode="&#xe004;" horiz-adv-x="979" 
d="M583 306v-235h330q14 0 24.5 -11t10.5 -25t-10.5 -24.5t-24.5 -10.5h-370q-17 0 -28.5 11.5t-11.5 27.5v129h-300l-116 -151q-8 -11 -12 -15t-11.5 -8t-17.5 -4q-38 0 -38 37q0 15 13 32l449 583q30 39 69 39h374q14 0 24.5 -10.5t10.5 -24.5q0 -15 -10.5 -25.5
t-24.5 -10.5h-330v-233h278q14 0 24.5 -11t10.5 -25t-10.5 -24.5t-24.5 -10.5h-278zM252 233h251v327z" />
    <glyph glyph-name="AEsmall.3" unicode="&#xe005;" horiz-adv-x="945" 
d="M677 59q61 0 104 19q15 6 30 15t24.5 14t15.5 5q14 0 23 -10t9 -25q0 -32 -69 -59q-63 -26 -139 -26q-130 0 -204 79q-99 -79 -223 -79q-80 0 -135.5 40.5t-55.5 115.5q0 32 12.5 57t31 41.5t49 29t57 19t66 10.5t63.5 5.5t62 2.5v25q0 77 -29 111q-30 37 -94 37
q-53 0 -112 -32q-28 -16 -44 -16t-26 10t-10 25q0 25 43 46q69 33 154 33q101 0 149 -59q15 -20 23 -39q68 98 206 98q113 0 183 -75q64 -68 64 -176q0 -49 -45 -49h-381q8 -81 46 -126q55 -67 152 -67zM480 311h349q-5 80 -46 123q-49 51 -123 51q-84 0 -135 -59
q-39 -48 -45 -115zM263 55q91 0 175 61q-34 57 -40 136q-40 0 -69.5 -1.5t-69.5 -7t-65 -15.5t-43.5 -30t-18.5 -47q0 -48 38.5 -72t92.5 -24z" />
    <glyph glyph-name="Aacute.2" unicode="&#xe006;" horiz-adv-x="692" 
d="M345 616q-86 0 -139 -59q-53 -57 -53 -162v-83h385v83q0 102 -54 162q-54 59 -139 59zM618 397v-368q0 -16 -12 -27.5t-28 -11.5q-17 0 -28.5 11.5t-11.5 27.5v212h-385v-212q0 -16 -11.5 -27.5t-28.5 -11.5t-28.5 11.5t-11.5 27.5v368q0 134 84 219q74 74 188 74
q117 0 189 -74q84 -88 84 -219zM275 794q0 8 6 19l76 138q12 21 28 21q13 0 21.5 -8.5t8.5 -19.5q0 -8 -8 -22l-81 -134q-11 -18 -26 -18q-10 0 -17.5 6.5t-7.5 17.5z" />
    <glyph glyph-name="Aacute.3" unicode="&#xe007;" horiz-adv-x="640" 
d="M84 597q0 28 53 53q83 40 191 40q128 0 187 -72q52 -65 52 -187v-402q0 -16 -11.5 -27.5t-28.5 -11.5t-28.5 11.5t-11.5 27.5v13q-86 -52 -200 -52q-58 0 -109.5 18.5t-88 63t-36.5 107.5q0 111 102 167q99 51 332 66v14q0 97 -39 145q-40 48 -126 48q-71 0 -141 -36
q-44 -23 -60 -23t-26.5 10.5t-10.5 26.5zM139 182q0 -65 51 -95t124 -30q97 0 173 50v241q-190 -11 -260 -44q-88 -38 -88 -122zM252 794q0 8 6 19l76 138q12 21 28 21q13 0 21.5 -8.5t8.5 -19.5q0 -8 -8 -22l-81 -134q-11 -18 -26 -18q-10 0 -17.5 6.5t-7.5 17.5z" />
    <glyph glyph-name="Aacute.calt" unicode="&#xe008;" horiz-adv-x="617" 
d="M308 587l-141 -354h282zM529 19l-59 149h-323l-61 -149q-11 -29 -40 -29q-17 0 -27.5 10.5t-10.5 26.5q0 7 6 21l240 601q16 41 55 41q40 0 56 -41l239 -601q5 -12 5 -21q0 -17 -11 -27t-29 -10q-29 0 -40 29zM239 794q0 8 6 19l76 138q12 21 28 21q13 0 21.5 -8.5
t8.5 -19.5q0 -8 -8 -22l-81 -134q-10 -18 -26 -18q-10 0 -17.5 6.5t-7.5 17.5z" />
    <glyph glyph-name="Abreve.2" unicode="&#xe009;" horiz-adv-x="692" 
d="M345 616q-86 0 -139 -59q-53 -57 -53 -162v-83h385v83q0 102 -54 162q-54 59 -139 59zM618 397v-368q0 -16 -12 -27.5t-28 -11.5q-17 0 -28.5 11.5t-11.5 27.5v212h-385v-212q0 -16 -11.5 -27.5t-28.5 -11.5t-28.5 11.5t-11.5 27.5v368q0 134 84 219q74 74 188 74
q117 0 189 -74q84 -88 84 -219zM345 879q24 0 43.5 13t29.5 29t21.5 29t22.5 13t19.5 -7.5t8.5 -18.5q0 -20 -30 -54q-47 -58 -115 -58t-115 58q-30 34 -30 54q0 11 8.5 18.5t19.5 7.5t22.5 -13t21.5 -29t29.5 -29t43.5 -13z" />
    <glyph glyph-name="Abreve.3" unicode="&#xe00a;" horiz-adv-x="640" 
d="M84 597q0 28 53 53q83 40 191 40q128 0 187 -72q52 -65 52 -187v-402q0 -16 -11.5 -27.5t-28.5 -11.5t-28.5 11.5t-11.5 27.5v13q-86 -52 -200 -52q-58 0 -109.5 18.5t-88 63t-36.5 107.5q0 111 102 167q99 51 332 66v14q0 97 -39 145q-40 48 -126 48q-71 0 -141 -36
q-44 -23 -60 -23t-26.5 10.5t-10.5 26.5zM139 182q0 -65 51 -95t124 -30q97 0 173 50v241q-190 -11 -260 -44q-88 -38 -88 -122zM317 879q24 0 43.5 13t29.5 29t21.5 29t22.5 13t19.5 -7.5t8.5 -18.5q0 -20 -30 -54q-47 -58 -115 -58t-115 58q-30 34 -30 54q0 11 8.5 18.5
t19.5 7.5t22.5 -13t21.5 -29t29.5 -29t43.5 -13z" />
    <glyph glyph-name="Abreve.calt" unicode="&#xe00b;" horiz-adv-x="617" 
d="M308 587l-141 -354h282zM529 19l-59 149h-323l-61 -149q-11 -29 -40 -29q-17 0 -27.5 10.5t-10.5 26.5q0 7 6 21l240 601q16 41 55 41q40 0 56 -41l239 -601q5 -12 5 -21q0 -17 -11 -27t-29 -10q-29 0 -40 29zM304 879q24 0 43.5 13t29.5 29t21.5 29t22.5 13t19.5 -7.5
t8.5 -18.5q0 -20 -30 -54q-47 -58 -115 -58t-115 58q-30 34 -30 54q0 11 8.5 18.5t19.5 7.5t22.5 -13t21.5 -29t29.5 -29t43.5 -13z" />
    <glyph glyph-name="Acircumflex.2" unicode="&#xe00c;" horiz-adv-x="692" 
d="M345 616q-86 0 -139 -59q-53 -57 -53 -162v-83h385v83q0 102 -54 162q-54 59 -139 59zM618 397v-368q0 -16 -12 -27.5t-28 -11.5q-17 0 -28.5 11.5t-11.5 27.5v212h-385v-212q0 -16 -11.5 -27.5t-28.5 -11.5t-28.5 11.5t-11.5 27.5v368q0 134 84 219q74 74 188 74
q117 0 189 -74q84 -88 84 -219zM345 971q12 0 24 -12l123 -127q13 -15 13 -22q0 -12 -7.5 -19.5t-19.5 -7.5q-11 0 -19 8l-114 117l-113 -117q-8 -8 -19 -8q-12 0 -19.5 7.5t-7.5 19.5q0 10 12 22l124 127q12 12 23 12z" />
    <glyph glyph-name="Acircumflex.3" unicode="&#xe00d;" horiz-adv-x="640" 
d="M84 597q0 28 53 53q83 40 191 40q128 0 187 -72q52 -65 52 -187v-402q0 -16 -11.5 -27.5t-28.5 -11.5t-28.5 11.5t-11.5 27.5v13q-86 -52 -200 -52q-58 0 -109.5 18.5t-88 63t-36.5 107.5q0 111 102 167q99 51 332 66v14q0 97 -39 145q-40 48 -126 48q-71 0 -141 -36
q-44 -23 -60 -23t-26.5 10.5t-10.5 26.5zM139 182q0 -65 51 -95t124 -30q97 0 173 50v241q-190 -11 -260 -44q-88 -38 -88 -122zM324 971q12 0 24 -12l123 -127q13 -15 13 -22q0 -12 -7.5 -19.5t-19.5 -7.5q-11 0 -19 8l-114 117l-113 -117q-8 -8 -19 -8q-12 0 -19.5 7.5
t-7.5 19.5q0 10 12 22l124 127q12 12 23 12z" />
    <glyph glyph-name="Acircumflex.calt" unicode="&#xe00e;" horiz-adv-x="617" 
d="M308 587l-141 -354h282zM529 19l-59 149h-323l-61 -149q-11 -29 -40 -29q-17 0 -27.5 10.5t-10.5 26.5q0 7 6 21l240 601q16 41 55 41q40 0 56 -41l239 -601q5 -12 5 -21q0 -17 -11 -27t-29 -10q-29 0 -40 29zM307 971q12 0 24 -12l123 -127q13 -15 13 -22
q0 -12 -7.5 -19.5t-19.5 -7.5q-11 0 -19 8l-114 117l-113 -117q-8 -8 -19 -8q-12 0 -19.5 7.5t-7.5 19.5q0 10 12 22l124 127q12 12 23 12z" />
    <glyph glyph-name="Adieresis.2" unicode="&#xe00f;" horiz-adv-x="692" 
d="M345 616q-86 0 -139 -59q-53 -57 -53 -162v-83h385v83q0 102 -54 162q-54 59 -139 59zM618 397v-368q0 -16 -12 -27.5t-28 -11.5q-17 0 -28.5 11.5t-11.5 27.5v212h-385v-212q0 -16 -11.5 -27.5t-28.5 -11.5t-28.5 11.5t-11.5 27.5v368q0 134 84 219q74 74 188 74
q117 0 189 -74q84 -88 84 -219zM252 825q-18 0 -31 13t-13 32q0 18 13 30.5t31 12.5q19 0 31.5 -12.5t12.5 -30.5q0 -19 -12.5 -32t-31.5 -13zM440 825q-18 0 -31 13t-13 32q0 18 13 30.5t31 12.5t31 -12.5t13 -30.5q0 -19 -13 -32t-31 -13z" />
    <glyph glyph-name="Adieresis.3" unicode="&#xe010;" horiz-adv-x="640" 
d="M84 597q0 28 53 53q83 40 191 40q128 0 187 -72q52 -65 52 -187v-402q0 -16 -11.5 -27.5t-28.5 -11.5t-28.5 11.5t-11.5 27.5v13q-86 -52 -200 -52q-58 0 -109.5 18.5t-88 63t-36.5 107.5q0 111 102 167q99 51 332 66v14q0 97 -39 145q-40 48 -126 48q-71 0 -141 -36
q-44 -23 -60 -23t-26.5 10.5t-10.5 26.5zM139 182q0 -65 51 -95t124 -30q97 0 173 50v241q-190 -11 -260 -44q-88 -38 -88 -122zM227 825q-18 0 -31 13t-13 32q0 18 13 30.5t31 12.5q19 0 31.5 -12.5t12.5 -30.5q0 -19 -12.5 -32t-31.5 -13zM415 825q-18 0 -31 13t-13 32
q0 18 13 30.5t31 12.5t31 -12.5t13 -30.5q0 -19 -13 -32t-31 -13z" />
    <glyph glyph-name="Adieresis.calt" unicode="&#xe011;" horiz-adv-x="617" 
d="M308 587l-141 -354h282zM529 19l-59 149h-323l-61 -149q-11 -29 -40 -29q-17 0 -27.5 10.5t-10.5 26.5q0 7 6 21l240 601q16 41 55 41q40 0 56 -41l239 -601q5 -12 5 -21q0 -17 -11 -27t-29 -10q-29 0 -40 29zM214 825q-18 0 -31 13t-13 32q0 18 13 30.5t31 12.5
q19 0 31.5 -12.5t12.5 -30.5q0 -19 -12.5 -32t-31.5 -13zM402 825q-18 0 -31 13t-13 32q0 18 13 30.5t31 12.5t31 -12.5t13 -30.5q0 -19 -13 -32t-31 -13z" />
    <glyph glyph-name="Agrave.2" unicode="&#xe012;" horiz-adv-x="692" 
d="M345 616q-86 0 -139 -59q-53 -57 -53 -162v-83h385v83q0 102 -54 162q-54 59 -139 59zM618 397v-368q0 -16 -12 -27.5t-28 -11.5q-17 0 -28.5 11.5t-11.5 27.5v212h-385v-212q0 -16 -11.5 -27.5t-28.5 -11.5t-28.5 11.5t-11.5 27.5v368q0 134 84 219q74 74 188 74
q117 0 189 -74q84 -88 84 -219zM416 794q0 -24 -26 -24q-16 0 -26 18l-81 134q-8 14 -8 22q0 11 9 19.5t21 8.5q15 0 28 -21l77 -138q6 -11 6 -19z" />
    <glyph glyph-name="Agrave.3" unicode="&#xe013;" horiz-adv-x="640" 
d="M84 597q0 28 53 53q83 40 191 40q128 0 187 -72q52 -65 52 -187v-402q0 -16 -11.5 -27.5t-28.5 -11.5t-28.5 11.5t-11.5 27.5v13q-86 -52 -200 -52q-58 0 -109.5 18.5t-88 63t-36.5 107.5q0 111 102 167q99 51 332 66v14q0 97 -39 145q-40 48 -126 48q-71 0 -141 -36
q-44 -23 -60 -23t-26.5 10.5t-10.5 26.5zM139 182q0 -65 51 -95t124 -30q97 0 173 50v241q-190 -11 -260 -44q-88 -38 -88 -122zM395 794q0 -24 -26 -24q-15 0 -26 18l-81 134q-8 14 -8 22q0 11 9 19.5t21 8.5q15 0 28 -21l77 -138q6 -11 6 -19z" />
    <glyph glyph-name="Agrave.calt" unicode="&#xe014;" horiz-adv-x="617" 
d="M308 587l-141 -354h282zM529 19l-59 149h-323l-61 -149q-11 -29 -40 -29q-17 0 -27.5 10.5t-10.5 26.5q0 7 6 21l240 601q16 41 55 41q40 0 56 -41l239 -601q5 -12 5 -21q0 -17 -11 -27t-29 -10q-29 0 -40 29zM378 794q0 -24 -26 -24q-16 0 -26 18l-81 134q-8 14 -8 22
q0 11 9 19.5t21 8.5q15 0 28 -21l77 -138q6 -11 6 -19z" />
    <glyph glyph-name="Amacron.2" unicode="&#xe015;" horiz-adv-x="692" 
d="M345 616q-86 0 -139 -59q-53 -57 -53 -162v-83h385v83q0 102 -54 162q-54 59 -139 59zM618 397v-368q0 -16 -12 -27.5t-28 -11.5q-17 0 -28.5 11.5t-11.5 27.5v212h-385v-212q0 -16 -11.5 -27.5t-28.5 -11.5t-28.5 11.5t-11.5 27.5v368q0 134 84 219q74 74 188 74
q117 0 189 -74q84 -88 84 -219zM479 881q0 -13 -8.5 -21.5t-21.5 -8.5h-206q-12 0 -21 8.5t-9 21.5q0 12 9 21t21 9h206q13 0 21.5 -9t8.5 -21z" />
    <glyph glyph-name="Amacron.3" unicode="&#xe016;" horiz-adv-x="640" 
d="M84 597q0 28 53 53q83 40 191 40q128 0 187 -72q52 -65 52 -187v-402q0 -16 -11.5 -27.5t-28.5 -11.5t-28.5 11.5t-11.5 27.5v13q-86 -52 -200 -52q-58 0 -109.5 18.5t-88 63t-36.5 107.5q0 111 102 167q99 51 332 66v14q0 97 -39 145q-40 48 -126 48q-71 0 -141 -36
q-44 -23 -60 -23t-26.5 10.5t-10.5 26.5zM139 182q0 -65 51 -95t124 -30q97 0 173 50v241q-190 -11 -260 -44q-88 -38 -88 -122zM458 881q0 -13 -8.5 -21.5t-21.5 -8.5h-206q-12 0 -21 8.5t-9 21.5q0 12 9 21t21 9h206q13 0 21.5 -9t8.5 -21z" />
    <glyph glyph-name="Amacron.calt" unicode="&#xe017;" horiz-adv-x="617" 
d="M308 587l-141 -354h282zM529 19l-59 149h-323l-61 -149q-11 -29 -40 -29q-17 0 -27.5 10.5t-10.5 26.5q0 7 6 21l240 601q16 41 55 41q40 0 56 -41l239 -601q5 -12 5 -21q0 -17 -11 -27t-29 -10q-29 0 -40 29zM441 881q0 -13 -8.5 -21.5t-21.5 -8.5h-206q-12 0 -21 8.5
t-9 21.5q0 12 9 21t21 9h206q13 0 21.5 -9t8.5 -21z" />
    <glyph glyph-name="Aogonek.2" unicode="&#xe018;" horiz-adv-x="692" 
d="M618 397v-368q0 -16 -12 -27.5t-28 -11.5q-10 0 -17 3q-19 -47 -19 -80q0 -58 74 -58q16 0 31 3.5t18 3.5q22 0 22 -22q0 -20 -23 -28q-27 -9 -53 -9q-118 0 -118 93q0 54 45 137v208h-385v-212q0 -16 -11.5 -27.5t-28.5 -11.5t-28.5 11.5t-11.5 27.5v368q0 134 84 219
q74 74 188 74q117 0 189 -74q84 -88 84 -219zM345 616q-86 0 -139 -59q-53 -57 -53 -162v-83h385v83q0 102 -54 162q-54 59 -139 59z" />
    <glyph glyph-name="Aogonek.3" unicode="&#xe019;" horiz-adv-x="640" 
d="M84 597q0 28 53 53q83 40 191 40q128 0 187 -72q52 -65 52 -187v-402q0 -14 -9.5 -25t-23.5 -13q-20 -45 -20 -78q0 -25 15 -41.5t60 -16.5q15 0 30 3.5t19 3.5q22 0 22 -22q0 -20 -23 -28q-27 -9 -53 -9q-119 0 -119 93q0 49 31 108q-9 11 -9 25v13q-86 -52 -200 -52
q-58 0 -109.5 18.5t-88 63t-36.5 107.5q0 111 102 167q99 51 332 66v14q0 97 -39 145q-40 48 -126 48q-71 0 -141 -36q-44 -23 -60 -23t-26.5 10.5t-10.5 26.5zM139 182q0 -65 51 -95t124 -30q97 0 173 50v241q-190 -11 -260 -44q-88 -38 -88 -122z" />
    <glyph glyph-name="Aogonek.calt" unicode="&#xe01a;" horiz-adv-x="617" 
d="M491 -104q0 44 37 124l-58 148h-323l-61 -149q-11 -29 -40 -29q-17 0 -27.5 10.5t-10.5 26.5q0 7 6 21l240 601q16 41 55 41q40 0 56 -41l239 -601q5 -12 5 -21q0 -17 -11 -27t-29 -10q-9 0 -11 1q-18 -42 -18 -78q0 -25 15 -41.5t60 -16.5q14 0 29.5 3.5t19.5 3.5
q21 0 21 -22q0 -21 -22 -28q-27 -9 -54 -9q-118 0 -118 93zM308 587l-141 -354h282z" />
    <glyph glyph-name="Aring.2" unicode="&#xe01b;" horiz-adv-x="692" 
d="M345 616q-86 0 -139 -59q-53 -57 -53 -162v-83h385v83q0 102 -54 162q-54 59 -139 59zM618 397v-368q0 -16 -12 -27.5t-28 -11.5q-17 0 -28.5 11.5t-11.5 27.5v212h-385v-212q0 -16 -11.5 -27.5t-28.5 -11.5t-28.5 11.5t-11.5 27.5v368q0 134 84 219q74 74 188 74
q117 0 189 -74q84 -88 84 -219zM461 862q0 -49 -33.5 -82.5t-81.5 -33.5t-82 33.5t-34 82.5q0 48 34 82t82 34t81.5 -34t33.5 -82zM425 862q0 33 -23 56.5t-56 23.5t-56 -23.5t-23 -56.5q0 -34 23 -57t56 -23t56 23t23 57z" />
    <glyph glyph-name="Aring.3" unicode="&#xe01c;" horiz-adv-x="640" 
d="M84 597q0 28 53 53q83 40 191 40q128 0 187 -72q52 -65 52 -187v-402q0 -16 -11.5 -27.5t-28.5 -11.5t-28.5 11.5t-11.5 27.5v13q-86 -52 -200 -52q-58 0 -109.5 18.5t-88 63t-36.5 107.5q0 111 102 167q99 51 332 66v14q0 97 -39 145q-40 48 -126 48q-71 0 -141 -36
q-44 -23 -60 -23t-26.5 10.5t-10.5 26.5zM139 182q0 -65 51 -95t124 -30q97 0 173 50v241q-190 -11 -260 -44q-88 -38 -88 -122zM438 862q0 -49 -33.5 -82.5t-81.5 -33.5t-82 33.5t-34 82.5q0 48 34 82t82 34t81.5 -34t33.5 -82zM402 862q0 33 -23 56.5t-56 23.5t-56 -23.5
t-23 -56.5q0 -34 23 -57t56 -23t56 23t23 57z" />
    <glyph glyph-name="Aring.calt" unicode="&#xe01d;" horiz-adv-x="617" 
d="M308 587l-141 -354h282zM529 19l-59 149h-323l-61 -149q-11 -29 -40 -29q-17 0 -27.5 10.5t-10.5 26.5q0 7 6 21l240 601q16 41 55 41q40 0 56 -41l239 -601q5 -12 5 -21q0 -17 -11 -27t-29 -10q-29 0 -40 29zM423 862q0 -49 -33.5 -82.5t-81.5 -33.5t-82 33.5t-34 82.5
q0 48 34 82t82 34t81.5 -34t33.5 -82zM387 862q0 33 -23 56.5t-56 23.5t-56 -23.5t-23 -56.5q0 -34 23 -57t56 -23t56 23t23 57z" />
    <glyph glyph-name="Asmall.2" unicode="&#xe01e;" horiz-adv-x="591" 
d="M295 484q-67 0 -111 -50q-38 -44 -38 -121v-64h300v64q0 76 -39 121q-42 50 -112 50zM519 316v-289q0 -14 -11 -24.5t-26 -10.5t-25.5 10.5t-10.5 24.5v159h-300v-159q0 -14 -11 -24.5t-26 -10.5t-26 10.5t-11 24.5v289q0 102 60 168q63 68 163 68q101 0 164 -68
q60 -66 60 -168z" />
    <glyph glyph-name="Asmall.3" unicode="&#xe01f;" horiz-adv-x="539" 
d="M271 475q83 0 139 -41t56 -122v-279q0 -18 -12.5 -30.5t-29.5 -12.5h-219q-71 0 -115 41t-44 117q0 67 45.5 112.5t114.5 45.5h176v11q0 36 -32 55.5t-72 19.5q-54 0 -99 -24q-14 -8 -24 -8q-15 0 -28 13t-13 29q0 21 24 37q54 36 133 36zM382 73v150h-174q-34 0 -56 -21
t-22 -54q0 -75 78 -75h174z" />
    <glyph glyph-name="Asmall.calt" unicode="&#xe020;" horiz-adv-x="709" 
d="M408 675l262 -635q4 -7 4 -17q0 -17 -17.5 -27.5t-37.5 -10.5q-21 0 -32 21l-62 148h-318l-59 -146q-12 -23 -36 -23q-20 0 -37 11t-17 30q0 7 3 16l267 634q7 16 14 22.5t26 6.5q16 0 24.5 -7t15.5 -23zM368 539l-125 -301h248z" />
    <glyph glyph-name="Asmallacute" unicode="&#xe021;" horiz-adv-x="591" 
d="M295 484q-67 0 -111 -50q-38 -44 -38 -121v-63h300v63q0 76 -39 121q-42 50 -112 50zM519 316v-289q0 -14 -11 -24.5t-26 -10.5t-25.5 10.5t-10.5 24.5v160h-300v-160q0 -14 -11 -24.5t-26 -10.5t-26 10.5t-11 24.5v289q0 102 60 168q63 68 163 68q101 0 164 -68
q60 -66 60 -168zM225 652q0 8 6 19l76 138q12 21 28 21q13 0 21.5 -8.5t8.5 -19.5q0 -8 -8 -22l-81 -134q-10 -18 -26 -18q-10 0 -17.5 6.5t-7.5 17.5z" />
    <glyph glyph-name="Asmallacute.2" unicode="&#xe022;" horiz-adv-x="591" 
d="M295 484q-67 0 -111 -50q-38 -44 -38 -121v-64h300v64q0 76 -39 121q-42 50 -112 50zM519 316v-289q0 -14 -11 -24.5t-26 -10.5t-25.5 10.5t-10.5 24.5v159h-300v-159q0 -14 -11 -24.5t-26 -10.5t-26 10.5t-11 24.5v289q0 102 60 168q63 68 163 68q101 0 164 -68
q60 -66 60 -168zM232 652q0 8 6 19l76 138q12 21 28 21q13 0 21.5 -8.5t8.5 -19.5q0 -8 -8 -22l-81 -134q-11 -18 -26 -18q-10 0 -17.5 6.5t-7.5 17.5z" />
    <glyph glyph-name="Asmallacute.3" unicode="&#xe023;" horiz-adv-x="544" 
d="M57 148q0 99 97 142q76 34 244 41v7q0 77 -29 111q-30 37 -92 37q-49 0 -93 -20q-12 -5 -26 -12.5t-23 -11.5t-16 -4q-16 0 -26 10t-10 25q0 25 43 46q69 33 154 33q101 0 149 -59q42 -51 42 -152v-313q0 -15 -10.5 -25.5t-25.5 -10.5q-16 0 -26.5 10.5t-10.5 25.5v3
q-64 -39 -154 -39q-77 0 -132 41t-55 115zM263 55q74 0 135 38v178q-143 -7 -196 -30q-70 -29 -70 -90q0 -48 38.5 -72t92.5 -24zM207 652q0 8 6 19l76 138q12 21 28 21q13 0 21.5 -8.5t8.5 -19.5q0 -8 -8 -22l-81 -134q-10 -18 -26 -18q-10 0 -17.5 6.5t-7.5 17.5z" />
    <glyph glyph-name="Asmallacute.calt" unicode="&#xe024;" horiz-adv-x="511" 
d="M428 17l-47 115h-252l-46 -115q-10 -25 -36 -25q-15 0 -24.5 9.5t-9.5 24.5q0 12 4 17l191 472q16 37 48 37q35 0 49 -37l189 -472q4 -12 4 -17q0 -14 -9.5 -24t-24.5 -10q-29 0 -36 25zM256 454l-108 -265h215zM176 652q0 8 6 19l76 138q12 21 28 21q13 0 21.5 -8.5
t8.5 -19.5q0 -8 -8 -22l-81 -134q-11 -18 -26 -18q-10 0 -17.5 6.5t-7.5 17.5z" />
    <glyph glyph-name="Asmallbreve" unicode="&#xe025;" horiz-adv-x="591" 
d="M295 484q-67 0 -111 -50q-38 -44 -38 -121v-63h300v63q0 76 -39 121q-42 50 -112 50zM519 316v-289q0 -14 -11 -24.5t-26 -10.5t-25.5 10.5t-10.5 24.5v160h-300v-160q0 -14 -11 -24.5t-26 -10.5t-26 10.5t-11 24.5v289q0 102 60 168q63 68 163 68q101 0 164 -68
q60 -66 60 -168zM294 700q24 0 43.5 13t29.5 29t21.5 29t22.5 13t19.5 -7.5t8.5 -18.5q0 -20 -30 -54q-47 -58 -115 -58t-115 58q-30 34 -30 54q0 11 8.5 18.5t19.5 7.5t22.5 -13t21.5 -29t29.5 -29t43.5 -13z" />
    <glyph glyph-name="Asmallbreve.2" unicode="&#xe026;" horiz-adv-x="591" 
d="M295 484q-67 0 -111 -50q-38 -44 -38 -121v-64h300v64q0 76 -39 121q-42 50 -112 50zM519 316v-289q0 -14 -11 -24.5t-26 -10.5t-25.5 10.5t-10.5 24.5v159h-300v-159q0 -14 -11 -24.5t-26 -10.5t-26 10.5t-11 24.5v289q0 102 60 168q63 68 163 68q101 0 164 -68
q60 -66 60 -168zM294 700q24 0 43.5 13t29.5 29t21.5 29t22.5 13t19.5 -7.5t8.5 -18.5q0 -20 -30 -54q-47 -58 -115 -58t-115 58q-30 34 -30 54q0 11 8.5 18.5t19.5 7.5t22.5 -13t21.5 -29t29.5 -29t43.5 -13z" />
    <glyph glyph-name="Asmallbreve.3" unicode="&#xe027;" horiz-adv-x="544" 
d="M57 148q0 99 97 142q76 34 244 41v7q0 77 -29 111q-30 37 -92 37q-49 0 -93 -20q-12 -5 -26 -12.5t-23 -11.5t-16 -4q-16 0 -26 10t-10 25q0 25 43 46q69 33 154 33q101 0 149 -59q42 -51 42 -152v-313q0 -15 -10.5 -25.5t-25.5 -10.5q-16 0 -26.5 10.5t-10.5 25.5v3
q-64 -39 -154 -39q-77 0 -132 41t-55 115zM263 55q74 0 135 38v178q-143 -7 -196 -30q-70 -29 -70 -90q0 -48 38.5 -72t92.5 -24zM272 700q24 0 43.5 13t29.5 29t21.5 29t22.5 13t19.5 -7.5t8.5 -18.5q0 -20 -30 -54q-47 -58 -115 -58t-115 58q-30 34 -30 54q0 11 8.5 18.5
t19.5 7.5t22.5 -13t21.5 -29t29.5 -29t43.5 -13z" />
    <glyph glyph-name="Asmallbreve.calt" unicode="&#xe028;" horiz-adv-x="511" 
d="M428 17l-47 115h-252l-46 -115q-10 -25 -36 -25q-15 0 -24.5 9.5t-9.5 24.5q0 12 4 17l191 472q16 37 48 37q35 0 49 -37l189 -472q4 -12 4 -17q0 -14 -9.5 -24t-24.5 -10q-29 0 -36 25zM256 454l-108 -265h215zM253 700q24 0 43.5 13t29.5 29t21.5 29t22.5 13t19.5 -7.5
t8.5 -18.5q0 -20 -30 -54q-47 -58 -115 -58t-115 58q-30 34 -30 54q0 11 8.5 18.5t19.5 7.5t22.5 -13t21.5 -29t29.5 -29t43.5 -13z" />
    <glyph glyph-name="Asmallcircumflex" unicode="&#xe029;" horiz-adv-x="591" 
d="M295 484q-67 0 -111 -50q-38 -44 -38 -121v-63h300v63q0 76 -39 121q-42 50 -112 50zM519 316v-289q0 -14 -11 -24.5t-26 -10.5t-25.5 10.5t-10.5 24.5v160h-300v-160q0 -14 -11 -24.5t-26 -10.5t-26 10.5t-11 24.5v289q0 102 60 168q63 68 163 68q101 0 164 -68
q60 -66 60 -168zM295 829q12 0 24 -12l123 -127q13 -15 13 -22q0 -12 -7.5 -19.5t-19.5 -7.5q-11 0 -19 8l-114 117l-113 -117q-8 -8 -19 -8q-12 0 -19.5 7.5t-7.5 19.5q0 10 12 22l124 127q12 12 23 12z" />
    <glyph glyph-name="Asmallcircumflex.2" unicode="&#xe02a;" horiz-adv-x="591" 
d="M295 484q-67 0 -111 -50q-38 -44 -38 -121v-64h300v64q0 76 -39 121q-42 50 -112 50zM519 316v-289q0 -14 -11 -24.5t-26 -10.5t-25.5 10.5t-10.5 24.5v159h-300v-159q0 -14 -11 -24.5t-26 -10.5t-26 10.5t-11 24.5v289q0 102 60 168q63 68 163 68q101 0 164 -68
q60 -66 60 -168zM297 829q12 0 24 -12l123 -127q13 -15 13 -22q0 -12 -7.5 -19.5t-19.5 -7.5q-11 0 -19 8l-114 117l-113 -117q-8 -8 -19 -8q-12 0 -19.5 7.5t-7.5 19.5q0 10 12 22l124 127q12 12 23 12z" />
    <glyph glyph-name="Asmallcircumflex.3" unicode="&#xe02b;" horiz-adv-x="544" 
d="M57 148q0 99 97 142q76 34 244 41v7q0 77 -29 111q-30 37 -92 37q-49 0 -93 -20q-12 -5 -26 -12.5t-23 -11.5t-16 -4q-16 0 -26 10t-10 25q0 25 43 46q69 33 154 33q101 0 149 -59q42 -51 42 -152v-313q0 -15 -10.5 -25.5t-25.5 -10.5q-16 0 -26.5 10.5t-10.5 25.5v3
q-64 -39 -154 -39q-77 0 -132 41t-55 115zM263 55q74 0 135 38v178q-143 -7 -196 -30q-70 -29 -70 -90q0 -48 38.5 -72t92.5 -24zM269 829q12 0 24 -12l123 -127q13 -15 13 -22q0 -12 -7.5 -19.5t-19.5 -7.5q-11 0 -19 8l-114 117l-113 -117q-8 -8 -19 -8q-12 0 -19.5 7.5
t-7.5 19.5q0 10 12 22l124 127q12 12 23 12z" />
    <glyph glyph-name="Asmallcircumflex.calt" unicode="&#xe02c;" horiz-adv-x="511" 
d="M428 17l-47 115h-252l-46 -115q-10 -25 -36 -25q-15 0 -24.5 9.5t-9.5 24.5q0 12 4 17l191 472q16 37 48 37q35 0 49 -37l189 -472q4 -12 4 -17q0 -14 -9.5 -24t-24.5 -10q-29 0 -36 25zM256 454l-108 -265h215zM254 829q12 0 24 -12l123 -127q13 -15 13 -22
q0 -12 -7.5 -19.5t-19.5 -7.5q-11 0 -19 8l-114 117l-113 -117q-8 -8 -19 -8q-12 0 -19.5 7.5t-7.5 19.5q0 10 12 22l124 127q12 12 23 12z" />
    <glyph glyph-name="Asmalldieresis" unicode="&#xe02d;" horiz-adv-x="591" 
d="M295 484q-67 0 -111 -50q-38 -44 -38 -121v-63h300v63q0 76 -39 121q-42 50 -112 50zM519 316v-289q0 -14 -11 -24.5t-26 -10.5t-25.5 10.5t-10.5 24.5v160h-300v-160q0 -14 -11 -24.5t-26 -10.5t-26 10.5t-11 24.5v289q0 102 60 168q63 68 163 68q101 0 164 -68
q60 -66 60 -168zM201 683q-18 0 -31 13t-13 32q0 18 13 30.5t31 12.5q19 0 31.5 -12.5t12.5 -30.5q0 -19 -12.5 -32t-31.5 -13zM389 683q-18 0 -31 13t-13 32q0 18 13 30.5t31 12.5t31 -12.5t13 -30.5q0 -19 -13 -32t-31 -13z" />
    <glyph glyph-name="Asmalldieresis.2" unicode="&#xe02e;" horiz-adv-x="591" 
d="M295 484q-67 0 -111 -50q-38 -44 -38 -121v-64h300v64q0 76 -39 121q-42 50 -112 50zM519 316v-289q0 -14 -11 -24.5t-26 -10.5t-25.5 10.5t-10.5 24.5v159h-300v-159q0 -14 -11 -24.5t-26 -10.5t-26 10.5t-11 24.5v289q0 102 60 168q63 68 163 68q101 0 164 -68
q60 -66 60 -168zM204 683q-18 0 -31 13t-13 32q0 18 13 30.5t31 12.5q19 0 31.5 -12.5t12.5 -30.5q0 -19 -12.5 -32t-31.5 -13zM392 683q-18 0 -31 13t-13 32q0 18 13 30.5t31 12.5t31 -12.5t13 -30.5q0 -19 -13 -32t-31 -13z" />
    <glyph glyph-name="Asmalldieresis.3" unicode="&#xe02f;" horiz-adv-x="544" 
d="M57 148q0 99 97 142q76 34 244 41v7q0 77 -29 111q-30 37 -92 37q-49 0 -93 -20q-12 -5 -26 -12.5t-23 -11.5t-16 -4q-16 0 -26 10t-10 25q0 25 43 46q69 33 154 33q101 0 149 -59q42 -51 42 -152v-313q0 -15 -10.5 -25.5t-25.5 -10.5q-16 0 -26.5 10.5t-10.5 25.5v3
q-64 -39 -154 -39q-77 0 -132 41t-55 115zM263 55q74 0 135 38v178q-143 -7 -196 -30q-70 -29 -70 -90q0 -48 38.5 -72t92.5 -24zM178 683q-18 0 -31 13t-13 32q0 18 13 30.5t31 12.5q19 0 31.5 -12.5t12.5 -30.5q0 -19 -12.5 -32t-31.5 -13zM366 683q-18 0 -31 13t-13 32
q0 18 13 30.5t31 12.5t31 -12.5t13 -30.5q0 -19 -13 -32t-31 -13z" />
    <glyph glyph-name="Asmalldieresis.calt" unicode="&#xe030;" horiz-adv-x="511" 
d="M428 17l-47 115h-252l-46 -115q-10 -25 -36 -25q-15 0 -24.5 9.5t-9.5 24.5q0 12 4 17l191 472q16 37 48 37q35 0 49 -37l189 -472q4 -12 4 -17q0 -14 -9.5 -24t-24.5 -10q-29 0 -36 25zM256 454l-108 -265h215zM161 683q-18 0 -31 13t-13 32q0 18 13 30.5t31 12.5
q19 0 31.5 -12.5t12.5 -30.5q0 -19 -12.5 -32t-31.5 -13zM349 683q-18 0 -31 13t-13 32q0 18 13 30.5t31 12.5t31 -12.5t13 -30.5q0 -19 -13 -32t-31 -13z" />
    <glyph glyph-name="Asmallgrave" unicode="&#xe031;" horiz-adv-x="591" 
d="M295 484q-67 0 -111 -50q-38 -44 -38 -121v-63h300v63q0 76 -39 121q-42 50 -112 50zM519 316v-289q0 -14 -11 -24.5t-26 -10.5t-25.5 10.5t-10.5 24.5v160h-300v-160q0 -14 -11 -24.5t-26 -10.5t-26 10.5t-11 24.5v289q0 102 60 168q63 68 163 68q101 0 164 -68
q60 -66 60 -168zM366 652q0 -24 -26 -24q-16 0 -26 18l-81 134q-8 14 -8 22q0 11 9 19.5t21 8.5q15 0 28 -21l77 -138q6 -11 6 -19z" />
    <glyph glyph-name="Asmallgrave.2" unicode="&#xe032;" horiz-adv-x="591" 
d="M295 484q-67 0 -111 -50q-38 -44 -38 -121v-64h300v64q0 76 -39 121q-42 50 -112 50zM519 316v-289q0 -14 -11 -24.5t-26 -10.5t-25.5 10.5t-10.5 24.5v159h-300v-159q0 -14 -11 -24.5t-26 -10.5t-26 10.5t-11 24.5v289q0 102 60 168q63 68 163 68q101 0 164 -68
q60 -66 60 -168zM369 652q0 -24 -26 -24q-15 0 -26 18l-81 134q-8 14 -8 22q0 11 9 19.5t21 8.5q15 0 28 -21l77 -138q6 -11 6 -19z" />
    <glyph glyph-name="Asmallgrave.3" unicode="&#xe033;" horiz-adv-x="544" 
d="M57 148q0 99 97 142q76 34 244 41v7q0 77 -29 111q-30 37 -92 37q-49 0 -93 -20q-12 -5 -26 -12.5t-23 -11.5t-16 -4q-16 0 -26 10t-10 25q0 25 43 46q69 33 154 33q101 0 149 -59q42 -51 42 -152v-313q0 -15 -10.5 -25.5t-25.5 -10.5q-16 0 -26.5 10.5t-10.5 25.5v3
q-64 -39 -154 -39q-77 0 -132 41t-55 115zM263 55q74 0 135 38v178q-143 -7 -196 -30q-70 -29 -70 -90q0 -48 38.5 -72t92.5 -24zM350 652q0 -24 -26 -24q-15 0 -26 18l-81 134q-8 14 -8 22q0 11 9 19.5t21 8.5q15 0 28 -21l77 -138q6 -11 6 -19z" />
    <glyph glyph-name="Asmallgrave.calt" unicode="&#xe034;" horiz-adv-x="511" 
d="M428 17l-47 115h-252l-46 -115q-10 -25 -36 -25q-15 0 -24.5 9.5t-9.5 24.5q0 12 4 17l191 472q16 37 48 37q35 0 49 -37l189 -472q4 -12 4 -17q0 -14 -9.5 -24t-24.5 -10q-29 0 -36 25zM256 454l-108 -265h215zM331 652q0 -24 -26 -24q-15 0 -26 18l-81 134q-8 14 -8 22
q0 11 9 19.5t21 8.5q15 0 28 -21l77 -138q6 -11 6 -19z" />
    <glyph glyph-name="Asmallmacron" unicode="&#xe035;" horiz-adv-x="591" 
d="M295 484q-67 0 -111 -50q-38 -44 -38 -121v-63h300v63q0 76 -39 121q-42 50 -112 50zM519 316v-289q0 -14 -11 -24.5t-26 -10.5t-25.5 10.5t-10.5 24.5v160h-300v-160q0 -14 -11 -24.5t-26 -10.5t-26 10.5t-11 24.5v289q0 102 60 168q63 68 163 68q101 0 164 -68
q60 -66 60 -168zM428 718q0 -13 -8.5 -21.5t-21.5 -8.5h-206q-12 0 -21 8.5t-9 21.5q0 12 9 21t21 9h206q13 0 21.5 -9t8.5 -21z" />
    <glyph glyph-name="Asmallmacron.2" unicode="&#xe036;" horiz-adv-x="591" 
d="M295 484q-67 0 -111 -50q-38 -44 -38 -121v-64h300v64q0 76 -39 121q-42 50 -112 50zM519 316v-289q0 -14 -11 -24.5t-26 -10.5t-25.5 10.5t-10.5 24.5v159h-300v-159q0 -14 -11 -24.5t-26 -10.5t-26 10.5t-11 24.5v289q0 102 60 168q63 68 163 68q101 0 164 -68
q60 -66 60 -168zM431 718q0 -13 -8.5 -21.5t-21.5 -8.5h-206q-12 0 -21 8.5t-9 21.5q0 12 9 21t21 9h206q13 0 21.5 -9t8.5 -21z" />
    <glyph glyph-name="Asmallmacron.3" unicode="&#xe037;" horiz-adv-x="544" 
d="M57 148q0 99 97 142q76 34 244 41v7q0 77 -29 111q-30 37 -92 37q-49 0 -93 -20q-12 -5 -26 -12.5t-23 -11.5t-16 -4q-16 0 -26 10t-10 25q0 25 43 46q69 33 154 33q101 0 149 -59q42 -51 42 -152v-313q0 -15 -10.5 -25.5t-25.5 -10.5q-16 0 -26.5 10.5t-10.5 25.5v3
q-64 -39 -154 -39q-77 0 -132 41t-55 115zM263 55q74 0 135 38v178q-143 -7 -196 -30q-70 -29 -70 -90q0 -48 38.5 -72t92.5 -24zM407 718q0 -13 -8.5 -21.5t-21.5 -8.5h-206q-12 0 -21 8.5t-9 21.5q0 12 9 21t21 9h206q13 0 21.5 -9t8.5 -21z" />
    <glyph glyph-name="Asmallmacron.calt" unicode="&#xe038;" horiz-adv-x="511" 
d="M428 17l-47 115h-252l-46 -115q-10 -25 -36 -25q-15 0 -24.5 9.5t-9.5 24.5q0 12 4 17l191 472q16 37 48 37q35 0 49 -37l189 -472q4 -12 4 -17q0 -14 -9.5 -24t-24.5 -10q-29 0 -36 25zM256 454l-108 -265h215zM388 718q0 -13 -8.5 -21.5t-21.5 -8.5h-206q-12 0 -21 8.5
t-9 21.5q0 12 9 21t21 9h206q13 0 21.5 -9t8.5 -21z" />
    <glyph glyph-name="Asmallogonek" unicode="&#xe039;" horiz-adv-x="591" 
d="M519 316v-289q0 -29 -32 -34q-20 -52 -20 -80q0 -25 15 -41.5t60 -16.5q16 0 31 3.5t18 3.5q22 0 22 -22q0 -20 -23 -28q-27 -9 -53 -9q-119 0 -119 93q0 41 34 111q-6 8 -6 20v160h-300v-160q0 -14 -11 -24.5t-26 -10.5t-26 10.5t-11 24.5v289q0 102 60 168
q63 68 163 68q101 0 164 -68q60 -66 60 -168zM295 484q-67 0 -111 -50q-38 -44 -38 -121v-63h300v63q0 76 -39 121q-42 50 -112 50z" />
    <glyph glyph-name="Asmallogonek.2" unicode="&#xe03a;" horiz-adv-x="591" 
d="M519 316v-289q0 -30 -33 -35q-20 -48 -20 -79q0 -25 15 -41.5t60 -16.5q15 0 30 3.5t19 3.5q22 0 22 -22q0 -20 -23 -28q-27 -9 -53 -9q-119 0 -119 93q0 43 35 111q-6 9 -6 20v159h-300v-159q0 -14 -11 -24.5t-26 -10.5t-26 10.5t-11 24.5v289q0 102 60 168
q63 68 163 68q101 0 164 -68q60 -66 60 -168zM295 484q-67 0 -111 -50q-38 -44 -38 -121v-64h300v64q0 76 -39 121q-42 50 -112 50z" />
    <glyph glyph-name="Asmallogonek.3" unicode="&#xe03b;" horiz-adv-x="544" 
d="M280 552q101 0 149 -59q42 -51 42 -152v-313q0 -28 -27 -35q-20 -49 -20 -80q0 -58 74 -58q16 0 31 3.5t18 3.5q22 0 22 -22q0 -20 -23 -28q-27 -9 -53 -9q-119 0 -119 93q0 49 31 109q-7 7 -7 23v3q-64 -39 -154 -39q-77 0 -132 41t-55 115q0 99 97 142q76 34 244 41v7
q0 77 -29 111q-30 37 -92 37q-49 0 -93 -20q-12 -5 -26 -12.5t-23 -11.5t-16 -4q-16 0 -26 10t-10 25q0 25 43 46q69 33 154 33zM263 55q74 0 135 38v178q-143 -7 -196 -30q-70 -29 -70 -90q0 -48 38.5 -72t92.5 -24z" />
    <glyph glyph-name="Asmallogonek.calt" unicode="&#xe03c;" horiz-adv-x="511" 
d="M428 17l-47 115h-252l-46 -115q-10 -25 -36 -25q-15 0 -24.5 9.5t-9.5 24.5q0 12 4 17l191 472q16 37 48 37q35 0 49 -37l189 -472q4 -12 4 -17q0 -14 -9.5 -23.5t-23.5 -10.5q-20 -48 -20 -79q0 -25 15 -41.5t60 -16.5q15 0 30 3.5t19 3.5q22 0 22 -22q0 -20 -23 -28
q-27 -9 -53 -9q-119 0 -119 93q0 40 35 112zM256 454l-108 -265h215z" />
    <glyph glyph-name="Asmallring" unicode="&#xe03d;" horiz-adv-x="591" 
d="M295 484q-67 0 -111 -50q-38 -44 -38 -121v-63h300v63q0 76 -39 121q-42 50 -112 50zM519 316v-289q0 -14 -11 -24.5t-26 -10.5t-25.5 10.5t-10.5 24.5v160h-300v-160q0 -14 -11 -24.5t-26 -10.5t-26 10.5t-11 24.5v289q0 102 60 168q63 68 163 68q101 0 164 -68
q60 -66 60 -168zM411 722q0 -49 -33.5 -82.5t-81.5 -33.5t-82 33.5t-34 82.5q0 48 34 82t82 34t81.5 -34t33.5 -82zM375 722q0 33 -23 56.5t-56 23.5t-56 -23.5t-23 -56.5q0 -34 23 -57t56 -23t56 23t23 57z" />
    <glyph glyph-name="Asmallring.2" unicode="&#xe03e;" horiz-adv-x="591" 
d="M295 484q-67 0 -111 -50q-38 -44 -38 -121v-64h300v64q0 76 -39 121q-42 50 -112 50zM519 316v-289q0 -14 -11 -24.5t-26 -10.5t-25.5 10.5t-10.5 24.5v159h-300v-159q0 -14 -11 -24.5t-26 -10.5t-26 10.5t-11 24.5v289q0 102 60 168q63 68 163 68q101 0 164 -68
q60 -66 60 -168zM413 722q0 -49 -33.5 -82.5t-81.5 -33.5t-82 33.5t-34 82.5q0 48 34 82t82 34t81.5 -34t33.5 -82zM377 722q0 33 -23 56.5t-56 23.5t-56 -23.5t-23 -56.5q0 -34 23 -57t56 -23t56 23t23 57z" />
    <glyph glyph-name="Asmallring.3" unicode="&#xe03f;" horiz-adv-x="544" 
d="M57 148q0 99 97 142q76 34 244 41v7q0 77 -29 111q-30 37 -92 37q-49 0 -93 -20q-12 -5 -26 -12.5t-23 -11.5t-16 -4q-16 0 -26 10t-10 25q0 25 43 46q69 33 154 33q101 0 149 -59q42 -51 42 -152v-313q0 -15 -10.5 -25.5t-25.5 -10.5q-16 0 -26.5 10.5t-10.5 25.5v3
q-64 -39 -154 -39q-77 0 -132 41t-55 115zM263 55q74 0 135 38v178q-143 -7 -196 -30q-70 -29 -70 -90q0 -48 38.5 -72t92.5 -24zM389 722q0 -49 -33.5 -82.5t-81.5 -33.5t-82 33.5t-34 82.5q0 48 34 82t82 34t81.5 -34t33.5 -82zM353 722q0 33 -23 56.5t-56 23.5t-56 -23.5
t-23 -56.5q0 -34 23 -57t56 -23t56 23t23 57z" />
    </font>
</defs>
</svg>
