<?xml version="1.0" standalone="no"?>
<!DOCTYPE svg PUBLIC "-//W3C//DTD SVG 1.1//EN" "http://www.w3.org/Graphics/SVG/1.1/DTD/svg11.dtd" >
<svg xmlns="http://www.w3.org/2000/svg" xmlns:xlink="http://www.w3.org/1999/xlink" version="1.1">
<metadata>
Created by FontForge 20161003 at Fri Sep 21 19:14:48 2018
 By www-data
Copyright (c) 2018 by New Channel Design. All rights reserved.
</metadata>
<defs>
<font id="New_Channel_FontMedium" horiz-adv-x="591" >
  <font-face 
    font-family="New_Channel_FontMedium"
    font-weight="400"
    font-stretch="normal"
    units-per-em="1000"
    panose-1="2 15 6 3 2 0 0 2 0 3"
    ascent="760"
    descent="-240"
    x-height="466"
    cap-height="690"
    bbox="-49 -251 1308 996"
    underline-thickness="50"
    underline-position="-200"
    unicode-range="U+0020-FB06"
  />
<missing-glyph horiz-adv-x="500" 
d="M0 690h500v-690h-500v690zM250 301l-181 -249h361zM69 638l181 -249l180 249h-361zM218 345l-166 229v-458zM282 345l166 -229v458z" />
    <glyph glyph-name="ffj" unicode="ffj" horiz-adv-x="761" 
d="M648 433v-472q0 -94 -48.5 -148t-98.5 -54q-30 0 -30 26q0 27 30 27q32 0 62.5 39t30.5 110v445h-189v-386q0 -10 -6.5 -20t-21.5 -10q-26 0 -26 30v386h-189v-386q0 -10 -6.5 -20t-21.5 -10q-26 0 -26 30v386h-52q-6 0 -12 2t-11.5 8.5t-5.5 16.5q0 14 9.5 20.5
t19.5 6.5h52v46q0 73 60.5 128.5t141.5 55.5q27 0 27 -26q0 -11 -8 -18.5t-19 -8.5q-59 0 -103.5 -39t-44.5 -92v-46h189v46q0 73 60.5 128.5t141.5 55.5q27 0 27 -26q0 -11 -8 -18.5t-19 -8.5q-59 0 -103.5 -39t-44.5 -92v-46h216q5 0 10.5 -2t11 -8.5t5.5 -16.5z" />
    <glyph glyph-name="fj" unicode="fj" horiz-adv-x="498" 
d="M351 460q22 0 27 -30v-468q0 -94 -48.5 -148t-98.5 -54q-34 0 -34 26q0 27 34 27q32 0 62.5 39t30.5 110v444h-189v-386q0 -10 -6.5 -20t-21.5 -10q-26 0 -26 30v386h-52q-6 0 -12 2t-11.5 8.5t-5.5 16.5q0 14 9.5 20.5t19.5 6.5h52v46q0 73 60.5 128.5t141.5 55.5
q27 0 27 -26q0 -11 -8 -18.5t-19 -8.5q-59 0 -103.5 -39t-44.5 -92v-46h216z" />
    <glyph glyph-name="ff" unicode="ff" horiz-adv-x="612" 
d="M168 451h194v70q0 169 134 169q54 0 96 -21q40 -20 40 -44q0 -11 -8 -19.5t-20 -8.5q-4 0 -8.5 2.5t-12 7.5t-14.5 8q-26 13 -59 13q-42 0 -58.5 -24t-16.5 -77v-76h127q11 0 19.5 -8.5t8.5 -19.5q0 -13 -8.5 -21.5t-19.5 -8.5h-127v-368q0 -14 -11 -24.5t-26 -10.5
t-25.5 10.5t-10.5 24.5v368h-194v-368q0 -14 -10.5 -24.5t-25.5 -10.5t-26 10.5t-11 24.5v368h-48q-12 0 -20.5 8.5t-8.5 21.5q0 11 8.5 19.5t20.5 8.5h48v71q0 70 31.5 114t100.5 44q48 0 88 -20q38 -18 38 -43q0 -12 -7 -20t-17 -8q-5 0 -31 14q-23 12 -54 12
q-76 0 -76 -98v-66z" />
    <glyph glyph-name="fi" unicode="fi" horiz-adv-x="495" 
d="M168 451h218q36 0 36 -35v-391q0 -14 -11 -24.5t-25 -10.5q-16 0 -26.5 10.5t-10.5 24.5v368h-181v-368q0 -14 -10.5 -24.5t-25.5 -10.5t-26 10.5t-11 24.5v368h-48q-12 0 -20.5 8.5t-8.5 21.5q0 11 8.5 19.5t20.5 8.5h48v68q0 171 154 171q64 0 115 -20q45 -19 45 -46
q0 -30 -34 -30q-11 0 -42 15q-36 18 -74 18q-49 0 -70 -30t-21 -88v-58z" />
    <glyph glyph-name="fl" unicode="fl" horiz-adv-x="496" 
d="M423 585v-560q0 -14 -11 -24.5t-25 -10.5q-15 0 -26 10.5t-11 24.5v559q0 17 -25 30.5t-64 13.5q-50 0 -71.5 -30t-21.5 -88v-59h121q12 0 20 -8.5t8 -19.5q0 -13 -8 -21.5t-20 -8.5h-121v-368q0 -14 -10.5 -24.5t-25.5 -10.5t-26 10.5t-11 24.5v368h-48q-12 0 -20.5 8.5
t-8.5 21.5q0 11 8.5 19.5t20.5 8.5h48v69q0 76 36.5 123t120.5 47q68 0 115 -21q34 -14 45 -32.5t11 -51.5z" />
    <glyph glyph-name="ffi" unicode="ffi" horiz-adv-x="761" 
d="M95 451v75q0 70 31.5 114t100.5 44q48 0 88 -20q38 -18 38 -43q0 -12 -7 -20t-17 -8q-5 0 -31 14q-23 12 -54 12q-76 0 -76 -98v-70h194v68q0 171 154 171q62 0 115 -22q45 -17 45 -44q0 -30 -34 -30q-7 0 -41 16q-36 18 -75 18q-49 0 -70 -30.5t-21 -88.5v-58h217
q18 0 27.5 -9.5t9.5 -25.5v-391q0 -14 -11 -24.5t-26 -10.5t-25.5 10.5t-10.5 24.5v368h-181v-368q0 -14 -11 -24.5t-26 -10.5t-25.5 10.5t-10.5 24.5v368h-194v-368q0 -14 -10.5 -24.5t-25.5 -10.5t-26 10.5t-11 24.5v368h-48q-12 0 -20.5 8.5t-8.5 21.5q0 11 8.5 19.5
t20.5 8.5h48z" />
    <glyph glyph-name="ffl" unicode="ffl" horiz-adv-x="763" 
d="M168 451h194v69q0 170 154 170q64 0 113 -21q35 -15 48 -33.5t13 -50.5v-560q0 -14 -10.5 -24.5t-25.5 -10.5t-26 10.5t-11 24.5v559q0 17 -25.5 30.5t-64.5 13.5q-92 0 -92 -118v-59h115q11 0 19.5 -8.5t8.5 -19.5q0 -13 -8.5 -21.5t-19.5 -8.5h-115v-368
q0 -14 -11 -24.5t-26 -10.5t-25.5 10.5t-10.5 24.5v368h-194v-368q0 -14 -10.5 -24.5t-25.5 -10.5t-26 10.5t-11 24.5v368h-48q-12 0 -20.5 8.5t-8.5 21.5q0 11 8.5 19.5t20.5 8.5h48v75q0 70 31.5 114t100.5 44q48 0 88 -20q38 -18 38 -43q0 -12 -7 -20t-17 -8q-5 0 -31 14
q-23 12 -54 12q-76 0 -76 -98v-70z" />
    <glyph glyph-name=".notdef" horiz-adv-x="500" 
d="M0 690h500v-690h-500v690zM250 301l-181 -249h361zM69 638l181 -249l180 249h-361zM218 345l-166 229v-458zM282 345l166 -229v458z" />
    <glyph glyph-name=".null" horiz-adv-x="0" 
 />
    <glyph glyph-name="nonmarkingreturn" horiz-adv-x="333" 
 />
    <glyph glyph-name="space" unicode=" " horiz-adv-x="254" 
 />
    <glyph glyph-name="exclam" unicode="!" horiz-adv-x="194" 
d="M63 25q0 19 13 32.5t32 13.5t32.5 -13.5t13.5 -32.5t-13.5 -32t-32.5 -13t-32 13t-13 32zM140 670v-490q0 -11 -7.5 -23.5t-26.5 -12.5q-14 0 -22 8t-10 15t-2 13v490q0 10 7.5 20t26.5 10q18 0 26 -10t8 -20z" />
    <glyph glyph-name="quotedbl" unicode="&#x22;" horiz-adv-x="326" 
d="M94 690q16 0 27 -10.5t11 -26.5l-12 -166q-1 -11 -8 -19t-18 -8t-17.5 8t-7.5 19l-13 166q0 15 11 26t27 11zM227 690q16 0 27 -10.5t11 -26.5l-12 -166q-1 -11 -8 -19t-18 -8t-17.5 8t-7.5 19l-13 166q0 15 11 26t27 11z" />
    <glyph glyph-name="numbersign" unicode="#" horiz-adv-x="570" 
d="M486 466q26 0 26 -27v-4q-2 -17 -12 -27t-26 -10h-71l-23 -136h70q29 0 29 -27q0 -1 -0.5 -3.5t-0.5 -4.5q-2 -14 -13 -23.5t-27 -9.5h-70l-29 -169q-3 -16 -14.5 -25.5t-26.5 -9.5q-12 0 -20 8.5t-8 20.5v6l29 169h-108l-29 -169q-2 -14 -14.5 -24.5t-25.5 -10.5
q-12 0 -22 10q-8 10 -8 19q0 1 0.5 3t0.5 3l31 169h-72q-12 0 -18.5 9t-6.5 22q0 16 10 26.5t27 10.5h71l25 136h-71q-12 0 -19 9t-7 21v5q5 33 39 33h70l33 190q2 14 14.5 24t26.5 10q13 0 20.5 -8t7.5 -20v-6l-33 -190h108l32 190q2 14 13.5 24t25.5 10q12 0 20 -8t8 -21
v-5l-33 -190h71zM336 398h-108l-25 -136h108z" />
    <glyph glyph-name="dollar" unicode="$" horiz-adv-x="529" 
d="M302 374q77 -6 131.5 -56.5t54.5 -129.5q0 -76 -54 -132t-132 -66v-30q0 -16 -9 -27t-25 -11q-32 0 -32 38v30q-144 23 -187 150q-2 6 -2 10q0 11 8 19.5t20 11.5q3 1 8 1q24 0 30 -25q26 -79 123 -99v251q-68 16 -114.5 66.5t-46.5 119.5q0 73 44 127.5t117 67.5v21
q0 16 8.5 28.5t24.5 12.5q15 0 24 -11.5t9 -29.5v-18q61 -5 110 -40.5t67 -94.5q1 -3 1 -10q0 -23 -22 -31q-4 -1 -11 -1q-25 0 -32 23q-20 75 -113 83v-248zM236 381v241q-40 -12 -66 -47.5t-27 -80.5q0 -41 27.5 -70.5t65.5 -42.5zM302 58q47 8 82.5 44.5t35.5 87.5
q0 49 -34.5 78.5t-83.5 34.5v-245z" />
    <glyph glyph-name="percent" unicode="%" horiz-adv-x="713" 
d="M325 546q0 -60 -43.5 -103.5t-104.5 -43.5q-58 0 -103 43t-45 104q0 58 43.5 103.5t104.5 45.5q60 0 104 -43.5t44 -105.5zM177 628q-33 0 -57 -24t-24 -58t24.5 -57.5t56.5 -23.5q36 0 59 23t23 58q0 33 -25 57.5t-57 24.5zM536 648l-321 -641q-11 -22 -31 -22
q-14 0 -25 8.5t-11 22.5q0 9 6 21l321 641q10 17 26 17q14 0 26.5 -10t12.5 -24q0 -1 -4 -13zM671 132q0 -60 -43.5 -103.5t-104.5 -43.5q-58 0 -103 43t-45 104q0 58 43.5 103.5t104.5 45.5q60 0 104 -43.5t44 -105.5zM523 214q-33 0 -57 -24t-24 -58t24.5 -57.5
t56.5 -23.5q36 0 59 23t23 58q0 33 -25 57.5t-57 24.5z" />
    <glyph glyph-name="ampersand" unicode="&#x26;" horiz-adv-x="663" 
d="M628 48q9 -9 9 -23q0 -13 -8 -21q-14 -14 -29 -14q-13 0 -21 9l-114 115q-29 -30 -43 -44t-42.5 -37t-56 -33t-57.5 -10q-82 0 -147 53t-65 136q0 35 22.5 70.5t44.5 55.5t64 53l19 15q-2 2 -17.5 18t-19.5 21t-17 19.5t-17.5 23.5t-12 23t-10 27t-2.5 27q0 47 26.5 87
t71.5 59q30 12 60 12q63 0 111 -47t48 -111q0 -30 -19.5 -61.5t-38.5 -49.5t-54 -47l-8 -7l159 -157l79 84q9 10 23 10q12 0 20 -7q15 -12 15 -30q0 -13 -8 -21l-80 -83zM177 532q0 -15 9.5 -33t17.5 -27.5t29.5 -31.5t24.5 -25q58 47 78 72t20 45q0 37 -26.5 63t-63.5 26
t-63 -26t-26 -63zM261 58q28 0 61 19t95 84l-167 164q-126 -99 -126 -146q0 -54 42 -87.5t95 -33.5z" />
    <glyph glyph-name="quotesingle" unicode="'" horiz-adv-x="149" 
d="M70 690q16 0 27 -10.5t11 -26.5l-12 -166q-1 -11 -8 -19t-18 -8t-17.5 8t-7.5 19l-13 166q0 15 11 26t27 11z" />
    <glyph glyph-name="parenleft" unicode="(" horiz-adv-x="293" 
d="M162 819q14 22 32 22q9 0 19 -5q16 -8 16 -26q0 -10 -6 -22q-101 -188 -101 -415q0 -206 102 -409q4 -8 4 -18q0 -14 -9.5 -24.5t-23.5 -10.5q-9 0 -16.5 4.5t-8.5 6.5t-9 13q-108 206 -108 438q0 117 28 237.5t81 208.5z" />
    <glyph glyph-name="parenright" unicode=")" horiz-adv-x="305" 
d="M127 818q53 -88 81 -208.5t28 -237.5q0 -232 -108 -438q-1 -1 -3 -4.5t-3 -5t-3.5 -4l-3.5 -3.5t-3.5 -2.5t-5 -2.5t-5.5 -1.5t-7 -0.5q-14 0 -23.5 10.5t-9.5 24.5q0 10 4 18q102 203 102 409q0 227 -101 415q-6 12 -6 22q0 18 16 26q10 5 19 5q18 0 32 -22z" />
    <glyph glyph-name="asterisk" unicode="*" horiz-adv-x="504" 
d="M401 606q2 -4 2 -12q0 -23 -28 -31l-103 -27l69 -84q9 -14 9 -25q0 -14 -13 -24q-11 -7 -18 -7q-17 0 -30 18q-3 4 -8 11t-19 29t-33 50l-59 -90q-13 -16 -30 -16q-10 0 -18 5q-13 10 -13 24q0 11 9 25q4 7 67 84q-15 4 -49.5 13t-53.5 14q-27 8 -27 32q0 3 2 11
q6 22 31 22q8 0 14 -3q18 -6 101 -39q-2 27 -3.5 48.5t-2 30.5t-1 16.5t-0.5 12.5q0 17 9 27t24 10t23.5 -10t8.5 -27q0 -7 -5 -108q86 35 100 39q8 2 13 2q24 0 32 -21z" />
    <glyph glyph-name="plus" unicode="+" horiz-adv-x="519" 
d="M437 335q13 0 23.5 -11t10.5 -25t-10 -23t-24 -9h-137v-137q0 -13 -11 -23.5t-25 -10.5t-23 10t-9 24v137h-134q-15 0 -24.5 9t-9.5 24q0 14 10 24.5t24 10.5h134v134q0 15 9 24.5t24 9.5q14 0 24.5 -10t10.5 -24v-134h137z" />
    <glyph glyph-name="comma" unicode="," horiz-adv-x="248" 
d="M91 71q21 0 34.5 -18.5t17.5 -40t4 -45.5q0 -66 -56 -132q-8 -8 -15 -8q-9 0 -15 9q-3 4 -3 11q0 6 4 14q22 55 22 84q0 9 -2.5 19t-6 17t-9 18.5t-7.5 16.5q-4 8 -4 18q0 15 10 26t26 11z" />
    <glyph glyph-name="hyphen" unicode="-" horiz-adv-x="518" 
d="M430 262h-312q-11 0 -23.5 7.5t-12.5 26.5q0 14 8 22t15 10t13 2h312q10 0 20 -7.5t10 -26.5q0 -18 -10 -26t-20 -8z" />
    <glyph glyph-name="period" unicode="." horiz-adv-x="164" 
d="M32 25q0 19 13 32.5t32 13.5t32.5 -13.5t13.5 -32.5t-13.5 -32t-32.5 -13t-32 13t-13 32z" />
    <glyph glyph-name="slash" unicode="/" horiz-adv-x="430" 
d="M15 31l324 649q7 16 26 16q7 0 19 -5q20 -9 20 -30q0 -4 -4 -12l-325 -649q-8 -15 -27 -15q-13 0 -25 10t-12 24q0 4 4 12z" />
    <glyph glyph-name="zero" unicode="0" horiz-adv-x="547" 
d="M274 695q71 0 121.5 -30t76 -83.5t36.5 -111.5t11 -128q0 -357 -246 -357q-69 0 -119 30.5t-76.5 83.5t-38 113t-11.5 130q0 346 246 353zM273 53q53 0 89.5 23.5t55 66.5t26 91t7.5 109q0 60 -7.5 107t-26 89t-54.5 65t-89 23t-90 -25.5t-55 -69.5t-25.5 -90t-7.5 -100
q0 -52 7.5 -98t25.5 -91.5t55 -72.5t89 -27z" />
    <glyph glyph-name="one" unicode="1" horiz-adv-x="330" 
d="M158 690q12 5 21 5q16 0 28 -11t14 -30v-633q0 -15 -10 -25.5t-26 -10.5q-15 0 -24 10.5t-9 25.5v586l-41 -24q-9 -6 -20 -6q-14 0 -25 11.5t-11 26.5q0 16 29 32z" />
    <glyph glyph-name="two" unicode="2" horiz-adv-x="547" 
d="M494 23q0 -14 -6 -21.5t-13 -9t-19 -2.5h-365q-23 0 -33 22q-4 7 -4 17q0 16 11 27l304 297q56 56 56 107q0 81 -44 124t-107 43q-62 0 -106.5 -40.5t-44.5 -121.5q0 -30 -34 -30t-34 30q0 99 59 164.5t160 65.5t160 -66.5t59 -168.5q0 -83 -83 -162l-246 -240h297
q9 0 14.5 -1.5t12 -9.5t6.5 -24z" />
    <glyph glyph-name="three" unicode="3" horiz-adv-x="552" 
d="M408 343q40 -23 64.5 -67t24.5 -95q0 -80 -60 -138t-144 -58h-34q-74 0 -139 56t-65 133q0 34 35 34q30 0 33 -28q0 -48 41.5 -87.5t98.5 -39.5h30q52 0 94 37t42 91q0 56 -41.5 90.5t-94.5 34.5h-42q-15 0 -27.5 8.5t-12.5 24.5t10.5 25.5t27.5 9.5h31q61 0 99.5 38
t38.5 87q0 50 -40 88.5t-95 39.5q-92 -3 -129 -75q-9 -16 -29 -16q-14 0 -24.5 8.5t-10.5 22.5q0 9 5 19q59 109 188 109q81 0 142 -56.5t61 -139.5q0 -93 -78 -156z" />
    <glyph glyph-name="four" unicode="4" horiz-adv-x="545" 
d="M453 227q38 0 38 -32q0 -15 -11 -25.5t-27 -10.5h-40v-136q0 -38 -34 -38t-34 38v136h-254q-17 0 -26.5 12t-9.5 29q0 16 6 26q280 439 280 440q19 29 37 29q35 0 35 -44v-424h40zM143 227h202v316z" />
    <glyph glyph-name="five" unicode="5" horiz-adv-x="574" 
d="M282 466q99 0 168.5 -69.5t69.5 -174.5q0 -101 -64.5 -169t-169.5 -68q-100 0 -165.5 65.5t-65.5 165.5q0 30 34 30t34 -30q0 -65 42.5 -114t120.5 -49q83 0 124.5 51t41.5 118q0 77 -52 126.5t-118 49.5h-135q-19 0 -29 13.5t-10 32.5q0 10 4 22l53 189q10 35 37 35h257
q15 0 26 -9.5t11 -25.5q0 -14 -11 -23.5t-26 -9.5h-232l-44 -156h99z" />
    <glyph glyph-name="six" unicode="6" horiz-adv-x="588" 
d="M293 464q100 0 170 -70t70 -171q0 -99 -70 -168.5t-170 -69.5q-99 0 -169 69.5t-70 168.5q0 73 44 141l210 319q7 12 24 12q38 -5 38 -35q0 -6 -5 -14l-123 -187q27 5 51 5zM293 52q70 0 121 51t51 120q0 72 -50.5 123.5t-121.5 51.5q-69 0 -120 -51.5t-51 -123.5
q0 -68 51 -119.5t120 -51.5z" />
    <glyph glyph-name="seven" unicode="7" horiz-adv-x="587" 
d="M88 690h409q13 0 24 -12t11 -26t-11 -31l-377 -616q-12 -20 -28 -20q-11 0 -25 10q-13 9 -13 20t13 31l351 576h-353q-34 0 -34 34q0 14 9.5 24t23.5 10z" />
    <glyph glyph-name="eight" unicode="8" horiz-adv-x="574" 
d="M401 387q52 -23 85 -76t33 -113q0 -90 -63.5 -151.5t-164.5 -61.5t-168.5 62t-67.5 151q0 61 32 113t86 76q-30 23 -47.5 59t-17.5 74q0 70 52 122.5t128 52.5q72 0 126.5 -47t54.5 -128q0 -38 -17.5 -74t-50.5 -59zM176 520q0 -44 32.5 -74t79.5 -30q41 0 77 28.5
t36 75.5q0 48 -34 77.5t-79 29.5q-46 0 -79 -32t-33 -75zM289 53q70 0 116 41.5t46 103.5q0 58 -50 104t-113 46q-66 0 -115.5 -45.5t-49.5 -104.5q0 -62 47.5 -103.5t118.5 -41.5z" />
    <glyph glyph-name="nine" unicode="9" 
d="M538 455q0 -95 -62 -165l-260 -296q-7 -9 -21 -9t-25.5 10.5t-11.5 25.5q0 11 8 19l151 172q-3 0 -9 -0.5t-10 -0.5q-103 0 -173 70.5t-70 173.5q0 100 70.5 170t172.5 70q100 0 170 -70t70 -170zM124 455q0 -72 51 -123.5t123 -51.5q71 0 121.5 51.5t50.5 123.5
q0 70 -51 121t-121 51q-72 0 -123 -51t-51 -121z" />
    <glyph glyph-name="colon" unicode=":" horiz-adv-x="267" 
d="M55 35q0 19 13 32.5t32 13.5t32.5 -13.5t13.5 -32.5t-13.5 -32t-32.5 -13t-32 13t-13 32zM55 424q0 19 13 32.5t32 13.5t32.5 -13.5t13.5 -32.5t-13.5 -32t-32.5 -13t-32 13t-13 32z" />
    <glyph glyph-name="semicolon" unicode=";" horiz-adv-x="250" 
d="M57 424q0 19 13 32.5t32 13.5t32.5 -13.5t13.5 -32.5t-13.5 -32t-32.5 -13t-32 13t-13 32zM92 71q21 0 34.5 -18.5t17.5 -40t4 -45.5q0 -66 -56 -132q-8 -8 -15 -8t-12.5 6t-5.5 14q0 6 4 14q22 55 22 84q0 9 -2.5 19t-6 17t-9 18.5t-7.5 16.5q-4 8 -4 18q0 15 10 26
t26 11z" />
    <glyph glyph-name="less" unicode="&#x3c;" horiz-adv-x="663" 
d="M216 307l323 -184q32 -22 7 -53q-18 -23 -43 -10l-373 215q-20 12 -20 32q0 21 20 33l374 210q23 13 43 -16q3 -5 5.5 -12.5t-0.5 -18t-13 -16.5z" />
    <glyph glyph-name="equal" unicode="=" horiz-adv-x="658" 
d="M143 448h372q34 0 34 -34q0 -15 -10 -24.5t-24 -9.5h-372q-14 0 -24 10t-10 25t9.5 24t24.5 9zM143 228h372q34 0 34 -34q0 -15 -10 -24.5t-24 -9.5h-372q-14 0 -24 10t-10 25t9.5 24t24.5 9z" />
    <glyph glyph-name="greater" unicode="&#x3e;" horiz-adv-x="668" 
d="M129 123l323 184l-323 180q-10 6 -13 16.5t-0.5 18t5.5 12.5q20 29 43 16l374 -210q20 -12 20 -33q0 -20 -20 -32l-373 -215q-25 -13 -43 10q-25 31 7 53z" />
    <glyph glyph-name="question" unicode="?" horiz-adv-x="528" 
d="M229 25q0 19 13 32.5t32 13.5t32.5 -13.5t13.5 -32.5t-13.5 -32t-32.5 -13t-32 13t-13 32zM266 690q84 0 148 -61.5t64 -148.5q0 -48 -24.5 -87.5t-70.5 -87.5q-25 -25 -38 -40t-25 -40t-12 -51q0 -14 -9.5 -24t-23.5 -10t-23.5 10t-9.5 24q0 35 13.5 66.5t29 50
t42.5 45.5q30 30 42 44t26.5 42.5t14.5 57.5q0 59 -42.5 100.5t-101.5 41.5q-57 0 -99.5 -42t-42.5 -99q0 -13 -10 -24t-24 -11t-24 10t-10 24q0 88 61 149t149 61z" />
    <glyph glyph-name="at" unicode="@" horiz-adv-x="822" 
d="M766 342q2 -102 -30 -163.5t-116 -67.5q-41 0 -60.5 18.5t-26.5 55.5q-47 -44 -126 -46q-76 0 -134 61.5t-58 141.5q0 76 56 132.5t136 56.5q79 0 136 -54.5t57 -133.5v-141q0 -20 22 -20q21 0 36 11.5t22.5 26.5t12 40t5 41.5t0.5 40.5q0 116 -84.5 198t-205.5 82
q-119 0 -201.5 -81t-82.5 -199q0 -117 84.5 -200.5t202.5 -83.5q76 0 130 26q15 6 29 -2.5t18 -25.5q5 -25 -18 -36q-73 -30 -159 -30q-66 0 -134 27q-97 39 -159 129t-62 196q0 141 105.5 244.5t249.5 103.5q147 0 251 -103t104 -245zM407 204q55 0 89.5 38.5t34.5 99.5
q0 53 -35.5 88.5t-88.5 35.5t-88.5 -35.5t-35.5 -88.5q0 -51 36 -94.5t88 -43.5z" />
    <glyph glyph-name="A" unicode="A" horiz-adv-x="677" 
d="M380 673l261 -638q3 -9 3 -19q0 -13 -9 -22t-23 -9q-23 0 -33 23l-58 145h-348l-58 -145q-10 -23 -33 -23q-14 0 -23.5 10t-9.5 24q0 9 3 16l262 638q8 22 34 22q23 0 32 -22zM201 221h292l-146 357z" />
    <glyph glyph-name="B" unicode="B" horiz-adv-x="635" 
d="M480 347q59 -32 83 -68q26 -40 26 -95q0 -65 -39 -115q-63 -79 -167 -79h-248q-14 0 -25 11t-11 25v628q0 15 11 25.5t25 10.5h203q41 0 85 -14t72 -37q66 -53 66 -139q0 -48 -23 -90q-22 -37 -58 -63zM383 58q66 0 110 50q28 33 28 76q0 45 -29 74q-51 49 -137 49h-188
v-249h216zM167 375h179q36 0 73.5 17t56.5 45q17 25 17 63q0 52 -41 86q-19 16 -53 26t-61 10h-171v-247z" />
    <glyph glyph-name="C" unicode="C" horiz-adv-x="717" 
d="M651 137q13 0 22 -10.5t9 -24.5t-10 -24q-93 -92 -238 -93h-4q-139 0 -244.5 103.5t-105.5 251.5q0 149 105 252t249 103q114 0 213 -71q15 -10 15 -29q0 -12 -7 -22q-10 -13 -24 -13q-12 0 -26 9q-77 58 -171 58q-115 0 -200.5 -83.5t-85.5 -203.5q0 -117 86 -202
t200 -85q56 0 108 21t82 51q12 12 27 12z" />
    <glyph glyph-name="D" unicode="D" horiz-adv-x="715" 
d="M293 690q142 -2 245.5 -102.5t104.5 -245.5q0 -141 -98 -246t-253 -106h-157q-14 0 -24.5 11t-11.5 26v626q0 14 10 25.5t26 11.5h158zM167 622v-564h125q114 0 198.5 85t84.5 198q0 114 -84 197.5t-199 83.5h-125z" />
    <glyph glyph-name="E" unicode="E" horiz-adv-x="605" 
d="M140 58h334q13 0 23.5 -8.5t10.5 -27.5q0 -32 -34 -32h-366q-14 0 -25 10.5t-11 25.5v627q0 15 10.5 26t25.5 11h366q15 0 24.5 -9t9.5 -25q0 -34 -34 -34h-334v-248h257q15 0 24.5 -9t9.5 -25q0 -17 -10.5 -25.5t-23.5 -8.5h-257v-248z" />
    <glyph glyph-name="F" unicode="F" horiz-adv-x="583" 
d="M504 690q13 0 23 -8.5t10 -26.5q0 -33 -34 -33h-336v-248h255q15 0 25.5 -10t10.5 -25t-10.5 -24t-25.5 -9h-255v-285q0 -15 -9 -25.5t-25 -10.5q-15 0 -24.5 10.5t-9.5 25.5v632q0 15 11 26t26 11h368z" />
    <glyph glyph-name="G" unicode="G" horiz-adv-x="749" 
d="M682 275v-155q-1 -16 -17 -32q-113 -103 -250 -103q-141 0 -248 105.5t-107 249.5q0 142 105.5 248.5t249.5 106.5q121 0 223 -79q13 -12 13 -25t-10.5 -25t-20.5 -12q-14 0 -27 9q-83 64 -178 64q-116 0 -201 -85.5t-85 -202.5t84 -201.5t203 -84.5q59 0 116.5 26
t81.5 54v109h-168q-16 0 -26 8.5t-10 24.5q0 35 36 35h199q35 0 37 -35z" />
    <glyph glyph-name="H" unicode="H" horiz-adv-x="646" 
d="M515 695q15 0 24 -9t9 -25v-642q0 -14 -9 -24t-25 -10t-25 10t-9 24v287h-340v-287q0 -14 -8.5 -24t-25.5 -10q-14 0 -24 10t-10 24v642q0 12 8.5 23t25.5 11q34 0 34 -34v-287h340v287q0 13 8.5 23.5t26.5 10.5z" />
    <glyph glyph-name="I" unicode="I" horiz-adv-x="264" 
d="M167 665v-644q0 -11 -7.5 -23.5t-26.5 -12.5t-27 12.5t-8 23.5v644q0 10 8 20t27 10q18 0 26 -10t8 -20z" />
    <glyph glyph-name="J" unicode="J" horiz-adv-x="370" 
d="M249 695q16 0 26 -9t10 -26v-464q0 -95 -58 -153t-148 -58q-14 0 -24 10t-10 24t9.5 24t24.5 10q59 0 97 38q41 41 41 105v464q0 34 32 35z" />
    <glyph glyph-name="K" unicode="K" horiz-adv-x="610" 
d="M285 351l264 -305q13 -13 13 -26q0 -14 -10.5 -24.5t-25.5 -10.5q-17 0 -26 12l-260 301l-73 -86v-194q0 -33 -34 -33q-15 0 -24.5 9t-9.5 24v645q0 14 9.5 23t24.5 9q34 0 34 -32v-346l306 364q13 15 27 15t26 -10t12 -24q0 -10 -10 -23z" />
    <glyph glyph-name="L" unicode="L" horiz-adv-x="552" 
d="M99 661q0 11 8 22.5t26 11.5q17 0 25.5 -12t8.5 -22v-603h304q36 0 36 -35q0 -16 -11.5 -24.5t-24.5 -8.5h-336q-36 0 -36 37v634z" />
    <glyph glyph-name="M" unicode="M" horiz-adv-x="879" 
d="M741 697q15 0 26.5 -11t11.5 -26v-641q0 -14 -10 -24t-25 -10q-33 0 -33 34v521l-237 -392q-1 -3 -5 -7.5t-12.5 -10.5t-17.5 -6q-19 0 -35 25l-237 393v-522q0 -15 -9 -25t-25 -10q-15 0 -24.5 9.5t-9.5 25.5v640q0 14 10.5 25t27.5 11q18 0 29 -18l273 -456l275 457
q11 18 27 18z" />
    <glyph glyph-name="N" unicode="N" horiz-adv-x="740" 
d="M643 22q0 -22 -22 -33q-7 -4 -17 -4q-18 0 -28 13l-409 564v-541q0 -36 -34 -36q-15 0 -24.5 10t-9.5 26v638q0 14 9.5 25t24.5 11q21 0 34 -16l408 -562v544q0 14 9 24t24 10q35 0 35 -34v-639z" />
    <glyph glyph-name="O" unicode="O" horiz-adv-x="803" 
d="M400 695q146 0 251 -105t105 -250t-105 -250t-251 -105t-250.5 104.5t-104.5 250.5t104.5 250.5t250.5 104.5zM400 53q117 0 202.5 84.5t85.5 201.5t-86 202.5t-203 85.5t-201.5 -85.5t-84.5 -202.5t85 -201.5t202 -84.5z" />
    <glyph glyph-name="P" unicode="P" horiz-adv-x="610" 
d="M134 690h218q86 0 148 -67t62 -156q0 -85 -63.5 -157t-146.5 -72h-186v-219q0 -15 -9 -24.5t-25 -9.5q-15 0 -24.5 9.5t-9.5 24.5v634q0 15 10.5 25.5t25.5 11.5zM166 622v-316h186q53 0 97.5 52t44.5 109q0 55 -43 105t-99 50h-186z" />
    <glyph glyph-name="Q" unicode="Q" horiz-adv-x="802" 
d="M674 117l70 -76q8 -8 8 -21t-10.5 -24t-24.5 -11q-15 0 -23 10l-69 74q-100 -84 -226 -84q-145 0 -249.5 105t-104.5 250t104.5 250t249.5 105t251 -105t106 -250q0 -123 -82 -223zM399 53q101 0 180 66l-68 75q-11 8 -11 26q0 13 11 23q9 9 22 9q15 0 28 -13l66 -72
q61 77 61 172q0 116 -86.5 202t-203.5 86q-116 0 -200.5 -85.5t-84.5 -202.5q0 -116 85 -201t201 -85z" />
    <glyph glyph-name="R" unicode="R" horiz-adv-x="560" 
d="M382 249l115 -218q4 -6 4 -14q0 -13 -11.5 -22.5t-26.5 -9.5q-20 0 -26 14l-127 240h-169v-221q0 -15 -9.5 -24t-25.5 -9q-15 0 -24.5 9t-9.5 24v639q0 15 10.5 26.5t26.5 11.5h219q86 0 149 -67.5t63 -157.5q0 -71 -45.5 -135t-112.5 -86zM141 627v-320h187
q54 0 98.5 52.5t44.5 110.5q0 56 -43 106.5t-100 50.5h-187z" />
    <glyph glyph-name="S" unicode="S" horiz-adv-x="607" 
d="M561 185q0 -81 -47 -130q-69 -70 -196 -70q-171 0 -236 86q-33 44 -38 93v5q0 32 32 32t36 -28q18 -120 203 -120q93 0 138 37q40 32 40 93q0 44 -15 66.5t-48 38.5q-49 23 -131 31q-153 15 -209 83q-32 38 -32 98q0 52 21 89q28 50 86 78t125 28q121 0 184 -45
q32 -23 51 -44t26 -50q1 -4 1 -11q0 -11 -8.5 -20t-22.5 -10q-17 0 -24 5t-14 22q-6 15 -22.5 32t-35.5 26q-53 27 -133 27q-55 0 -105 -27q-61 -33 -61 -97q0 -41 24 -64q44 -43 165 -54q107 -9 176 -55q35 -23 52.5 -56t17.5 -89z" />
    <glyph glyph-name="T" unicode="T" horiz-adv-x="566" 
d="M485 690q36 0 36 -33q0 -18 -11 -26.5t-25 -8.5h-168v-600q0 -15 -9.5 -26t-25.5 -11q-15 0 -24 11t-9 26v600h-170q-14 0 -24 10t-10 25t9 24t24 9h407z" />
    <glyph glyph-name="U" unicode="U" horiz-adv-x="642" 
d="M531 695q18 0 27 -10.5t9 -23.5v-434q0 -97 -72.5 -169.5t-172.5 -72.5t-175 71.5t-75 170.5v434q0 15 9.5 24.5t24.5 9.5q34 0 34 -34v-434q0 -69 55.5 -121.5t126.5 -52.5q70 0 123.5 53t53.5 121v434q0 34 32 34z" />
    <glyph glyph-name="V" unicode="V" horiz-adv-x="601" 
d="M543 695q13 0 22.5 -8.5t9.5 -23.5q0 -9 -3 -18l-227 -630q-10 -30 -36 -30t-36 30l-225 628q-3 11 -3 20q0 32 34 32q23 0 30 -21l200 -558l199 555q9 24 35 24z" />
    <glyph glyph-name="W" unicode="W" horiz-adv-x="998" 
d="M288 -15q-23 2 -31 23l-210 642q-2 8 -2 11q0 15 10 24.5t24 9.5q24 0 32 -24l178 -546l178 547q8 23 33 23q24 0 32 -23l180 -547l177 547q8 23 32 23q3 0 11 -2q23 -7 23 -31q0 -8 -2 -12l-209 -642q-8 -23 -32 -23t-32 23l-181 549l-178 -549q-8 -23 -33 -23z" />
    <glyph glyph-name="X" unicode="X" horiz-adv-x="581" 
d="M337 341l209 -299q8 -11 8 -24q0 -16 -15 -26q-10 -7 -20 -7q-17 0 -30 18l-194 279l-194 -280q-12 -17 -29 -17q-10 0 -20 7q-15 10 -15 26q0 10 9 24l207 300l-209 299q-7 10 -7 19q0 12 11 23.5t24 11.5q17 0 30 -16l193 -278l193 277q12 17 29 17q13 0 25 -9.5
t12 -22.5q0 -10 -11 -25z" />
    <glyph glyph-name="Y" unicode="Y" horiz-adv-x="580" 
d="M515 695q13 0 24 -9t11 -22q0 -12 -9 -24l-215 -303v-317q0 -15 -9 -25t-25 -10t-25 9.5t-9 25.5v317l-215 303q-8 11 -8 22q0 12 10.5 22.5t25.5 10.5q16 0 30 -19l191 -271l193 273q12 17 30 17z" />
    <glyph glyph-name="Z" unicode="Z" horiz-adv-x="635" 
d="M547 57q37 0 37 -33q0 -15 -10.5 -24.5t-26.5 -9.5h-465q-26 0 -33 21q-3 7 -3 14q0 15 15 34l422 564h-402q-36 0 -36 33q0 15 9.5 24.5t26.5 9.5h465q24 0 34 -20q3 -5 3 -12q0 -18 -14 -35l-426 -566h404z" />
    <glyph glyph-name="bracketleft" unicode="[" horiz-adv-x="365" 
d="M134 850h118q14 0 24 -10.5t10 -24.5t-10 -23.5t-24 -9.5h-102v-804h104q14 0 23 -9.5t9 -23.5t-9 -24.5t-23 -10.5h-120q-25 0 -38.5 15.5t-13.5 34.5v846q0 18 13 31t39 13z" />
    <glyph glyph-name="backslash" unicode="\" horiz-adv-x="421" 
d="M338 45q13 -41 -13 -52q-37 -14 -53 33l-184 614q-6 12 -4.5 27t19.5 24q34 13 45 -18z" />
    <glyph glyph-name="bracketright" unicode="]" horiz-adv-x="364" 
d="M116 850h118q26 0 39 -13t13 -31v-846q0 -19 -13.5 -34.5t-38.5 -15.5h-120q-14 0 -23 10.5t-9 24.5t9 23.5t23 9.5h104v804h-102q-14 0 -24 9.5t-10 23.5t10 24.5t24 10.5z" />
    <glyph glyph-name="asciicircum" unicode="^" horiz-adv-x="483" 
d="M276 713l137 -203q15 -22 -9 -38q-8 -8 -22 -6.5t-23 14.5l-109 162l-109 -162q-18 -25 -43 -10q-10 6 -13.5 16.5t3.5 23.5l136 203q8 14 24 14q19 2 28 -14z" />
    <glyph glyph-name="underscore" unicode="_" horiz-adv-x="544" 
d="M4 -10h481q13 0 23 -10.5t10 -24.5q0 -15 -9.5 -24t-23.5 -9h-481q-15 0 -24.5 9t-9.5 24q0 14 10 24.5t24 10.5z" />
    <glyph glyph-name="grave" unicode="`" horiz-adv-x="308" 
d="M104 765q14 8 29 4t22 -19l67 -152q5 -10 2 -21t-12 -15q-21 -11 -34 11l-90 141q-7 14 -2.5 28.5t18.5 22.5z" />
    <glyph glyph-name="a" unicode="a" horiz-adv-x="525" 
d="M266 475q80 0 133.5 -38t53.5 -115v-297q0 -15 -10 -25t-24 -10h-223q-65 0 -108 46.5t-43 118.5q0 66 44.5 111t107.5 45h188v14q0 35 -34 58.5t-78 23.5q-58 0 -103 -24q-11 -6 -20 -6q-14 0 -25 13q-8 11 -8 20q0 19 20 31q53 34 129 34zM385 58v185h-186
q-35 0 -60.5 -23.5t-25.5 -64.5q1 -46 24.5 -71.5t61.5 -25.5h186z" />
    <glyph glyph-name="b" unicode="b" horiz-adv-x="526" 
d="M386 34q-59 -44 -130 -44h-149q-14 0 -24.5 8t-10.5 22v639q0 11 7.5 23.5t26.5 12.5t26.5 -12.5t7.5 -23.5v-193h116q71 0 130 -44q88 -67 88 -195q0 -126 -88 -193zM256 398h-116v-340h116q9 0 21.5 1.5t36.5 11t42.5 26t34 51t16.5 80.5q-1 46 -16.5 80.5t-34 51
t-42.5 26t-36.5 11t-21.5 1.5z" />
    <glyph glyph-name="c" unicode="c" horiz-adv-x="481" 
d="M422 108q13 0 23.5 -11t10.5 -28q0 -12 -10 -21q-66 -63 -164 -63t-169.5 69t-71.5 172q0 104 71 174t170 70q82 0 147 -49q13 -10 13 -28q0 -14 -9.5 -24t-24.5 -10q-12 0 -20 7q-46 36 -106 36q-69 0 -121 -51.5t-52 -124.5q0 -71 52 -122t121 -51q66 0 116 45
q12 10 24 10z" />
    <glyph glyph-name="d" unicode="d" horiz-adv-x="525" 
d="M138 34q-88 67 -88 193q0 129 88 196q58 43 130 43h116v193q0 11 7.5 23.5t26.5 12.5t26.5 -12.5t7.5 -23.5v-639q0 -14 -10.5 -22t-24.5 -8h-149q-71 0 -130 44zM384 398h-116q-9 0 -21.5 -1.5t-36.5 -11t-42.5 -26t-34 -51t-16.5 -80.5q1 -46 16.5 -80.5t34 -51
t42.5 -26t36.5 -11t21.5 -1.5h116v340z" />
    <glyph glyph-name="e" unicode="e" horiz-adv-x="565" 
d="M287 470q100 0 170.5 -69.5t72.5 -167.5q0 -39 -46 -39h-366q11 -58 59 -99.5t110 -41.5q87 0 139 43q13 11 25 11q13 0 23.5 -9t10.5 -23q0 -17 -12 -29q-64 -61 -186 -61q-98 0 -169.5 69.5t-71.5 171.5q0 103 70 173.5t171 70.5zM118 262h340q-12 59 -60 99.5
t-111 40.5q-59 0 -108.5 -40.5t-60.5 -99.5z" />
    <glyph glyph-name="f" unicode="f" horiz-adv-x="390" 
d="M316 466q34 0 34 -34q0 -14 -9.5 -23t-24.5 -11h-137v-376q0 -14 -8.5 -25.5t-26.5 -11.5q-31 0 -33 37v376h-43q-36 0 -36 34t36 34h43v28q0 82 54 139q59 62 151 62q34 0 34 -33q0 -14 -9.5 -24.5t-24.5 -10.5q-55 0 -96 -38q-19 -18 -30 -47.5t-11 -56.5v-19h137z" />
    <glyph glyph-name="g" unicode="g" horiz-adv-x="530" 
d="M458 429v-485q0 -72 -41 -119q-54 -62 -144 -65q-10 0 -21.5 9t-11.5 25q0 18 11 26t22 8q48 0 82.5 34t34.5 83v45h-116q-112 0 -174 87q-44 59 -44 153q0 126 87 192q59 44 133 44h146q16 0 26 -10t10 -27zM276 398q-60 0 -102 -39q-51 -48 -51 -131q0 -67 33 -111
q44 -59 119 -59h115v340h-114z" />
    <glyph glyph-name="h" unicode="h" horiz-adv-x="540" 
d="M431 -15q-34 0 -34 27v264q0 37 -17 66q-31 59 -104 59q-80 0 -114 -51q-22 -33 -22 -57v-281q0 -27 -32 -27q-36 0 -36 27v653q0 13 10 21.5t26 8.5q13 0 22.5 -8.5t9.5 -21.5v-240q51 44 136 44q116 0 165 -97q24 -42 24 -90v-270q0 -27 -34 -27z" />
    <glyph glyph-name="i" unicode="i" horiz-adv-x="220" 
d="M112 569q-16 0 -27 11t-11 27t11 27t27 11q15 0 26.5 -11t11.5 -27t-11.5 -27t-26.5 -11zM146 440v-419q0 -11 -7.5 -23.5t-26.5 -12.5t-27 12.5t-8 23.5v419q0 10 8 20t27 10q18 0 26 -10t8 -20z" />
    <glyph glyph-name="j" unicode="j" horiz-adv-x="317" 
d="M201 470q33 0 33 -34v-464q0 -86 -41 -149t-115 -63q-16 0 -26 9t-10 26q0 33 36 33q40 0 64 45t24 99v464q0 34 35 34zM201 569q-16 0 -27 11t-11 27t11 27t27 11q15 0 26.5 -11t11.5 -27t-11.5 -27t-26.5 -11z" />
    <glyph glyph-name="k" unicode="k" horiz-adv-x="475" 
d="M252 232l180 -188q10 -14 10 -22q0 -13 -10 -25t-23 -12t-24 12l-178 184l-40 -45v-115q0 -36 -34 -36t-34 36v641q0 33 34 33t34 -34v-423l196 221q11 11 24 11t24.5 -11t11.5 -25q0 -10 -10 -22z" />
    <glyph glyph-name="l" unicode="l" horiz-adv-x="210" 
d="M141 665v-644q0 -11 -8 -23.5t-27 -12.5q-14 0 -22 8t-10 15t-2 13v644q0 10 7.5 20t26.5 10q18 0 26.5 -10.5t8.5 -19.5z" />
    <glyph glyph-name="m" unicode="m" horiz-adv-x="849" 
d="M746 -15q-35 0 -35 29v270q0 56 -29 86q-32 32 -93 32q-59 0 -91 -33q-15 -16 -24 -37t-10 -34l-1 -14v-270q0 -13 -10 -21t-25 -8t-24 8t-9 21v270q0 37 -41 85q-30 33 -80 33q-56 0 -89 -33q-39 -39 -39 -85v-265q0 -14 -10 -24t-25 -10q-14 0 -23.5 10t-9.5 24v419
q0 14 9.5 23t23.5 9q15 0 25 -9t10 -23v-12q51 44 128 44q80 0 129 -54q12 -14 22 -29q19 23 25 29q53 54 139 54q92 0 143 -54q47 -49 47 -132v-270q0 -13 -9 -21t-24 -8z" />
    <glyph glyph-name="n" unicode="n" horiz-adv-x="511" 
d="M431 -15q-34 0 -34 27v265q0 37 -17 66q-31 59 -104 59q-80 0 -114 -51q-22 -33 -22 -57v-282q0 -27 -32 -27q-36 0 -36 27v430q0 13 10 21.5t26 8.5q13 0 22.5 -8.5t9.5 -21.5v-16q51 44 136 44q116 0 165 -97q24 -42 24 -90v-271q0 -27 -34 -27z" />
    <glyph glyph-name="o" unicode="o" horiz-adv-x="554" 
d="M285 470q102 0 172.5 -71t70.5 -173q0 -101 -70.5 -171t-172.5 -70q-101 0 -171 70.5t-70 170.5q0 102 70 173t171 71zM285 53q72 0 123.5 51.5t51.5 121.5q0 72 -51.5 124t-123.5 52q-71 0 -122 -52t-51 -124q0 -70 51.5 -121.5t121.5 -51.5z" />
    <glyph glyph-name="p" unicode="p" horiz-adv-x="552" 
d="M412 422q88 -67 88 -193q0 -128 -88 -195q-59 -44 -130 -44h-116v-194q0 -11 -7.5 -23.5t-26.5 -12.5t-26.5 12.5t-7.5 23.5v640q0 14 10.5 22t24.5 8h149q71 0 130 -44zM282 58q9 0 21.5 1.5t36.5 11t42.5 26t34 51t16.5 80.5q-1 46 -16.5 80.5t-34 51t-42.5 26
t-36.5 11t-21.5 1.5h-116v-340h116z" />
    <glyph glyph-name="q" unicode="q" horiz-adv-x="552" 
d="M135 422q59 44 130 44h149q14 0 24.5 -8t10.5 -22v-640q0 -11 -7.5 -23.5t-26.5 -12.5t-26.5 12.5t-7.5 23.5v194h-116q-71 0 -130 44q-88 67 -88 195q0 126 88 193zM265 58h116v340h-116q-9 0 -21.5 -1.5t-36.5 -11t-42.5 -26t-34 -51t-16.5 -80.5q1 -46 16.5 -80.5
t34 -51t42.5 -26t36.5 -11t21.5 -1.5z" />
    <glyph glyph-name="r" unicode="r" horiz-adv-x="451" 
d="M379 462q25 -8 25 -29q0 -14 -7.5 -26.5t-21.5 -12.5q-56 8 -62 8q-73 0 -107 -33q-39 -39 -39 -86v-266q0 -32 -34 -32q-15 0 -24.5 8.5t-9.5 23.5v423q0 30 34 30q33 0 34 -30v-13q17 13 40 25q36 18 107 18q38 0 65 -8z" />
    <glyph glyph-name="s" unicode="s" horiz-adv-x="475" 
d="M260 272l15 -4q30 -8 51.5 -15.5t51.5 -23.5t46.5 -41t16.5 -57q0 -51 -36 -91q-50 -55 -140 -55q-114 0 -167 43q-40 32 -58 90q-1 3 -1 9q0 11 9.5 19t22.5 8t21 -4t10.5 -8.5t6.5 -13.5l2 -5q12 -29 33 -44q36 -26 121 -26q54 0 83 26q24 21 24 50q0 42 -102 69
l-47 13q-156 42 -156 126q0 63 48.5 98t122.5 35q149 0 187 -97q3 -7 3 -13q0 -25 -29 -26q-17 0 -24.5 3.5t-15.5 17.5q-25 46 -121 46q-102 0 -102 -61q0 -38 124 -68z" />
    <glyph glyph-name="t" unicode="t" horiz-adv-x="397" 
d="M319 53q36 0 36 -34t-36 -34q-86 0 -144.5 56.5t-58.5 146.5v210h-39q-40 0 -41 34q0 34 41 34h39v192q0 15 9 26t24 11q33 0 35 -37v-192h120q38 0 38 -34q0 -16 -10.5 -25t-27.5 -9h-120v-210q0 -55 40 -95t95 -40z" />
    <glyph glyph-name="u" unicode="u" horiz-adv-x="531" 
d="M424 470q35 0 35 -34v-277q0 -77 -53 -125.5t-141 -48.5q-83 0 -138 49t-55 125v277q0 34 35 34q33 0 33 -34v-277q0 -43 35 -74.5t90 -31.5q57 0 91.5 30t34.5 76v277q0 34 33 34z" />
    <glyph glyph-name="v" unicode="v" horiz-adv-x="421" 
d="M362 470q14 0 27.5 -8.5t13.5 -21.5q0 -10 -3 -17l-156 -409q0 -1 -1.5 -5t-2.5 -5.5t-2.5 -5.5t-4 -5.5t-5.5 -3.5t-7.5 -3t-9.5 -1q-22 0 -33 29l-157 410q-2 8 -2 12q0 14 10 24t26 10q22 0 32 -24l124 -325l124 325q9 24 27 24z" />
    <glyph glyph-name="w" unicode="w" horiz-adv-x="733" 
d="M677 470q16 0 27 -8.5t11 -22.5q0 -10 -3 -16l-154 -404q-4 -11 -7 -17t-11 -11.5t-19 -5.5q-10 0 -16.5 4.5t-9.5 10t-7 16.5q0 2 -122 318l-122 -322q-5 -14 -12 -20.5t-22 -6.5q-25 0 -32 29l-157 410q-2 8 -2 12q0 14 10 24t26 10q22 0 31 -23l125 -325l122 319
q11 29 34 29q16 0 22 -5.5t12 -23.5l122 -320l124 325q9 24 30 24z" />
    <glyph glyph-name="x" unicode="x" horiz-adv-x="432" 
d="M258 230l141 -181q15 -20 15 -30q0 -11 -12.5 -22.5t-24.5 -11.5q-16 0 -27 16l-135 175l-133 -174q-12 -17 -31 -17q-13 0 -23 9.5t-10 23.5q0 11 10 24l145 189l-142 184q-9 13 -9 24q0 13 9.5 22t23.5 9q18 0 30 -15l130 -169l130 168q12 16 28 16q13 0 24 -9t11 -23
t-9 -24z" />
    <glyph glyph-name="y" unicode="y" horiz-adv-x="475" 
d="M395 470q16 0 26 -9t10 -26v-491q0 -85 -56 -134.5t-138 -49.5q-15 0 -24.5 9t-9.5 26q0 33 34 33q53 0 89.5 32.5t36.5 85.5v75q-18 -16 -56 -26t-70 -10q-80 0 -136.5 47.5t-56.5 126.5v278q0 15 9 24t25 9t25 -9.5t9 -23.5v-278q0 -41 35 -73.5t90 -32.5q54 0 90 28.5
t36 77.5v276q0 14 9 24.5t23 10.5z" />
    <glyph glyph-name="z" unicode="z" horiz-adv-x="464" 
d="M396 57q13 0 23.5 -8.5t10.5 -25.5q0 -14 -9 -23.5t-24 -9.5h-318q-15 0 -24.5 10.5t-9.5 23.5q0 11 8 21l275 354h-248q-13 0 -24 9t-11 24q0 16 10.5 25t23.5 9h318q14 0 23 -11t9 -26q0 -12 -8 -23l-271 -349h246z" />
    <glyph glyph-name="braceleft" unicode="{" horiz-adv-x="447" 
d="M328 -29q15 0 25.5 -10.5t10.5 -25.5q0 -14 -10.5 -24t-25.5 -10q-64 0 -101.5 38t-37.5 104v224q0 73 -71 73q-15 0 -25 10.5t-10 23.5q0 15 10 24.5t25 9.5q71 0 71 73v217q0 62 37 102t102 40q14 0 25 -9t11 -25q0 -15 -10 -25.5t-26 -10.5q-69 0 -69 -72v-217
q0 -67 -35 -107q35 -41 35 -107v-224q0 -72 69 -72z" />
    <glyph glyph-name="bar" unicode="|" horiz-adv-x="280" 
d="M102 -60v879q0 12 10 21.5t25 9.5q14 0 23.5 -9.5t9.5 -21.5v-879q0 -12 -10 -21t-24 -9t-24 9t-10 21z" />
    <glyph glyph-name="braceright" unicode="}" horiz-adv-x="447" 
d="M119 -29q69 0 69 72v224q0 66 35 107q-35 40 -35 107v217q0 72 -69 72q-16 0 -26 10.5t-10 25.5q0 16 11 25t25 9q65 0 102 -40t37 -102v-217q0 -73 71 -73q15 0 25 -9.5t10 -24.5q0 -13 -10 -23.5t-25 -10.5q-71 0 -71 -73v-224q0 -66 -37.5 -104t-101.5 -38
q-15 0 -25.5 10t-10.5 24q0 15 10.5 25.5t25.5 10.5z" />
    <glyph glyph-name="asciitilde" unicode="~" horiz-adv-x="571" 
d="M453 350q20 0 30.5 -18t-2.5 -35q-44 -55 -120 -55q-32 0 -76.5 23t-71.5 23q-50 0 -71 -26q-12 -14 -29.5 -11.5t-26.5 20.5q-10 19 5 34q43 48 125 48q36 0 79.5 -23t65.5 -23q38 0 69 34q9 9 23 9z" />
    <glyph glyph-name="nbspace" unicode="&#xa0;" horiz-adv-x="600" 
 />
    <glyph glyph-name="exclamdown" unicode="&#xa1;" horiz-adv-x="247" 
d="M79 414q0 20 13 33t32 13q20 0 33 -13t13 -33q0 -19 -13 -32t-33 -13t-32.5 12.5t-12.5 32.5zM73 -151q0 14 1 32t3 39t3 30l19 286q2 30 25 30t25 -30l20 -286q6 -87 6 -101q0 -88 -51 -88t-51 88z" />
    <glyph glyph-name="cent" unicode="&#xa2;" horiz-adv-x="513" 
d="M448 87q16 -20 -2 -38q-62 -56 -148 -61v-46q0 -27 -24 -27t-24 27v49q-83 15 -140 80.5t-57 151.5q0 84 56.5 151t140.5 81v44q0 26 23 26q25 0 25 -26v-41q73 -3 133 -49q8 -6 9.5 -17.5t-4.5 -20.5q-16 -20 -38 -5q-50 38 -111 38q-73 0 -126.5 -53t-53.5 -128
q0 -72 52.5 -126.5t127.5 -54.5q69 0 122 47q7 8 19.5 7.5t19.5 -9.5z" />
    <glyph glyph-name="sterling" unicode="&#xa3;" horiz-adv-x="485" 
d="M117 -10q-12 0 -20 8t-8 19q0 5 3 11q54 124 51 249h-63q-11 0 -19 8t-8 19t8 19t19 8h59q-11 61 -37 125l1 -1q-14 34 -14 64q0 71 51 120q50 51 120 51q72 0 123 -51q15 -15 21 -26q6 -7 6 -17q0 -12 -7.5 -19t-18.5 -7q-13 0 -20 7q-7 11 -20 24q-34 34 -84 34
q-48 0 -82 -35q-34 -33 -34 -81q0 -22 9 -43q28 -69 40 -145h140q12 0 20 -8t8 -19t-8 -19t-20 -8h-136q2 -113 -40 -233h196l30 60q6 11 22 11q12 0 20 -7t8 -19q0 -7 -3 -13l-35 -70q0 -1 -5 -8q-10 -8 -20 -8h-253z" />
    <glyph glyph-name="currency" unicode="&#xa4;" horiz-adv-x="755" 
d="M91 149l82 82q-55 70 -55 157q0 89 55 157l-82 83q-9 10 -9 23t10 23t23 10t22 -9l82 -84q69 56 158 56q88 0 156 -55l83 82q9 9 22.5 9t23.5 -10t9.5 -23t-9.5 -22l-82 -82q56 -69 56 -158t-56 -158l82 -80q10 -10 9.5 -23t-9.5 -22q-23 -23 -46 -2l-82 81
q-68 -55 -157 -55t-158 56l-82 -82q-9 -10 -22 -9.5t-23 9.5q-10 10 -10.5 23.5t9.5 22.5zM169 388q0 -86 61 -147t147 -61t146.5 61t60.5 147t-61 146.5t-146 60.5q-86 0 -147 -60.5t-61 -146.5z" />
    <glyph glyph-name="yen" unicode="&#xa5;" horiz-adv-x="623" 
d="M556 685q23 -16 5 -40l-183 -248h82q11 0 19.5 -8t8.5 -20q0 -11 -8.5 -19t-19.5 -8h-122v-77h122q11 0 19.5 -8t8.5 -20q0 -11 -8.5 -19t-19.5 -8h-122v-189q0 -30 -27 -30t-27 30v189h-121q-11 0 -19 8t-8 19q0 12 8 20t19 8h121v77h-121q-11 0 -19 8t-8 19q0 12 8 20
t19 8h82l-183 248q-18 24 5 40q23 15 40 -10l204 -278h1l204 279q17 24 40 9z" />
    <glyph glyph-name="brokenbar" unicode="&#xa6;" horiz-adv-x="217" 
d="M68 120q0 15 9.5 25.5t24.5 10.5t24.5 -10.5t9.5 -25.5v-324q0 -15 -9.5 -25.5t-24.5 -10.5t-24.5 10.5t-9.5 25.5v324zM68 654q0 16 9 26t24 10t25 -10.5t10 -25.5v-316q0 -15 -10 -25.5t-25 -10.5t-24 10t-9 26v316z" />
    <glyph glyph-name="section" unicode="&#xa7;" horiz-adv-x="568" 
d="M281 63q-70 -2 -121.5 49.5t-51.5 121.5q0 91 79 143q-79 52 -79 144q0 70 51 119.5t122 49.5q72 0 122.5 -49t50.5 -120q0 -12 -7.5 -20t-19.5 -8q-11 0 -19 8t-8 20q0 47 -36 81t-83 34q-48 0 -83 -33.5t-35 -81.5q0 -49 34.5 -83t83.5 -34q71 0 122 -49.5t51 -120.5
q0 -93 -78 -144q78 -50 78 -143q0 -72 -50.5 -121t-122.5 -49t-122.5 49.5t-50.5 120.5q0 11 8 19t19 8q12 0 20 -8t8 -19q0 -48 35 -82t83 -34t83.5 34t35.5 82t-36 82t-83 34zM281 350q-47 2 -82.5 -33.5t-35.5 -82.5q0 -49 34.5 -83t83.5 -34q48 0 83.5 34.5t35.5 82.5
q0 47 -36 81.5t-83 34.5z" />
    <glyph glyph-name="dieresis" unicode="&#xa8;" horiz-adv-x="432" 
d="M140 759q-15 0 -26.5 11t-11.5 27t11.5 27t26.5 11q16 0 27 -10.5t11 -27.5q0 -16 -11 -27t-27 -11zM302 759q-16 0 -27 11t-11 27t11 27t27 11q15 0 26.5 -11t11.5 -27t-11.5 -27t-26.5 -11z" />
    <glyph glyph-name="copyright" unicode="&#xa9;" horiz-adv-x="985" 
d="M486 690q141 0 246.5 -103.5t104.5 -244.5q-2 -141 -104.5 -246.5t-246.5 -105.5q-137 0 -243.5 104.5t-106.5 247.5q0 138 102.5 243t247.5 105zM486 58q113 0 197.5 84.5t86.5 200.5q0 112 -85 195.5t-199 83.5q-111 0 -196.5 -84.5t-85.5 -195.5q0 -113 84.5 -198.5
t197.5 -85.5zM603 238q9 9 20.5 7.5t20.5 -10.5q15 -19 -3 -39q-52 -53 -132 -53q-79 0 -139 56.5t-60 140.5q0 83 58.5 140.5t140.5 57.5q67 0 121 -42q9 -8 10.5 -19.5t-5.5 -21.5q-7 -8 -19 -10t-22 4q-47 29 -85 29q-55 0 -95 -41t-40 -97t40 -96.5t95 -40.5q62 0 94 35
z" />
    <glyph glyph-name="ordfeminine" unicode="&#xaa;" horiz-adv-x="312" 
d="M67 284h179q23 0 23 -18q0 -19 -23 -19h-179q-24 0 -24 19q0 18 24 18zM228 610q28 -24 28 -67v-174q-2 -19 -19 -19h-124q-38 3 -61 29q-24 30 -24 74q0 36 25 64q24 29 60 29h105q-2 26 -15 37q-26 24 -82 15q-22 -4 -38 -15q-15 -8 -25 5q-5 9 -4 14q2 8 11 14
q29 14 48 18q77 9 115 -24zM113 509q-20 0 -34 -17.5t-14 -38.5q0 -25 14 -46t34 -21h105v123h-105z" />
    <glyph glyph-name="guillemotleft" unicode="&#xab;" horiz-adv-x="524" 
d="M341 226l98 -187q9 -17 -3 -35q-9 -14 -26 -14q-18 0 -31 20l-103 197q-10 21 -1 38l103 194q13 20 31 20q17 0 28 -15.5t1 -32.5zM153 226l98 -187q9 -17 -3 -35q-9 -14 -26 -14q-18 0 -31 20l-103 197q-10 21 -1 38l103 195q13 20 31 20q17 0 28 -15.5t1 -32.5z" />
    <glyph glyph-name="logicalnot" unicode="&#xac;" horiz-adv-x="679" 
d="M136 58h404q15 0 26.5 -11t11.5 -26v-121q0 -15 -10 -28t-24 -13t-24 13t-10 28v90h-374q-14 0 -24.5 10.5t-10.5 25.5t10 23.5t25 8.5z" />
    <glyph glyph-name="uni00AD" unicode="&#xad;" horiz-adv-x="533" 
d="M136 330h225q13 0 23.5 -11t10.5 -25t-10 -23t-24 -9h-225q-15 0 -24.5 9t-9.5 24q0 14 10 24.5t24 10.5z" />
    <glyph glyph-name="registered" unicode="&#xae;" horiz-adv-x="937" 
d="M550 283l56 -82q5 -10 3 -23t-13 -18q-9 -7 -22.5 -3t-18.5 15l-63 99h-78v-84q0 -13 -7.5 -22.5t-20.5 -9.5q-15 0 -22.5 9.5t-7.5 22.5v314q0 13 9 22t22 9h120q52 -2 87 -39.5t35 -90.5q0 -37 -21.5 -70t-57.5 -49zM414 329h93q27 5 46 27t19 46q0 27 -20.5 50
t-52.5 23h-85v-146zM471 690q146 0 248.5 -102.5t102.5 -247.5t-102.5 -247.5t-248.5 -102.5q-145 0 -247.5 102t-102.5 248t102.5 248t247.5 102zM471 58q117 0 200 82t83 199t-83.5 200t-200.5 83t-199 -83t-82 -200t82.5 -199t199.5 -82z" />
    <glyph glyph-name="macron" unicode="&#xaf;" horiz-adv-x="442" 
d="M122 690h203q13 0 23.5 -11t10.5 -25t-10 -22.5t-24 -8.5h-203q-15 0 -24.5 8.5t-9.5 23.5q0 14 10 24.5t24 10.5z" />
    <glyph glyph-name="degree" unicode="&#xb0;" horiz-adv-x="370" 
d="M286 593q0 43 -29.5 72t-71.5 29q-43 0 -71.5 -29t-28.5 -72q0 -42 28.5 -71t71.5 -29q42 0 71.5 29t29.5 71zM320 593q0 -56 -39.5 -95.5t-95.5 -39.5t-95.5 39.5t-39.5 95.5t39.5 95.5t95.5 39.5t95.5 -39.5t39.5 -95.5z" />
    <glyph glyph-name="plusminus" unicode="&#xb1;" horiz-adv-x="560" 
d="M103 107h339q13 0 23.5 -11t10.5 -25t-10 -23t-24 -9h-339q-15 0 -24.5 9t-9.5 24q0 14 10 24.5t24 10.5zM443 471q13 0 23.5 -11t10.5 -25t-10 -23t-24 -9h-137v-137q0 -13 -11 -23.5t-25 -10.5t-23 10t-9 24v137h-134q-15 0 -24.5 9t-9.5 24q0 14 10 24.5t24 10.5h134
v134q0 15 9 24.5t24 9.5q14 0 24.5 -10t10.5 -24v-134h137z" />
    <glyph glyph-name="twosuperior" unicode="&#xb2;" horiz-adv-x="311" 
d="M236 367q19 0 19 -16q0 -8 -6 -13t-13 -5h-190q-12 0 -17 13q-5 10 3 20h1l158 146q29 31 29 59q0 42 -23.5 64.5t-54.5 22.5q-33 0 -56.5 -22.5t-23.5 -64.5q0 -18 -17 -18t-17 18q0 51 29.5 85t84.5 35q53 -1 82.5 -34t29.5 -86q0 -48 -41 -84l-132 -120h155z" />
    <glyph glyph-name="threesuperior" unicode="&#xb3;" horiz-adv-x="417" 
d="M316 429q0 -45 -32.5 -73t-87.5 -28q-36 0 -63 9q-34 9 -34 27q0 8 6 14t14 6q5 0 31 -12q21 -8 44 -8q37 0 58.5 19t21.5 49q0 44 -44 59q-9 3 -26 4t-24 3q-12 4 -12 17t12 17q3 0 22 2t28 6q32 14 32 52q0 25 -17.5 42.5t-47.5 17.5q-21 0 -43 -10t-27 -10
q-9 0 -15 5.5t-6 13.5q0 12 20 23q39 17 74 17q47 0 75 -27t28 -67q0 -57 -53 -79q66 -23 66 -89z" />
    <glyph glyph-name="acute" unicode="&#xb4;" horiz-adv-x="417" 
d="M138 592q0 8 6 19l76 138q10 21 28 21q13 0 21.5 -8.5t8.5 -19.5q0 -9 -8 -22l-81 -134q-11 -18 -26 -18q-10 0 -17.5 7t-7.5 17z" />
    <glyph glyph-name="mu" unicode="&#xb5;" horiz-adv-x="546" 
d="M65 -139v564q0 15 10.5 25t26.5 10q15 0 25.5 -10t10.5 -25v-228q0 -54 19 -88q30 -54 116 -54t116 54q18 32 18 88v228q0 15 11 25t26 10t26 -10t11 -25v-234q0 -78 -34 -128q-48 -73 -174 -73q-82 0 -135 34v-163q0 -14 -11 -24.5t-25 -10.5q-16 0 -26.5 10.5
t-10.5 24.5z" />
    <glyph glyph-name="mu" unicode="&#x3bc;" horiz-adv-x="546" 
d="M65 -139v564q0 15 10.5 25t26.5 10q15 0 25.5 -10t10.5 -25v-228q0 -54 19 -88q30 -54 116 -54t116 54q18 32 18 88v228q0 15 11 25t26 10t26 -10t11 -25v-234q0 -78 -34 -128q-48 -73 -174 -73q-82 0 -135 34v-163q0 -14 -11 -24.5t-25 -10.5q-16 0 -26.5 10.5
t-10.5 24.5z" />
    <glyph glyph-name="paragraph" unicode="&#xb6;" horiz-adv-x="620" 
d="M485 655v-822q0 -13 -10 -22.5t-24 -9.5t-23.5 9t-9.5 23v822h-117v-822q0 -13 -9.5 -22.5t-23.5 -9.5t-24 9.5t-10 22.5l1 479q-92 5 -144.5 59.5t-52.5 143.5q0 97 60 149.5t170 52.5h306q12 0 21 -9.5t9 -21.5q0 -13 -9 -22t-21 -9h-89z" />
    <glyph glyph-name="periodcentered" unicode="&#xb7;" horiz-adv-x="192" 
d="M145 345q0 -20 -14 -34t-34 -14t-34 14t-14 34t14 34t34 14t34 -14t14 -34z" />
    <glyph glyph-name="cedilla" unicode="&#xb8;" horiz-adv-x="400" 
d="M297 -110q0 -45 -37 -66.5t-88 -21.5q-23 0 -36 4q-17 6 -17 20q0 8 6 14t14 6q4 0 15.5 -1.5t21.5 -1.5q29 0 50 11.5t21 36.5q0 21 -18 31.5t-44 10.5q-24 0 -21 24l5 53h38l1 -45q39 -3 64 -23t25 -52z" />
    <glyph glyph-name="onesuperior" unicode="&#xb9;" horiz-adv-x="417" 
d="M217 691q22 0 22 -23v-295h60q19 0 19 -20t-19 -20h-173q-8 0 -14 6t-6 14t6 14t14 6h67v268l-55 -21q-9 -4 -15 -4q-19 0 -19 19q0 15 17 21l82 32q12 3 14 3z" />
    <glyph glyph-name="ordmasculine" unicode="&#xba;" horiz-adv-x="385" 
d="M95 550q0 -40 24 -67q28 -33 73 -33q44 0 74 33q24 27 24 67t-24 67q-30 34 -74 34t-73 -34q-24 -27 -24 -67zM49 550q0 55 35 95q41 46 108 46q68 0 109 -46q35 -40 35 -95t-35 -95q-43 -46 -109 -46q-65 0 -108 46q-35 40 -35 95zM108 328h179q23 0 23 -18
q0 -19 -23 -19h-179q-24 0 -24 19q0 18 24 18z" />
    <glyph glyph-name="guillemotright" unicode="&#xbb;" horiz-adv-x="525" 
d="M87 39l98 187l-97 185q-10 17 1 32.5t28 15.5q18 0 31 -20l103 -194q9 -17 -1 -38l-103 -197q-13 -20 -31 -20q-17 0 -26 14q-12 18 -3 35zM275 39l98 187l-97 186q-10 17 1 32.5t28 15.5q18 0 31 -20l103 -195q9 -17 -1 -38l-103 -197q-13 -20 -31 -20q-17 0 -26 14
q-12 18 -3 35z" />
    <glyph glyph-name="onequarter" unicode="&#xbc;" horiz-adv-x="853" 
d="M583 689q6 -2 9 -5.5t4.5 -6.5t1 -7t-1.5 -6.5t-3 -6.5t-2 -5l-317 -631q-10 -20 -18 -25t-21 1q-22 12 -5 46l317 629q8 16 12.5 19t23.5 -2zM187 301q-23 0 -23 29v317l-33 -35q-3 -1 -7 -4t-6 -4t-5.5 -2t-6.5 0.5t-7 4.5q-16 18 7 33q0 1 25 23.5t27 23.5
q23 9 35.5 -1.5t12.5 -24.5v-331q0 -29 -19 -29zM637 301l-142 -217h142v217zM673 84h32q21 0 21 -17q0 -19 -21 -19h-32v-38q0 -21 -18 -21t-18 21v38h-164q-14 0 -19 12.5t3 23.5l174 279q1 2 4 6t4 5.5t3.5 4t5.5 3t6 0.5q19 0 19 -25v-273z" />
    <glyph glyph-name="onehalf" unicode="&#xbd;" horiz-adv-x="825" 
d="M583 689q6 -2 9 -5.5t4.5 -6.5t1 -7t-1.5 -6.5t-3 -6.5t-2 -5l-317 -631q-10 -20 -18 -25t-21 1q-22 12 -5 46l317 629q8 16 12.5 19t23.5 -2zM703 27q20 0 20 -19q0 -8 -6 -13.5t-14 -5.5h-208q-8 0 -19 13q-5 13 5 24l172 159q32 30 32 63q0 45 -25.5 70t-59.5 25
q-36 0 -61.5 -24.5t-25.5 -70.5q0 -19 -20 -19q-7 0 -12.5 5.5t-5.5 13.5q0 56 32.5 93.5t92.5 38.5q58 -1 90 -37.5t32 -94.5q0 -53 -46 -91l-143 -130h170zM238 297q-19 0 -19 22v328l-39 -28q-18 -8 -28 9q-8 16 12 29q0 1 26 16t29 16q17 7 27.5 -1t10.5 -19v-350
q0 -22 -19 -22z" />
    <glyph glyph-name="threequarters" unicode="&#xbe;" horiz-adv-x="818" 
d="M583 689q6 -2 9 -5.5t4.5 -6.5t1 -7t-1.5 -6.5t-3 -6.5t-2 -5l-317 -631q-10 -20 -18 -25t-21 1q-22 12 -5 46l317 629q8 16 12.5 19t23.5 -2zM637 301l-142 -217h142v217zM673 84h32q21 0 21 -17q0 -19 -21 -19h-32v-38q0 -21 -18 -21t-18 21v38h-164q-14 0 -19 12.5
t3 23.5l174 279q1 2 4 6t4 5.5t3.5 4t5.5 3t6 0.5q19 0 19 -25v-273zM270 498q57 -34 57 -90q0 -42 -33 -75q-35 -30 -80 -30h-15q-42 0 -77.5 29.5t-35.5 70.5q0 6 5 12t12 6q6 2 11 -3q6 -5 6 -11q3 -27 25 -48.5t54 -21.5h15q30 0 54.5 20t24.5 51q0 32 -24 51t-55 19
h-24q-19 0 -19 16q0 10 6 14.5t12 4.5h25q24 0 47 21q26 24 26 50q0 29 -23 50t-55 22q-51 -2 -71 -44q-11 -15 -26 -8q-13 11 -6 26q18 33 46 46q26 14 57 14q43 0 77 -29q34 -31 34 -77q0 -53 -50 -86z" />
    <glyph glyph-name="questiondown" unicode="&#xbf;" horiz-adv-x="546" 
d="M429 195q0 12 8 20t20 8q11 0 19 -7.5t8 -19.5q0 -86 -62 -146.5t-146 -60.5q-86 0 -146.5 61.5t-60.5 145.5q0 43 18.5 80.5t44.5 65.5t52.5 54t45 58t18.5 67q0 11 8 19t20 8q11 0 18.5 -8t7.5 -19q0 -39 -18.5 -74.5t-45 -63t-52.5 -54.5t-44.5 -61t-18.5 -72
q0 -64 45.5 -108t107.5 -44q63 0 108 45t45 106zM271 622q-14 0 -24.5 10.5t-10.5 23.5q0 16 10.5 25.5t25.5 9.5q14 0 24.5 -9.5t10.5 -25.5q0 -13 -11 -23.5t-25 -10.5z" />
    <glyph glyph-name="Agrave" unicode="&#xc0;" horiz-adv-x="691" 
d="M345 616q-85 0 -138 -59q-54 -59 -54 -162v-87h385v87q0 101 -55 162q-54 59 -138 59zM618 397v-368q0 -16 -12 -27.5t-28 -11.5q-17 0 -28.5 11.5t-11.5 27.5v208h-385v-208q0 -16 -12 -27.5t-28 -11.5t-28 11.5t-12 27.5v368q0 134 84 219q74 74 188 74q117 0 189 -74
q84 -87 84 -219zM416 794q0 -10 -7.5 -17t-18.5 -7q-16 0 -26 18l-81 134q-8 13 -8 22q0 11 9 19.5t21 8.5q17 0 28 -21l77 -138q6 -11 6 -19z" />
    <glyph glyph-name="Aacute" unicode="&#xc1;" horiz-adv-x="691" 
d="M345 616q-85 0 -138 -59q-54 -59 -54 -162v-87h385v87q0 101 -55 162q-54 59 -138 59zM618 397v-368q0 -16 -12 -27.5t-28 -11.5q-17 0 -28.5 11.5t-11.5 27.5v208h-385v-208q0 -16 -12 -27.5t-28 -11.5t-28 11.5t-12 27.5v368q0 134 84 219q74 74 188 74q117 0 189 -74
q84 -87 84 -219zM275 794q0 8 6 19l76 138q11 21 28 21q13 0 21.5 -8.5t8.5 -19.5q0 -9 -8 -22l-81 -134q-11 -18 -26 -18q-10 0 -17.5 7t-7.5 17z" />
    <glyph glyph-name="Acircumflex" unicode="&#xc2;" horiz-adv-x="691" 
d="M345 616q-85 0 -138 -59q-54 -59 -54 -162v-87h385v87q0 101 -55 162q-54 59 -138 59zM618 397v-368q0 -16 -12 -27.5t-28 -11.5q-17 0 -28.5 11.5t-11.5 27.5v208h-385v-208q0 -16 -12 -27.5t-28 -11.5t-28 11.5t-12 27.5v368q0 134 84 219q74 74 188 74q117 0 189 -74
q84 -87 84 -219zM345 971q12 0 24 -12l123 -127q13 -15 13 -22q0 -12 -8 -19.5t-19 -7.5t-19 8l-114 117l-113 -117q-8 -8 -19 -8q-12 0 -19.5 7.5t-7.5 19.5q0 10 12 22l124 127q12 12 23 12z" />
    <glyph glyph-name="Atilde" unicode="&#xc3;" horiz-adv-x="691" 
d="M345 616q-85 0 -138 -59q-54 -59 -54 -162v-87h385v87q0 101 -55 162q-54 59 -138 59zM618 397v-368q0 -16 -12 -27.5t-28 -11.5q-17 0 -28.5 11.5t-11.5 27.5v208h-385v-208q0 -16 -12 -27.5t-28 -11.5t-28 11.5t-12 27.5v368q0 134 84 219q74 74 188 74q117 0 189 -74
q84 -87 84 -219zM510 910q0 -21 -21 -42q-26 -28 -70 -28q-37 0 -79 27q-3 2 -12 7.5t-12.5 8t-11 5.5t-13.5 4.5t-13 1.5q-23 0 -41.5 -22t-30.5 -22q-11 0 -18 7.5t-7 18.5q0 20 22 42q27 29 70 29q39 0 79 -26q4 -3 12.5 -8.5t12.5 -8t11 -6t13 -5t13 -1.5q22 0 41 22.5
t31 22.5q11 0 17.5 -7.5t6.5 -19.5z" />
    <glyph glyph-name="Adieresis" unicode="&#xc4;" horiz-adv-x="691" 
d="M345 616q-85 0 -138 -59q-54 -59 -54 -162v-87h385v87q0 101 -55 162q-54 59 -138 59zM618 397v-368q0 -16 -12 -27.5t-28 -11.5q-17 0 -28.5 11.5t-11.5 27.5v208h-385v-208q0 -16 -12 -27.5t-28 -11.5t-28 11.5t-12 27.5v368q0 134 84 219q74 74 188 74q117 0 189 -74
q84 -87 84 -219zM251 825q-18 0 -31 13t-13 32q0 18 13 30.5t31 12.5q19 0 31.5 -12.5t12.5 -30.5q0 -19 -12.5 -32t-31.5 -13zM439 825q-18 0 -31 13t-13 32q0 18 13 30.5t31 12.5t31 -12.5t13 -30.5q0 -19 -13 -32t-31 -13z" />
    <glyph glyph-name="Aring" unicode="&#xc5;" horiz-adv-x="691" 
d="M345 616q-85 0 -138 -59q-54 -59 -54 -162v-87h385v87q0 101 -55 162q-54 59 -138 59zM618 397v-368q0 -16 -12 -27.5t-28 -11.5q-17 0 -28.5 11.5t-11.5 27.5v208h-385v-208q0 -16 -12 -27.5t-28 -11.5t-28 11.5t-12 27.5v368q0 134 84 219q74 74 188 74q117 0 189 -74
q84 -87 84 -219zM460 862q0 -49 -33.5 -82.5t-81.5 -33.5t-82 33.5t-34 82.5q0 48 34 82t82 34t81.5 -34t33.5 -82zM424 862q0 33 -23 56.5t-56 23.5t-56 -23.5t-23 -56.5q0 -34 23 -57t56 -23t56 23t23 57z" />
    <glyph glyph-name="AE" unicode="&#xc6;" horiz-adv-x="1006" 
d="M610 306v-235h330q14 0 24 -11t10 -25t-10 -24.5t-24 -10.5h-370q-17 0 -28.5 11.5t-11.5 27.5v198h-377v-208q0 -16 -12 -27.5t-28 -11.5t-28 11.5t-12 27.5v368q0 135 83 219q71 74 186 74q114 0 188 -77v29q0 16 11.5 27.5t28.5 11.5h370q14 0 24 -10.5t10 -24.5
q0 -15 -10 -25.5t-24 -10.5h-330v-233h278q14 0 24.5 -11t10.5 -25t-10.5 -24.5t-24.5 -10.5h-278zM342 616q-84 0 -136 -59q-53 -61 -53 -162v-87h377v87q0 101 -53 162q-52 59 -135 59z" />
    <glyph glyph-name="Ccedilla" unicode="&#xc7;" horiz-adv-x="659" 
d="M508 -110q0 -45 -37 -66.5t-88 -21.5q-23 0 -36 4q-17 6 -17 20q0 8 6 14t14 6q4 0 15.5 -1.5t21.5 -1.5q29 0 50 11.5t21 36.5q0 21 -18 31.5t-44 10.5q-24 0 -21 24l3 34q-142 8 -236.5 104t-94.5 246q0 143 105.5 246t250.5 103q94 0 167 -33q48 -20 48 -50
q0 -16 -10.5 -26.5t-26.5 -10.5q-7 0 -16.5 5t-25.5 13t-32 14q-46 16 -105 16q-111 0 -191.5 -81.5t-80.5 -195.5q0 -122 79.5 -200.5t192.5 -78.5q57 0 106 17q18 6 35 14.5t26.5 13.5t16.5 5q15 0 26 -10.5t11 -26.5q0 -27 -49 -50q-68 -32 -156 -35l1 -25q39 -3 64 -23
t25 -52z" />
    <glyph glyph-name="Egrave" unicode="&#xc8;" horiz-adv-x="602" 
d="M242 955l77 -131q10 -17 -7 -27q-7 -4 -14.5 -2t-10.5 8l-94 123q-5 9 -2.5 20.5t12.5 17.5q11 7 22 4t17 -13zM457 -10h-374q-11 0 -21 8q-8 10 -8 21v641q0 13 8 21q9 9 21 9h374q29 0 29 -27t-29 -27h-349v-269h267q30 0 30 -27q0 -15 -10 -21.5t-20 -6.5h-267v-268
h349q9 0 19 -7t10 -22q0 -25 -29 -25z" />
    <glyph glyph-name="Eacute" unicode="&#xc9;" horiz-adv-x="602" 
d="M155 306v-235h381q14 0 24 -10.5t10 -25.5q0 -14 -10 -24.5t-24 -10.5h-421q-17 0 -28.5 11.5t-11.5 27.5v603q0 16 11.5 27.5t28.5 11.5h421q14 0 24 -10.5t10 -24.5q0 -15 -10 -25.5t-24 -10.5h-381v-233h329q15 0 25 -10.5t10 -25.5q0 -14 -10 -24.5t-25 -10.5h-329z
M244 794q0 8 6 19l76 138q10 21 28 21q13 0 21.5 -8.5t8.5 -19.5q0 -9 -8 -22l-81 -134q-11 -18 -26 -18q-10 0 -17.5 7t-7.5 17z" />
    <glyph glyph-name="Ecircumflex" unicode="&#xca;" horiz-adv-x="602" 
d="M155 306v-235h381q14 0 24 -10.5t10 -25.5q0 -14 -10 -24.5t-24 -10.5h-421q-17 0 -28.5 11.5t-11.5 27.5v603q0 16 11.5 27.5t28.5 11.5h421q14 0 24 -10.5t10 -24.5q0 -15 -10 -25.5t-24 -10.5h-381v-233h329q15 0 25 -10.5t10 -25.5q0 -14 -10 -24.5t-25 -10.5h-329z
M307 971q12 0 24 -12l123 -127q13 -15 13 -22q0 -12 -8 -19.5t-19 -7.5t-19 8l-114 117l-113 -117q-8 -8 -19 -8q-12 0 -19.5 7.5t-7.5 19.5q0 10 12 22l124 127q12 12 23 12z" />
    <glyph glyph-name="Edieresis" unicode="&#xcb;" horiz-adv-x="554" 
d="M140 58h334q13 0 23.5 -8.5t10.5 -27.5q0 -32 -34 -32h-366q-14 0 -25 10.5t-11 25.5v627q0 15 10.5 26t25.5 11h366q15 0 24.5 -9t9.5 -25q0 -34 -34 -34h-334v-248h257q15 0 24.5 -9t9.5 -25q0 -17 -10.5 -25.5t-23.5 -8.5h-257v-248zM220 760q-15 0 -26.5 11t-11.5 27
t11.5 27t26.5 11q16 0 27 -11t11 -27t-11 -27t-27 -11zM364 760q-16 0 -27 11t-11 27t11 27t27 11q15 0 26.5 -11t11.5 -27t-11.5 -27t-26.5 -11z" />
    <glyph glyph-name="Igrave" unicode="&#xcc;" horiz-adv-x="230" 
d="M75 29v622q0 16 12 27.5t28 11.5t28 -11.5t12 -27.5v-622q0 -16 -12 -27.5t-28 -11.5t-28 11.5t-12 27.5zM188 794q0 -10 -7.5 -17t-18.5 -7q-16 0 -26 18l-81 134q-8 13 -8 22q0 11 9 19.5t21 8.5q17 0 28 -21l77 -138q6 -11 6 -19z" />
    <glyph glyph-name="Iacute" unicode="&#xcd;" horiz-adv-x="230" 
d="M75 29v622q0 16 12 27.5t28 11.5t28 -11.5t12 -27.5v-622q0 -16 -12 -27.5t-28 -11.5t-28 11.5t-12 27.5zM47 794q0 8 6 19l76 138q11 21 28 21q13 0 21.5 -8.5t8.5 -19.5q0 -9 -8 -22l-81 -134q-11 -18 -26 -18q-10 0 -17.5 7t-7.5 17z" />
    <glyph glyph-name="Icircumflex" unicode="&#xce;" horiz-adv-x="230" 
d="M75 29v622q0 16 12 27.5t28 11.5t28 -11.5t12 -27.5v-622q0 -16 -12 -27.5t-28 -11.5t-28 11.5t-12 27.5zM117 971q12 0 24 -12l123 -127q13 -15 13 -22q0 -12 -8 -19.5t-19 -7.5t-19 8l-114 117l-113 -117q-8 -8 -19 -8q-12 0 -19.5 7.5t-7.5 19.5q0 10 12 22l124 127
q12 12 23 12z" />
    <glyph glyph-name="Idieresis" unicode="&#xcf;" horiz-adv-x="250" 
d="M52 760q-15 0 -26.5 11t-11.5 27t11.5 27t26.5 11q16 0 27 -11t11 -27t-11 -27t-27 -11zM196 760q-16 0 -27 11t-11 27t11 27t27 11q15 0 26.5 -11t11.5 -27t-11.5 -27t-26.5 -11zM158 665v-644q0 -11 -7.5 -23.5t-26.5 -12.5q-14 0 -22 8t-10 15t-2 13v644q0 10 7.5 20
t26.5 10q18 0 26 -10t8 -20z" />
    <glyph glyph-name="Eth" unicode="&#xd0;" horiz-adv-x="743" 
d="M303 306h-143v-238h150q114 0 186 42q118 66 118 230q0 117 -63 188q-75 85 -231 85h-160v-239h143q13 0 23 -10t10 -24t-9.5 -24t-23.5 -10zM80 39v267h-69q-14 0 -23.5 10t-9.5 24t10 24t23 10h69v268q0 16 11.5 27.5t28.5 11.5h213q188 0 284 -107q79 -89 79 -234
q0 -178 -127 -270q-96 -70 -251 -70h-198q-17 0 -28.5 11.5t-11.5 27.5z" />
    <glyph glyph-name="Ntilde" unicode="&#xd1;" horiz-adv-x="740" 
d="M665 653v-620q0 -18 -13.5 -30.5t-32.5 -12.5q-21 0 -40 22l-427 538v-524q0 -15 -11.5 -25.5t-27.5 -10.5t-27 10.5t-11 25.5v621q0 17 13 30t32 13q23 0 40 -22l428 -538v523q0 15 11.5 26t27.5 11t27 -11t11 -26zM535 910q0 -21 -21 -42q-26 -28 -70 -28q-37 0 -79 27
q-3 2 -12 7.5t-12.5 8t-11 5.5t-13.5 4.5t-13 1.5q-23 0 -41.5 -22t-30.5 -22q-11 0 -18 7.5t-7 18.5q0 20 22 42q27 29 70 29q39 0 79 -26q4 -3 12.5 -8.5t12.5 -8t11 -6t13 -5t13 -1.5q22 0 41 22.5t31 22.5q11 0 17.5 -7.5t6.5 -19.5z" />
    <glyph glyph-name="Ograve" unicode="&#xd2;" horiz-adv-x="806" 
d="M759 339q0 -147 -104.5 -248t-251.5 -101t-251.5 101t-104.5 248q0 148 104.5 249.5t251.5 101.5t251.5 -101.5t104.5 -249.5zM675 339q0 114 -79 195t-193 81t-192.5 -81t-78.5 -195q0 -115 78.5 -195t192.5 -80t193 80.5t79 194.5zM473 794q0 -10 -7.5 -17t-18.5 -7
q-15 0 -26 18l-81 134q-8 13 -8 22q0 11 9 19.5t21 8.5q17 0 28 -21l77 -138q6 -11 6 -19z" />
    <glyph glyph-name="Oacute" unicode="&#xd3;" horiz-adv-x="806" 
d="M759 339q0 -147 -104.5 -248t-251.5 -101t-251.5 101t-104.5 248q0 148 104.5 249.5t251.5 101.5t251.5 -101.5t104.5 -249.5zM675 339q0 114 -79 195t-193 81t-192.5 -81t-78.5 -195q0 -115 78.5 -195t192.5 -80t193 80.5t79 194.5zM333 794q0 8 6 19l76 138
q11 21 28 21q13 0 21.5 -8.5t8.5 -19.5q0 -9 -8 -22l-81 -134q-11 -18 -26 -18q-10 0 -17.5 7t-7.5 17z" />
    <glyph glyph-name="Ocircumflex" unicode="&#xd4;" horiz-adv-x="806" 
d="M759 339q0 -147 -104.5 -248t-251.5 -101t-251.5 101t-104.5 248q0 148 104.5 249.5t251.5 101.5t251.5 -101.5t104.5 -249.5zM675 339q0 114 -79 195t-193 81t-192.5 -81t-78.5 -195q0 -115 78.5 -195t192.5 -80t193 80.5t79 194.5zM402 971q12 0 24 -12l123 -127
q13 -15 13 -22q0 -12 -8 -19.5t-19 -7.5t-19 8l-114 117l-113 -117q-8 -8 -19 -8q-12 0 -19.5 7.5t-7.5 19.5q0 10 12 22l124 127q12 12 23 12z" />
    <glyph glyph-name="Otilde" unicode="&#xd5;" horiz-adv-x="806" 
d="M759 339q0 -147 -104.5 -248t-251.5 -101t-251.5 101t-104.5 248q0 148 104.5 249.5t251.5 101.5t251.5 -101.5t104.5 -249.5zM675 339q0 114 -79 195t-193 81t-192.5 -81t-78.5 -195q0 -115 78.5 -195t192.5 -80t193 80.5t79 194.5zM566 910q0 -21 -21 -42
q-26 -28 -70 -28q-37 0 -79 27q-3 2 -12 7.5t-12.5 8t-11 5.5t-13.5 4.5t-13 1.5q-23 0 -41.5 -22t-30.5 -22q-11 0 -18 7.5t-7 18.5q0 20 22 42q27 29 70 29q39 0 79 -26q4 -3 12.5 -8.5t12.5 -8t11 -6t13 -5t13 -1.5q22 0 41 22.5t31 22.5q11 0 17.5 -7.5t6.5 -19.5z" />
    <glyph glyph-name="Odieresis" unicode="&#xd6;" horiz-adv-x="806" 
d="M759 339q0 -147 -104.5 -248t-251.5 -101t-251.5 101t-104.5 248q0 148 104.5 249.5t251.5 101.5t251.5 -101.5t104.5 -249.5zM675 339q0 114 -79 195t-193 81t-192.5 -81t-78.5 -195q0 -115 78.5 -195t192.5 -80t193 80.5t79 194.5zM308 825q-18 0 -31 13t-13 32
q0 18 13 30.5t31 12.5q19 0 31.5 -12.5t12.5 -30.5q0 -19 -12.5 -32t-31.5 -13zM496 825q-18 0 -31 13t-13 32q0 18 13 30.5t31 12.5t31 -12.5t13 -30.5q0 -19 -13 -32t-31 -13z" />
    <glyph glyph-name="multiply" unicode="&#xd7;" horiz-adv-x="482" 
d="M241 402l148 148q10 10 24 10t25 -10q10 -11 9.5 -25t-9.5 -24l-148 -148l148 -148q9 -10 9.5 -24t-9.5 -25q-11 -10 -25 -10t-24 10l-148 148l-148 -148q-11 -10 -24.5 -10t-24.5 10q-10 11 -10 25t10 24l148 148l-148 148q-10 10 -10 24t10 25q11 10 24.5 10t24.5 -10z
" />
    <glyph glyph-name="Oslash" unicode="&#xd8;" horiz-adv-x="806" 
d="M657 675q8 10 21 10q11 0 18.5 -8t7.5 -20q0 -11 -7 -18l-44 -51q106 -101 106 -249q0 -147 -104 -248t-251 -101q-118 0 -210 67l-46 -54q-8 -10 -21 -10q-11 0 -18.5 8t-7.5 20q0 11 7 18l44 52q-105 100 -105 248q0 147 105 249t252 102q115 0 207 -68zM675 339
q0 109 -77 186l-351 -408q67 -53 156 -53q112 0 192 81.5t80 193.5zM132 339q0 -109 75 -186l351 408q-68 54 -155 54q-112 0 -191.5 -82t-79.5 -194z" />
    <glyph glyph-name="Ugrave" unicode="&#xd9;" horiz-adv-x="722" 
d="M360 62q103 0 158 61q51 57 51 156v372q0 16 11.5 27.5t28.5 11.5q16 0 28 -11.5t12 -27.5v-382q0 -121 -66 -193q-77 -86 -222 -86t-222 86q-66 72 -66 193v382q0 16 12 27.5t28 11.5q17 0 28.5 -11.5t11.5 -27.5v-372q0 -99 51 -156q55 -61 156 -61zM430 794
q0 -10 -7.5 -17t-18.5 -7q-16 0 -26 18l-81 134q-8 13 -8 22q0 11 9 19.5t21 8.5q17 0 28 -21l77 -138q6 -11 6 -19z" />
    <glyph glyph-name="Uacute" unicode="&#xda;" horiz-adv-x="722" 
d="M360 62q103 0 158 61q51 57 51 156v372q0 16 11.5 27.5t28.5 11.5q16 0 28 -11.5t12 -27.5v-382q0 -121 -66 -193q-77 -86 -222 -86t-222 86q-66 72 -66 193v382q0 16 12 27.5t28 11.5q17 0 28.5 -11.5t11.5 -27.5v-372q0 -99 51 -156q55 -61 156 -61zM290 794q0 8 6 19
l76 138q10 21 28 21q13 0 21.5 -8.5t8.5 -19.5q0 -9 -8 -22l-81 -134q-11 -18 -26 -18q-10 0 -17.5 7t-7.5 17z" />
    <glyph glyph-name="Ucircumflex" unicode="&#xdb;" horiz-adv-x="722" 
d="M360 62q103 0 158 61q51 57 51 156v372q0 16 11.5 27.5t28.5 11.5q16 0 28 -11.5t12 -27.5v-382q0 -121 -66 -193q-77 -86 -222 -86t-222 86q-66 72 -66 193v382q0 16 12 27.5t28 11.5q17 0 28.5 -11.5t11.5 -27.5v-372q0 -99 51 -156q55 -61 156 -61zM360 971
q12 0 24 -12l123 -127q13 -15 13 -22q0 -12 -8 -19.5t-19 -7.5t-19 8l-114 117l-113 -117q-8 -8 -19 -8q-12 0 -19.5 7.5t-7.5 19.5q0 10 12 22l124 127q12 12 23 12z" />
    <glyph glyph-name="Udieresis" unicode="&#xdc;" horiz-adv-x="722" 
d="M360 62q103 0 158 61q51 57 51 156v372q0 16 11.5 27.5t28.5 11.5q16 0 28 -11.5t12 -27.5v-382q0 -121 -66 -193q-77 -86 -222 -86t-222 86q-66 72 -66 193v382q0 16 12 27.5t28 11.5q17 0 28.5 -11.5t11.5 -27.5v-372q0 -99 51 -156q55 -61 156 -61zM260 825
q-18 0 -31 13t-13 32q0 18 13 30.5t31 12.5q19 0 31.5 -12.5t12.5 -30.5q0 -19 -12.5 -32t-31.5 -13zM448 825q-18 0 -31 13t-13 32q0 18 13 30.5t31 12.5t31 -12.5t13 -30.5q0 -19 -13 -32t-31 -13z" />
    <glyph glyph-name="Yacute" unicode="&#xdd;" horiz-adv-x="565" 
d="M556 624l-234 -325v-270q0 -16 -12 -27.5t-28 -11.5t-28 11.5t-12 27.5v270l-232 326q-9 14 -9 27q0 16 11 27t28 11q21 0 35 -20l207 -291l208 291q14 20 35 20q16 0 27.5 -11t11.5 -27q0 -14 -8 -28zM216 794q0 8 6 19l76 138q10 21 28 21q13 0 21.5 -8.5t8.5 -19.5
q0 -9 -8 -22l-81 -134q-11 -18 -26 -18q-10 0 -17.5 7t-7.5 17z" />
    <glyph glyph-name="Thorn" unicode="&#xde;" horiz-adv-x="626" 
d="M75 -107v758q0 16 12 27.5t28 11.5t28 -11.5t12 -27.5v-111h197q97 0 157 -47q80 -62 80 -177q0 -118 -86 -181q-59 -43 -161 -43h-187v-199q0 -16 -11.5 -27t-28.5 -11t-28.5 11t-11.5 27zM508 316q0 78 -52 119q-45 35 -116 35h-185v-308h174q80 0 121 30q58 42 58 124
z" />
    <glyph glyph-name="germandbls" unicode="&#xdf;" horiz-adv-x="557" 
d="M310 391q0 -13 15.5 -23.5t47 -23.5t46.5 -22q93 -53 93 -151q0 -76 -53 -128.5t-136 -52.5q-72 0 -120 24q-41 20 -41 47q0 15 8 24t21 9q7 0 39 -19q34 -22 91 -22q53 0 87 32.5t34 80.5q0 67 -71 103q-10 5 -34.5 16t-37 18.5t-28.5 19.5t-23.5 27.5t-7.5 34.5
q0 21 20 36t44.5 24.5t44.5 32.5t20 57q0 47 -29.5 71t-79.5 24q-52 0 -82.5 -32.5t-30.5 -100.5v-527q0 -15 -11 -25.5t-26 -10.5q-16 0 -27 10.5t-11 25.5v527q0 93 50 143t136 50q88 0 137.5 -37.5t49.5 -108.5q0 -32 -14 -56.5t-33.5 -37.5t-39.5 -23t-34 -18.5
t-14 -17.5z" />
    <glyph glyph-name="agrave" unicode="&#xe0;" horiz-adv-x="476" 
d="M43 123q0 83 92 118q56 22 202 33v14q0 57 -23 84q-25 29 -81 29q-46 0 -90 -17q-10 -4 -21 -9.5t-17.5 -8t-11.5 -2.5q-12 0 -20 8.5t-8 20.5q0 22 49 43q56 24 127 24q90 0 132 -48q38 -45 38 -123v-264q0 -14 -11 -24.5t-26 -10.5q-14 0 -25 9.5t-12 22.5
q-61 -32 -132 -32q-66 0 -114 34.5t-48 98.5zM226 48q55 0 111 29v141q-100 -4 -149 -18q-76 -19 -76 -73q0 -39 33.5 -59t80.5 -20zM311 592q0 -10 -7.5 -17t-18.5 -7q-15 0 -26 18l-81 134q-8 13 -8 22q0 11 9 19.5t21 8.5q17 0 28 -21l77 -138q6 -11 6 -19z" />
    <glyph glyph-name="aacute" unicode="&#xe1;" horiz-adv-x="476" 
d="M43 123q0 83 92 118q56 22 202 33v14q0 57 -23 84q-25 29 -81 29q-46 0 -90 -17q-10 -4 -21 -9.5t-17.5 -8t-11.5 -2.5q-12 0 -20 8.5t-8 20.5q0 22 49 43q56 24 127 24q90 0 132 -48q38 -45 38 -123v-264q0 -14 -11 -24.5t-26 -10.5q-14 0 -25 9.5t-12 22.5
q-61 -32 -132 -32q-66 0 -114 34.5t-48 98.5zM226 48q55 0 111 29v141q-100 -4 -149 -18q-76 -19 -76 -73q0 -39 33.5 -59t80.5 -20zM167 592q0 8 6 19l76 138q11 21 28 21q13 0 21.5 -8.5t8.5 -19.5q0 -9 -8 -22l-81 -134q-11 -18 -26 -18q-10 0 -17.5 7t-7.5 17z" />
    <glyph glyph-name="acircumflex" unicode="&#xe2;" horiz-adv-x="476" 
d="M43 123q0 83 92 118q56 22 202 33v14q0 57 -23 84q-25 29 -81 29q-46 0 -90 -17q-10 -4 -21 -9.5t-17.5 -8t-11.5 -2.5q-12 0 -20 8.5t-8 20.5q0 22 49 43q56 24 127 24q90 0 132 -48q38 -45 38 -123v-264q0 -14 -11 -24.5t-26 -10.5q-14 0 -25 9.5t-12 22.5
q-61 -32 -132 -32q-66 0 -114 34.5t-48 98.5zM226 48q55 0 111 29v141q-100 -4 -149 -18q-76 -19 -76 -73q0 -39 33.5 -59t80.5 -20zM238 769q12 0 24 -12l123 -127q13 -15 13 -22q0 -12 -8 -19.5t-19 -7.5t-19 8l-114 117l-113 -117q-8 -8 -19 -8q-12 0 -19.5 7.5
t-7.5 19.5q0 10 12 22l124 127q12 12 23 12z" />
    <glyph glyph-name="atilde" unicode="&#xe3;" horiz-adv-x="476" 
d="M43 123q0 83 92 118q56 22 202 33v14q0 57 -23 84q-25 29 -81 29q-46 0 -90 -17q-10 -4 -21 -9.5t-17.5 -8t-11.5 -2.5q-12 0 -20 8.5t-8 20.5q0 22 49 43q56 24 127 24q90 0 132 -48q38 -45 38 -123v-264q0 -14 -11 -24.5t-26 -10.5q-14 0 -25 9.5t-12 22.5
q-61 -32 -132 -32q-66 0 -114 34.5t-48 98.5zM226 48q55 0 111 29v141q-100 -4 -149 -18q-76 -19 -76 -73q0 -39 33.5 -59t80.5 -20zM401 684q0 -21 -21 -42q-26 -28 -70 -28q-37 0 -79 27q-3 2 -12 7.5t-12.5 8t-11 5.5t-13.5 4.5t-13 1.5q-23 0 -41.5 -22t-30.5 -22
q-11 0 -18 7.5t-7 18.5q0 20 22 42q27 29 70 29q39 0 79 -26q4 -3 12.5 -8.5t12.5 -8t11 -6t13 -5t13 -1.5q22 0 41 22.5t31 22.5q11 0 17.5 -7.5t6.5 -19.5z" />
    <glyph glyph-name="adieresis" unicode="&#xe4;" horiz-adv-x="476" 
d="M43 123q0 83 92 118q56 22 202 33v14q0 57 -23 84q-25 29 -81 29q-46 0 -90 -17q-10 -4 -21 -9.5t-17.5 -8t-11.5 -2.5q-12 0 -20 8.5t-8 20.5q0 22 49 43q56 24 127 24q90 0 132 -48q38 -45 38 -123v-264q0 -14 -11 -24.5t-26 -10.5q-14 0 -25 9.5t-12 22.5
q-61 -32 -132 -32q-66 0 -114 34.5t-48 98.5zM226 48q55 0 111 29v141q-100 -4 -149 -18q-76 -19 -76 -73q0 -39 33.5 -59t80.5 -20zM144 623q-18 0 -31 13t-13 32q0 18 13 30.5t31 12.5q19 0 31.5 -12.5t12.5 -30.5q0 -19 -12.5 -32t-31.5 -13zM332 623q-18 0 -31 13
t-13 32q0 18 13 30.5t31 12.5t31 -12.5t13 -30.5q0 -19 -13 -32t-31 -13z" />
    <glyph glyph-name="aring" unicode="&#xe5;" horiz-adv-x="476" 
d="M43 123q0 83 92 118q56 22 202 33v14q0 57 -23 84q-25 29 -81 29q-46 0 -90 -17q-10 -4 -21 -9.5t-17.5 -8t-11.5 -2.5q-12 0 -20 8.5t-8 20.5q0 22 49 43q56 24 127 24q90 0 132 -48q38 -45 38 -123v-264q0 -14 -11 -24.5t-26 -10.5q-14 0 -25 9.5t-12 22.5
q-61 -32 -132 -32q-66 0 -114 34.5t-48 98.5zM358 662q0 -49 -33.5 -82.5t-81.5 -33.5t-82 33.5t-34 82.5q0 48 34 82t82 34t81.5 -34t33.5 -82zM226 48q55 0 111 29v141q-100 -4 -149 -18q-76 -19 -76 -73q0 -39 33.5 -59t80.5 -20zM322 662q0 33 -23 56.5t-56 23.5
t-56 -23.5t-23 -56.5q0 -34 23 -57t56 -23t56 23t23 57z" />
    <glyph glyph-name="ae" unicode="&#xe6;" horiz-adv-x="806" 
d="M717 91q12 0 20 -8.5t8 -20.5q0 -21 -38 -39q-63 -33 -143 -33q-115 0 -184 79q-77 -79 -179 -79q-72 0 -115 37.5t-43 93.5q0 37 20.5 63.5t61 41t88.5 21.5t114 10v31q0 58 -23 86q-24 30 -77 30q-43 0 -88 -18q-9 -4 -19 -9.5t-16 -8.5t-12 -3q-11 0 -19 8.5t-8 19.5
q0 22 47 43q54 24 123 24q64 0 100 -32q28 -24 40 -68q27 47 73 73.5t104 26.5q97 0 157 -63q55 -58 55 -147q0 -18 -10.5 -28.5t-28.5 -10.5h-322q3 -65 38 -108q45 -56 128 -56q59 0 107 25q6 3 13.5 7.5t11 6.5t8 3.5t8.5 1.5zM222 44q76 0 134 63q-27 45 -28 104
q-215 -6 -215 -88q0 -33 29 -56t80 -23zM403 257h290q-3 65 -37 102q-40 45 -104 45q-72 0 -113 -49q-33 -37 -36 -98z" />
    <glyph glyph-name="ccedilla" unicode="&#xe7;" horiz-adv-x="471" 
d="M393 -110q0 -45 -37 -66.5t-88 -21.5q-23 0 -36 4q-17 6 -17 20q0 8 6 14t14 6q4 0 15.5 -1.5t21.5 -1.5q29 0 50 11.5t21 36.5q0 21 -18 31.5t-44 10.5q-24 0 -21 24l3 34q-98 6 -156 67q-62 65 -62 168q0 88 51 149q71 85 193 85q63 0 111 -24q34 -16 34 -39
q0 -12 -8.5 -20.5t-21.5 -8.5q-6 0 -35 13q-37 17 -80 17q-80 0 -130 -58q-40 -46 -40 -114q0 -78 46 -127q46 -48 125 -48q49 0 82 14q7 3 14 7t11.5 5.5t9.5 1.5q12 0 20.5 -9t8.5 -21q0 -23 -42 -40q-44 -16 -91 -19l1 -25q39 -3 64 -23t25 -52z" />
    <glyph glyph-name="egrave" unicode="&#xe8;" horiz-adv-x="524" 
d="M435 92q12 0 20 -9t8 -21q0 -19 -37 -39q-63 -33 -143 -33q-113 0 -179 74q-59 64 -59 167q0 98 60 163q61 66 165 66q99 0 157 -63q55 -58 55 -147q0 -19 -10.5 -32t-28.5 -13h-322q6 -61 39 -100q47 -55 126 -55q62 0 108 24q34 18 41 18zM121 258h290q-3 62 -37 99
q-40 44 -104 44q-72 0 -113 -48q-31 -35 -36 -95zM335 592q0 -10 -7.5 -17t-18.5 -7q-15 0 -26 18l-81 134q-8 13 -8 22q0 11 9 19.5t21 8.5q17 0 28 -21l77 -138q6 -11 6 -19z" />
    <glyph glyph-name="eacute" unicode="&#xe9;" horiz-adv-x="524" 
d="M435 92q12 0 20 -9t8 -21q0 -19 -37 -39q-63 -33 -143 -33q-113 0 -179 74q-59 64 -59 167q0 98 60 163q61 66 165 66q99 0 157 -63q55 -58 55 -147q0 -19 -10.5 -32t-28.5 -13h-322q6 -61 39 -100q47 -55 126 -55q62 0 108 24q34 18 41 18zM121 258h290q-3 62 -37 99
q-40 44 -104 44q-72 0 -113 -48q-31 -35 -36 -95zM189 592q0 8 6 19l76 138q11 21 28 21q13 0 21.5 -8.5t8.5 -19.5q0 -9 -8 -22l-81 -134q-11 -18 -26 -18q-10 0 -17.5 7t-7.5 17z" />
    <glyph glyph-name="ecircumflex" unicode="&#xea;" horiz-adv-x="524" 
d="M435 92q12 0 20 -9t8 -21q0 -19 -37 -39q-63 -33 -143 -33q-113 0 -179 74q-59 64 -59 167q0 98 60 163q61 66 165 66q99 0 157 -63q55 -58 55 -147q0 -19 -10.5 -32t-28.5 -13h-322q6 -61 39 -100q47 -55 126 -55q62 0 108 24q34 18 41 18zM121 258h290q-3 62 -37 99
q-40 44 -104 44q-72 0 -113 -48q-31 -35 -36 -95zM259 769q12 0 24 -12l123 -127q13 -15 13 -22q0 -12 -8 -19.5t-19 -7.5t-19 8l-114 117l-113 -117q-8 -8 -19 -8q-12 0 -19.5 7.5t-7.5 19.5q0 10 12 22l124 127q12 12 23 12z" />
    <glyph glyph-name="edieresis" unicode="&#xeb;" horiz-adv-x="575" 
d="M197 569q-15 0 -26.5 11t-11.5 27t11.5 27t26.5 11q17 0 27.5 -10.5t10.5 -27.5q0 -16 -11 -27t-27 -11zM359 569q-16 0 -27 11t-11 27t11 27t27 11q15 0 26.5 -11t11.5 -27t-11.5 -27t-26.5 -11zM287 470q100 0 170.5 -69.5t72.5 -167.5q0 -39 -46 -39h-366
q11 -58 59 -99.5t110 -41.5q87 0 139 43q13 11 25 11q13 0 23.5 -9t10.5 -23q0 -17 -12 -29q-64 -61 -186 -61q-98 0 -169.5 69.5t-71.5 171.5q0 103 70 173.5t171 70.5zM118 262h340q-12 59 -60 99.5t-111 40.5q-59 0 -108.5 -40.5t-60.5 -99.5z" />
    <glyph glyph-name="igrave" unicode="&#xec;" horiz-adv-x="218" 
d="M72 425q0 15 11 25t26 10t26 -10t11 -25v-400q0 -14 -11 -24.5t-26 -10.5t-26 10.5t-11 24.5v400zM181 592q0 -10 -7.5 -17t-18.5 -7q-15 0 -26 18l-81 134q-8 13 -8 22q0 11 9 19.5t21 8.5q17 0 28 -21l77 -138q6 -11 6 -19z" />
    <glyph glyph-name="iacute" unicode="&#xed;" horiz-adv-x="218" 
d="M72 425q0 15 11 25t26 10t26 -10t11 -25v-400q0 -14 -11 -24.5t-26 -10.5t-26 10.5t-11 24.5v400zM40 592q0 8 6 19l76 138q10 21 28 21q13 0 21.5 -8.5t8.5 -19.5q0 -9 -8 -22l-81 -134q-11 -18 -26 -18q-10 0 -17.5 7t-7.5 17z" />
    <glyph glyph-name="icircumflex" unicode="&#xee;" horiz-adv-x="218" 
d="M72 425q0 15 11 25t26 10t26 -10t11 -25v-400q0 -14 -11 -24.5t-26 -10.5t-26 10.5t-11 24.5v400zM110 769q12 0 24 -12l123 -127q13 -15 13 -22q0 -12 -8 -19.5t-19 -7.5t-19 8l-114 117l-113 -117q-8 -8 -19 -8q-12 0 -19.5 7.5t-7.5 19.5q0 10 12 22l124 127
q12 12 23 12z" />
    <glyph glyph-name="idieresis" unicode="&#xef;" horiz-adv-x="288" 
d="M66 569q-15 0 -26.5 11t-11.5 27t11.5 27t26.5 11q16 0 27 -10.5t11 -27.5q0 -16 -11 -27t-27 -11zM210 569q-16 0 -27 11t-11 27t11 27t27 11q15 0 26.5 -11t11.5 -27t-11.5 -27t-26.5 -11zM173 440v-419q0 -11 -8 -23.5t-27 -12.5q-14 0 -22 8t-10 15t-2 13v419
q0 10 7.5 20t26.5 10q18 0 26.5 -10.5t8.5 -19.5z" />
    <glyph glyph-name="eth" unicode="&#xf0;" horiz-adv-x="511" 
d="M466 223q0 -112 -61 -172.5t-152 -60.5q-84 0 -139 49q-69 60 -69 168q0 85 55 140q60 60 147 60q61 0 117 -35q-32 96 -113 180l-82 -63q-12 -8 -20 -8q-10 0 -17 7.5t-7 18.5q0 13 12 21l74 58q-40 38 -53 48q-12 10 -12 22q0 15 10 25t24 10q15 0 45 -27
q26 -21 41 -37l73 56q10 8 18 8q11 0 18 -7.5t7 -18.5q0 -13 -13 -21l-65 -50q162 -172 162 -371zM397 223q0 44 -9 86q-64 41 -131 41q-63 0 -106 -45q-38 -38 -38 -98q0 -78 45 -120q38 -35 95 -35q63 0 103.5 43.5t40.5 127.5z" />
    <glyph glyph-name="ntilde" unicode="&#xf1;" horiz-adv-x="553" 
d="M72 25v399q0 15 11 25.5t26 10.5t26 -10.5t11 -25.5v-49q45 85 158 85q84 0 131 -41q54 -48 54 -151v-243q0 -14 -11 -24.5t-26 -10.5t-25.5 10.5t-10.5 24.5v227q0 81 -37 115q-31 29 -89 29q-80 0 -118 -69q-26 -49 -26 -119v-183q0 -14 -11 -24.5t-26 -10.5t-26 10.5
t-11 24.5zM430 684q0 -21 -21 -42q-26 -28 -70 -28q-37 0 -79 27q-3 2 -12 7.5t-12.5 8t-11 5.5t-13.5 4.5t-13 1.5q-23 0 -41.5 -22t-30.5 -22q-11 0 -18 7.5t-7 18.5q0 20 22 42q27 29 70 29q39 0 79 -26q4 -3 12.5 -8.5t12.5 -8t11 -6t13 -5t13 -1.5q22 0 41 22.5
t31 22.5q11 0 17.5 -7.5t6.5 -19.5z" />
    <glyph glyph-name="ograve" unicode="&#xf2;" horiz-adv-x="568" 
d="M117 225q0 -72 45 -122q48 -53 122 -53q75 0 123 53q44 49 44 122t-44 122q-48 53 -123 53q-74 0 -122 -53q-45 -50 -45 -122zM45 225q0 103 67 168q69 67 172 67t172 -67q68 -66 68 -168q0 -101 -68 -167q-68 -68 -172 -68t-172 68q-67 65 -67 167zM354 592
q0 -10 -7.5 -17t-18.5 -7q-16 0 -26 18l-81 134q-8 13 -8 22q0 11 9 19.5t21 8.5q17 0 28 -21l77 -138q6 -11 6 -19z" />
    <glyph glyph-name="oacute" unicode="&#xf3;" horiz-adv-x="568" 
d="M117 225q0 -72 45 -122q48 -53 122 -53q75 0 123 53q44 49 44 122t-44 122q-48 53 -123 53q-74 0 -122 -53q-45 -50 -45 -122zM45 225q0 103 67 168q69 67 172 67t172 -67q68 -66 68 -168q0 -101 -68 -167q-68 -68 -172 -68t-172 68q-67 65 -67 167zM213 592q0 8 6 19
l76 138q11 21 28 21q13 0 21.5 -8.5t8.5 -19.5q0 -9 -8 -22l-81 -134q-11 -18 -26 -18q-10 0 -17.5 7t-7.5 17z" />
    <glyph glyph-name="ocircumflex" unicode="&#xf4;" horiz-adv-x="568" 
d="M117 225q0 -72 45 -122q48 -53 122 -53q75 0 123 53q44 49 44 122t-44 122q-48 53 -123 53q-74 0 -122 -53q-45 -50 -45 -122zM45 225q0 103 67 168q69 67 172 67t172 -67q68 -66 68 -168q0 -101 -68 -167q-68 -68 -172 -68t-172 68q-67 65 -67 167zM283 769q12 0 24 -12
l123 -127q13 -15 13 -22q0 -12 -8 -19.5t-19 -7.5t-19 8l-114 117l-113 -117q-8 -8 -19 -8q-12 0 -19.5 7.5t-7.5 19.5q0 10 12 22l124 127q12 12 23 12z" />
    <glyph glyph-name="otilde" unicode="&#xf5;" horiz-adv-x="568" 
d="M117 225q0 -72 45 -122q48 -53 122 -53q75 0 123 53q44 49 44 122t-44 122q-48 53 -123 53q-74 0 -122 -53q-45 -50 -45 -122zM45 225q0 103 67 168q69 67 172 67t172 -67q68 -66 68 -168q0 -101 -68 -167q-68 -68 -172 -68t-172 68q-67 65 -67 167zM447 684
q0 -21 -21 -42q-26 -28 -70 -28q-37 0 -79 27q-3 2 -12 7.5t-12.5 8t-11 5.5t-13.5 4.5t-13 1.5q-23 0 -41.5 -22t-30.5 -22q-11 0 -18 7.5t-7 18.5q0 20 22 42q27 29 70 29q39 0 79 -26q4 -3 12.5 -8.5t12.5 -8t11 -6t13 -5t13 -1.5q22 0 41 22.5t31 22.5q11 0 17.5 -7.5
t6.5 -19.5z" />
    <glyph glyph-name="odieresis" unicode="&#xf6;" horiz-adv-x="568" 
d="M117 225q0 -72 45 -122q48 -53 122 -53q75 0 123 53q44 49 44 122t-44 122q-48 53 -123 53q-74 0 -122 -53q-45 -50 -45 -122zM45 225q0 103 67 168q69 67 172 67t172 -67q68 -66 68 -168q0 -101 -68 -167q-68 -68 -172 -68t-172 68q-67 65 -67 167zM189 623
q-18 0 -31 13t-13 32q0 18 13 30.5t31 12.5q19 0 31.5 -12.5t12.5 -30.5q0 -19 -12.5 -32t-31.5 -13zM377 623q-18 0 -31 13t-13 32q0 18 13 30.5t31 12.5t31 -12.5t13 -30.5q0 -19 -13 -32t-31 -13z" />
    <glyph glyph-name="divide" unicode="&#xf7;" horiz-adv-x="582" 
d="M291 613q19 0 32 -13t13 -32t-13 -32.5t-32 -13.5q-20 0 -33.5 13.5t-13.5 32.5t13.5 32t33.5 13zM547 353q0 -15 -10 -25t-24 -10h-445q-14 0 -23.5 10t-9.5 25q0 14 10 24t23 10h445q14 0 24 -10t10 -24zM245 137q0 20 13 33.5t33 13.5t33 -13.5t13 -33.5
q0 -19 -13.5 -32t-32.5 -13t-32.5 13t-13.5 32z" />
    <glyph glyph-name="oslash" unicode="&#xf8;" horiz-adv-x="576" 
d="M45 225q0 103 67 168q69 67 172 67q79 0 143 -43l31 36q6 7 15 7q19 0 19 -19q0 -8 -5 -13l-31 -36q68 -66 68 -167t-68 -167q-68 -68 -172 -68q-79 0 -139 40l-28 -33q-7 -7 -16 -7q-8 0 -13.5 5.5t-5.5 13.5q0 7 6 13l27 32q-70 70 -70 171zM117 225q0 -71 42 -119
l225 261q-42 33 -100 33q-74 0 -122 -53q-45 -50 -45 -122zM451 225q0 68 -39 116l-224 -261q43 -30 96 -30q75 0 123 53q44 49 44 122z" />
    <glyph glyph-name="ugrave" unicode="&#xf9;" horiz-adv-x="546" 
d="M65 191v234q0 15 10.5 25t26.5 10q15 0 25.5 -10t10.5 -25v-228q0 -54 19 -88q30 -54 116 -54t116 54q18 32 18 88v228q0 15 11 25t26 10t26 -10t11 -25v-234q0 -78 -34 -128q-48 -73 -174 -73q-125 0 -175 73q-33 51 -33 128zM343 592q0 -10 -7.5 -17t-18.5 -7
q-15 0 -26 18l-81 134q-8 13 -8 22q0 11 9 19.5t21 8.5q17 0 28 -21l77 -138q6 -11 6 -19z" />
    <glyph glyph-name="uacute" unicode="&#xfa;" horiz-adv-x="546" 
d="M65 191v234q0 15 10.5 25t26.5 10q15 0 25.5 -10t10.5 -25v-228q0 -54 19 -88q30 -54 116 -54t116 54q18 32 18 88v228q0 15 11 25t26 10t26 -10t11 -25v-234q0 -78 -34 -128q-48 -73 -174 -73q-125 0 -175 73q-33 51 -33 128zM202 592q0 8 6 19l76 138q10 21 28 21
q13 0 21.5 -8.5t8.5 -19.5q0 -9 -8 -22l-81 -134q-11 -18 -26 -18q-10 0 -17.5 7t-7.5 17z" />
    <glyph glyph-name="ucircumflex" unicode="&#xfb;" horiz-adv-x="546" 
d="M65 191v234q0 15 10.5 25t26.5 10q15 0 25.5 -10t10.5 -25v-228q0 -54 19 -88q30 -54 116 -54t116 54q18 32 18 88v228q0 15 11 25t26 10t26 -10t11 -25v-234q0 -78 -34 -128q-48 -73 -174 -73q-125 0 -175 73q-33 51 -33 128zM272 769q12 0 24 -12l123 -127
q13 -15 13 -22q0 -12 -8 -19.5t-19 -7.5t-19 8l-114 117l-113 -117q-8 -8 -19 -8q-12 0 -19.5 7.5t-7.5 19.5q0 10 12 22l124 127q12 12 23 12z" />
    <glyph glyph-name="udieresis" unicode="&#xfc;" horiz-adv-x="546" 
d="M65 191v234q0 15 10.5 25t26.5 10q15 0 25.5 -10t10.5 -25v-228q0 -54 19 -88q30 -54 116 -54t116 54q18 32 18 88v228q0 15 11 25t26 10t26 -10t11 -25v-234q0 -78 -34 -128q-48 -73 -174 -73q-125 0 -175 73q-33 51 -33 128zM179 623q-18 0 -31 13t-13 32q0 18 13 30.5
t31 12.5q19 0 31.5 -12.5t12.5 -30.5q0 -19 -12.5 -32t-31.5 -13zM367 623q-18 0 -31 13t-13 32q0 18 13 30.5t31 12.5t31 -12.5t13 -30.5q0 -19 -13 -32t-31 -13z" />
    <glyph glyph-name="yacute" unicode="&#xfd;" horiz-adv-x="460" 
d="M414 461q16 0 27.5 -11.5t11.5 -27.5q0 -12 -8 -32l-163 -414q-81 -207 -225 -207q-15 0 -25.5 10.5t-10.5 24.5q0 15 10 25.5t26 10.5q50 0 83.5 33t62.5 100l-187 420q-9 21 -9 28q0 17 11.5 28.5t28.5 11.5q29 0 38 -26l154 -368l136 361q13 33 39 33zM160 592
q0 8 6 19l76 138q10 21 28 21q13 0 21.5 -8.5t8.5 -19.5q0 -9 -8 -22l-81 -134q-11 -18 -26 -18q-10 0 -17.5 7t-7.5 17z" />
    <glyph glyph-name="thorn" unicode="&#xfe;" horiz-adv-x="525" 
d="M72 654q0 15 11 25.5t26 10.5t26 -10.5t11 -25.5v-199q35 5 71 5q125 0 194 -65q69 -63 69 -169q0 -104 -56 -165q-67 -71 -173 -71q-62 0 -105 20v-209q0 -15 -11 -25t-26 -10t-26 10t-11 25v853zM146 395v-324q42 -21 98 -21q72 0 118 46q45 45 45 130q0 80 -48 126
q-49 49 -135 49q-44 0 -78 -6z" />
    <glyph glyph-name="ydieresis" unicode="&#xff;" horiz-adv-x="460" 
d="M414 461q16 0 27.5 -11.5t11.5 -27.5q0 -12 -8 -32l-163 -414q-81 -207 -225 -207q-15 0 -25.5 10.5t-10.5 24.5q0 15 10 25.5t26 10.5q50 0 83.5 33t62.5 100l-187 420q-9 21 -9 28q0 17 11.5 28.5t28.5 11.5q29 0 38 -26l154 -368l136 361q13 33 39 33zM136 623
q-18 0 -31 13t-13 32q0 18 13 30.5t31 12.5q19 0 31.5 -12.5t12.5 -30.5q0 -19 -12.5 -32t-31.5 -13zM324 623q-18 0 -31 13t-13 32q0 18 13 30.5t31 12.5t31 -12.5t13 -30.5q0 -19 -13 -32t-31 -13z" />
    <glyph glyph-name="Amacron" unicode="&#x100;" horiz-adv-x="691" 
d="M345 616q-85 0 -138 -59q-54 -59 -54 -162v-87h385v87q0 101 -55 162q-54 59 -138 59zM618 397v-368q0 -16 -12 -27.5t-28 -11.5q-17 0 -28.5 11.5t-11.5 27.5v208h-385v-208q0 -16 -12 -27.5t-28 -11.5t-28 11.5t-12 27.5v368q0 134 84 219q74 74 188 74q117 0 189 -74
q84 -87 84 -219zM478 881q0 -13 -8.5 -21.5t-21.5 -8.5h-206q-12 0 -21 8.5t-9 21.5q0 12 9 21t21 9h206q13 0 21.5 -9t8.5 -21z" />
    <glyph glyph-name="amacron" unicode="&#x101;" horiz-adv-x="476" 
d="M43 123q0 83 92 118q56 22 202 33v14q0 57 -23 84q-25 29 -81 29q-46 0 -90 -17q-10 -4 -21 -9.5t-17.5 -8t-11.5 -2.5q-12 0 -20 8.5t-8 20.5q0 22 49 43q56 24 127 24q90 0 132 -48q38 -45 38 -123v-264q0 -14 -11 -24.5t-26 -10.5q-14 0 -25 9.5t-12 22.5
q-61 -32 -132 -32q-66 0 -114 34.5t-48 98.5zM226 48q55 0 111 29v141q-100 -4 -149 -18q-76 -19 -76 -73q0 -39 33.5 -59t80.5 -20zM365 658q0 -13 -8.5 -21.5t-21.5 -8.5h-206q-12 0 -21 8.5t-9 21.5q0 12 9 21t21 9h206q13 0 21.5 -9t8.5 -21z" />
    <glyph glyph-name="Abreve" unicode="&#x102;" horiz-adv-x="691" 
d="M345 616q-85 0 -138 -59q-54 -59 -54 -162v-87h385v87q0 101 -55 162q-54 59 -138 59zM618 397v-368q0 -16 -12 -27.5t-28 -11.5q-17 0 -28.5 11.5t-11.5 27.5v208h-385v-208q0 -16 -12 -27.5t-28 -11.5t-28 11.5t-12 27.5v368q0 134 84 219q74 74 188 74q117 0 189 -74
q84 -87 84 -219zM345 879q24 0 43.5 13t29.5 29t21.5 29t22.5 13t19.5 -7.5t8.5 -18.5q0 -18 -30 -54q-47 -58 -115 -58t-115 58q-30 36 -30 54q0 11 8.5 18.5t19.5 7.5t22.5 -13t21.5 -29t29.5 -29t43.5 -13z" />
    <glyph glyph-name="abreve" unicode="&#x103;" horiz-adv-x="476" 
d="M43 123q0 83 92 118q56 22 202 33v14q0 57 -23 84q-25 29 -81 29q-46 0 -90 -17q-10 -4 -21 -9.5t-17.5 -8t-11.5 -2.5q-12 0 -20 8.5t-8 20.5q0 22 49 43q56 24 127 24q90 0 132 -48q38 -45 38 -123v-264q0 -14 -11 -24.5t-26 -10.5q-14 0 -25 9.5t-12 22.5
q-61 -32 -132 -32q-66 0 -114 34.5t-48 98.5zM226 48q55 0 111 29v141q-100 -4 -149 -18q-76 -19 -76 -73q0 -39 33.5 -59t80.5 -20zM238 640q24 0 43.5 13t29.5 29t21.5 29t22.5 13t19.5 -7.5t8.5 -18.5q0 -18 -30 -54q-47 -58 -115 -58t-115 58q-30 36 -30 54
q0 11 8.5 18.5t19.5 7.5t22.5 -13t21.5 -29t29.5 -29t43.5 -13z" />
    <glyph glyph-name="Aogonek" unicode="&#x104;" horiz-adv-x="691" 
d="M618 397v-368q0 -16 -12 -27.5t-28 -11.5q-10 0 -17 3q-19 -47 -19 -80q0 -58 74 -58q15 0 30.5 3.5t18.5 3.5q22 0 22 -22q0 -21 -23 -28q-25 -9 -53 -9q-118 0 -118 93q0 54 45 137v204h-385v-208q0 -16 -12 -27.5t-28 -11.5t-28 11.5t-12 27.5v368q0 134 84 219
q74 74 188 74q117 0 189 -74q84 -87 84 -219zM345 616q-85 0 -138 -59q-54 -59 -54 -162v-87h385v87q0 101 -55 162q-54 59 -138 59z" />
    <glyph glyph-name="aogonek" unicode="&#x105;" horiz-adv-x="476" 
d="M241 460q90 0 132 -48q38 -45 38 -123v-264q0 -14 -10.5 -24t-25.5 -11q-17 -43 -17 -77q0 -58 74 -58q15 0 30.5 3.5t18.5 3.5q22 0 22 -22q0 -21 -23 -28q-25 -9 -53 -9q-118 0 -118 93q0 44 32 113q-4 8 -4 13q-61 -32 -132 -32q-66 0 -114 34.5t-48 98.5q0 83 92 118
q56 22 202 33v14q0 57 -23 84q-25 29 -81 29q-46 0 -90 -17q-10 -4 -21 -9.5t-17.5 -8t-11.5 -2.5q-12 0 -20 8.5t-8 20.5q0 22 49 43q56 24 127 24zM226 48q55 0 111 29v141q-100 -4 -149 -18q-76 -19 -76 -73q0 -39 33.5 -59t80.5 -20z" />
    <glyph glyph-name="Cacute" unicode="&#x106;" horiz-adv-x="659" 
d="M618 607q0 -16 -10.5 -26.5t-26.5 -10.5q-7 0 -16.5 5t-25.5 13t-32 14q-46 16 -105 16q-111 0 -191.5 -81.5t-80.5 -195.5q0 -122 79.5 -200.5t192.5 -78.5q57 0 106 17q18 6 35 14.5t26.5 13.5t16.5 5q15 0 26 -10.5t11 -26.5q0 -27 -49 -50q-75 -35 -171 -35
q-151 0 -253.5 97.5t-102.5 253.5q0 143 105.5 246t250.5 103q94 0 167 -33q48 -20 48 -50zM315 794q0 8 6 19l76 138q11 21 28 21q13 0 21.5 -8.5t8.5 -19.5q0 -9 -8 -22l-81 -134q-11 -18 -26 -18q-10 0 -17.5 7t-7.5 17z" />
    <glyph glyph-name="cacute" unicode="&#x107;" horiz-adv-x="471" 
d="M434 397q0 -12 -8.5 -20.5t-21.5 -8.5q-6 0 -35 13q-37 17 -80 17q-80 0 -130 -58q-40 -46 -40 -114q0 -78 46 -127q46 -48 125 -48q49 0 82 14q7 3 14 7t11.5 5.5t9.5 1.5q12 0 20.5 -9t8.5 -21q0 -23 -42 -40q-49 -19 -106 -19q-116 0 -181 68q-62 65 -62 168
q0 88 51 149q71 85 193 85q63 0 111 -24q34 -16 34 -39zM205 592q0 8 6 19l76 138q11 21 28 21q13 0 21.5 -8.5t8.5 -19.5q0 -9 -8 -22l-81 -134q-11 -18 -26 -18q-10 0 -17.5 7t-7.5 17z" />
    <glyph glyph-name="Ccaron" unicode="&#x10c;" horiz-adv-x="659" 
d="M618 607q0 -16 -10.5 -26.5t-26.5 -10.5q-7 0 -16.5 5t-25.5 13t-32 14q-46 16 -105 16q-111 0 -191.5 -81.5t-80.5 -195.5q0 -122 79.5 -200.5t192.5 -78.5q57 0 106 17q18 6 35 14.5t26.5 13.5t16.5 5q15 0 26 -10.5t11 -26.5q0 -27 -49 -50q-75 -35 -171 -35
q-151 0 -253.5 97.5t-102.5 253.5q0 143 105.5 246t250.5 103q94 0 167 -33q48 -20 48 -50zM230 944q0 12 8 19.5t19 7.5q13 0 22 -11l110 -114l111 114q9 11 22 11q11 0 19 -7.5t8 -19.5q0 -10 -13 -23l-123 -127q-11 -11 -24 -11q-12 0 -23 11l-124 127q-12 12 -12 23z
" />
    <glyph glyph-name="ccaron" unicode="&#x10d;" horiz-adv-x="471" 
d="M434 397q0 -12 -8.5 -20.5t-21.5 -8.5q-6 0 -35 13q-37 17 -80 17q-80 0 -130 -58q-40 -46 -40 -114q0 -78 46 -127q46 -48 125 -48q49 0 82 14q7 3 14 7t11.5 5.5t9.5 1.5q12 0 20.5 -9t8.5 -21q0 -23 -42 -40q-49 -19 -106 -19q-116 0 -181 68q-62 65 -62 168
q0 88 51 149q71 85 193 85q63 0 111 -24q34 -16 34 -39zM104 742q0 12 8 19.5t19 7.5q13 0 22 -11l110 -114l111 114q9 11 22 11q11 0 19 -7.5t8 -19.5q0 -10 -13 -23l-123 -127q-11 -11 -24 -11q-12 0 -23 11l-124 127q-12 12 -12 23z" />
    <glyph glyph-name="Dcaron" unicode="&#x10e;" horiz-adv-x="738" 
d="M691 340q0 -179 -127 -271q-95 -69 -251 -69h-198q-17 0 -28.5 11.5t-11.5 27.5v603q0 16 11.5 27.5t28.5 11.5h213q188 0 284 -107q79 -87 79 -234zM155 613v-545h150q122 0 199 54q105 75 105 218q0 116 -64 188q-78 85 -230 85h-160zM205 944q0 12 8 19.5t19 7.5
q13 0 22 -11l110 -114l111 114q9 11 22 11q11 0 19 -7.5t8 -19.5q0 -10 -13 -23l-123 -127q-11 -11 -24 -11q-12 0 -23 11l-124 127q-12 12 -12 23z" />
    <glyph glyph-name="dcaron" unicode="&#x10f;" horiz-adv-x="631" 
d="M311 61h65v319q-49 18 -98 18q-84 0 -128 -65q-30 -43 -30 -108q0 -70 40 -112q51 -52 151 -52zM408 0h-104q-131 0 -200 69q-59 59 -59 155q0 90 46 151q63 86 183 86q48 0 102 -18v211q0 15 10.5 25.5t26.5 10.5q15 0 25.5 -10.5t10.5 -25.5v-615q0 -19 -12 -29
t-29 -10zM522 530q0 9 17 24t17 31q0 11 -18 25t-18 36q0 19 12 31.5t35 12.5q27 0 41.5 -18t14.5 -49q0 -43 -30.5 -75t-55.5 -32q-15 0 -15 14z" />
    <glyph glyph-name="Dcroat" unicode="&#x110;" horiz-adv-x="743" 
d="M303 306h-143v-238h150q114 0 186 42q118 66 118 230q0 117 -63 188q-75 85 -231 85h-160v-239h143q13 0 23 -10t10 -24t-9.5 -24t-23.5 -10zM80 39v267h-69q-14 0 -23.5 10t-9.5 24t10 24t23 10h69v268q0 16 11.5 27.5t28.5 11.5h213q188 0 284 -107q79 -89 79 -234
q0 -178 -127 -270q-96 -70 -251 -70h-198q-17 0 -28.5 11.5t-11.5 27.5z" />
    <glyph glyph-name="dcroat" unicode="&#x111;" horiz-adv-x="522" 
d="M531 518h-82v-479q0 -19 -12 -29t-29 -10h-104q-131 0 -200 69q-59 59 -59 155q0 90 46 151q63 86 183 86q48 0 102 -18v75h-88q-14 0 -24 10.5t-10 24.5t10 24t24 10h88v67q0 15 10.5 25.5t26.5 10.5q15 0 25.5 -10.5t10.5 -25.5v-67h82q14 0 24 -10t10 -24t-10 -24.5
t-24 -10.5zM311 61h65v319q-49 18 -98 18q-84 0 -128 -65q-30 -43 -30 -108q0 -70 40 -112q51 -52 151 -52z" />
    <glyph glyph-name="Emacron" unicode="&#x112;" horiz-adv-x="602" 
d="M155 306v-235h381q14 0 24 -10.5t10 -25.5q0 -14 -10 -24.5t-24 -10.5h-421q-17 0 -28.5 11.5t-11.5 27.5v603q0 16 11.5 27.5t28.5 11.5h421q14 0 24 -10.5t10 -24.5q0 -15 -10 -25.5t-24 -10.5h-381v-233h329q15 0 25 -10.5t10 -25.5q0 -14 -10 -24.5t-25 -10.5h-329z
M444 881q0 -13 -8.5 -21.5t-21.5 -8.5h-206q-12 0 -21 8.5t-9 21.5q0 12 9 21t21 9h206q13 0 21.5 -9t8.5 -21z" />
    <glyph glyph-name="emacron" unicode="&#x113;" horiz-adv-x="524" 
d="M393 658q0 -13 -8.5 -21.5t-20.5 -8.5h-207q-12 0 -20.5 8.5t-8.5 21.5q0 12 8.5 21t20.5 9h207q12 0 20.5 -9t8.5 -21zM435 92q12 0 20 -9t8 -21q0 -19 -37 -39q-63 -33 -143 -33q-113 0 -179 74q-59 64 -59 167q0 98 60 163q61 66 165 66q99 0 157 -63q55 -58 55 -147
q0 -19 -10.5 -32t-28.5 -13h-322q6 -61 39 -100q47 -55 126 -55q62 0 108 24q34 18 41 18zM121 258h290q-3 62 -37 99q-40 44 -104 44q-72 0 -113 -48q-31 -35 -36 -95z" />
    <glyph glyph-name="Edotaccent" unicode="&#x116;" horiz-adv-x="602" 
d="M155 306v-235h381q14 0 24 -10.5t10 -25.5q0 -14 -10 -24.5t-24 -10.5h-421q-17 0 -28.5 11.5t-11.5 27.5v603q0 16 11.5 27.5t28.5 11.5h421q14 0 24 -10.5t10 -24.5q0 -15 -10 -25.5t-24 -10.5h-381v-233h329q15 0 25 -10.5t10 -25.5q0 -14 -10 -24.5t-25 -10.5h-329z
M319 831q-18 0 -31 12.5t-13 31.5q0 18 13 30.5t31 12.5t31 -12.5t13 -30.5q0 -19 -13 -31.5t-31 -12.5z" />
    <glyph glyph-name="edotaccent" unicode="&#x117;" horiz-adv-x="524" 
d="M435 92q12 0 20 -9t8 -21q0 -19 -37 -39q-63 -33 -143 -33q-113 0 -179 74q-59 64 -59 167q0 98 60 163q61 66 165 66q99 0 157 -63q55 -58 55 -147q0 -19 -10.5 -32t-28.5 -13h-322q6 -61 39 -100q47 -55 126 -55q62 0 108 24q34 18 41 18zM121 258h290q-3 62 -37 99
q-40 44 -104 44q-72 0 -113 -48q-31 -35 -36 -95zM260 624q-18 0 -31 12.5t-13 31.5q0 18 13 30.5t31 12.5t31 -12.5t13 -30.5q0 -19 -13 -31.5t-31 -12.5z" />
    <glyph glyph-name="Eogonek" unicode="&#x118;" horiz-adv-x="602" 
d="M155 306v-235h381q14 0 24 -10.5t10 -25.5q0 -14 -10 -24.5t-24 -10.5h-87q-24 -51 -24 -87q0 -25 15 -41.5t60 -16.5q14 0 29.5 3.5t19.5 3.5q21 0 21 -22q0 -21 -22 -28q-27 -9 -54 -9q-118 0 -118 93q0 41 30 104h-291q-17 0 -28.5 11.5t-11.5 27.5v603
q0 16 11.5 27.5t28.5 11.5h421q14 0 24 -10.5t10 -24.5q0 -15 -10 -25.5t-24 -10.5h-381v-233h329q15 0 25 -10.5t10 -25.5q0 -14 -10 -24.5t-25 -10.5h-329z" />
    <glyph glyph-name="eogonek" unicode="&#x119;" horiz-adv-x="524" 
d="M435 92q12 0 20 -9t8 -21q0 -19 -37 -39q-31 -16 -69 -25q-21 -48 -21 -85q0 -25 15 -41.5t60 -16.5q14 0 29.5 3.5t19.5 3.5q21 0 21 -22q0 -21 -22 -28q-27 -9 -54 -9q-118 0 -118 93q0 38 25 95q-10 -1 -29 -1q-113 0 -179 74q-59 64 -59 167q0 98 60 163
q61 66 165 66q99 0 157 -63q55 -58 55 -147q0 -19 -10.5 -32t-28.5 -13h-322q6 -61 39 -100q47 -55 126 -55q62 0 108 24q34 18 41 18zM121 258h290q-3 62 -37 99q-40 44 -104 44q-72 0 -113 -48q-31 -35 -36 -95z" />
    <glyph glyph-name="Ecaron" unicode="&#x11a;" horiz-adv-x="602" 
d="M155 306v-235h381q14 0 24 -10.5t10 -25.5q0 -14 -10 -24.5t-24 -10.5h-421q-17 0 -28.5 11.5t-11.5 27.5v603q0 16 11.5 27.5t28.5 11.5h421q14 0 24 -10.5t10 -24.5q0 -15 -10 -25.5t-24 -10.5h-381v-233h329q15 0 25 -10.5t10 -25.5q0 -14 -10 -24.5t-25 -10.5h-329z
M165 944q0 12 8 19.5t19 7.5q13 0 22 -11l110 -114l111 114q9 11 22 11q11 0 19 -7.5t8 -19.5q0 -10 -13 -23l-123 -127q-11 -11 -24 -11q-12 0 -23 11l-124 127q-12 12 -12 23z" />
    <glyph glyph-name="ecaron" unicode="&#x11b;" horiz-adv-x="524" 
d="M435 92q12 0 20 -9t8 -21q0 -19 -37 -39q-63 -33 -143 -33q-113 0 -179 74q-59 64 -59 167q0 98 60 163q61 66 165 66q99 0 157 -63q55 -58 55 -147q0 -19 -10.5 -32t-28.5 -13h-322q6 -61 39 -100q47 -55 126 -55q62 0 108 24q34 18 41 18zM121 258h290q-3 62 -37 99
q-40 44 -104 44q-72 0 -113 -48q-31 -35 -36 -95zM105 742q0 12 8 19.5t19 7.5q13 0 22 -11l110 -114l111 114q9 11 22 11q11 0 19 -7.5t8 -19.5q0 -10 -13 -23l-123 -127q-11 -11 -24 -11q-12 0 -23 11l-124 127q-12 12 -12 23z" />
    <glyph glyph-name="Gbreve" unicode="&#x11e;" horiz-adv-x="742" 
d="M407 338h225q37 0 37 -39v-270q0 -17 -10.5 -28t-28.5 -11t-28.5 11t-10.5 28v16q-82 -55 -193 -55q-151 0 -251 93.5t-100 257.5q0 144 104.5 246.5t250.5 102.5q87 0 167 -33q49 -20 49 -50q0 -16 -11 -26.5t-26 -10.5q-9 0 -18.5 4.5t-27 13t-37.5 15.5q-43 15 -97 15
q-112 0 -191.5 -82t-79.5 -195q0 -126 77.5 -203t193.5 -77q108 0 190 60v146h-184q-14 0 -24 10.5t-10 25.5q0 14 10 24.5t24 10.5zM370 857q24 0 43.5 13t29.5 29t21.5 29t22.5 13t19.5 -7.5t8.5 -18.5q0 -18 -30 -54q-47 -58 -115 -58t-115 58q-30 36 -30 54
q0 11 8.5 18.5t19.5 7.5t22.5 -13t21.5 -29t29.5 -29t43.5 -13z" />
    <glyph glyph-name="gbreve" unicode="&#x11f;" horiz-adv-x="531" 
d="M74 -147q0 13 8.5 23t22.5 10q6 0 11.5 -2t9.5 -5t12.5 -10t15.5 -12q41 -29 95 -29q71 0 104 38q32 36 32 107v61q-54 -43 -135 -43q-91 0 -146 62q-59 67 -59 174q0 106 58 171q54 62 146 62q74 0 136 -44v9q0 15 10.5 25t26.5 10q15 0 25.5 -10t10.5 -25v-441
q0 -108 -56 -164q-54 -52 -152 -52q-70 0 -126 30q-50 27 -50 55zM257 52q72 0 128 48v248q-64 52 -127 52q-64 0 -100 -46q-39 -48 -39 -127q0 -83 38 -130q37 -45 100 -45zM264 640q24 0 43.5 13t29.5 29t21.5 29t22.5 13t19.5 -7.5t8.5 -18.5q0 -18 -30 -54
q-47 -58 -115 -58t-115 58q-30 36 -30 54q0 11 8.5 18.5t19.5 7.5t22.5 -13t21.5 -29t29.5 -29t43.5 -13z" />
    <glyph glyph-name="Gcommaaccent" unicode="&#x122;" horiz-adv-x="742" 
d="M407 338h225q37 0 37 -39v-270q0 -17 -10.5 -28t-28.5 -11t-28.5 11t-10.5 28v16q-82 -55 -193 -55q-151 0 -251 93.5t-100 257.5q0 144 104.5 246.5t250.5 102.5q87 0 167 -33q49 -20 49 -50q0 -16 -11 -26.5t-26 -10.5q-9 0 -18.5 4.5t-27 13t-37.5 15.5q-43 15 -97 15
q-112 0 -191.5 -82t-79.5 -195q0 -126 77.5 -203t193.5 -77q108 0 190 60v146h-184q-14 0 -24 10.5t-10 25.5q0 14 10 24.5t24 10.5zM350 -221q0 9 17 24t17 31q0 11 -18 25t-18 36q0 19 12 31.5t35 12.5q27 0 41.5 -18t14.5 -49q0 -43 -30.5 -75t-55.5 -32q-15 0 -15 14z
" />
    <glyph glyph-name="gcommaaccent" unicode="&#x123;" horiz-adv-x="531" 
d="M74 -147q0 13 8.5 23t22.5 10q6 0 11.5 -2t9.5 -5t12.5 -10t15.5 -12q41 -29 95 -29q71 0 104 38q32 36 32 107v61q-54 -43 -135 -43q-91 0 -146 62q-59 67 -59 174q0 106 58 171q54 62 146 62q74 0 136 -44v9q0 15 10.5 25t26.5 10q15 0 25.5 -10t10.5 -25v-441
q0 -108 -56 -164q-54 -52 -152 -52q-70 0 -126 30q-50 27 -50 55zM257 52q72 0 128 48v248q-64 52 -127 52q-64 0 -100 -46q-39 -48 -39 -127q0 -83 38 -130q37 -45 100 -45zM313 718q0 -10 -17 -25t-17 -30q0 -11 18 -25.5t18 -35.5q0 -19 -12.5 -32t-35.5 -13
q-26 0 -41 18.5t-15 48.5q0 44 31 76t56 32q15 0 15 -14z" />
    <glyph glyph-name="Imacron" unicode="&#x12a;" horiz-adv-x="230" 
d="M75 29v622q0 16 12 27.5t28 11.5t28 -11.5t12 -27.5v-622q0 -16 -12 -27.5t-28 -11.5t-28 11.5t-12 27.5zM249 881q0 -13 -8.5 -21.5t-21.5 -8.5h-206q-12 0 -21 8.5t-9 21.5q0 12 9 21t21 9h206q13 0 21.5 -9t8.5 -21z" />
    <glyph glyph-name="imacron" unicode="&#x12b;" horiz-adv-x="218" 
d="M72 425q0 15 11 25t26 10t26 -10t11 -25v-400q0 -14 -11 -24.5t-26 -10.5t-26 10.5t-11 24.5v400zM242 658q0 -13 -8.5 -21.5t-20.5 -8.5h-207q-12 0 -21 8.5t-9 21.5q0 12 9 21t21 9h207q12 0 20.5 -9t8.5 -21z" />
    <glyph glyph-name="Iogonek" unicode="&#x12e;" horiz-adv-x="230" 
d="M29 -104q0 46 46 138v617q0 16 12 27.5t28 11.5t28 -11.5t12 -27.5v-622q0 -16 -12 -27.5t-28 -11.5q-10 0 -17 4q-20 -46 -20 -81q0 -25 15 -41.5t60 -16.5q14 0 29.5 3.5t19.5 3.5q21 0 21 -22q0 -21 -22 -28q-27 -9 -54 -9q-118 0 -118 93z" />
    <glyph glyph-name="iogonek" unicode="&#x12f;" horiz-adv-x="218" 
d="M72 425q0 15 11 25t26 10t26 -10t11 -25v-400q0 -14 -11 -24.5t-26 -10.5l-9 1q-18 -42 -18 -78q0 -58 74 -58q15 0 30 3.5t19 3.5q22 0 22 -22q0 -21 -23 -28q-25 -9 -53 -9q-119 0 -119 93q0 47 40 127v2v400zM108 623q-18 0 -31 13t-13 31t13 31t31 13t31 -13t13 -31
t-13 -31t-31 -13z" />
    <glyph glyph-name="Idotaccent" unicode="&#x130;" horiz-adv-x="230" 
d="M123 760q-16 0 -27 11t-11 27t11 27t27 11q15 0 26.5 -11t11.5 -27t-11.5 -27t-26.5 -11zM159 665v-644q0 -11 -8 -23.5t-27 -12.5q-14 0 -22 8t-10 15t-2 13v644q0 10 7.5 20t26.5 10q18 0 26.5 -10.5t8.5 -19.5z" />
    <glyph glyph-name="dotlessi" unicode="&#x131;" horiz-adv-x="218" 
d="M72 425q0 15 11 25t26 10t26 -10t11 -25v-400q0 -14 -11 -24.5t-26 -10.5t-26 10.5t-11 24.5v400z" />
    <glyph glyph-name="Kcommaaccent" unicode="&#x136;" horiz-adv-x="593" 
d="M531 625l-246 -242l275 -331q7 -10 7 -22q0 -16 -11 -28t-28 -12q-21 0 -37 21l-260 316l-76 -74v-224q0 -16 -12 -27.5t-28 -11.5t-28 11.5t-12 27.5v622q0 16 12 27.5t28 11.5t28 -11.5t12 -27.5v-297l320 323q13 13 30 13q15 0 26 -11.5t11 -27.5q0 -15 -11 -26z
M258 -221q0 9 17 24t17 31q0 11 -18 25t-18 36q0 19 12 31.5t35 12.5q27 0 41.5 -18t14.5 -49q0 -43 -30.5 -75t-55.5 -32q-15 0 -15 14z" />
    <glyph glyph-name="kcommaaccent" unicode="&#x137;" horiz-adv-x="469" 
d="M426 403l-162 -148l175 -205q10 -12 10 -25q0 -15 -10.5 -25t-25.5 -10q-16 0 -30 17l-170 203l-65 -60v-125q0 -14 -11 -24.5t-26 -10.5t-26 10.5t-11 24.5v628q0 15 11 25.5t26 10.5t26 -10.5t11 -25.5v-419l231 216q12 10 23 10q15 0 24.5 -10t9.5 -23q0 -15 -10 -24z
M201 -221q0 9 17 24t17 31q0 11 -18 25t-18 36q0 19 12 31.5t35 12.5q27 0 41.5 -18t14.5 -49q0 -43 -30.5 -75t-55.5 -32q-15 0 -15 14z" />
    <glyph glyph-name="Lacute" unicode="&#x139;" horiz-adv-x="533" 
d="M75 39v612q0 16 11.5 27.5t28.5 11.5q16 0 28 -11.5t12 -27.5v-580h326q14 0 24 -10.5t10 -25.5q0 -14 -10 -24.5t-24 -10.5h-366q-17 0 -28.5 11.5t-11.5 27.5zM82 794q0 8 6 19l76 138q10 21 28 21q13 0 21.5 -8.5t8.5 -19.5q0 -9 -8 -22l-81 -134q-11 -18 -26 -18
q-10 0 -17.5 7t-7.5 17z" />
    <glyph glyph-name="lacute" unicode="&#x13a;" horiz-adv-x="223" 
d="M74 25v629q0 15 11 25.5t26 10.5t26 -10.5t11 -25.5v-629q0 -14 -11 -24.5t-26 -10.5t-26 10.5t-11 24.5zM42 792q0 8 6 19l76 138q10 21 28 21q13 0 21.5 -8.5t8.5 -19.5q0 -9 -8 -22l-81 -134q-11 -18 -26 -18q-10 0 -17.5 7t-7.5 17z" />
    <glyph glyph-name="Lcommaaccent" unicode="&#x13b;" horiz-adv-x="533" 
d="M75 39v612q0 16 11.5 27.5t28.5 11.5q16 0 28 -11.5t12 -27.5v-580h326q14 0 24 -10.5t10 -25.5q0 -14 -10 -24.5t-24 -10.5h-366q-17 0 -28.5 11.5t-11.5 27.5zM245 -221q0 9 17 24t17 31q0 11 -18 25t-18 36q0 19 12 31.5t35 12.5q27 0 41.5 -18t14.5 -49
q0 -43 -30.5 -75t-55.5 -32q-15 0 -15 14z" />
    <glyph glyph-name="lcommaaccent" unicode="&#x13c;" horiz-adv-x="223" 
d="M74 25v629q0 15 11 25.5t26 10.5t26 -10.5t11 -25.5v-629q0 -14 -11 -24.5t-26 -10.5t-26 10.5t-11 24.5zM62 -221q0 9 17 24t17 31q0 11 -18 25t-18 36q0 19 12 31.5t35 12.5q27 0 41.5 -18t14.5 -49q0 -43 -30.5 -75t-55.5 -32q-15 0 -15 14z" />
    <glyph glyph-name="Lcaron" unicode="&#x13d;" horiz-adv-x="533" 
d="M75 39v612q0 16 11.5 27.5t28.5 11.5q16 0 28 -11.5t12 -27.5v-580h326q14 0 24 -10.5t10 -25.5q0 -14 -10 -24.5t-24 -10.5h-366q-17 0 -28.5 11.5t-11.5 27.5zM289 530q0 9 17 24t17 31q0 11 -18 25t-18 36q0 19 12 31.5t35 12.5q27 0 41.5 -18t14.5 -49
q0 -43 -30.5 -75t-55.5 -32q-15 0 -15 14z" />
    <glyph glyph-name="lcaron" unicode="&#x13e;" horiz-adv-x="316" 
d="M74 25v629q0 15 11 25.5t26 10.5t26 -10.5t11 -25.5v-629q0 -14 -11 -24.5t-26 -10.5t-26 10.5t-11 24.5zM207 530q0 9 17 24t17 31q0 11 -18 25t-18 36q0 19 12 31.5t35 12.5q27 0 41.5 -18t14.5 -49q0 -43 -30.5 -75t-55.5 -32q-15 0 -15 14z" />
    <glyph glyph-name="Lslash" unicode="&#x141;" horiz-adv-x="543" 
d="M81 39v216l-60 -39q-12 -6 -21 -6q-13 0 -22 9t-9 22q0 18 16 28l96 61v322q0 16 11.5 27t28.5 11t28.5 -11t11.5 -27v-271l87 56q8 6 20 6q14 0 22.5 -8.5t8.5 -22.5q0 -18 -16 -28l-122 -78v-236h327q14 0 24 -10.5t10 -24.5q0 -15 -10 -25t-24 -10h-367
q-16 0 -28 11.5t-12 27.5z" />
    <glyph glyph-name="lslash" unicode="&#x142;" horiz-adv-x="223" 
d="M-30 276l105 67v311q0 15 10.5 25.5t25.5 10.5q16 0 26.5 -10.5t10.5 -25.5v-264l88 57q11 7 24.5 4.5t20.5 -12.5q7 -12 4.5 -24.5t-13.5 -19.5l-124 -80v-290q0 -14 -11 -24.5t-26 -10.5t-25.5 10.5t-10.5 24.5v244l-70 -45q-10 -8 -23 -5t-20 14t-4.5 24t12.5 19z" />
    <glyph glyph-name="Nacute" unicode="&#x143;" horiz-adv-x="740" 
d="M665 653v-620q0 -18 -13.5 -30.5t-32.5 -12.5q-21 0 -40 22l-427 538v-524q0 -15 -11.5 -25.5t-27.5 -10.5t-27 10.5t-11 25.5v621q0 17 13 30t32 13q23 0 40 -22l428 -538v523q0 15 11.5 26t27.5 11t27 -11t11 -26zM300 794q0 8 6 19l76 138q10 21 28 21q13 0 21.5 -8.5
t8.5 -19.5q0 -9 -8 -22l-81 -134q-11 -18 -26 -18q-10 0 -17.5 7t-7.5 17z" />
    <glyph glyph-name="nacute" unicode="&#x144;" horiz-adv-x="553" 
d="M72 25v399q0 15 11 25.5t26 10.5t26 -10.5t11 -25.5v-49q45 85 158 85q84 0 131 -41q54 -48 54 -151v-243q0 -14 -11 -24.5t-26 -10.5t-25.5 10.5t-10.5 24.5v227q0 81 -37 115q-31 29 -89 29q-80 0 -118 -69q-26 -49 -26 -119v-183q0 -14 -11 -24.5t-26 -10.5t-26 10.5
t-11 24.5zM207 592q0 8 6 19l76 138q11 21 28 21q13 0 21.5 -8.5t8.5 -19.5q0 -9 -8 -22l-81 -134q-11 -18 -26 -18q-10 0 -17.5 7t-7.5 17z" />
    <glyph glyph-name="Ncommaaccent" unicode="&#x145;" horiz-adv-x="740" 
d="M665 653v-620q0 -18 -13.5 -30.5t-32.5 -12.5q-21 0 -40 22l-427 538v-524q0 -15 -11.5 -25.5t-27.5 -10.5t-27 10.5t-11 25.5v621q0 17 13 30t32 13q23 0 40 -22l428 -538v523q0 15 11.5 26t27.5 11t27 -11t11 -26zM322 -221q0 9 17 24t17 31q0 11 -18 25t-18 36
q0 19 12 31.5t35 12.5q27 0 41.5 -18t14.5 -49q0 -43 -30.5 -75t-55.5 -32q-15 0 -15 14z" />
    <glyph glyph-name="ncommaaccent" unicode="&#x146;" horiz-adv-x="553" 
d="M72 25v399q0 15 11 25.5t26 10.5t26 -10.5t11 -25.5v-49q45 85 158 85q84 0 131 -41q54 -48 54 -151v-243q0 -14 -11 -24.5t-26 -10.5t-25.5 10.5t-10.5 24.5v227q0 81 -37 115q-31 29 -89 29q-80 0 -118 -69q-26 -49 -26 -119v-183q0 -14 -11 -24.5t-26 -10.5t-26 10.5
t-11 24.5zM225 -221q0 9 17 24t17 31q0 11 -18 25t-18 36q0 19 12 31.5t35 12.5q27 0 41.5 -18t14.5 -49q0 -43 -30.5 -75t-55.5 -32q-15 0 -15 14z" />
    <glyph glyph-name="Ncaron" unicode="&#x147;" horiz-adv-x="740" 
d="M665 653v-620q0 -18 -13.5 -30.5t-32.5 -12.5q-21 0 -40 22l-427 538v-524q0 -15 -11.5 -25.5t-27.5 -10.5t-27 10.5t-11 25.5v621q0 17 13 30t32 13q23 0 40 -22l428 -538v523q0 15 11.5 26t27.5 11t27 -11t11 -26zM212 944q0 12 8 19.5t19 7.5q13 0 22 -11l110 -114
l111 114q9 11 22 11q11 0 19 -7.5t8 -19.5q0 -10 -13 -23l-123 -127q-11 -11 -24 -11q-12 0 -23 11l-124 127q-12 12 -12 23z" />
    <glyph glyph-name="ncaron" unicode="&#x148;" horiz-adv-x="553" 
d="M72 25v399q0 15 11 25.5t26 10.5t26 -10.5t11 -25.5v-49q45 85 158 85q84 0 131 -41q54 -48 54 -151v-243q0 -14 -11 -24.5t-26 -10.5t-25.5 10.5t-10.5 24.5v227q0 81 -37 115q-31 29 -89 29q-80 0 -118 -69q-26 -49 -26 -119v-183q0 -14 -11 -24.5t-26 -10.5t-26 10.5
t-11 24.5zM117 742q0 12 8 19.5t19 7.5q13 0 22 -11l110 -114l111 114q9 11 22 11q11 0 19 -7.5t8 -19.5q0 -10 -13 -23l-123 -127q-11 -11 -24 -11q-12 0 -23 11l-124 127q-12 12 -12 23z" />
    <glyph glyph-name="Omacron" unicode="&#x14c;" horiz-adv-x="806" 
d="M759 339q0 -147 -104.5 -248t-251.5 -101t-251.5 101t-104.5 248q0 148 104.5 249.5t251.5 101.5t251.5 -101.5t104.5 -249.5zM675 339q0 114 -79 195t-193 81t-192.5 -81t-78.5 -195q0 -115 78.5 -195t192.5 -80t193 80.5t79 194.5zM537 881q0 -13 -8.5 -21.5
t-21.5 -8.5h-206q-12 0 -21 8.5t-9 21.5q0 12 9 21t21 9h206q13 0 21.5 -9t8.5 -21z" />
    <glyph glyph-name="omacron" unicode="&#x14d;" horiz-adv-x="568" 
d="M417 658q0 -13 -8.5 -21.5t-20.5 -8.5h-207q-12 0 -20.5 8.5t-8.5 21.5q0 12 8.5 21t20.5 9h207q12 0 20.5 -9t8.5 -21zM117 225q0 -72 45 -122q48 -53 122 -53q75 0 123 53q44 49 44 122t-44 122q-48 53 -123 53q-74 0 -122 -53q-45 -50 -45 -122zM45 225q0 103 67 168
q69 67 172 67t172 -67q68 -66 68 -168q0 -101 -68 -167q-68 -68 -172 -68t-172 68q-67 65 -67 167z" />
    <glyph glyph-name="Ohungarumlaut" unicode="&#x150;" horiz-adv-x="806" 
d="M759 339q0 -147 -104.5 -248t-251.5 -101t-251.5 101t-104.5 248q0 148 104.5 249.5t251.5 101.5t251.5 -101.5t104.5 -249.5zM675 339q0 114 -79 195t-193 81t-192.5 -81t-78.5 -195q0 -115 78.5 -195t192.5 -80t193 80.5t79 194.5zM240 794q0 8 6 19l76 138
q10 21 29 21q12 0 21 -8.5t9 -19.5q0 -7 -9 -22l-81 -134q-11 -18 -26 -18q-10 0 -17.5 7t-7.5 17zM425 794q0 8 6 19l76 138q11 21 28 21q13 0 21.5 -8.5t8.5 -19.5q0 -9 -8 -22l-81 -134q-11 -18 -26 -18q-10 0 -17.5 7t-7.5 17z" />
    <glyph glyph-name="ohungarumlaut" unicode="&#x151;" horiz-adv-x="568" 
d="M117 225q0 -72 45 -122q48 -53 122 -53q75 0 123 53q44 49 44 122t-44 122q-48 53 -123 53q-74 0 -122 -53q-45 -50 -45 -122zM45 225q0 103 67 168q69 67 172 67t172 -67q68 -66 68 -168q0 -101 -68 -167q-68 -68 -172 -68t-172 68q-67 65 -67 167zM121 592q0 8 6 19
l76 138q11 21 29 21q12 0 21 -8.5t9 -19.5q0 -7 -9 -22l-81 -134q-11 -18 -26 -18q-10 0 -17.5 7t-7.5 17zM306 592q0 8 6 19l76 138q10 21 28 21q13 0 21.5 -8.5t8.5 -19.5q0 -9 -8 -22l-81 -134q-11 -18 -26 -18q-10 0 -17.5 7t-7.5 17z" />
    <glyph glyph-name="OE" unicode="&#x152;" horiz-adv-x="1102" 
d="M1024 44q9 0 19 -7t10 -22q0 -25 -29 -25h-356q-11 0 -21 8q-8 10 -8 21v62q-100 -92 -233 -92q-142 0 -246.5 103.5t-104.5 249.5q0 142 102 245t249 103q132 0 233 -88v58q0 13 8 21q9 9 21 9h356q29 0 29 -27t-29 -27h-331v-269h249q30 0 30 -27q0 -15 -10 -21.5
t-20 -6.5h-249v-268h331zM406 44q68 0 129.5 32t103.5 87v358q-42 53 -102.5 84t-130.5 31q-116 0 -206.5 -88t-90.5 -206t87.5 -208t209.5 -90z" />
    <glyph glyph-name="oe" unicode="&#x153;" horiz-adv-x="952" 
d="M631 458q87 0 162.5 -69t74.5 -159q0 -19 -8.5 -26.5t-31.5 -7.5h-376q9 -64 61.5 -109t117.5 -45q99 0 145 42q10 8 21.5 7t18.5 -9q7 -7 6 -19t-9 -20q-62 -55 -182 -55q-93 0 -164 68q-70 -68 -164 -68q-95 0 -165 68.5t-70 166.5q0 94 69 164.5t166 70.5
q96 0 164 -68q68 68 164 68zM122 224q0 -74 52.5 -128t128.5 -54q77 0 130 55q-37 58 -37 125q0 68 38 128q-54 54 -131 54q-74 0 -127.5 -52t-53.5 -128zM452 250h361q-10 63 -63 108.5t-119 45.5q-64 0 -115 -43t-64 -111z" />
    <glyph glyph-name="Racute" unicode="&#x154;" horiz-adv-x="649" 
d="M155 266v-237q0 -16 -12 -27.5t-28 -11.5q-17 0 -28.5 11.5t-11.5 27.5v613q0 16 11.5 27.5t28.5 11.5h239q108 0 166 -39q81 -53 81 -169q0 -104 -80 -163q-41 -30 -98 -40l167 -213q11 -13 11 -27q0 -16 -12 -28t-29 -12q-20 0 -34 19l-195 257h-176zM345 613h-190
v-280h188q77 0 117 23q59 35 59 117t-57 116q-40 24 -117 24zM251 794q0 8 6 19l76 138q11 21 28 21q13 0 21.5 -8.5t8.5 -19.5q0 -9 -8 -22l-81 -134q-11 -18 -26 -18q-10 0 -17.5 7t-7.5 17z" />
    <glyph glyph-name="racute" unicode="&#x155;" horiz-adv-x="377" 
d="M273 460q50 0 83 -21q29 -18 29 -41q0 -15 -9.5 -24.5t-23.5 -9.5q-11 0 -37.5 14.5t-53.5 14.5q-51 0 -81 -40q-32 -45 -34 -122v-206q0 -14 -11 -24.5t-26 -10.5t-26 10.5t-11 24.5v400q0 15 11 25t26 10t26 -10t11 -25v-38q35 73 127 73zM158 592q0 8 6 19l76 138
q10 21 28 21q13 0 21.5 -8.5t8.5 -19.5q0 -9 -8 -22l-81 -134q-11 -18 -26 -18q-10 0 -17.5 7t-7.5 17z" />
    <glyph glyph-name="Rcommaaccent" unicode="&#x156;" horiz-adv-x="649" 
d="M155 266v-237q0 -16 -12 -27.5t-28 -11.5q-17 0 -28.5 11.5t-11.5 27.5v613q0 16 11.5 27.5t28.5 11.5h239q108 0 166 -39q81 -53 81 -169q0 -104 -80 -163q-41 -30 -98 -40l167 -213q11 -13 11 -27q0 -16 -12 -28t-29 -12q-20 0 -34 19l-195 257h-176zM345 613h-190
v-280h188q77 0 117 23q59 35 59 117t-57 116q-40 24 -117 24zM274 -221q0 9 17 24t17 31q0 11 -18 25t-18 36q0 19 12 31.5t35 12.5q27 0 41.5 -18t14.5 -49q0 -43 -30.5 -75t-55.5 -32q-15 0 -15 14z" />
    <glyph glyph-name="rcommaaccent" unicode="&#x157;" horiz-adv-x="377" 
d="M273 460q50 0 83 -21q29 -18 29 -41q0 -15 -9.5 -24.5t-23.5 -9.5q-11 0 -37.5 14.5t-53.5 14.5q-51 0 -81 -40q-32 -45 -34 -122v-206q0 -14 -11 -24.5t-26 -10.5t-26 10.5t-11 24.5v400q0 15 11 25t26 10t26 -10t11 -25v-38q35 73 127 73zM78 -221q0 9 17 24t17 31
q0 11 -18 25t-18 36q0 19 12 31.5t35 12.5q27 0 41.5 -18t14.5 -49q0 -43 -30.5 -75t-55.5 -32q-15 0 -15 14z" />
    <glyph glyph-name="Rcaron" unicode="&#x158;" horiz-adv-x="649" 
d="M155 266v-237q0 -16 -12 -27.5t-28 -11.5q-17 0 -28.5 11.5t-11.5 27.5v613q0 16 11.5 27.5t28.5 11.5h239q108 0 166 -39q81 -53 81 -169q0 -104 -80 -163q-41 -30 -98 -40l167 -213q11 -13 11 -27q0 -16 -12 -28t-29 -12q-20 0 -34 19l-195 257h-176zM345 613h-190
v-280h188q77 0 117 23q59 35 59 117t-57 116q-40 24 -117 24zM161 944q0 12 8 19.5t19 7.5q13 0 22 -11l110 -114l111 114q9 11 22 11q11 0 19 -7.5t8 -19.5q0 -10 -13 -23l-123 -127q-11 -11 -24 -11q-12 0 -23 11l-124 127q-12 12 -12 23z" />
    <glyph glyph-name="rcaron" unicode="&#x159;" horiz-adv-x="377" 
d="M273 460q50 0 83 -21q29 -18 29 -41q0 -15 -9.5 -24.5t-23.5 -9.5q-11 0 -37.5 14.5t-53.5 14.5q-51 0 -81 -40q-34 -46 -34 -132v-196q0 -14 -11 -24.5t-26 -10.5t-26 10.5t-11 24.5v400q0 15 11 25t26 10t26 -10t11 -25v-38q35 73 127 73zM56 742q0 12 8 19.5t19 7.5
q13 0 22 -11l110 -114l111 114q9 11 22 11q11 0 19 -7.5t8 -19.5q0 -10 -13 -23l-123 -127q-11 -11 -24 -11q-12 0 -23 11l-124 127q-12 12 -12 23z" />
    <glyph glyph-name="Sacute" unicode="&#x15a;" horiz-adv-x="556" 
d="M489 614q0 -16 -10.5 -26.5t-27.5 -10.5q-8 0 -17.5 4t-24 11t-26.5 11q-50 18 -100 18q-153 0 -153 -110q0 -65 98 -101q14 -5 89 -27t112 -43q88 -52 88 -148q0 -94 -66.5 -148t-175.5 -54q-106 0 -194 48q-38 21 -38 46q0 17 11 28t28 11q7 0 15 -4.5t24 -14.5t34 -18
q56 -27 120 -27q78 0 117 35t39 91q0 67 -86 104q-25 11 -91.5 31t-106.5 39q-101 50 -101 150q0 85 62.5 133t178.5 48q90 0 156 -29q46 -19 46 -47zM207 794q0 8 6 19l76 138q11 21 28 21q13 0 21.5 -8.5t8.5 -19.5q0 -9 -8 -22l-81 -134q-11 -18 -26 -18q-10 0 -17.5 7
t-7.5 17z" />
    <glyph glyph-name="sacute" unicode="&#x15b;" horiz-adv-x="403" 
d="M356 406q0 -12 -8 -20t-20 -8t-47 11t-68 11q-92 0 -92 -61q0 -23 14 -36t41 -25q15 -7 54 -20.5t55 -21.5q83 -39 83 -113q0 -61 -45 -97t-122 -36q-73 0 -127 25q-38 18 -38 45q0 12 8 20.5t21 8.5q15 0 40 -15q43 -25 93 -25q94 0 94 68q0 26 -16 41.5t-48 29.5
q-12 6 -50.5 19.5t-58.5 22.5q-74 34 -74 109q0 57 43 89.5t122 32.5q62 0 104 -15q42 -14 42 -40zM134 592q0 8 6 19l76 138q10 21 28 21q13 0 21.5 -8.5t8.5 -19.5q0 -9 -8 -22l-81 -134q-11 -18 -26 -18q-10 0 -17.5 7t-7.5 17z" />
    <glyph glyph-name="Scedilla" unicode="&#x15e;" horiz-adv-x="556" 
d="M381 -110q0 -45 -37 -66.5t-88 -21.5q-23 0 -36 4q-17 6 -17 20q0 8 6 14t14 6q4 0 15.5 -1.5t21.5 -1.5q29 0 50 11.5t21 36.5q0 21 -18 31.5t-44 10.5q-24 0 -21 24l3 34q-93 6 -170 47q-38 21 -38 46q0 17 11 28t28 11q7 0 15 -4.5t24 -14.5t34 -18q56 -27 120 -27
q78 0 117 35t39 91q0 67 -86 104q-25 11 -91.5 31t-106.5 39q-101 50 -101 150q0 85 62.5 133t178.5 48q90 0 156 -29q46 -19 46 -47q0 -16 -10.5 -26.5t-27.5 -10.5q-8 0 -17.5 4t-24 11t-26.5 11q-50 18 -100 18q-153 0 -153 -110q0 -65 98 -101q14 -5 89 -27t112 -43
q88 -52 88 -148q0 -91 -62 -144t-164 -57l1 -26q39 -3 64 -23t25 -52z" />
    <glyph glyph-name="scedilla" unicode="&#x15f;" horiz-adv-x="403" 
d="M305 -110q0 -45 -37 -66.5t-88 -21.5q-23 0 -36 4q-17 6 -17 20q0 8 6 14t14 6q4 0 15.5 -1.5t21.5 -1.5q29 0 50 11.5t21 36.5q0 21 -18 31.5t-44 10.5q-24 0 -21 24l3 34q-58 3 -101 24q-38 18 -38 45q0 12 8 20.5t21 8.5q15 0 40 -15q43 -25 93 -25q94 0 94 68
q0 26 -16 41.5t-48 29.5q-12 6 -50.5 19.5t-58.5 22.5q-74 34 -74 109q0 57 43 89.5t122 32.5q62 0 104 -15q42 -14 42 -40q0 -12 -8 -20t-20 -8t-47 11t-68 11q-92 0 -92 -61q0 -23 14 -36t41 -25q15 -7 54 -20.5t55 -21.5q83 -39 83 -113q0 -58 -41 -93.5t-112 -38.5
l1 -26q39 -3 64 -23t25 -52z" />
    <glyph glyph-name="Scaron" unicode="&#x160;" horiz-adv-x="578" 
d="M259 767l-94 74q-21 17 -14 43t34 26q10 0 21 -8l76 -61l78 61q8 7 20 7q28 0 34.5 -26t-14.5 -42l-94 -74q-21 -15 -47 0zM551 188q0 -92 -72.5 -145t-170.5 -53q-49 0 -92 8t-84 26.5t-67 55.5t-31 89q-2 16 6.5 27t25.5 11q35 0 39 -31q5 -33 25 -57.5t49.5 -37
t60.5 -18t66 -5.5q32 0 61.5 6.5t56.5 20.5t43 40t16 61q0 37 -16.5 63t-48 39.5t-60 19t-69.5 9.5q-241 24 -241 180q0 89 68.5 141t163.5 52q38 0 76 -7t76.5 -22t67 -44t38.5 -68q9 -36 -27 -39q-31 0 -42 31q-24 81 -187 81q-64 0 -114.5 -32t-50.5 -94q1 -30 18 -51.5
t48 -33t57 -16.5t62 -9q25 -2 32 -3t34 -4.5t38 -7.5t35 -12t35.5 -17t28.5 -24t25 -33t14.5 -43t6.5 -54z" />
    <glyph glyph-name="scaron" unicode="&#x161;" horiz-adv-x="476" 
d="M192 553l-94 74q-21 17 -14 43t34 26q10 0 21 -8l76 -61l78 61q8 7 20 7q28 0 34.5 -26t-14.5 -42l-94 -74q-21 -15 -47 0zM259 269q88 -22 118 -39q61 -34 62 -100q0 -69 -54 -104.5t-129 -35.5q-176 0 -215 133q-4 15 4 24.5t25 11.5q7 -1 11 0t8 -1.5t6 -3t4.5 -5
t3.5 -6.5t3.5 -7.5t3.5 -7.5q19 -39 52.5 -54.5t92.5 -15.5q41 0 78.5 16.5t37.5 53.5q0 13 -9 24t-27 19t-30.5 12.5t-35 10t-25.5 6.5t-26.5 7t-31 8.5t-28.5 10t-30 13t-24 16t-21.5 21t-12 26t-5.5 32.5q0 67 48 100t124 32q61 0 114.5 -23t73.5 -74q7 -16 -1 -27.5
t-26 -11.5q-29 0 -44 23q-28 45 -117 45q-104 0 -104 -64q0 -12 7 -21t24.5 -16.5t27 -10.5t36.5 -9.5t31 -7.5z" />
    <glyph glyph-name="Tcommaaccent" unicode="&#x162;" horiz-adv-x="564" 
d="M530 610h-208v-581q0 -16 -12 -27.5t-28 -11.5t-28 11.5t-12 27.5v581h-207q-15 0 -25 10.5t-10 25.5q0 14 10 24.5t25 10.5h495q14 0 24 -10.5t10 -24.5q0 -15 -10 -25.5t-24 -10.5zM233 -221q0 9 17 24t17 31q0 11 -18 25t-18 36q0 19 12 31.5t35 12.5q27 0 41.5 -18
t14.5 -49q0 -43 -30.5 -75t-55.5 -32q-15 0 -15 14z" />
    <glyph glyph-name="tcommaaccent" unicode="&#x163;" horiz-adv-x="353" 
d="M43 451h43v75q0 15 10.5 25.5t26.5 10.5q14 0 25 -10.5t11 -25.5v-75h138q12 0 20.5 -8.5t8.5 -19.5q0 -12 -8.5 -21t-20.5 -9h-138v-242q0 -49 18.5 -73t63.5 -24q29 0 58 16.5t35 16.5q12 0 19.5 -8.5t7.5 -20.5q0 -29 -48 -50q-41 -18 -85 -18q-142 0 -142 154v249
h-43q-12 0 -20.5 9t-8.5 21q0 11 8.5 19.5t20.5 8.5zM184 -221q0 9 17 24t17 31q0 11 -18 25t-18 36q0 19 12 31.5t35 12.5q27 0 41.5 -18t14.5 -49q0 -43 -30.5 -75t-55.5 -32q-15 0 -15 14z" />
    <glyph glyph-name="Tcaron" unicode="&#x164;" horiz-adv-x="564" 
d="M530 610h-208v-581q0 -16 -12 -27.5t-28 -11.5t-28 11.5t-12 27.5v581h-207q-15 0 -25 10.5t-10 25.5q0 14 10 24.5t25 10.5h495q14 0 24 -10.5t10 -24.5q0 -15 -10 -25.5t-24 -10.5zM123 944q0 12 8 19.5t19 7.5q13 0 22 -11l110 -114l111 114q9 11 22 11q11 0 19 -7.5
t8 -19.5q0 -10 -13 -23l-123 -127q-11 -11 -24 -11q-12 0 -23 11l-124 127q-12 12 -12 23z" />
    <glyph glyph-name="tcaron" unicode="&#x165;" horiz-adv-x="419" 
d="M43 451h43v75q0 15 10.5 25.5t26.5 10.5q14 0 25 -10.5t11 -25.5v-75h138q12 0 20.5 -8.5t8.5 -19.5q0 -12 -8.5 -21t-20.5 -9h-138v-242q0 -49 18.5 -73t63.5 -24q29 0 58 16.5t35 16.5q12 0 19.5 -8.5t7.5 -20.5q0 -29 -48 -50q-41 -18 -85 -18q-142 0 -142 154v249
h-43q-12 0 -20.5 9t-8.5 21q0 11 8.5 19.5t20.5 8.5zM309 530q0 9 17 24t17 31q0 11 -18 25t-18 36q0 19 12 31.5t35 12.5q27 0 41.5 -18t14.5 -49q0 -43 -30.5 -75t-55.5 -32q-15 0 -15 14z" />
    <glyph glyph-name="Umacron" unicode="&#x16a;" horiz-adv-x="722" 
d="M360 62q103 0 158 61q51 57 51 156v372q0 16 11.5 27.5t28.5 11.5q16 0 28 -11.5t12 -27.5v-382q0 -121 -66 -193q-77 -86 -222 -86t-222 86q-66 72 -66 193v382q0 16 12 27.5t28 11.5q17 0 28.5 -11.5t11.5 -27.5v-372q0 -99 51 -156q55 -61 156 -61zM493 881
q0 -13 -8.5 -21.5t-21.5 -8.5h-206q-12 0 -21 8.5t-9 21.5q0 12 9 21t21 9h206q13 0 21.5 -9t8.5 -21z" />
    <glyph glyph-name="umacron" unicode="&#x16b;" horiz-adv-x="546" 
d="M406 658q0 -13 -8.5 -21.5t-21.5 -8.5h-206q-12 0 -21 8.5t-9 21.5q0 12 9 21t21 9h206q13 0 21.5 -9t8.5 -21zM65 191v234q0 15 10.5 25t26.5 10q15 0 25.5 -10t10.5 -25v-228q0 -54 19 -88q30 -54 116 -54t116 54q18 32 18 88v228q0 15 11 25t26 10t26 -10t11 -25v-234
q0 -78 -34 -128q-48 -73 -174 -73q-125 0 -175 73q-33 51 -33 128z" />
    <glyph glyph-name="Uring" unicode="&#x16e;" horiz-adv-x="722" 
d="M360 62q103 0 158 61q51 57 51 156v372q0 16 11.5 27.5t28.5 11.5q16 0 28 -11.5t12 -27.5v-382q0 -121 -66 -193q-77 -86 -222 -86t-222 86q-66 72 -66 193v382q0 16 12 27.5t28 11.5q17 0 28.5 -11.5t11.5 -27.5v-372q0 -99 51 -156q55 -61 156 -61zM475 862
q0 -49 -33.5 -82.5t-81.5 -33.5t-82 33.5t-34 82.5q0 48 34 82t82 34t81.5 -34t33.5 -82zM439 862q0 33 -23 56.5t-56 23.5t-56 -23.5t-23 -56.5q0 -34 23 -57t56 -23t56 23t23 57z" />
    <glyph glyph-name="uring" unicode="&#x16f;" horiz-adv-x="546" 
d="M65 191v234q0 15 10.5 25t26.5 10q15 0 25.5 -10t10.5 -25v-228q0 -54 19 -88q30 -54 116 -54t116 54q18 32 18 88v228q0 15 11 25t26 10t26 -10t11 -25v-234q0 -78 -34 -128q-48 -73 -174 -73q-125 0 -175 73q-33 51 -33 128zM388 662q0 -49 -33.5 -82.5t-81.5 -33.5
t-82 33.5t-34 82.5q0 48 34 82t82 34t81.5 -34t33.5 -82zM352 662q0 33 -23 56.5t-56 23.5t-56 -23.5t-23 -56.5q0 -34 23 -57t56 -23t56 23t23 57z" />
    <glyph glyph-name="Uhungarumlaut" unicode="&#x170;" horiz-adv-x="722" 
d="M360 62q103 0 158 61q51 57 51 156v372q0 16 11.5 27.5t28.5 11.5q16 0 28 -11.5t12 -27.5v-382q0 -121 -66 -193q-77 -86 -222 -86t-222 86q-66 72 -66 193v382q0 16 12 27.5t28 11.5q17 0 28.5 -11.5t11.5 -27.5v-372q0 -99 51 -156q55 -61 156 -61zM198 794q0 8 6 19
l76 138q10 21 29 21q12 0 21 -8.5t9 -19.5q0 -7 -9 -22l-81 -134q-11 -18 -26 -18q-10 0 -17.5 7t-7.5 17zM383 794q0 8 6 19l76 138q11 21 28 21q13 0 21.5 -8.5t8.5 -19.5q0 -9 -8 -22l-81 -134q-11 -18 -26 -18q-10 0 -17.5 7t-7.5 17z" />
    <glyph glyph-name="uhungarumlaut" unicode="&#x171;" horiz-adv-x="546" 
d="M65 191v234q0 15 10.5 25t26.5 10q15 0 25.5 -10t10.5 -25v-228q0 -54 19 -88q30 -54 116 -54t116 54q18 32 18 88v228q0 15 11 25t26 10t26 -10t11 -25v-234q0 -78 -34 -128q-48 -73 -174 -73q-125 0 -175 73q-33 51 -33 128zM125 592q0 8 6 19l76 138q11 21 29 21
q12 0 21 -8.5t9 -19.5q0 -7 -9 -22l-81 -134q-11 -18 -26 -18q-10 0 -17.5 7t-7.5 17zM310 592q0 8 6 19l76 138q10 21 28 21q13 0 21.5 -8.5t8.5 -19.5q0 -9 -8 -22l-81 -134q-11 -18 -26 -18q-10 0 -17.5 7t-7.5 17z" />
    <glyph glyph-name="Uogonek" unicode="&#x172;" horiz-adv-x="722" 
d="M360 62q103 0 158 61q51 57 51 156v372q0 16 11.5 27.5t28.5 11.5q16 0 28 -11.5t12 -27.5v-382q0 -121 -66 -193q-71 -79 -203 -85q-17 -41 -17 -78q0 -58 74 -58q15 0 30 3.5t19 3.5q22 0 22 -22q0 -21 -23 -28q-25 -9 -53 -9q-119 0 -119 93q0 37 24 95
q-130 8 -198 85q-66 72 -66 193v382q0 16 12 27.5t28 11.5q17 0 28.5 -11.5t11.5 -27.5v-372q0 -99 51 -156q55 -61 156 -61z" />
    <glyph glyph-name="uogonek" unicode="&#x173;" horiz-adv-x="546" 
d="M65 191v234q0 15 10.5 25t26.5 10q15 0 25.5 -10t10.5 -25v-232q0 -51 19 -88q31 -54 116 -54t116 54q18 35 18 88v232q0 15 11 25t26 10t26 -10t11 -25v-234q0 -78 -34 -128q-43 -66 -153 -72q-18 -43 -18 -78q0 -58 74 -58q15 0 30.5 3.5t18.5 3.5q22 0 22 -22
q0 -21 -23 -28q-25 -9 -53 -9q-118 0 -118 93q0 39 24 95q-110 6 -153 72q-33 51 -33 128z" />
    <glyph glyph-name="Wcircumflex" unicode="&#x174;" horiz-adv-x="1073" 
d="M536 134q-27 -73 -86 -109q-55 -35 -126 -35q-121 0 -189 72q-62 67 -62 186v403q0 16 12 27.5t28 11.5q17 0 28.5 -11.5t11.5 -27.5v-403q0 -87 42 -134q46 -50 131 -50q67 0 110 41q60 55 60 159v387q0 16 12 27.5t28 11.5q17 0 28.5 -11.5t11.5 -27.5v-387
q0 -103 61 -159q43 -41 110 -41q85 0 130 50q43 46 43 134v403q0 16 11.5 27.5t28.5 11.5q16 0 28 -11.5t12 -27.5v-403q0 -119 -62 -186q-68 -72 -189 -72q-71 0 -126 35q-58 36 -87 109zM535 971q12 0 24 -12l123 -127q13 -15 13 -22q0 -12 -8 -19.5t-19 -7.5t-19 8
l-114 117l-113 -117q-8 -8 -19 -8q-12 0 -19.5 7.5t-7.5 19.5q0 10 12 22l124 127q12 12 23 12z" />
    <glyph glyph-name="wcircumflex" unicode="&#x175;" horiz-adv-x="796" 
d="M65 191v234q0 15 10.5 25.5t26.5 10.5q15 0 25.5 -10.5t10.5 -25.5v-230q0 -56 17 -90q25 -49 93 -49q71 0 97 54q16 32 16 87v228q0 15 11 25.5t26 10.5t26 -10.5t11 -25.5v-228q0 -54 15 -87q25 -54 98 -54q67 0 93 48q17 34 17 91v230q0 15 10.5 25.5t25.5 10.5
t26 -10.5t11 -25.5v-234q0 -79 -27 -128q-42 -73 -150 -73q-85 0 -129 54q-18 21 -27 41q-9 -20 -27 -41q-46 -54 -128 -54q-108 0 -151 74q-27 47 -27 127zM396 769q12 0 24 -12l123 -127q13 -15 13 -22q0 -12 -8 -19.5t-19 -7.5t-19 8l-114 117l-113 -117q-8 -8 -19 -8
q-12 0 -19.5 7.5t-7.5 19.5q0 10 12 22l124 127q12 12 23 12z" />
    <glyph glyph-name="Ycircumflex" unicode="&#x176;" horiz-adv-x="571" 
d="M559 624l-234 -325v-270q0 -16 -12 -27.5t-28 -11.5t-28 11.5t-12 27.5v270l-232 326q-9 14 -9 27q0 16 11 27t28 11q21 0 35 -20l207 -291l208 291q14 20 35 20q16 0 27.5 -11t11.5 -27q0 -14 -8 -28zM284 971q12 0 24 -12l123 -127q13 -15 13 -22q0 -12 -8 -19.5
t-19 -7.5t-19 8l-114 117l-113 -117q-8 -8 -19 -8q-12 0 -19.5 7.5t-7.5 19.5q0 10 12 22l124 127q12 12 23 12z" />
    <glyph glyph-name="ycircumflex" unicode="&#x177;" horiz-adv-x="460" 
d="M414 461q16 0 27.5 -11.5t11.5 -27.5q0 -12 -8 -32l-163 -414q-81 -207 -225 -207q-15 0 -25.5 10.5t-10.5 24.5q0 15 10 25.5t26 10.5q50 0 83.5 33t62.5 100l-187 420q-9 21 -9 28q0 17 11.5 28.5t28.5 11.5q29 0 38 -26l154 -368l136 361q13 33 39 33zM226 769
q12 0 24 -12l123 -127q13 -15 13 -22q0 -12 -8 -19.5t-19 -7.5t-19 8l-114 117l-113 -117q-8 -8 -19 -8q-12 0 -19.5 7.5t-7.5 19.5q0 10 12 22l124 127q12 12 23 12z" />
    <glyph glyph-name="Ydieresis" unicode="&#x178;" horiz-adv-x="565" 
d="M528 684q23 -16 5 -40l-223 -302v-322q0 -30 -27 -30t-27 30v322l-222 302q-18 24 5 40q23 15 40 -10l204 -279l205 280q17 24 40 9zM204 756q-15 0 -26.5 11t-11.5 27t11.5 27t26.5 11q16 0 27 -11t11 -27t-11 -27t-27 -11zM366 756q-16 0 -27 11t-11 27t11 27t27 11
q15 0 26.5 -11t11.5 -27t-11.5 -27t-26.5 -11z" />
    <glyph glyph-name="Zacute" unicode="&#x179;" horiz-adv-x="554" 
d="M42 681h445q15 0 25 -10.5t10 -24.5q0 -13 -7 -23l-384 -552h377q14 0 24.5 -11t10.5 -25t-10.5 -24.5t-24.5 -10.5h-450q-14 0 -24.5 10.5t-10.5 24.5q0 12 9 25l383 550h-373q-14 0 -24 10.5t-10 25.5q0 14 10 24.5t24 10.5zM206 794q0 8 6 19l76 138q10 21 28 21
q13 0 21.5 -8.5t8.5 -19.5q0 -9 -8 -22l-81 -134q-11 -18 -26 -18q-10 0 -17.5 7t-7.5 17z" />
    <glyph glyph-name="zacute" unicode="&#x17a;" horiz-adv-x="395" 
d="M115 64h246q13 0 22 -9.5t9 -22.5t-9 -22.5t-22 -9.5h-316q-14 0 -22.5 8t-8.5 21q0 14 13 30l253 329h-244q-13 0 -22 9.5t-9 22.5t9 22.5t22 9.5h314q13 0 22 -8t9 -20q0 -14 -14 -33zM130 592q0 8 6 19l76 138q10 21 28 21q13 0 21.5 -8.5t8.5 -19.5q0 -9 -8 -22
l-81 -134q-11 -18 -26 -18q-10 0 -17.5 7t-7.5 17z" />
    <glyph glyph-name="Zdotaccent" unicode="&#x17b;" horiz-adv-x="554" 
d="M42 681h445q15 0 25 -10.5t10 -24.5q0 -13 -7 -23l-384 -552h377q14 0 24.5 -11t10.5 -25t-10.5 -24.5t-24.5 -10.5h-450q-14 0 -24.5 10.5t-10.5 24.5q0 12 9 25l383 550h-373q-14 0 -24 10.5t-10 25.5q0 14 10 24.5t24 10.5zM276 831q-18 0 -31 12.5t-13 31.5
q0 18 13 30.5t31 12.5t31 -12.5t13 -30.5q0 -19 -13 -31.5t-31 -12.5z" />
    <glyph glyph-name="zdotaccent" unicode="&#x17c;" horiz-adv-x="395" 
d="M115 64h246q13 0 22 -9.5t9 -22.5t-9 -22.5t-22 -9.5h-316q-14 0 -22.5 8t-8.5 21q0 14 13 30l253 329h-244q-13 0 -22 9.5t-9 22.5t9 22.5t22 9.5h314q13 0 22 -8t9 -20q0 -14 -14 -33zM198 624q-18 0 -31 12.5t-13 31.5q0 18 13 30.5t31 12.5t31 -12.5t13 -30.5
q0 -19 -13 -31.5t-31 -12.5z" />
    <glyph glyph-name="Zcaron" unicode="&#x17d;" horiz-adv-x="648" 
d="M86 690h-4h476q18 0 27 -16q7 -16 -4 -31l-447 -599h425q29 0 29 -27t-29 -27h-476q-18 0 -27 16q-8 17 4 31l447 599h-421q-33 0 -33 27t33 27zM283 796l-96 76q-14 12 -14 27q0 18 15.5 23.5t29.5 -6.5l84 -68l86 68q15 11 30 5.5t15 -22.5q0 -15 -14 -27l-96 -76
q-19 -15 -40 0z" />
    <glyph glyph-name="zcaron" unicode="&#x17e;" horiz-adv-x="431" 
d="M197 563l-102 81q-18 16 -4 35q15 19 35 3l90 -73l94 74q10 9 22 5.5t18 -19.5q4 -12 -9 -24l-104 -82q-19 -15 -40 0zM28 4q-6 14 4 29l291 373h-270q-11 0 -19 7t-8 20t8 20t19 7h324q17 0 25 -15q7 -15 -3 -28l-292 -373h270q10 0 18.5 -7.5t8.5 -20.5t-8.5 -19.5
t-18.5 -6.5h-324q-19 0 -25 14z" />
    <glyph glyph-name="florin" unicode="&#x192;" horiz-adv-x="476" 
d="M409 622q-56 0 -97.5 -36t-41.5 -85v-35h128q13 0 21 -6q13 -9 13 -28t-14 -27q-8 -7 -20 -7h-128v-425q0 -89 -57.5 -151t-147.5 -62q-13 0 -24.5 9.5t-11.5 23.5q0 15 10.5 25.5t25.5 10.5q59 0 98 41.5t39 102.5v425h-43q-13 0 -25 9t-12 25q0 20 15 28q10 6 22 6h43
v35q0 78 60.5 133.5t146.5 55.5q34 0 34 -33q0 -15 -10 -25t-24 -10z" />
    <glyph glyph-name="Scommaaccent" unicode="&#x218;" horiz-adv-x="556" 
d="M489 614q0 -16 -10.5 -26.5t-27.5 -10.5q-8 0 -17.5 4t-24 11t-26.5 11q-50 18 -100 18q-153 0 -153 -110q0 -65 98 -101q14 -5 89 -27t112 -43q88 -52 88 -148q0 -94 -66.5 -148t-175.5 -54q-106 0 -194 48q-38 21 -38 46q0 17 11 28t28 11q7 0 15 -4.5t24 -14.5t34 -18
q56 -27 120 -27q78 0 117 35t39 91q0 67 -86 104q-25 11 -91.5 31t-106.5 39q-101 50 -101 150q0 85 62.5 133t178.5 48q90 0 156 -29q46 -19 46 -47zM233 -221q0 9 17 24t17 31q0 11 -18 25t-18 36q0 19 12 31.5t35 12.5q27 0 41.5 -18t14.5 -49q0 -43 -30.5 -75t-55.5 -32
q-15 0 -15 14z" />
    <glyph glyph-name="scommaaccent" unicode="&#x219;" horiz-adv-x="403" 
d="M356 406q0 -12 -8 -20t-20 -8t-47 11t-68 11q-92 0 -92 -61q0 -23 14 -36t41 -25q15 -7 54 -20.5t55 -21.5q83 -39 83 -113q0 -61 -45 -97t-122 -36q-73 0 -127 25q-38 18 -38 45q0 12 8 20.5t21 8.5q15 0 40 -15q43 -25 93 -25q94 0 94 68q0 26 -16 41.5t-48 29.5
q-12 6 -50.5 19.5t-58.5 22.5q-74 34 -74 109q0 57 43 89.5t122 32.5q62 0 104 -15q42 -14 42 -40zM159 -221q0 9 17 24t17 31q0 11 -18 25t-18 36q0 19 12 31.5t35 12.5q27 0 41.5 -18t14.5 -49q0 -43 -30.5 -75t-55.5 -32q-15 0 -15 14z" />
    <glyph glyph-name="uni021A" unicode="&#x21a;" horiz-adv-x="564" 
d="M530 610h-208v-581q0 -16 -12 -27.5t-28 -11.5t-28 11.5t-12 27.5v581h-207q-15 0 -25 10.5t-10 25.5q0 14 10 24.5t25 10.5h495q14 0 24 -10.5t10 -24.5q0 -15 -10 -25.5t-24 -10.5zM233 -221q0 9 17 24t17 31q0 11 -18 25t-18 36q0 19 12 31.5t35 12.5q27 0 41.5 -18
t14.5 -49q0 -43 -30.5 -75t-55.5 -32q-15 0 -15 14z" />
    <glyph glyph-name="uni021B" unicode="&#x21b;" horiz-adv-x="353" 
d="M43 451h43v75q0 15 10.5 25.5t26.5 10.5q14 0 25 -10.5t11 -25.5v-75h138q12 0 20.5 -8.5t8.5 -19.5q0 -12 -8.5 -21t-20.5 -9h-138v-242q0 -49 18.5 -73t63.5 -24q29 0 58 16.5t35 16.5q12 0 19.5 -8.5t7.5 -20.5q0 -29 -48 -50q-41 -18 -85 -18q-142 0 -142 154v249
h-43q-12 0 -20.5 9t-8.5 21q0 11 8.5 19.5t20.5 8.5zM184 -221q0 9 17 24t17 31q0 11 -18 25t-18 36q0 19 12 31.5t35 12.5q27 0 41.5 -18t14.5 -49q0 -43 -30.5 -75t-55.5 -32q-15 0 -15 14z" />
    <glyph glyph-name="circumflex" unicode="&#x2c6;" horiz-adv-x="476" 
d="M259 765l94 -74q21 -17 14 -43t-34 -26q-10 0 -21 8l-76 61l-78 -61q-8 -7 -20 -7q-28 0 -34.5 26t14.5 42l94 74q21 15 47 0z" />
    <glyph glyph-name="caron" unicode="&#x2c7;" horiz-adv-x="417" 
d="M69 758l120 -179l120 179q10 12 22.5 12t20 -11t0.5 -24l-142 -212q-7 -12 -21.5 -11t-20.5 11l-143 212q-7 11 0 22.5t19.5 12t24.5 -11.5z" />
    <glyph glyph-name="breve" unicode="&#x2d8;" horiz-adv-x="417" 
d="M106 712q-16 13 -12.5 29t18.5 19.5t30 -7.5q42 -36 73.5 -35.5t67.5 33.5q21 19 38.5 2.5t2.5 -36.5q-44 -48 -103.5 -50t-114.5 45z" />
    <glyph glyph-name="dotaccent" unicode="&#x2d9;" horiz-adv-x="417" 
d="M216 621q-17 0 -29.5 12.5t-12.5 28.5q0 20 13 31t30 11t29.5 -11t12.5 -31q0 -16 -13 -28.5t-30 -12.5z" />
    <glyph glyph-name="ring" unicode="&#x2da;" horiz-adv-x="417" 
d="M323 662q0 -49 -33.5 -82.5t-81.5 -33.5t-82 33.5t-34 82.5q0 48 34 82t82 34t81.5 -34t33.5 -82zM287 662q0 33 -23 56.5t-56 23.5t-56 -23.5t-23 -56.5q0 -34 23 -57t56 -23t56 23t23 57z" />
    <glyph glyph-name="ogonek" unicode="&#x2db;" horiz-adv-x="417" 
d="M155 10h41q-28 -65 -28 -97q0 -25 15 -41.5t60 -16.5q15 0 30 3.5t19 3.5q22 0 22 -22q0 -20 -23 -28q-25 -9 -53 -9q-119 0 -119 93q0 44 36 114z" />
    <glyph glyph-name="tilde" unicode="&#x2dc;" horiz-adv-x="613" 
d="M471 791q20 0 30.5 -18t-2.5 -35q-44 -55 -120 -55q-32 0 -76.5 23t-71.5 23q-50 0 -71 -26q-12 -14 -29.5 -11.5t-26.5 20.5q-10 19 5 34q43 48 125 48q36 0 79.5 -23t65.5 -23q38 0 69 34q9 9 23 9z" />
    <glyph glyph-name="hungarumlaut" unicode="&#x2dd;" horiz-adv-x="417" 
d="M45 592q0 8 6 19l76 138q11 21 29 21q12 0 21 -8.5t9 -19.5q0 -7 -9 -22l-81 -134q-11 -18 -26 -18q-10 0 -17.5 7t-7.5 17zM230 592q0 8 6 19l76 138q10 21 28 21q13 0 21.5 -8.5t8.5 -19.5q0 -9 -8 -22l-81 -134q-11 -18 -26 -18q-10 0 -17.5 7t-7.5 17z" />
    <glyph glyph-name="Delta" unicode="&#x394;" horiz-adv-x="614" 
d="M533 0h-452q-21 0 -33 11.5t-12 28.5q0 9 5 22l215 587q14 40 51 40t51 -40l215 -587q5 -13 5 -22q0 -17 -12 -28.5t-33 -11.5zM307 568l-179 -498h358z" />
    <glyph glyph-name="Delta" unicode="&#x2206;" horiz-adv-x="614" 
d="M533 0h-452q-21 0 -33 11.5t-12 28.5q0 9 5 22l215 587q14 40 51 40t51 -40l215 -587q5 -13 5 -22q0 -17 -12 -28.5t-33 -11.5zM307 568l-179 -498h358z" />
    <glyph glyph-name="Omega" unicode="&#x3a9;" horiz-adv-x="753" 
d="M377 690q134 0 212 -73.5t78 -211.5q0 -122 -82 -226q-15 -20 -37 -45.5t-34 -41.5t-19 -29h156q13 0 22 -9.5t9 -22.5t-9 -22t-22 -9h-196q-15 0 -24.5 9t-9.5 23q0 11 3.5 21.5t12 23.5t16.5 22.5t23.5 29t26.5 33.5q82 107 82 231q0 110 -55 168t-153 58t-153 -58
t-55 -168q0 -120 81 -231q10 -13 26.5 -33t24 -29.5t16.5 -23t12.5 -23.5t3.5 -21q0 -14 -9.5 -23t-25.5 -9h-195q-13 0 -22.5 9t-9.5 22t9.5 22.5t22.5 9.5h155q-6 13 -17.5 28.5t-34 42t-37.5 45.5q-83 106 -83 226q0 138 78.5 211.5t212.5 73.5z" />
    <glyph glyph-name="Omega" unicode="&#x2126;" horiz-adv-x="753" 
d="M377 690q134 0 212 -73.5t78 -211.5q0 -122 -82 -226q-15 -20 -37 -45.5t-34 -41.5t-19 -29h156q13 0 22 -9.5t9 -22.5t-9 -22t-22 -9h-196q-15 0 -24.5 9t-9.5 23q0 11 3.5 21.5t12 23.5t16.5 22.5t23.5 29t26.5 33.5q82 107 82 231q0 110 -55 168t-153 58t-153 -58
t-55 -168q0 -120 81 -231q10 -13 26.5 -33t24 -29.5t16.5 -23t12.5 -23.5t3.5 -21q0 -14 -9.5 -23t-25.5 -9h-195q-13 0 -22.5 9t-9.5 22t9.5 22.5t22.5 9.5h155q-6 13 -17.5 28.5t-34 42t-37.5 45.5q-83 106 -83 226q0 138 78.5 211.5t212.5 73.5z" />
    <glyph glyph-name="pi" unicode="&#x3c0;" horiz-adv-x="586" 
d="M473 -10q-24 0 -48 25q-40 43 -40 121v252h-187l-21 -258q-7 -78 -47 -115q-27 -25 -50 -25q-39 0 -39 30q0 4 2.5 8.5t4.5 7t8 8t9 8.5q36 35 41 95l19 241h-59q-13 0 -22 9.5t-9 22.5t9 22.5t22 9.5h455q13 0 21.5 -9.5t8.5 -22.5q0 -14 -8.5 -23t-21.5 -9h-64v-242
q0 -54 23 -85q5 -7 14 -15.5t12.5 -14t3.5 -11.5q0 -30 -37 -30z" />
    <glyph glyph-name="afii10023" unicode="&#x401;" horiz-adv-x="555" 
d="M140 58h334q13 0 23.5 -8.5t10.5 -27.5q0 -32 -34 -32h-366q-14 0 -25 10.5t-11 25.5v627q0 15 10.5 26t25.5 11h366q15 0 24.5 -9t9.5 -25q0 -34 -34 -34h-334v-248h257q15 0 24.5 -9t9.5 -25q0 -17 -10.5 -25.5t-23.5 -8.5h-257v-248zM211 760q-15 0 -26.5 11t-11.5 27
t11.5 27t26.5 11q17 0 27.5 -11t10.5 -27t-11 -27t-27 -11zM355 760q-16 0 -27 11t-11 27t11 27t27 11q15 0 26.5 -11t11.5 -27t-11.5 -27t-26.5 -11z" />
    <glyph glyph-name="afii10051" unicode="&#x402;" horiz-adv-x="748" 
d="M683 253v-24q0 -124 -48 -187q-39 -52 -92 -52q-18 0 -28.5 9t-10.5 24q0 11 7.5 17.5t24 16t27.5 19.5q47 40 47 136v29q0 87 -40 126q-33 33 -99 33q-86 0 -126 -61q-28 -42 -28 -100v-210q0 -16 -12 -27.5t-28 -11.5q-17 0 -28.5 11.5t-11.5 27.5v581h-208
q-14 0 -24.5 10.5t-10.5 25.5q0 14 10.5 24.5t24.5 10.5h495q14 0 24.5 -10.5t10.5 -24.5q0 -15 -10.5 -25.5t-24.5 -10.5h-207v-242q23 43 60 65q45 27 108 27q89 0 137 -42q61 -51 61 -165z" />
    <glyph glyph-name="afii10052" unicode="&#x403;" horiz-adv-x="533" 
d="M75 29v613q0 16 11.5 27.5t28.5 11.5h366q14 0 24 -10.5t10 -24.5q0 -15 -10 -25.5t-24 -10.5h-326v-581q0 -16 -12 -27.5t-28 -11.5q-17 0 -28.5 11.5t-11.5 27.5zM203 794q0 8 6 19l76 138q11 21 28 21q13 0 21.5 -8.5t8.5 -19.5q0 -9 -8 -22l-81 -134q-11 -18 -26 -18
q-10 0 -17.5 7t-7.5 17z" />
    <glyph glyph-name="afii10053" unicode="&#x404;" horiz-adv-x="683" 
d="M615 137q13 0 22 -10.5t9 -24.5t-9 -23q-93 -93 -238 -94h-5q-138 0 -243.5 103.5t-105.5 251.5t105 251.5t249 103.5q112 0 213 -71q15 -12 15 -29q0 -12 -7 -22q-10 -13 -24 -13q-12 0 -26 9q-77 58 -171 58q-106 0 -188.5 -72.5t-95.5 -180.5h314q10 0 20 -7.5
t10 -26.5q0 -18 -10 -26t-20 -8h-314q13 -106 96 -179.5t188 -73.5q56 0 108 21.5t81 51.5q14 11 27 11z" />
    <glyph glyph-name="afii10054" unicode="&#x405;" horiz-adv-x="608" 
d="M561 185q0 -81 -47 -130q-69 -70 -196 -70q-171 0 -236 86q-33 44 -38 93v5q0 32 32 32t36 -28q18 -120 203 -120q93 0 138 37q40 32 40 93q0 44 -15 66.5t-48 38.5q-49 23 -131 31q-153 15 -209 83q-32 38 -32 98q0 52 21 89q28 50 86 78t125 28q121 0 184 -45
q32 -23 51 -44t26 -50q1 -4 1 -11q0 -11 -8.5 -20t-22.5 -10q-17 0 -24 5t-14 22q-6 15 -22.5 32t-35.5 26q-53 27 -133 27q-55 0 -105 -27q-61 -33 -61 -97q0 -41 24 -64q44 -43 165 -54q107 -9 176 -55q35 -23 52.5 -56t17.5 -89z" />
    <glyph glyph-name="afii10055" unicode="&#x406;" horiz-adv-x="230" 
d="M141 665v-644q0 -11 -8 -23.5t-27 -12.5q-14 0 -22 8t-10 15t-2 13v644q0 10 7.5 20t26.5 10q18 0 26.5 -10.5t8.5 -19.5z" />
    <glyph glyph-name="afii10056" unicode="&#x407;" horiz-adv-x="250" 
d="M52 760q-15 0 -26.5 11t-11.5 27t11.5 27t26.5 11q16 0 27 -11t11 -27t-11 -27t-27 -11zM196 760q-16 0 -27 11t-11 27t11 27t27 11q15 0 26.5 -11t11.5 -27t-11.5 -27t-26.5 -11zM158 665v-644q0 -11 -7.5 -23.5t-26.5 -12.5t-27 12.5t-8 23.5v644q0 10 8 20t27 10
q18 0 26 -10t8 -20z" />
    <glyph glyph-name="afii10057" unicode="&#x408;" horiz-adv-x="370" 
d="M249 695q16 0 26 -9t10 -26v-464q0 -95 -58 -153t-148 -58q-14 0 -24 10t-10 24t9.5 24t24.5 10q59 0 97 38q41 41 41 105v464q0 34 32 35z" />
    <glyph glyph-name="afii10058" unicode="&#x409;" horiz-adv-x="1090" 
d="M199 610v-97q0 -298 -65 -439q-23 -49 -39 -66.5t-36 -17.5q-17 0 -28.5 11.5t-11.5 28.5q0 13 21.5 45.5t33.5 63.5q45 122 45 374v129q0 16 11.5 27.5t28.5 11.5h413q17 0 28.5 -11.5t11.5 -27.5v-263h189q37 0 69 -4.5t64.5 -17.5t55.5 -33t37.5 -54.5t14.5 -78.5
q0 -98 -67.5 -144.5t-167.5 -46.5h-235q-16 0 -28 11.5t-12 27.5v571h-333zM961 191q0 60 -43.5 91.5t-121.5 31.5h-184v-248h189q72 0 116 31.5t44 93.5z" />
    <glyph glyph-name="afii10059" unicode="&#x40a;" horiz-adv-x="1122" 
d="M644 652v-273h188q37 0 69 -4.5t64.5 -17.5t55.5 -33t37.5 -54.5t14.5 -78.5q0 -98 -67 -144.5t-168 -46.5h-234q-17 0 -28.5 11.5t-11.5 27.5v275h-409v-285q0 -16 -12 -27.5t-28 -11.5t-28 11.5t-12 27.5v622q0 16 12 27.5t28 11.5t28 -11.5t12 -27.5v-273h409v274
q0 16 11.5 27t28.5 11t28.5 -11t11.5 -27zM992 191q0 60 -43.5 91.5t-121.5 31.5h-183v-248h188q72 0 116 31.5t44 93.5z" />
    <glyph glyph-name="afii10060" unicode="&#x40b;" horiz-adv-x="748" 
d="M524 610h-207v-242q23 43 60 65q45 27 108 27q89 0 137 -42q61 -51 61 -165v-227q0 -15 -11 -25.5t-25 -10.5q-16 0 -26.5 10.5t-10.5 25.5v215q0 87 -40 126q-33 33 -99 33q-86 0 -126 -61q-28 -42 -28 -100v-210q0 -16 -12 -27.5t-28 -11.5q-17 0 -28.5 11.5
t-11.5 27.5v581h-208q-14 0 -24.5 10.5t-10.5 25.5q0 14 10.5 24.5t24.5 10.5h495q14 0 24.5 -10.5t10.5 -24.5q0 -15 -10.5 -25.5t-24.5 -10.5z" />
    <glyph glyph-name="afii10061" unicode="&#x40c;" horiz-adv-x="597" 
d="M548 624l-253 -278l261 -289q11 -13 11 -29t-10.5 -27t-27.5 -11q-19 0 -38 21l-261 295h-75v-277q0 -16 -12 -27.5t-28 -11.5t-28 11.5t-12 27.5v623q0 16 11.5 27t28.5 11t28.5 -11t11.5 -27v-275h73l261 296q15 17 34 17q16 0 26.5 -11t10.5 -28q0 -13 -12 -27z
M228 818q0 8 6 19l76 138q10 21 28 21q13 0 21.5 -8.5t8.5 -19.5q0 -9 -8 -22l-81 -134q-11 -18 -26 -18q-10 0 -17.5 7t-7.5 17z" />
    <glyph glyph-name="afii10062" unicode="&#x40e;" horiz-adv-x="564" 
d="M73 60q60 0 100.5 30t76.5 91l-233 445q-7 14 -7 25q0 16 11.5 27.5t27.5 11.5q27 0 41 -29l201 -392l188 392q13 29 41 29q15 0 26.5 -11t11.5 -27q0 -11 -7 -25l-203 -424q-49 -106 -114.5 -159.5t-158.5 -53.5q-20 0 -30.5 9.5t-10.5 25.5q0 15 10.5 25t28.5 10z
M281 857q24 0 43.5 13t29.5 29t21.5 29t22.5 13t19.5 -7.5t8.5 -18.5q0 -18 -30 -54q-47 -58 -115 -58t-115 58q-30 36 -30 54q0 11 8.5 18.5t19.5 7.5t22.5 -13t21.5 -29t29.5 -29t43.5 -13z" />
    <glyph glyph-name="afii10145" unicode="&#x40f;" horiz-adv-x="705" 
d="M540 654v-625q0 -16 -11 -27.5t-28 -11.5h-177v-196q0 -17 -5.5 -25.5t-21.5 -8.5q-27 0 -27 34v196h-176q-16 0 -28 11.5t-12 27.5v624q0 37 27 37t27 -37v-609h377v610q0 36 29 36q16 0 21 -9t5 -27z" />
    <glyph glyph-name="afii10017" unicode="&#x410;" horiz-adv-x="632" 
d="M349 673l261 -638q3 -9 3 -19q0 -13 -9 -22t-23 -9q-23 0 -33 23l-58 145h-348l-58 -145q-10 -23 -33 -23q-14 0 -23.5 10t-9.5 24q0 9 3 16l262 638q8 22 34 22q23 0 32 -22zM170 221h292l-146 357z" />
    <glyph glyph-name="afii10018" unicode="&#x411;" horiz-adv-x="611" 
d="M353 438q82 0 144.5 -71t62.5 -156q0 -88 -61.5 -154.5t-145.5 -66.5h-217q-15 0 -25.5 11t-10.5 25v630q0 14 9 24t22 10h343q13 0 23 -10.5t10 -24.5q0 -15 -9.5 -24t-23.5 -9h-306v-184h185zM353 58q56 0 98 49t42 104q0 57 -43.5 108t-96.5 51h-185v-312h185z" />
    <glyph glyph-name="afii10019" unicode="&#x412;" horiz-adv-x="611" 
d="M453 347q59 -32 83 -68q26 -40 26 -95q0 -65 -39 -115q-63 -79 -167 -79h-248q-14 0 -25 11t-11 25v628q0 15 11 25.5t25 10.5h203q41 0 85 -14t72 -37q66 -53 66 -139q0 -48 -23 -90q-22 -37 -58 -63zM356 58q66 0 110 50q28 33 28 76q0 45 -29 74q-51 49 -137 49h-188
v-249h216zM140 375h179q36 0 73.5 17t56.5 45q17 25 17 63q0 52 -41 86q-19 16 -53 26t-61 10h-171v-247z" />
    <glyph glyph-name="afii10020" unicode="&#x413;" horiz-adv-x="492" 
d="M443 690q16 0 26.5 -9t10.5 -25t-10 -25t-27 -9h-303v-600q0 -16 -9 -26.5t-25 -10.5q-15 0 -24.5 11t-9.5 26v632q0 15 10.5 25.5t25.5 10.5h335z" />
    <glyph glyph-name="afii10021" unicode="&#x414;" horiz-adv-x="682" 
d="M634 58q15 -1 24.5 -10.5t9.5 -24.5v-132q0 -13 -9 -22t-25 -9q-14 0 -23.5 9t-10.5 22v99h-515v-101q0 -29 -34 -29q-32 0 -34 29v134q0 15 10.5 25t24.5 10h77q18 20 31 61.5t13 74.5v460q0 15 9.5 25.5t24.5 10.5h336q19 0 30 -10t11 -28v-594h50zM241 622v-434
q0 -21 -7 -52t-14.5 -53t-9.5 -25h306v564h-275z" />
    <glyph glyph-name="afii10022" unicode="&#x415;" horiz-adv-x="607" 
d="M140 58h334q13 0 23.5 -8.5t10.5 -27.5q0 -32 -34 -32h-366q-14 0 -25 10.5t-11 25.5v627q0 15 10.5 26t25.5 11h366q15 0 24.5 -9t9.5 -25q0 -34 -34 -34h-334v-248h257q15 0 24.5 -9t9.5 -25q0 -17 -10.5 -25.5t-23.5 -8.5h-257v-248z" />
    <glyph glyph-name="afii10024" unicode="&#x416;" horiz-adv-x="894" 
d="M862 47q12 -16 12 -27q0 -14 -10.5 -24.5t-25.5 -10.5q-17 0 -26 12l-260 301l-72 -86v-193q0 -31 -34 -34q-34 0 -34 34v193l-73 86l-260 -301q-9 -12 -26 -12q-15 0 -26 10.5t-11 24.5q0 9 13 27l265 303l-243 288q-10 13 -10 24q0 14 12 24t26 10q13 0 26 -15
l307 -363v351q3 27 34 27q30 0 34 -27v-351l306 363q14 15 26 15q14 0 26 -10t12 -24q0 -11 -10 -24l-243 -288z" />
    <glyph glyph-name="afii10025" unicode="&#x417;" horiz-adv-x="604" 
d="M462 349q38 -19 61 -46q37 -44 37 -116q0 -75 -48 -128q-68 -74 -196 -74q-61 0 -119 20.5t-97 59.5q-33 33 -49 86q-2 4 -2 13q0 12 10.5 19t23.5 7q29 0 36 -25q9 -29 32 -54q53 -58 160 -58q113 0 155 55q25 32 25 83q0 42 -25 72q-14 18 -54 35t-78 17h-69
q-36 0 -37 34q0 34 37 34h48q53 0 83.5 11t53.5 39q22 25 22 64q0 40 -24 72q-43 58 -135 58q-93 0 -134 -38q-22 -21 -34 -59q-5 -15 -12 -21t-22 -6q-13 1 -23.5 9t-10.5 20q0 4 1 6q14 54 47 90q60 67 189 67q55 0 107 -22.5t83 -63.5q36 -47 36 -108q0 -62 -30 -104
q-25 -34 -48 -48z" />
    <glyph glyph-name="afii10026" unicode="&#x418;" horiz-adv-x="687" 
d="M72 22v639q0 34 35 34q15 0 24 -10t9 -24v-544l408 562q13 16 34 16q14 0 24 -11t10 -25v-638q0 -16 -9.5 -26t-24.5 -10q-34 0 -34 36v541l-409 -564q-10 -13 -28 -13q-10 0 -17 4q-22 11 -22 33z" />
    <glyph glyph-name="afii10027" unicode="&#x419;" horiz-adv-x="687" 
d="M415 831q14 0 25.5 -10t11.5 -24q0 -12 -10 -25l-96 -129q-14 -17 -29 -17q-13 0 -25 10t-12 24t10 25l96 129q12 17 29 17zM71 22v639q0 34 35 34q15 0 24 -10t9 -24v-544l408 562q13 16 34 16q15 0 24.5 -11t9.5 -25v-638q0 -16 -9.5 -26t-24.5 -10q-34 0 -34 36v541
l-409 -564q-10 -13 -28 -13q-10 0 -17 4q-22 11 -22 33z" />
    <glyph glyph-name="afii10028" unicode="&#x41a;" horiz-adv-x="555" 
d="M259 351l264 -305q13 -13 13 -26q0 -14 -10.5 -24.5t-25.5 -10.5q-17 0 -26 12l-260 301l-73 -86v-194q0 -33 -34 -33q-15 0 -24.5 9t-9.5 24v645q0 14 9.5 23t24.5 9q34 0 34 -32v-346l306 364q13 15 27 15t26 -10t12 -24q0 -10 -10 -23z" />
    <glyph glyph-name="afii10029" unicode="&#x41b;" 
d="M520 656v-638q0 -15 -9 -24t-24 -9t-25 9t-10 24v604h-256v-437q0 -98 -51 -153q-42 -47 -108 -47q-14 0 -24 9t-10 26q0 14 9 23.5t24 9.5q38 0 62 30q30 37 30 102v468q0 16 10 26.5t26 10.5h320q15 0 25.5 -9.5t10.5 -24.5z" />
    <glyph glyph-name="afii10030" unicode="&#x41c;" horiz-adv-x="825" 
d="M724 695q29 -8 29 -35v-637q0 -14 -10.5 -26t-25.5 -12t-24 10.5t-9 27.5v519l-237 -394q-1 -3 -5 -7.5t-12.5 -10.5t-17.5 -6q-19 0 -35 25l-237 393v-520q0 -15 -9 -26t-25 -11q-15 0 -24.5 10.5t-9.5 26.5v638q0 27 27 35q4 1 11 1q18 0 29 -18l273 -461l275 462
q11 18 27 18q2 0 10 -2z" />
    <glyph glyph-name="afii10031" unicode="&#x41d;" horiz-adv-x="620" 
d="M515 695q15 0 24 -9t9 -25v-642q0 -14 -9 -24t-25 -10t-25 10t-9 24v287h-340v-287q0 -14 -8.5 -24t-25.5 -10q-14 0 -24 10t-10 24v642q0 12 8.5 23t25.5 11q34 0 34 -34v-287h340v287q0 13 8.5 23.5t26.5 10.5z" />
    <glyph glyph-name="afii10032" unicode="&#x41e;" horiz-adv-x="800" 
d="M427 695q146 0 251 -105t105 -250t-105 -250t-251 -105q-145 0 -250 104.5t-105 250.5t105 250.5t250 104.5zM427 53q117 0 202.5 84.5t85.5 201.5t-86 202.5t-203 85.5t-201.5 -85.5t-84.5 -202.5t85 -201.5t202 -84.5z" />
    <glyph glyph-name="afii10033" unicode="&#x41f;" horiz-adv-x="656" 
d="M548 690q15 0 24.5 -10.5t9.5 -26.5v-631q0 -37 -33 -37q-20 0 -27.5 12t-7.5 25v600h-374v-600q0 -37 -34 -37t-34 37v631q0 14 11.5 25.5t25.5 11.5h439z" />
    <glyph glyph-name="afii10034" unicode="&#x420;" horiz-adv-x="579" 
d="M107 690h218q86 0 148 -67t62 -156q0 -85 -63.5 -157t-146.5 -72h-186v-219q0 -15 -9 -24.5t-25 -9.5q-15 0 -24.5 9.5t-9.5 24.5v634q0 15 10.5 25.5t25.5 11.5zM139 622v-316h186q53 0 97.5 52t44.5 109q0 55 -43 105t-99 50h-186z" />
    <glyph glyph-name="afii10035" unicode="&#x421;" horiz-adv-x="717" 
d="M642 137q13 0 22 -10.5t9 -24.5t-10 -24q-93 -92 -238 -93h-4q-139 0 -244.5 103.5t-105.5 251.5q0 149 105 252t249 103q114 0 213 -71q15 -10 15 -29q0 -12 -7 -22q-10 -13 -24 -13q-12 0 -26 9q-77 58 -171 58q-115 0 -200.5 -83.5t-85.5 -203.5q0 -117 86 -202
t200 -85q56 0 108 21t82 51q12 12 27 12z" />
    <glyph glyph-name="afii10036" unicode="&#x422;" horiz-adv-x="601" 
d="M486 690q36 0 36 -33q0 -18 -11 -26.5t-25 -8.5h-168v-600q0 -15 -9.5 -26t-25.5 -11q-15 0 -24 11t-9 26v600h-170q-14 0 -24 10t-10 25t9 24t24 9h407z" />
    <glyph glyph-name="afii10037" unicode="&#x423;" horiz-adv-x="583" 
d="M542 691q20 -11 20 -29q0 -7 -5 -19l-227 -529q-27 -60 -70 -92q-52 -37 -105 -37q-38 0 -38 35q0 31 40 34q47 5 76.5 37t52.5 92l-211 458q-6 14 -6 22q0 17 19 28q8 4 16 4q23 0 34 -26l184 -403l175 407q9 23 28 23q7 0 17 -5z" />
    <glyph glyph-name="afii10038" unicode="&#x424;" horiz-adv-x="859" 
d="M576 690q86 -1 148 -67.5t62 -156.5q0 -84 -63.5 -156t-147.5 -72h-112v-220q0 -15 -9 -24t-25 -9q-15 0 -24.5 9t-9.5 24v220h-114q-80 0 -145 71t-65 158q0 88 61 155.5t149 67.5h295zM395 622h-115q-54 0 -97.5 -49.5t-43.5 -105.5q0 -57 44 -109t98 -52h114v316z
M463 622v-316h113q51 0 96.5 51t45.5 108q0 58 -42.5 107.5t-99.5 49.5h-113z" />
    <glyph glyph-name="afii10039" unicode="&#x425;" horiz-adv-x="610" 
d="M347 341l209 -299q8 -11 8 -24q0 -16 -15 -26q-10 -7 -20 -7q-17 0 -30 18l-194 279l-194 -280q-12 -17 -29 -17q-10 0 -20 7q-15 10 -15 26q0 10 9 24l207 300l-209 299q-7 10 -7 19q0 12 11 23.5t24 11.5q17 0 30 -16l193 -278l193 277q12 17 29 17q13 0 25 -9.5
t12 -22.5q0 -10 -11 -25z" />
    <glyph glyph-name="afii10040" unicode="&#x426;" horiz-adv-x="739" 
d="M662 58q15 0 24.5 -9.5t9.5 -25.5v-129q0 -14 -9.5 -24t-24.5 -10q-14 0 -24 9.5t-10 24.5v96h-492q-17 0 -26.5 12.5t-9.5 24.5v633q0 15 9 25t25 10q34 0 34 -35v-602h374v602q0 15 9 25t25 10q15 0 24.5 -10t9.5 -25v-602h52z" />
    <glyph glyph-name="afii10041" unicode="&#x427;" horiz-adv-x="559" 
d="M480 695q14 0 24 -9t10 -22v-646q0 -14 -9 -23.5t-25 -9.5q-34 0 -34 33v220h-177q-85 0 -141 64.5t-56 155.5v206q0 11 9 21t26 10q33 0 33 -31v-204q0 -67 38.5 -110.5t98.5 -43.5h169v358q0 13 10 22t24 9z" />
    <glyph glyph-name="afii10042" unicode="&#x428;" horiz-adv-x="1048" 
d="M916 695q14 0 23.5 -9.5t9.5 -24.5v-634q0 -12 -8.5 -24.5t-25.5 -12.5h-782q-14 0 -24 12t-10 25v634q0 12 9 23t25 11q18 0 26 -11t8 -23v-603h322v603q2 34 34 34q20 0 27 -8.5t7 -25.5v-603h324v603q0 14 9.5 24t25.5 10z" />
    <glyph glyph-name="afii10043" unicode="&#x429;" horiz-adv-x="1053" 
d="M949 58h52q15 0 24.5 -9.5t9.5 -25.5v-131q0 -13 -9.5 -22.5t-24.5 -9.5t-24.5 8.5t-9.5 23.5v98h-831q-14 0 -25.5 12t-11.5 25v636q0 11 9 21.5t25 10.5q17 0 25.5 -10.5t8.5 -21.5v-605h322v604q2 33 34 33q19 0 26 -8.5t8 -24.5v-604h324v603q0 13 8.5 23.5
t26.5 10.5q15 0 24 -9.5t9 -24.5v-603z" />
    <glyph glyph-name="afii10044" unicode="&#x42a;" horiz-adv-x="647" 
d="M386 442q84 0 147 -71.5t63 -158.5q0 -89 -62 -155.5t-148 -66.5h-217q-16 0 -26.5 11t-10.5 25v601h-79q-11 0 -23.5 7.5t-12.5 26.5t12.5 26.5t23.5 7.5h116l8 -2q23 -6 23 -32v-219h186zM386 58q56 0 99.5 50t43.5 104q0 58 -45 110t-98 52h-186v-316h186z" />
    <glyph glyph-name="afii10045" unicode="&#x42b;" horiz-adv-x="850" 
d="M779 665v-644q0 -11 -7.5 -23.5t-26.5 -12.5q-14 0 -22 8t-10 15t-2 13v644q0 10 7.5 20t26.5 10q18 0 26 -10t8 -20zM353 -10h-218q-15 0 -25.5 11t-10.5 26v634q0 15 9.5 24.5t24.5 9.5q16 0 25 -9.5t9 -24.5v-219h186q83 0 146.5 -72t63.5 -157q0 -89 -62 -156
t-148 -67zM167 374v-316h186q56 0 99 50t43 105q0 57 -44.5 109t-97.5 52h-186z" />
    <glyph glyph-name="afii10046" unicode="&#x42c;" horiz-adv-x="608" 
d="M353 -10h-218q-15 0 -25.5 11t-10.5 26v634q0 15 9.5 24.5t24.5 9.5q16 0 25 -9.5t9 -24.5v-219h186q83 0 146.5 -72t63.5 -157q0 -89 -62 -156t-148 -67zM167 374v-316h186q56 0 99 50t43 105q0 57 -44.5 109t-97.5 52h-186z" />
    <glyph glyph-name="afii10047" unicode="&#x42d;" horiz-adv-x="663" 
d="M51 137q13 0 27 -11q29 -30 81 -51.5t108 -21.5q105 0 188 73.5t96 179.5h-314q-10 0 -20 8t-10 26q0 19 10 26.5t20 7.5h314q-13 108 -95.5 180.5t-188.5 72.5q-94 0 -171 -58q-14 -9 -26 -9q-14 0 -24 13q-7 10 -7 22q0 17 15 29q101 71 213 71q144 0 249 -103.5
t105 -251.5t-105.5 -251.5t-243.5 -103.5h-5q-145 1 -238 94q-9 9 -9 23t9 24.5t22 10.5z" />
    <glyph glyph-name="afii10048" unicode="&#x42e;" horiz-adv-x="1000" 
d="M593 695q146 0 251 -105t105 -250t-105 -250t-251 -105q-136 0 -237.5 93.5t-115.5 228.5h-99v-284q0 -15 -9.5 -26.5t-25.5 -11.5q-14 0 -24 11t-10 27v634q0 14 9.5 26t24.5 12q16 0 25.5 -10.5t9.5 -27.5v-283h99q14 135 115.5 228t237.5 93zM593 54q117 0 202 84.5
t85 201.5q0 115 -85.5 200.5t-201.5 85.5q-117 0 -201.5 -85t-84.5 -201q0 -117 84.5 -201.5t201.5 -84.5z" />
    <glyph glyph-name="afii10049" unicode="&#x42f;" horiz-adv-x="585" 
d="M61 31l115 218q-67 22 -112.5 86t-45.5 135q0 90 63 157.5t149 67.5h219q16 0 26.5 -11.5t10.5 -26.5v-639q0 -15 -9.5 -24t-24.5 -9q-16 0 -25.5 9t-9.5 24v221h-169l-127 -240q-6 -14 -26 -14q-15 0 -26.5 9.5t-11.5 22.5q0 8 4 14zM417 307v320h-187q-57 0 -100 -50.5
t-43 -106.5q0 -58 44.5 -110.5t98.5 -52.5h187z" />
    <glyph glyph-name="afii10065" unicode="&#x430;" horiz-adv-x="539" 
d="M267 475q80 0 133.5 -38t53.5 -115v-297q0 -15 -10 -25t-24 -10h-223q-65 0 -108 46.5t-43 118.5q0 66 44.5 111t107.5 45h188v14q0 35 -34 58.5t-78 23.5q-58 0 -103 -24q-10 -6 -20 -6q-14 0 -25 13q-8 11 -8 20q0 19 20 31q53 34 129 34zM386 58v185h-186
q-35 0 -60.5 -23.5t-25.5 -64.5q1 -46 24.5 -71.5t61.5 -25.5h186z" />
    <glyph glyph-name="afii10066" unicode="&#x431;" horiz-adv-x="564" 
d="M286 470q104 0 173.5 -72.5t69.5 -171.5q0 -97 -70 -169t-173 -72q-100 0 -170.5 70.5t-70.5 170.5v126q0 118 68 189q69 69 166 69q96 0 153 27q6 3 12 3q14 0 24 -12t10 -27q0 -19 -18 -27q-68 -32 -181 -32q-60 0 -106 -41.5t-56 -100.5q75 70 169 70zM286 53
q71 0 123 52t52 121q0 70 -50.5 123t-124.5 53q-72 0 -122.5 -52.5t-50.5 -123.5q0 -69 51.5 -121t121.5 -52z" />
    <glyph glyph-name="afii10067" unicode="&#x432;" horiz-adv-x="518" 
d="M404 240q33 -15 51 -45t18 -68q0 -56 -42.5 -96.5t-100.5 -40.5h-195q-14 0 -25 11t-11 25v405q0 15 10.5 25t25.5 10h176q55 0 95.5 -39.5t40.5 -94.5q0 -59 -43 -92zM330 58q28 0 51.5 20.5t23.5 48.5q0 22 -12 36.5t-30 20.5t-30 8t-22 2h-144v-136h163zM306 262
q27 0 50 20.5t23 49.5t-22 47.5t-50 18.5h-140v-136h139z" />
    <glyph glyph-name="afii10068" unicode="&#x433;" horiz-adv-x="442" 
d="M385 466q17 0 27.5 -9t10.5 -25t-10.5 -25t-27.5 -9h-227v-375q0 -38 -34 -38t-34 38v401q0 17 13 29.5t30 12.5h252z" />
    <glyph glyph-name="afii10069" unicode="&#x434;" horiz-adv-x="580" 
d="M528 58q34 -2 34 -36v-131q0 -13 -9 -22t-25 -9q-14 0 -24 8.5t-10 22.5v99h-408v-99q0 -15 -9.5 -23t-24.5 -8q-14 0 -24 9t-10 22v131q0 15 10.5 25.5t25.5 10.5h42q18 21 31 62t13 74v236q0 15 9 25.5t24 10.5h265q40 0 40 -38v-370h50zM208 398v-208q0 -26 -7 -57.5
t-14 -51t-10 -23.5h233v340h-202z" />
    <glyph glyph-name="afii10070" unicode="&#x435;" horiz-adv-x="592" 
d="M304 470q100 0 170.5 -69.5t72.5 -167.5q0 -39 -46 -39h-366q11 -58 59 -99.5t110 -41.5q87 0 139 43q13 11 25 11q13 0 23.5 -9t10.5 -23q0 -17 -12 -29q-64 -61 -186 -61q-98 0 -169.5 69.5t-71.5 171.5q0 103 70 173.5t171 70.5zM135 262h340q-12 59 -60 99.5
t-111 40.5q-59 0 -108.5 -40.5t-60.5 -99.5z" />
    <glyph glyph-name="afii10072" unicode="&#x436;" horiz-adv-x="682" 
d="M652 44q10 -16 10 -22q0 -13 -10 -25t-23 -12t-24 12l-184 184l-44 -45v-120q0 -31 -35 -31q-34 0 -34 31v120l-44 45l-184 -184q-10 -12 -24 -12q-13 0 -23 12t-10 25q0 6 10 22l185 188l-166 180q-10 12 -10 22q0 14 11.5 25t24.5 11t24 -11l206 -221v199q0 33 34 33
q35 0 35 -34v-198l206 221q11 11 24 11t24.5 -11t11.5 -25q0 -10 -10 -22l-166 -180z" />
    <glyph glyph-name="afii10073" unicode="&#x437;" horiz-adv-x="458" 
d="M335 128q0 20 -12 39q-23 35 -79 35h-62q-12 0 -22.5 10t-10.5 24q0 13 9 23.5t22 10.5h40q37 0 69 15.5t32 49.5q0 33 -30.5 48t-73.5 15q-80 0 -108 -48q-11 -20 -34 -20q-13 0 -23 7.5t-10 19.5q0 7 2 11q37 98 175 98q66 0 118 -32.5t52 -96.5q0 -33 -13.5 -58.5
t-29.5 -37.5q20 -13 38.5 -43t18.5 -73q0 -52 -36 -86q-35 -33 -71 -45q-27 -9 -78 -9h-19q-49 2 -71 9q-69 21 -95 71q-14 21 -17 50v4q0 14 9.5 22.5t24.5 8.5q30 0 34 -28q6 -46 58 -62q14 -5 58 -7h17q35 0 53 5q25 8 43 23q22 19 22 47z" />
    <glyph glyph-name="afii10074" unicode="&#x438;" horiz-adv-x="534" 
d="M427 470q15 0 25 -11t10 -26v-412q0 -15 -9.5 -25.5t-24.5 -10.5q-17 0 -25.5 11t-8.5 25v317l-255 -339q-11 -14 -29 -14q-15 0 -26.5 11.5t-11.5 26.5v418q0 13 10 21t24 8q34 0 34 -29v-327l257 340q11 16 30 16z" />
    <glyph glyph-name="afii10075" unicode="&#x439;" horiz-adv-x="526" 
d="M330 645q12 0 23 -10t11 -23t-9 -23l-81 -103q-15 -17 -29 -17q-12 0 -22.5 10t-10.5 22q0 11 9 23l81 104q12 17 28 17zM427 470q15 0 25 -11t10 -26v-412q0 -15 -9.5 -25.5t-24.5 -10.5q-17 0 -25.5 11t-8.5 25v317l-255 -339q-11 -14 -29 -14q-15 0 -26.5 11.5
t-11.5 26.5v418q0 13 10 21t24 8q34 0 34 -29v-327l257 340q11 16 30 16z" />
    <glyph glyph-name="afii10076" unicode="&#x43a;" horiz-adv-x="438" 
d="M225 232l180 -188q10 -14 10 -22q0 -13 -10 -25t-23 -12q-14 0 -24 12l-178 184l-40 -45v-115q0 -36 -34 -36t-34 36v416q0 33 34 33t34 -34v-198l196 221q11 11 24 11t24.5 -11t11.5 -25q0 -10 -10 -22z" />
    <glyph glyph-name="afii10077" unicode="&#x43b;" horiz-adv-x="490" 
d="M419 431v-413q0 -14 -9 -23.5t-25 -9.5q-15 0 -24.5 9t-9.5 24v380h-185v-273q0 -58 -26 -96q-33 -47 -89 -47q-15 0 -24 10t-9 24q0 34 36 34q16 0 30 19t14 56v305q0 15 10.5 25.5t25.5 10.5h249q15 0 25.5 -10t10.5 -25z" />
    <glyph glyph-name="afii10078" unicode="&#x43c;" horiz-adv-x="610" 
d="M507 470q15 0 23.5 -10.5t8.5 -26.5v-415q0 -33 -33 -33q-35 0 -35 33v294l-132 -219q-12 -22 -33 -22q-20 0 -32 21l-134 221v-296q0 -14 -9 -23t-25 -9q-15 0 -24.5 8.5t-9.5 23.5v417q0 13 8.5 24.5t23.5 11.5q23 0 35 -20l167 -280l167 279q14 21 34 21z" />
    <glyph glyph-name="afii10079" unicode="&#x43d;" horiz-adv-x="530" 
d="M423 470q15 0 25 -9t10 -24v-421q0 -12 -9 -21.5t-26 -9.5q-14 0 -23.5 9t-9.5 22v178h-250v-178q0 -14 -9 -22.5t-25 -8.5q-14 0 -24 9t-10 22v421q0 13 9.5 23t24.5 10t24.5 -9t9.5 -24v-175h250v175q0 12 8.5 22.5t24.5 10.5z" />
    <glyph glyph-name="afii10080" unicode="&#x43e;" horiz-adv-x="578" 
d="M295 470q102 0 172.5 -71t70.5 -173q0 -101 -70.5 -171t-172.5 -70q-101 0 -171 70.5t-70 170.5q0 102 70 173t171 71zM295 53q72 0 123.5 51.5t51.5 121.5q0 72 -51.5 124t-123.5 52q-71 0 -122 -52t-51 -124q0 -70 51.5 -121.5t121.5 -51.5z" />
    <glyph glyph-name="afii10081" unicode="&#x43f;" horiz-adv-x="529" 
d="M423 466q15 0 24.5 -10.5t9.5 -26.5v-412q0 -13 -9 -22.5t-25 -9.5q-15 0 -24.5 8.5t-9.5 23.5v381h-249v-381q0 -32 -34 -32q-14 0 -23.5 9t-10.5 23v412q0 14 10 25.5t24 11.5h317z" />
    <glyph glyph-name="afii10082" unicode="&#x440;" horiz-adv-x="552" 
d="M414 422q88 -67 88 -193q0 -128 -88 -195q-59 -44 -130 -44h-116v-194q0 -11 -7.5 -23.5t-26.5 -12.5t-26.5 12.5t-7.5 23.5v640q0 14 10.5 22t24.5 8h149q71 0 130 -44zM284 58q9 0 21.5 1.5t36.5 11t42.5 26t34 51t16.5 80.5q-1 46 -16.5 80.5t-34 51t-42.5 26
t-36.5 11t-21.5 1.5h-116v-340h116z" />
    <glyph glyph-name="afii10083" unicode="&#x441;" horiz-adv-x="495" 
d="M430 108q13 0 23.5 -11t10.5 -28q0 -12 -10 -21q-66 -63 -164 -63t-169.5 69t-71.5 172q0 104 71 174t170 70q82 0 147 -49q13 -10 13 -28q0 -14 -9.5 -24t-24.5 -10q-12 0 -20 7q-47 36 -106 36q-69 0 -121 -51.5t-52 -124.5q0 -71 52 -122t121 -51q66 0 116 45
q12 10 24 10z" />
    <glyph glyph-name="afii10084" unicode="&#x442;" horiz-adv-x="486" 
d="M209 20l1 378h-162q-12 0 -21 9t-9 24q0 35 30 35h390q12 0 21 -9t9 -26q0 -16 -9 -24.5t-21 -8.5h-161v-378q0 -30 -34 -30t-34 30z" />
    <glyph glyph-name="afii10085" unicode="&#x443;" horiz-adv-x="496" 
d="M444 470q13 0 24 -9.5t11 -23.5q0 -11 -4 -19l-225 -538q-22 -51 -70 -85.5t-103 -34.5q-38 0 -38 35q0 34 37 34q46 0 79 36.5t48 75.5l17 44l-188 431q-4 8 -4 21q0 14 8.5 23.5t23.5 9.5q23 0 32 -20l165 -379l156 375q9 24 31 24z" />
    <glyph glyph-name="afii10086" unicode="&#x444;" horiz-adv-x="802" 
d="M668 422q89 -68 89 -193q0 -129 -89 -195q-58 -44 -129 -44h-104v-194q0 -36 -35 -36q-13 0 -21 8t-10 15t-2 13v194h-104q-69 0 -130 44q-88 67 -88 195q0 126 89 192q59 45 129 45h104v24q0 10 7.5 20t26.5 10t26.5 -10t7.5 -20v-24h104q71 0 129 -44zM367 58v340h-104
q-9 0 -21.5 -1.5t-36.5 -11.5t-42.5 -26t-34 -50.5t-16.5 -80.5q1 -46 16.5 -80.5t34 -51t42.5 -26t36.5 -11t21.5 -1.5h104zM539 58q9 0 21.5 1.5t36.5 11t42.5 26t34 51t16.5 80.5q-1 46 -16.5 80.5t-34 50.5t-42.5 26t-36.5 11.5t-21.5 1.5h-104v-340h104z" />
    <glyph glyph-name="afii10087" unicode="&#x445;" horiz-adv-x="432" 
d="M258 230l141 -181q15 -20 15 -30q0 -11 -12.5 -22.5t-24.5 -11.5q-16 0 -27 16l-135 175l-133 -174q-12 -17 -31 -17q-13 0 -23 9.5t-10 23.5q0 11 10 24l145 189l-142 184q-9 13 -9 24q0 13 9.5 22t23.5 9q18 0 30 -15l130 -169l130 168q12 16 28 16q13 0 24 -9t11 -23
t-9 -24z" />
    <glyph glyph-name="afii10088" unicode="&#x446;" horiz-adv-x="569" 
d="M518 58q15 0 24 -9t9 -23v-133q0 -12 -10 -22.5t-23 -10.5q-14 0 -25 10t-11 23v97h-374q-15 0 -25.5 11.5t-10.5 24.5v412q0 32 34 32t34 -32v-380h256v381q0 31 34 31q31 0 34 -32v-380h54z" />
    <glyph glyph-name="afii10089" unicode="&#x447;" horiz-adv-x="478" 
d="M371 470q34 0 34 -31v-421q0 -14 -9.5 -23.5t-24.5 -9.5q-34 0 -34 33v134h-147q-64 0 -104.5 46.5t-40.5 113.5v128q0 13 9.5 21.5t24.5 8.5q34 0 34 -30v-126q0 -39 21.5 -66t60.5 -27h142v218q0 29 34 31z" />
    <glyph glyph-name="afii10090" unicode="&#x448;" horiz-adv-x="756" 
d="M650 470q17 0 25.5 -10t8.5 -23v-409q0 -15 -9 -26.5t-25 -11.5h-545q-30 2 -33 38v409q0 13 9.5 23t23.5 10q35 0 35 -33v-379h204v380q0 32 34 32t34 -32v-380h204v379q0 33 34 33z" />
    <glyph glyph-name="afii10091" unicode="&#x449;" horiz-adv-x="816" 
d="M764 58q15 0 24.5 -8.5t9.5 -22.5v-136q0 -13 -10 -22t-24 -9t-24 9t-10 22v99h-598q-15 0 -24 12t-9 25v410q0 33 34 33t34 -33v-379h204v379q0 33 33 33q16 0 25.5 -9t9.5 -24v-379h204v380q0 32 34 32t34 -33v-379h53z" />
    <glyph glyph-name="afii10092" unicode="&#x44a;" horiz-adv-x="528" 
d="M333 305q61 0 104 -45t43 -110q0 -66 -41 -113t-106 -47h-176q-14 0 -23.5 10t-9.5 24v374h-62q-10 0 -21.5 8t-11.5 26q0 14 7 22t13.5 10t12.5 2h95q15 0 24.5 -8t9.5 -21v-132h142zM333 58q36 0 57.5 26.5t22.5 67.5q0 34 -22.5 58.5t-57.5 26.5h-142v-179h142z" />
    <glyph glyph-name="afii10093" unicode="&#x44b;" horiz-adv-x="726" 
d="M593 470q35 0 35 -36v-414q0 -15 -9.5 -25t-25.5 -10q-15 0 -24 10t-9 25v414q0 34 33 36zM309 306q62 0 105.5 -45t43.5 -110q0 -67 -41.5 -114t-107.5 -47h-176q-14 0 -24 10t-10 24v417q0 13 9.5 21t24.5 8t24.5 -8t9.5 -21v-135h142zM309 58q37 0 58.5 27t22.5 68
q0 35 -22.5 59t-58.5 26h-142v-180h142z" />
    <glyph glyph-name="afii10094" unicode="&#x44c;" horiz-adv-x="503" 
d="M309 306q62 0 105.5 -45t43.5 -110q0 -67 -41.5 -114t-107.5 -47h-176q-14 0 -24 10t-10 24v417q0 13 9.5 21t24.5 8t24.5 -8t9.5 -21v-135h142zM309 58q37 0 58.5 27t22.5 68q0 35 -22.5 59t-58.5 26h-142v-180h142z" />
    <glyph glyph-name="afii10095" unicode="&#x44d;" horiz-adv-x="509" 
d="M79 108q14 0 23 -9q52 -46 117 -46q61 0 110 40.5t60 100.5h-194q-10 0 -20 8t-10 27q0 13 6 21t12 10t12 2h194q-12 61 -60.5 100.5t-109.5 39.5t-106 -36q-10 -7 -20 -7q-15 0 -24 10t-9 24q0 19 12 28q65 49 147 49q98 0 169.5 -70t71.5 -173t-71.5 -172.5
t-169.5 -69.5t-165 64q-9 6 -9 21q0 16 10.5 27t23.5 11z" />
    <glyph glyph-name="afii10096" unicode="&#x44e;" horiz-adv-x="773" 
d="M482 470q99 0 171 -68.5t72 -175.5q0 -102 -70.5 -171.5t-172.5 -69.5q-90 0 -159 61t-80 148h-76v-178q0 -13 -10.5 -22t-24.5 -9q-16 0 -24.5 10t-8.5 23v422q0 13 9 21.5t24 8.5q16 0 25.5 -8.5t9.5 -21.5v-178h76q10 86 79 147t160 61zM482 53h2q69 0 121 52t52 121
q0 75 -52.5 125.5t-122.5 50.5q-69 0 -121 -51t-52 -125q0 -68 51 -120t122 -53z" />
    <glyph glyph-name="afii10097" unicode="&#x44f;" horiz-adv-x="464" 
d="M358 466q16 0 27 -10t11 -27v-414q0 -30 -35 -30q-33 0 -33 30v124h-109l-78 -137q-10 -17 -30 -17q-11 0 -23.5 9.5t-12.5 22.5q0 7 4 14l70 122q-42 19 -68.5 59t-26.5 88q0 64 42 115t106 51h156zM328 207v191h-126q-33 0 -56.5 -32t-23.5 -66q0 -33 23.5 -63
t55.5 -30h127z" />
    <glyph glyph-name="afii10071" unicode="&#x451;" horiz-adv-x="575" 
d="M203 569q-15 0 -26.5 11t-11.5 27t11.5 27t26.5 11q17 0 27.5 -10.5t10.5 -27.5q0 -16 -11 -27t-27 -11zM365 569q-16 0 -27 11t-11 27t11 27t27 11q15 0 26.5 -11t11.5 -27t-11.5 -27t-26.5 -11zM287 470q100 0 170.5 -69.5t72.5 -167.5q0 -39 -46 -39h-366
q11 -58 59 -99.5t110 -41.5q87 0 139 43q13 11 25 11q13 0 23.5 -9t10.5 -23q0 -17 -12 -29q-64 -61 -186 -61q-98 0 -169.5 69.5t-71.5 171.5q0 103 70 173.5t171 70.5zM118 262h340q-12 59 -60 99.5t-111 40.5q-59 0 -108.5 -40.5t-60.5 -99.5z" />
    <glyph glyph-name="afii10099" unicode="&#x452;" horiz-adv-x="556" 
d="M491 268v-171q0 -128 -30 -185q-15 -28 -41.5 -50t-59.5 -22q-18 0 -29 9.5t-11 24.5q0 10 10 18t24.5 17.5t29 24.5t24.5 48t10 80v190q0 81 -37 115q-31 29 -89 29q-80 0 -118 -69q-26 -49 -26 -119v-183q0 -14 -11 -24.5t-26 -10.5t-26 10.5t-11 24.5v519h-43
q-12 0 -20.5 8.5t-8.5 20.5t8.5 20.5t20.5 8.5h43v52q0 15 11 25.5t26 10.5t26 -10.5t11 -25.5v-52h138q11 0 19.5 -8.5t8.5 -20.5t-8.5 -20.5t-19.5 -8.5h-138v-169q45 85 158 85q84 0 131 -41q54 -48 54 -151z" />
    <glyph glyph-name="afii10100" unicode="&#x453;" horiz-adv-x="421" 
d="M382 387h-234v-362q0 -14 -11 -24.5t-26 -10.5t-25.5 10.5t-10.5 24.5v392q0 14 10.5 24.5t25.5 10.5h271q14 0 23.5 -10t9.5 -23t-9.5 -22.5t-23.5 -9.5zM166 592q0 8 6 19l76 138q10 21 28 21q13 0 21.5 -8.5t8.5 -19.5q0 -9 -8 -22l-81 -134q-11 -18 -26 -18
q-10 0 -17.5 7t-7.5 17z" />
    <glyph glyph-name="afii10101" unicode="&#x454;" horiz-adv-x="500" 
d="M436 108q13 0 23.5 -11t10.5 -27q0 -15 -9 -21q-67 -64 -165 -64t-169.5 69.5t-71.5 172.5t71.5 173t169.5 70q82 0 147 -49q12 -9 12 -28q0 -14 -9 -24t-24 -10q-10 0 -20 7q-45 36 -106 36t-109.5 -39.5t-60.5 -100.5h194q6 0 12 -2t12 -10t6 -21q0 -19 -10 -27t-20 -8
h-194q11 -60 60 -100.5t110 -40.5q65 0 117 46q9 9 23 9z" />
    <glyph glyph-name="afii10102" unicode="&#x455;" horiz-adv-x="475" 
d="M260 272l15 -4q30 -8 51.5 -15.5t51.5 -23.5t46.5 -41t16.5 -57q0 -51 -36 -91q-50 -55 -140 -55q-114 0 -167 43q-40 32 -58 90q-1 3 -1 9q0 11 9.5 19t22.5 8t21 -4t10.5 -8.5t6.5 -13.5l2 -5q12 -29 33 -44q36 -26 121 -26q54 0 83 26q24 21 24 50q0 42 -102 69
l-47 13q-156 42 -156 126q0 63 48.5 98t122.5 35q149 0 187 -97q3 -7 3 -13q0 -25 -29 -26q-17 0 -24.5 3.5t-15.5 17.5q-25 46 -121 46q-102 0 -102 -61q0 -38 124 -68z" />
    <glyph glyph-name="afii10103" unicode="&#x456;" horiz-adv-x="269" 
d="M136 569q-16 0 -27 11t-11 27t11 27t27 11q15 0 26.5 -11t11.5 -27t-11.5 -27t-26.5 -11zM170 440v-419q0 -11 -7.5 -23.5t-26.5 -12.5t-27 12.5t-8 23.5v419q0 10 8 20t27 10q18 0 26 -10t8 -20z" />
    <glyph glyph-name="afii10104" unicode="&#x457;" horiz-adv-x="288" 
d="M66 569q-15 0 -26.5 11t-11.5 27t11.5 27t26.5 11q16 0 27 -10.5t11 -27.5q0 -16 -11 -27t-27 -11zM210 569q-16 0 -27 11t-11 27t11 27t27 11q15 0 26.5 -11t11.5 -27t-11.5 -27t-26.5 -11zM172 440v-419q0 -11 -7.5 -23.5t-26.5 -12.5t-27 12.5t-8 23.5v419q0 10 8 20
t27 10q18 0 26 -10t8 -20z" />
    <glyph glyph-name="afii10105" unicode="&#x458;" horiz-adv-x="318" 
d="M201 470q33 0 33 -34v-464q0 -86 -41 -149t-115 -63q-16 0 -26 9t-10 26q0 33 36 33q40 0 64 45t24 99v464q0 34 35 34zM201 569q-16 0 -27 11t-11 27t11 27t27 11q15 0 26.5 -11t11.5 -27t-11.5 -27t-26.5 -11z" />
    <glyph glyph-name="afii10106" unicode="&#x459;" horiz-adv-x="830" 
d="M709 128q0 74 -108 74h-127v-148h132q103 0 103 74zM105 417q0 14 11 24.5t26 10.5h295q15 0 26 -10.5t11 -24.5v-161h144q73 0 118 -31.5t45 -96.5q0 -66 -44 -97t-117 -31h-182q-17 0 -27 10t-10 27v350h-223q-8 -222 -55 -322q-20 -43 -35.5 -59t-34.5 -16
q-15 0 -25.5 10.5t-10.5 25.5q0 13 19.5 43t30.5 57q36 94 38 291z" />
    <glyph glyph-name="afii10107" unicode="&#x45a;" horiz-adv-x="842" 
d="M414 37v165h-266v-177q0 -14 -11 -24.5t-26 -10.5t-25.5 10.5t-10.5 24.5v400q0 15 10.5 25t25.5 10t26 -10t11 -25v-169h266v169q0 15 10.5 25t25.5 10t25.5 -10t10.5 -25v-169h145q73 0 118 -31.5t45 -96.5q0 -66 -44 -97t-118 -31h-182q-16 0 -26 10t-10 27zM722 128
q0 74 -108 74h-128v-148h132q104 0 104 74z" />
    <glyph glyph-name="afii10108" unicode="&#x45b;" horiz-adv-x="556" 
d="M74 25v519h-43q-12 0 -20.5 8.5t-8.5 20.5t8.5 20.5t20.5 8.5h43v52q0 15 11 25.5t26 10.5t26 -10.5t11 -25.5v-52h138q11 0 19.5 -8.5t8.5 -20.5t-8.5 -20.5t-19.5 -8.5h-138v-169q45 85 158 85q84 0 131 -41q54 -48 54 -151v-243q0 -14 -11 -24.5t-26 -10.5t-25.5 10.5
t-10.5 24.5v227q0 81 -37 115q-31 29 -89 29q-80 0 -118 -69q-26 -49 -26 -119v-183q0 -14 -11 -24.5t-26 -10.5t-26 10.5t-11 24.5z" />
    <glyph glyph-name="afii10109" unicode="&#x45c;" horiz-adv-x="473" 
d="M148 425v-166h66l163 185q13 16 31 16q15 0 24.5 -10t9.5 -25q0 -14 -11 -26l-155 -168l163 -179q11 -11 11 -27q0 -15 -10 -25t-25 -10q-17 0 -35 19l-166 186h-66v-170q0 -14 -11 -24.5t-26 -10.5t-25.5 10.5t-10.5 24.5v400q0 15 10.5 25t25.5 10t26 -10t11 -25z
M181 592q0 8 6 19l76 138q11 21 28 21q13 0 21.5 -8.5t8.5 -19.5q0 -9 -8 -22l-81 -134q-11 -18 -26 -18q-10 0 -17.5 7t-7.5 17z" />
    <glyph glyph-name="afii10110" unicode="&#x45e;" horiz-adv-x="460" 
d="M229 640q24 0 43.5 13t29.5 29t21.5 29t22.5 13t19.5 -7.5t8.5 -18.5q0 -18 -30 -54q-47 -58 -115 -58t-115 58q-30 36 -30 54q0 11 8.5 18.5t19.5 7.5t22.5 -13t21.5 -29t29.5 -29t43.5 -13zM414 461q16 0 27.5 -11.5t11.5 -27.5q0 -12 -8 -32l-163 -414
q-81 -207 -225 -207q-15 0 -25.5 10.5t-10.5 24.5q0 15 10 25.5t26 10.5q50 0 83.5 33t62.5 100l-187 420q-9 21 -9 28q0 17 11.5 28.5t28.5 11.5q29 0 38 -26l154 -368l136 361q13 33 39 33z" />
    <glyph glyph-name="afii10193" unicode="&#x45f;" horiz-adv-x="548" 
d="M147 64h253v361q0 14 11 24.5t26 10.5q14 0 25 -10.5t11 -24.5v-392q0 -13 -9.5 -23t-23.5 -10h-130v-131q0 -14 -10.5 -24.5t-25.5 -10.5q-16 0 -26.5 10.5t-10.5 24.5v131h-130q-13 0 -23 10t-10 23v392q0 14 11 24.5t26 10.5t25.5 -10.5t10.5 -24.5v-361z" />
    <glyph glyph-name="afii10050" unicode="&#x490;" horiz-adv-x="562" 
d="M534 801v-144q0 -15 -11 -25t-26 -10h-320v-607q0 -11 -8.5 -20.5t-25.5 -9.5q-16 0 -25 9.5t-9 20.5v637q0 15 10 26.5t26 11.5h321v111q0 12 11 20.5t23 8.5q13 0 23.5 -8.5t10.5 -20.5z" />
    <glyph glyph-name="afii10098" unicode="&#x491;" horiz-adv-x="450" 
d="M388 560q14 0 24 -8.5t10 -22.5v-98q0 -14 -10 -23.5t-24 -9.5h-238v-383q0 -12 -8.5 -21t-25.5 -9q-14 0 -23.5 8.5t-10.5 21.5v417q0 12 8.5 23t25.5 11h238v63q0 29 34 31z" />
    <glyph glyph-name="endash" unicode="&#x2013;" horiz-adv-x="336" 
d="M-1 330h282q13 0 21 -10.5t8 -25.5q0 -32 -29 -32h-282q-29 0 -29 33q0 15 7.5 25t21.5 10z" />
    <glyph glyph-name="emdash" unicode="&#x2014;" horiz-adv-x="710" 
d="M116 330h477q13 0 23.5 -11t10.5 -25t-10 -23t-24 -9h-477q-15 0 -24.5 9t-9.5 24q0 14 10 24.5t24 10.5z" />
    <glyph glyph-name="afii00208.001" unicode="&#x2015;" horiz-adv-x="703" 
d="M19 330h665q28 0 28 -33q0 -35 -28 -35h-665q-14 0 -22.5 10.5t-8.5 25.5q0 14 8.5 23t22.5 9z" />
    <glyph glyph-name="quoteleft" unicode="&#x2018;" horiz-adv-x="262" 
d="M141 456q-21 0 -34.5 18.5t-17.5 40t-4 45.5q0 66 56 132q7 8 15.5 8t14.5 -9q6 -11 -1 -25q-22 -55 -22 -84q0 -9 2.5 -19t6 -17t9 -18.5t7.5 -16.5q9 -19 -0.5 -37t-31.5 -18z" />
    <glyph glyph-name="quoteright" unicode="&#x2019;" horiz-adv-x="285" 
d="M119 700q21 0 34.5 -18.5t17.5 -40t4 -45.5q0 -66 -56 -132q-7 -8 -15.5 -8t-14.5 9q-6 11 1 25q22 55 22 84q0 9 -2.5 19t-6 17t-9 18.5t-7.5 16.5q-9 19 0.5 37t31.5 18z" />
    <glyph glyph-name="quotesinglbase" unicode="&#x201a;" horiz-adv-x="283" 
d="M119 71q21 0 34.5 -18.5t17.5 -40t4 -45.5q0 -66 -56 -132q-8 -8 -15 -8t-12.5 6t-5.5 14q0 6 4 14q22 55 22 84q0 9 -2.5 19t-6 17t-9 18.5t-7.5 16.5q-4 8 -4 18q0 15 10 26t26 11z" />
    <glyph glyph-name="quotedblleft" unicode="&#x201c;" horiz-adv-x="480" 
d="M324 460q-21 0 -34.5 18.5t-17.5 40t-4 45.5q0 66 56 132q7 8 15.5 8t14.5 -9q6 -11 -1 -25q-22 -55 -22 -84q0 -9 2.5 -19t6 -17t9 -18.5t7.5 -16.5q9 -19 -0.5 -37t-31.5 -18zM166 460q-21 0 -34.5 18.5t-17.5 40t-4 45.5q0 66 56 132q7 8 15.5 8t14.5 -9q6 -11 -1 -25
q-22 -55 -22 -84q0 -9 2.5 -19t6 -17t9 -18.5t7.5 -16.5q9 -19 -0.5 -37t-31.5 -18z" />
    <glyph glyph-name="quotedblright" unicode="&#x201d;" horiz-adv-x="472" 
d="M168 700q21 0 34.5 -18.5t17.5 -40t4 -45.5q0 -66 -56 -132q-7 -8 -15.5 -8t-14.5 9q-6 11 1 25q22 55 22 84q0 9 -2.5 19t-6 17t-9 18.5t-7.5 16.5q-9 19 0.5 37t31.5 18zM326 700q21 0 34.5 -18.5t17.5 -40t4 -45.5q0 -66 -56 -132q-7 -8 -15.5 -8t-14.5 9q-6 11 1 25
q22 55 22 84q0 9 -2.5 19t-6 17t-9 18.5t-7.5 16.5q-9 19 0.5 37t31.5 18z" />
    <glyph glyph-name="quotedblbase" unicode="&#x201e;" horiz-adv-x="446" 
d="M113 71q21 0 34.5 -18.5t17.5 -40t4 -45.5q0 -66 -56 -132q-7 -8 -15.5 -8t-14.5 9q-6 11 1 25q22 55 22 84q0 9 -2.5 19t-6 17t-9 18.5t-7.5 16.5q-9 19 0.5 37t31.5 18zM270 71q21 0 34.5 -18.5t17.5 -40t4 -45.5q0 -66 -56 -132q-7 -8 -15.5 -8t-14.5 9q-6 11 1 25
q22 55 22 84q0 9 -2.5 19t-6 17t-9 18.5t-7.5 16.5q-9 19 0.5 37t31.5 18z" />
    <glyph glyph-name="dagger" unicode="&#x2020;" horiz-adv-x="596" 
d="M330 532v-584q0 -16 -9 -27t-24 -11q-14 0 -23.5 11.5t-9.5 26.5v584h-127q-15 0 -25 10t-10 25q0 14 9.5 23.5t25.5 9.5h127v201q0 39 33 39q15 0 24 -11t9 -28v-201h126q14 0 24 -9t10 -24q0 -14 -9.5 -24.5t-24.5 -10.5h-126z" />
    <glyph glyph-name="daggerdbl" unicode="&#x2021;" horiz-adv-x="594" 
d="M458 205q14 0 23.5 -9.5t9.5 -25.5q0 -14 -9 -23.5t-24 -9.5h-127v-189q0 -16 -9 -27t-24 -11q-14 0 -23.5 11.5t-9.5 26.5v189h-127q-14 0 -24.5 9.5t-10.5 23.5q0 15 10 25t25 10h127v327h-127q-15 0 -25 10t-10 25q0 14 9.5 23.5t25.5 9.5h127v201q0 39 33 39
q15 0 24 -11t9 -28v-201h126q14 0 24 -9t10 -24q0 -14 -9.5 -24.5t-24.5 -10.5h-126v-327h127z" />
    <glyph glyph-name="bullet" unicode="&#x2022;" horiz-adv-x="462" 
d="M233 174q-50 0 -83.5 34.5t-33.5 82.5q0 50 34 84t83 34t83.5 -34.5t34.5 -83.5t-34.5 -83t-83.5 -34z" />
    <glyph glyph-name="ellipsis" unicode="&#x2026;" horiz-adv-x="624" 
d="M83 25q0 19 13 32.5t32 13.5t32.5 -13.5t13.5 -32.5t-13.5 -32t-32.5 -13t-32 13t-13 32zM250 25q0 19 13 32.5t32 13.5t32.5 -13.5t13.5 -32.5t-13.5 -32t-32.5 -13t-32 13t-13 32zM413 25q0 19 13 32.5t32 13.5t32.5 -13.5t13.5 -32.5t-13.5 -32t-32.5 -13t-32 13
t-13 32z" />
    <glyph glyph-name="perthousand" unicode="&#x2030;" horiz-adv-x="1226" 
d="M609 640l-311 -621q-21 -42 -52 -24q-30 16 -12 54l312 618q17 33 49 18q29 -15 14 -45zM399 541q0 -59 -43.5 -103t-104.5 -44q-58 0 -103 43t-45 104q0 58 43.5 103.5t104.5 45.5q60 0 104 -43.5t44 -105.5zM251 636q-38 0 -66 -28t-28 -67t27.5 -66.5t66.5 -27.5
q40 0 67.5 27.5t27.5 66.5t-27.5 67t-67.5 28zM739 137q0 -59 -43.5 -103t-104.5 -44q-58 0 -103 43t-45 104q0 58 43.5 103.5t104.5 45.5q60 0 104 -43.5t44 -105.5zM591 232q-38 0 -66 -28t-28 -67t27.5 -66.5t66.5 -27.5q40 0 67.5 27.5t27.5 66.5t-27.5 67t-67.5 28z
M1109 138q0 -60 -43.5 -103.5t-104.5 -43.5q-58 0 -103 43t-45 104q0 58 43.5 103.5t104.5 45.5q60 0 104 -43.5t44 -105.5zM961 233q-38 0 -66 -28t-28 -67t27.5 -66.5t66.5 -27.5q40 0 67.5 27.5t27.5 66.5t-27.5 67t-67.5 28z" />
    <glyph glyph-name="guilsinglleft" unicode="&#x2039;" horiz-adv-x="441" 
d="M334 39q9 -17 -3 -35q-9 -14 -26 -14q-18 0 -31 20l-133 200q-10 21 -1 38l133 198q13 20 31 20q17 0 28 -15.5t1 -32.5l-127 -189z" />
    <glyph glyph-name="guilsinglright" unicode="&#x203a;" horiz-adv-x="408" 
d="M106 39l128 190l-127 189q-10 17 1 32.5t28 15.5q18 0 31 -20l133 -198q9 -17 -1 -38l-133 -200q-13 -20 -31 -20q-17 0 -26 14q-12 18 -3 35z" />
    <glyph glyph-name="fraction" unicode="&#x2044;" horiz-adv-x="373" 
d="M-4 31l324 648q7 16 26 16q7 0 19 -5q20 -9 20 -30q0 -4 -4 -12l-325 -648q-8 -15 -27 -15q-13 0 -25 10t-12 24q0 4 4 12z" />
    <glyph glyph-name="Euro" unicode="&#x20ac;" horiz-adv-x="742" 
d="M697 134q22 -25 -3 -52q-50 -45 -108 -69q-60 -23 -127 -23q-111 0 -203 69t-136 179h-34q-13 0 -21.5 8.5t-8.5 22.5q0 13 10.5 22.5t25.5 9.5h18q-3 29 -2 58h-16q-16 0 -26 8.5t-10 22.5q0 29 31 31h28q22 82 81.5 149.5t142.5 97.5q59 22 120 22q120 0 213 -71
q12 -8 13.5 -23.5t-6.5 -27.5q-21 -24 -50 -4q-77 58 -170 58q-87 0 -165 -58t-108 -143h346q16 0 28 -7.5t12 -21.5t-9.5 -23.5t-25.5 -9.5h-361q-1 -21 3 -58h279q15 0 25 -9t10 -23t-12 -22t-29 -9h-258q36 -79 110.5 -129.5t154.5 -50.5q104 0 186 76q11 11 26 11
t26 -11z" />
    <glyph glyph-name="afii61352" unicode="&#x2116;" horiz-adv-x="1087" 
d="M832 246q-66 0 -116.5 49t-50.5 117q0 32 14 62q18 45 60.5 74t92.5 29q64 0 115 -48.5t51 -116.5q0 -65 -49 -115.5t-117 -50.5zM832 509q-41 0 -69.5 -28t-28.5 -68q0 -42 28 -69.5t70 -27.5t69.5 27.5t27.5 69.5q0 41 -27.5 68.5t-69.5 27.5zM577 653v-625
q4 -13 -9.5 -25.5t-28.5 -12.5q-14 0 -28 14l-408 551v-528q0 -16 -9 -26t-26 -10q-15 0 -24 10t-10 26v627q0 14 12 26q13 11 28.5 9t27.5 -15l408 -548v527q0 15 9 26t25 11q14 0 23 -10t10 -27zM970 157q37 0 37 -32q0 -33 -37 -35h-267q-38 0 -38 34q0 33 38 33h267z
" />
    <glyph glyph-name="trademark" unicode="&#x2122;" horiz-adv-x="688" 
d="M183 529v204h-66q-15 0 -15 14q0 13 15 13h159q15 0 15 -13q0 -14 -15 -14h-66v-204q0 -15 -15 -15q-12 0 -12 15zM345 708v-180q0 -14 -14 -14q-13 0 -13 14v221q0 11 12 11q14 0 23 -14l102 -173l100 172q12 20 26 15q7 -4 7 -11v-220q0 -15 -13 -15q-14 0 -14 15v179
l-95 -161q-3 -5 -10.5 -5t-10.5 5z" />
    <glyph glyph-name="partialdiff" unicode="&#x2202;" horiz-adv-x="511" 
d="M466 223q0 -112 -61 -172.5t-152 -60.5q-84 0 -139 49q-69 60 -69 168q0 85 55 140q60 60 147 60q60 0 115 -34q-57 135 -204 261q-12 9 -12 22q0 15 10 25t24 10q10 0 46 -27q102 -80 171 -196t69 -245zM397 223q0 44 -9 86q-64 41 -131 41q-63 0 -106 -45
q-38 -38 -38 -98q0 -78 45 -120q38 -35 95 -35q63 0 103.5 43.5t40.5 127.5z" />
    <glyph glyph-name="product" unicode="&#x220f;" horiz-adv-x="689" 
d="M594 651v-762q0 -17 -5.5 -25t-21.5 -8t-21.5 8t-5.5 25v747h-405v-745q0 -35 -27 -35t-27 35v760q0 16 12 27.5t28 11.5h434q17 0 28 -11.5t11 -27.5z" />
    <glyph glyph-name="summation" unicode="&#x2211;" horiz-adv-x="518" 
d="M461 44q11 0 18.5 -7.5t7.5 -18.5t-7.5 -19.5t-18.5 -8.5h-406q-18 0 -27 15t2 29l263 309l-263 306q-11 12 -3 26.5t23 14.5h411q11 0 18.5 -7t7.5 -18q0 -12 -7.5 -20.5t-18.5 -8.5h-355l241 -277q15 -15 0 -32l-241 -283h355z" />
    <glyph glyph-name="minus" unicode="&#x2212;" horiz-adv-x="538" 
d="M429 257h-312q-11 0 -23.5 7.5t-12.5 26.5q0 14 8 22t15 10t13 2h312q10 0 20 -7.5t10 -26.5q0 -18 -10 -26t-20 -8z" />
    <glyph glyph-name="radical" unicode="&#x221a;" horiz-adv-x="742" 
d="M84 248h116q23 0 36 -21l89 -149l325 623q11 21 34 21q15 0 25 -10.5t10 -25.5q0 -9 -5 -19l-353 -674q-12 -22 -34 -22q-21 0 -33 20l-111 185h-99q-15 0 -25.5 10.5t-10.5 25.5t10.5 25.5t25.5 10.5z" />
    <glyph glyph-name="infinity" unicode="&#x221e;" horiz-adv-x="813" 
d="M704 269q0 64 -33 104.5t-94 40.5q-96 0 -140 -145q44 -145 140 -145q61 0 94 41t33 104zM406 205q-58 -140 -172 -140q-89 0 -137.5 57.5t-48.5 146.5t48.5 146.5t137.5 57.5q113 0 172 -139q59 139 173 139q89 0 138 -57.5t49 -146.5t-49 -146.5t-138 -57.5
q-115 0 -173 140zM109 269q0 -63 33 -104t93 -41q97 0 141 145q-44 145 -141 145q-60 0 -93 -41t-33 -104z" />
    <glyph glyph-name="integral" unicode="&#x222b;" horiz-adv-x="396" 
d="M96 -174h-40q-15 0 -25 10t-10 26t10 25.5t25 9.5h32q71 0 71 77v555q0 69 37 108.5t104 39.5h39q16 0 26 -10t10 -26t-10 -25.5t-26 -9.5h-31q-70 0 -70 -77v-555q0 -70 -37 -109t-105 -39z" />
    <glyph glyph-name="approxequal" unicode="&#x2248;" horiz-adv-x="504" 
d="M338 474q27 0 47 10t32.5 19.5t20.5 9.5q12 0 20.5 -7.5t8.5 -18.5q0 -34 -36.5 -56.5t-86.5 -22.5q-37 0 -92.5 25.5t-87.5 25.5q-21 0 -38.5 -6t-26 -13.5t-18 -13.5t-16.5 -6q-13 0 -21 7.5t-8 18.5q0 34 36.5 56.5t86.5 22.5q41 0 95.5 -25.5t83.5 -25.5zM338 242
q27 0 47 10t32.5 19.5t20.5 9.5q12 0 20.5 -7.5t8.5 -18.5q0 -34 -36.5 -56.5t-86.5 -22.5q-37 0 -92.5 25.5t-87.5 25.5q-21 0 -38.5 -6t-26 -13.5t-18 -13.5t-16.5 -6q-13 0 -21 7.5t-8 18.5q0 33 36.5 56t86.5 23q41 0 95.5 -25.5t83.5 -25.5z" />
    <glyph glyph-name="notequal" unicode="&#x2260;" horiz-adv-x="560" 
d="M376 507h116q13 0 23 -10t10 -24q0 -15 -9.5 -25t-23.5 -10h-147l-76 -171h223q13 0 23 -10t10 -24q0 -15 -9.5 -25t-23.5 -10h-254l-49 -111q-7 -17 -25 -17q-12 0 -19.5 8t-7.5 19q0 5 4 15l38 86h-110q-14 0 -24 10t-10 25q0 14 10 24t24 10h141l75 171h-216
q-14 0 -24 10t-10 25q0 14 10 24t24 10h248l52 117q9 17 25 17q12 0 19.5 -8t7.5 -19q0 -7 -4 -15z" />
    <glyph glyph-name="lessequal" unicode="&#x2264;" horiz-adv-x="561" 
d="M74 69h412q13 0 23 -10t10 -24q0 -15 -9.5 -25t-23.5 -10h-412q-14 0 -23.5 10t-9.5 25q0 14 9.5 24t23.5 10zM41 440q0 26 26 38l381 196q10 5 20 5q14 0 24 -9t10 -24q0 -20 -23 -31l-338 -175l338 -175q23 -11 23 -31q0 -15 -10 -24t-24 -9q-10 0 -20 5l-381 196
q-26 12 -26 38z" />
    <glyph glyph-name="greaterequal" unicode="&#x2265;" horiz-adv-x="561" 
d="M74 69h412q14 0 23.5 -10t9.5 -24q0 -15 -9.5 -25t-23.5 -10h-412q-14 0 -23.5 10t-9.5 25q0 14 10 24t23 10zM519 440q0 -26 -26 -38l-381 -196q-10 -5 -20 -5q-14 0 -24 9t-10 24q0 20 23 31l338 175l-338 175q-23 11 -23 31q0 15 10 24t24 9q10 0 20 -5l381 -196
q26 -12 26 -38z" />
    <glyph glyph-name="lozenge" unicode="&#x25ca;" horiz-adv-x="588" 
d="M36 340q0 12 10 25l218 308q12 17 30 17t30 -17l218 -308q10 -13 10 -25t-10 -25l-218 -308q-12 -17 -30 -17t-30 17l-218 308q-10 13 -10 25zM474 340l-180 258l-180 -258l180 -258z" />
    <glyph glyph-name="A.2" unicode="&#xe000;" horiz-adv-x="667" 
d="M380 673l261 -638q3 -9 3 -19q0 -13 -9 -22t-23 -9q-23 0 -33 23l-58 145h-348l-58 -145q-10 -23 -33 -23q-14 0 -23.5 10t-9.5 24q0 9 3 16l262 638q8 22 34 22q23 0 32 -22zM201 221h292l-146 357z" />
    <glyph glyph-name="A.3" unicode="&#xe001;" horiz-adv-x="640" 
d="M84 597q0 30 53 53q85 40 191 40q127 0 187 -72q52 -65 52 -187v-402q0 -16 -11.5 -27.5t-28.5 -11.5t-28.5 11.5t-11.5 27.5v13q-83 -52 -200 -52q-58 0 -109.5 18.5t-88 63t-36.5 107.5q0 110 102 167q96 51 332 66v14q0 98 -39 145q-40 48 -126 48q-71 0 -141 -36
q-44 -23 -60 -23t-26.5 10.5t-10.5 26.5zM139 182q0 -65 51 -95t124 -30q99 0 173 50v241q-191 -13 -260 -44q-88 -39 -88 -122z" />
    <glyph glyph-name="A.calt" unicode="&#xe002;" horiz-adv-x="667" 
d="M380 673l261 -638q3 -9 3 -19q0 -13 -9 -22t-23 -9q-23 0 -33 23l-58 145h-348l-58 -145q-10 -23 -33 -23q-14 0 -23.5 10t-9.5 24q0 9 3 16l262 638q8 22 34 22q23 0 32 -22zM201 221h292l-146 357z" />
    <glyph glyph-name="AE.3" unicode="&#xe003;" horiz-adv-x="1161" 
d="M53 179q0 119 140 169q99 36 294 40v38q0 98 -39 145q-40 49 -126 49q-74 0 -142 -37q-4 -2 -15 -8t-16 -8t-13 -4.5t-15 -2.5q-16 0 -26.5 10.5t-10.5 26.5q0 30 53 53q85 40 191 40q127 0 186 -72q22 -28 34 -60q9 14 25 32q90 100 239 100q141 0 227 -93
q80 -86 80 -219q0 -58 -51 -58h-493q7 -106 65 -173q74 -85 195 -85q76 0 133 24q20 8 39 19t30 17.5t19 6.5q15 0 25 -10.5t10 -26.5q0 -36 -78 -68q-84 -34 -178 -34q-164 0 -258 102q-119 -102 -288 -102q-95 0 -165.5 48t-70.5 141zM576 389h460q-4 98 -58 158
q-62 69 -165 69q-114 0 -180 -79q-49 -57 -57 -148zM314 57q126 0 224 87q-44 74 -50 176q-162 0 -244 -27q-105 -34 -105 -111q0 -65 51 -95t124 -30z" />
    <glyph glyph-name="AE.calt" unicode="&#xe004;" horiz-adv-x="979" 
d="M583 306v-235h330q14 0 24.5 -11t10.5 -25t-10.5 -24.5t-24.5 -10.5h-370q-17 0 -28.5 11.5t-11.5 27.5v129h-300l-116 -151q-8 -11 -12 -15t-11.5 -8t-17.5 -4q-18 0 -28 10t-10 27q0 14 13 32l449 583q30 39 69 39h374q14 0 24.5 -10.5t10.5 -24.5q0 -15 -10.5 -25.5
t-24.5 -10.5h-330v-233h278q14 0 24.5 -11t10.5 -25t-10.5 -24.5t-24.5 -10.5h-278zM252 233h251v327z" />
    <glyph glyph-name="AEsmall.3" unicode="&#xe005;" horiz-adv-x="945" 
d="M677 59q57 0 104 19q15 6 30 15t24.5 14t15.5 5q14 0 23 -10t9 -25q0 -32 -69 -59q-63 -26 -139 -26q-128 0 -204 79q-99 -79 -223 -79q-80 0 -135.5 41t-55.5 115q0 36 15 64t44.5 45.5t59.5 28.5t74 16.5t75 7.5t73 3v25q0 78 -29 111q-31 37 -94 37q-53 0 -112 -32
q-28 -16 -44 -16t-26 10t-10 25q0 25 43 46q69 33 154 33q101 0 149 -59q14 -18 23 -39q68 98 206 98q113 0 183 -75q64 -68 64 -176q0 -49 -45 -49h-381q8 -79 46 -126q55 -67 152 -67zM480 311h349q-3 79 -46 123q-49 51 -123 51q-84 0 -135 -59q-39 -46 -45 -115zM263 55
q91 0 175 61q-34 59 -40 136q-51 0 -88 -3t-82.5 -12t-70.5 -30.5t-25 -55.5q0 -48 38.5 -72t92.5 -24z" />
    <glyph glyph-name="Aacute.2" unicode="&#xe006;" horiz-adv-x="692" 
d="M345 616q-86 0 -139 -59q-53 -57 -53 -162v-83h385v83q0 102 -54 162q-54 59 -139 59zM618 397v-368q0 -16 -12 -27.5t-28 -11.5q-17 0 -28.5 11.5t-11.5 27.5v212h-385v-212q0 -16 -12 -27.5t-28 -11.5t-28 11.5t-12 27.5v368q0 134 84 219q74 74 188 74q117 0 189 -74
q84 -87 84 -219zM275 794q0 8 6 19l76 138q11 21 28 21q13 0 21.5 -8.5t8.5 -19.5q0 -9 -8 -22l-81 -134q-11 -18 -26 -18q-10 0 -17.5 7t-7.5 17z" />
    <glyph glyph-name="Aacute.3" unicode="&#xe007;" horiz-adv-x="640" 
d="M84 597q0 30 53 53q85 40 191 40q127 0 187 -72q52 -65 52 -187v-402q0 -16 -11.5 -27.5t-28.5 -11.5t-28.5 11.5t-11.5 27.5v13q-83 -52 -200 -52q-58 0 -109.5 18.5t-88 63t-36.5 107.5q0 110 102 167q96 51 332 66v14q0 98 -39 145q-40 48 -126 48q-71 0 -141 -36
q-44 -23 -60 -23t-26.5 10.5t-10.5 26.5zM139 182q0 -65 51 -95t124 -30q99 0 173 50v241q-191 -13 -260 -44q-88 -39 -88 -122zM252 794q0 8 6 19l76 138q10 21 28 21q13 0 21.5 -8.5t8.5 -19.5q0 -9 -8 -22l-81 -134q-11 -18 -26 -18q-10 0 -17.5 7t-7.5 17z" />
    <glyph glyph-name="Aacute.calt" unicode="&#xe008;" horiz-adv-x="617" 
d="M308 587l-141 -354h282zM529 19l-59 149h-323l-61 -149q-11 -29 -40 -29q-17 0 -27.5 10.5t-10.5 26.5q0 7 6 21l240 601q16 41 55 41q40 0 56 -41l239 -601q5 -10 5 -21q0 -17 -11 -27t-29 -10q-29 0 -40 29zM239 794q0 8 6 19l76 138q11 21 28 21q13 0 21.5 -8.5
t8.5 -19.5q0 -9 -8 -22l-81 -134q-11 -18 -26 -18q-10 0 -17.5 7t-7.5 17z" />
    <glyph glyph-name="Abreve.2" unicode="&#xe009;" horiz-adv-x="692" 
d="M345 616q-86 0 -139 -59q-53 -57 -53 -162v-83h385v83q0 102 -54 162q-54 59 -139 59zM618 397v-368q0 -16 -12 -27.5t-28 -11.5q-17 0 -28.5 11.5t-11.5 27.5v212h-385v-212q0 -16 -12 -27.5t-28 -11.5t-28 11.5t-12 27.5v368q0 134 84 219q74 74 188 74q117 0 189 -74
q84 -87 84 -219zM345 879q24 0 43.5 13t29.5 29t21.5 29t22.5 13t19.5 -7.5t8.5 -18.5q0 -18 -30 -54q-47 -58 -115 -58t-115 58q-30 36 -30 54q0 11 8.5 18.5t19.5 7.5t22.5 -13t21.5 -29t29.5 -29t43.5 -13z" />
    <glyph glyph-name="Abreve.3" unicode="&#xe00a;" horiz-adv-x="640" 
d="M84 597q0 30 53 53q85 40 191 40q127 0 187 -72q52 -65 52 -187v-402q0 -16 -11.5 -27.5t-28.5 -11.5t-28.5 11.5t-11.5 27.5v13q-83 -52 -200 -52q-58 0 -109.5 18.5t-88 63t-36.5 107.5q0 110 102 167q96 51 332 66v14q0 98 -39 145q-40 48 -126 48q-71 0 -141 -36
q-44 -23 -60 -23t-26.5 10.5t-10.5 26.5zM139 182q0 -65 51 -95t124 -30q99 0 173 50v241q-191 -13 -260 -44q-88 -39 -88 -122zM317 879q24 0 43.5 13t29.5 29t21.5 29t22.5 13t19.5 -7.5t8.5 -18.5q0 -18 -30 -54q-47 -58 -115 -58t-115 58q-30 36 -30 54q0 11 8.5 18.5
t19.5 7.5t22.5 -13t21.5 -29t29.5 -29t43.5 -13z" />
    <glyph glyph-name="Abreve.calt" unicode="&#xe00b;" horiz-adv-x="617" 
d="M308 587l-141 -354h282zM529 19l-59 149h-323l-61 -149q-11 -29 -40 -29q-17 0 -27.5 10.5t-10.5 26.5q0 7 6 21l240 601q16 41 55 41q40 0 56 -41l239 -601q5 -10 5 -21q0 -17 -11 -27t-29 -10q-29 0 -40 29zM304 879q24 0 43.5 13t29.5 29t21.5 29t22.5 13t19.5 -7.5
t8.5 -18.5q0 -18 -30 -54q-47 -58 -115 -58t-115 58q-30 36 -30 54q0 11 8.5 18.5t19.5 7.5t22.5 -13t21.5 -29t29.5 -29t43.5 -13z" />
    <glyph glyph-name="Acircumflex.2" unicode="&#xe00c;" horiz-adv-x="692" 
d="M345 616q-86 0 -139 -59q-53 -57 -53 -162v-83h385v83q0 102 -54 162q-54 59 -139 59zM618 397v-368q0 -16 -12 -27.5t-28 -11.5q-17 0 -28.5 11.5t-11.5 27.5v212h-385v-212q0 -16 -12 -27.5t-28 -11.5t-28 11.5t-12 27.5v368q0 134 84 219q74 74 188 74q117 0 189 -74
q84 -87 84 -219zM345 971q12 0 24 -12l123 -127q13 -15 13 -22q0 -12 -8 -19.5t-19 -7.5t-19 8l-114 117l-113 -117q-8 -8 -19 -8q-12 0 -19.5 7.5t-7.5 19.5q0 10 12 22l124 127q12 12 23 12z" />
    <glyph glyph-name="Acircumflex.3" unicode="&#xe00d;" horiz-adv-x="640" 
d="M84 597q0 30 53 53q85 40 191 40q127 0 187 -72q52 -65 52 -187v-402q0 -16 -11.5 -27.5t-28.5 -11.5t-28.5 11.5t-11.5 27.5v13q-83 -52 -200 -52q-58 0 -109.5 18.5t-88 63t-36.5 107.5q0 110 102 167q96 51 332 66v14q0 98 -39 145q-40 48 -126 48q-71 0 -141 -36
q-44 -23 -60 -23t-26.5 10.5t-10.5 26.5zM139 182q0 -65 51 -95t124 -30q99 0 173 50v241q-191 -13 -260 -44q-88 -39 -88 -122zM324 971q12 0 24 -12l123 -127q13 -15 13 -22q0 -12 -8 -19.5t-19 -7.5t-19 8l-114 117l-113 -117q-8 -8 -19 -8q-12 0 -19.5 7.5t-7.5 19.5
q0 10 12 22l124 127q12 12 23 12z" />
    <glyph glyph-name="Acircumflex.calt" unicode="&#xe00e;" horiz-adv-x="617" 
d="M308 587l-141 -354h282zM529 19l-59 149h-323l-61 -149q-11 -29 -40 -29q-17 0 -27.5 10.5t-10.5 26.5q0 7 6 21l240 601q16 41 55 41q40 0 56 -41l239 -601q5 -10 5 -21q0 -17 -11 -27t-29 -10q-29 0 -40 29zM307 971q12 0 24 -12l123 -127q13 -15 13 -22
q0 -12 -8 -19.5t-19 -7.5t-19 8l-114 117l-113 -117q-8 -8 -19 -8q-12 0 -19.5 7.5t-7.5 19.5q0 10 12 22l124 127q12 12 23 12z" />
    <glyph glyph-name="Adieresis.2" unicode="&#xe00f;" horiz-adv-x="692" 
d="M345 616q-86 0 -139 -59q-53 -57 -53 -162v-83h385v83q0 102 -54 162q-54 59 -139 59zM618 397v-368q0 -16 -12 -27.5t-28 -11.5q-17 0 -28.5 11.5t-11.5 27.5v212h-385v-212q0 -16 -12 -27.5t-28 -11.5t-28 11.5t-12 27.5v368q0 134 84 219q74 74 188 74q117 0 189 -74
q84 -87 84 -219zM252 825q-18 0 -31 13t-13 32q0 18 13 30.5t31 12.5q19 0 31.5 -12.5t12.5 -30.5q0 -19 -12.5 -32t-31.5 -13zM440 825q-18 0 -31 13t-13 32q0 18 13 30.5t31 12.5t31 -12.5t13 -30.5q0 -19 -13 -32t-31 -13z" />
    <glyph glyph-name="Adieresis.3" unicode="&#xe010;" horiz-adv-x="640" 
d="M84 597q0 30 53 53q85 40 191 40q127 0 187 -72q52 -65 52 -187v-402q0 -16 -11.5 -27.5t-28.5 -11.5t-28.5 11.5t-11.5 27.5v13q-83 -52 -200 -52q-58 0 -109.5 18.5t-88 63t-36.5 107.5q0 110 102 167q96 51 332 66v14q0 98 -39 145q-40 48 -126 48q-71 0 -141 -36
q-44 -23 -60 -23t-26.5 10.5t-10.5 26.5zM139 182q0 -65 51 -95t124 -30q99 0 173 50v241q-191 -13 -260 -44q-88 -39 -88 -122zM227 825q-18 0 -31 13t-13 32q0 18 13 30.5t31 12.5q19 0 31.5 -12.5t12.5 -30.5q0 -19 -12.5 -32t-31.5 -13zM415 825q-18 0 -31 13t-13 32
q0 18 13 30.5t31 12.5t31 -12.5t13 -30.5q0 -19 -13 -32t-31 -13z" />
    <glyph glyph-name="Adieresis.calt" unicode="&#xe011;" horiz-adv-x="617" 
d="M308 587l-141 -354h282zM529 19l-59 149h-323l-61 -149q-11 -29 -40 -29q-17 0 -27.5 10.5t-10.5 26.5q0 7 6 21l240 601q16 41 55 41q40 0 56 -41l239 -601q5 -10 5 -21q0 -17 -11 -27t-29 -10q-29 0 -40 29zM214 825q-18 0 -31 13t-13 32q0 18 13 30.5t31 12.5
q19 0 31.5 -12.5t12.5 -30.5q0 -19 -12.5 -32t-31.5 -13zM402 825q-18 0 -31 13t-13 32q0 18 13 30.5t31 12.5t31 -12.5t13 -30.5q0 -19 -13 -32t-31 -13z" />
    <glyph glyph-name="Agrave.2" unicode="&#xe012;" horiz-adv-x="692" 
d="M345 616q-86 0 -139 -59q-53 -57 -53 -162v-83h385v83q0 102 -54 162q-54 59 -139 59zM618 397v-368q0 -16 -12 -27.5t-28 -11.5q-17 0 -28.5 11.5t-11.5 27.5v212h-385v-212q0 -16 -12 -27.5t-28 -11.5t-28 11.5t-12 27.5v368q0 134 84 219q74 74 188 74q117 0 189 -74
q84 -87 84 -219zM416 794q0 -10 -7.5 -17t-18.5 -7q-16 0 -26 18l-81 134q-8 13 -8 22q0 11 9 19.5t21 8.5q17 0 28 -21l77 -138q6 -11 6 -19z" />
    <glyph glyph-name="Agrave.3" unicode="&#xe013;" horiz-adv-x="640" 
d="M84 597q0 30 53 53q85 40 191 40q127 0 187 -72q52 -65 52 -187v-402q0 -16 -11.5 -27.5t-28.5 -11.5t-28.5 11.5t-11.5 27.5v13q-83 -52 -200 -52q-58 0 -109.5 18.5t-88 63t-36.5 107.5q0 110 102 167q96 51 332 66v14q0 98 -39 145q-40 48 -126 48q-71 0 -141 -36
q-44 -23 -60 -23t-26.5 10.5t-10.5 26.5zM139 182q0 -65 51 -95t124 -30q99 0 173 50v241q-191 -13 -260 -44q-88 -39 -88 -122zM395 794q0 -10 -7.5 -17t-18.5 -7q-15 0 -26 18l-81 134q-8 13 -8 22q0 11 9 19.5t21 8.5q17 0 28 -21l77 -138q6 -11 6 -19z" />
    <glyph glyph-name="Agrave.calt" unicode="&#xe014;" horiz-adv-x="617" 
d="M308 587l-141 -354h282zM529 19l-59 149h-323l-61 -149q-11 -29 -40 -29q-17 0 -27.5 10.5t-10.5 26.5q0 7 6 21l240 601q16 41 55 41q40 0 56 -41l239 -601q5 -10 5 -21q0 -17 -11 -27t-29 -10q-29 0 -40 29zM378 794q0 -10 -7.5 -17t-18.5 -7q-16 0 -26 18l-81 134
q-8 13 -8 22q0 11 9 19.5t21 8.5q17 0 28 -21l77 -138q6 -11 6 -19z" />
    <glyph glyph-name="Amacron.2" unicode="&#xe015;" horiz-adv-x="692" 
d="M345 616q-86 0 -139 -59q-53 -57 -53 -162v-83h385v83q0 102 -54 162q-54 59 -139 59zM618 397v-368q0 -16 -12 -27.5t-28 -11.5q-17 0 -28.5 11.5t-11.5 27.5v212h-385v-212q0 -16 -12 -27.5t-28 -11.5t-28 11.5t-12 27.5v368q0 134 84 219q74 74 188 74q117 0 189 -74
q84 -87 84 -219zM479 881q0 -13 -8.5 -21.5t-21.5 -8.5h-206q-12 0 -21 8.5t-9 21.5q0 12 9 21t21 9h206q13 0 21.5 -9t8.5 -21z" />
    <glyph glyph-name="Amacron.3" unicode="&#xe016;" horiz-adv-x="640" 
d="M84 597q0 30 53 53q85 40 191 40q127 0 187 -72q52 -65 52 -187v-402q0 -16 -11.5 -27.5t-28.5 -11.5t-28.5 11.5t-11.5 27.5v13q-83 -52 -200 -52q-58 0 -109.5 18.5t-88 63t-36.5 107.5q0 110 102 167q96 51 332 66v14q0 98 -39 145q-40 48 -126 48q-71 0 -141 -36
q-44 -23 -60 -23t-26.5 10.5t-10.5 26.5zM139 182q0 -65 51 -95t124 -30q99 0 173 50v241q-191 -13 -260 -44q-88 -39 -88 -122zM458 881q0 -13 -8.5 -21.5t-21.5 -8.5h-206q-12 0 -21 8.5t-9 21.5q0 12 9 21t21 9h206q13 0 21.5 -9t8.5 -21z" />
    <glyph glyph-name="Amacron.calt" unicode="&#xe017;" horiz-adv-x="617" 
d="M308 587l-141 -354h282zM529 19l-59 149h-323l-61 -149q-11 -29 -40 -29q-17 0 -27.5 10.5t-10.5 26.5q0 7 6 21l240 601q16 41 55 41q40 0 56 -41l239 -601q5 -10 5 -21q0 -17 -11 -27t-29 -10q-29 0 -40 29zM441 881q0 -13 -8.5 -21.5t-21.5 -8.5h-206q-12 0 -21 8.5
t-9 21.5q0 12 9 21t21 9h206q13 0 21.5 -9t8.5 -21z" />
    <glyph glyph-name="Aogonek.2" unicode="&#xe018;" horiz-adv-x="692" 
d="M618 397v-368q0 -16 -12 -27.5t-28 -11.5q-10 0 -17 3q-19 -47 -19 -80q0 -58 74 -58q15 0 30.5 3.5t18.5 3.5q22 0 22 -22q0 -21 -23 -28q-25 -9 -53 -9q-118 0 -118 93q0 54 45 137v208h-385v-212q0 -16 -12 -27.5t-28 -11.5t-28 11.5t-12 27.5v368q0 134 84 219
q74 74 188 74q117 0 189 -74q84 -87 84 -219zM345 616q-86 0 -139 -59q-53 -57 -53 -162v-83h385v83q0 102 -54 162q-54 59 -139 59z" />
    <glyph glyph-name="Aogonek.3" unicode="&#xe019;" horiz-adv-x="640" 
d="M84 597q0 30 53 53q85 40 191 40q127 0 187 -72q52 -65 52 -187v-402q0 -14 -9.5 -25t-23.5 -13q-20 -45 -20 -78q0 -25 15 -41.5t60 -16.5q15 0 30 3.5t19 3.5q22 0 22 -22q0 -21 -23 -28q-25 -9 -53 -9q-119 0 -119 93q0 46 31 108q-9 11 -9 25v13q-83 -52 -200 -52
q-58 0 -109.5 18.5t-88 63t-36.5 107.5q0 110 102 167q96 51 332 66v14q0 98 -39 145q-40 48 -126 48q-71 0 -141 -36q-44 -23 -60 -23t-26.5 10.5t-10.5 26.5zM139 182q0 -65 51 -95t124 -30q99 0 173 50v241q-191 -13 -260 -44q-88 -39 -88 -122z" />
    <glyph glyph-name="Aogonek.calt" unicode="&#xe01a;" horiz-adv-x="617" 
d="M491 -104q0 46 37 124l-58 148h-323l-61 -149q-11 -29 -40 -29q-17 0 -27.5 10.5t-10.5 26.5q0 7 6 21l240 601q16 41 55 41q40 0 56 -41l239 -601q5 -10 5 -21q0 -17 -11 -27t-29 -10q-8 0 -11 1q-18 -42 -18 -78q0 -25 15 -41.5t60 -16.5q14 0 29.5 3.5t19.5 3.5
q21 0 21 -22q0 -21 -22 -28q-27 -9 -54 -9q-118 0 -118 93zM308 587l-141 -354h282z" />
    <glyph glyph-name="Aring.2" unicode="&#xe01b;" horiz-adv-x="692" 
d="M345 616q-86 0 -139 -59q-53 -57 -53 -162v-83h385v83q0 102 -54 162q-54 59 -139 59zM618 397v-368q0 -16 -12 -27.5t-28 -11.5q-17 0 -28.5 11.5t-11.5 27.5v212h-385v-212q0 -16 -12 -27.5t-28 -11.5t-28 11.5t-12 27.5v368q0 134 84 219q74 74 188 74q117 0 189 -74
q84 -87 84 -219zM461 862q0 -49 -33.5 -82.5t-81.5 -33.5t-82 33.5t-34 82.5q0 48 34 82t82 34t81.5 -34t33.5 -82zM425 862q0 33 -23 56.5t-56 23.5t-56 -23.5t-23 -56.5q0 -34 23 -57t56 -23t56 23t23 57z" />
    <glyph glyph-name="Aring.3" unicode="&#xe01c;" horiz-adv-x="640" 
d="M84 597q0 30 53 53q85 40 191 40q127 0 187 -72q52 -65 52 -187v-402q0 -16 -11.5 -27.5t-28.5 -11.5t-28.5 11.5t-11.5 27.5v13q-83 -52 -200 -52q-58 0 -109.5 18.5t-88 63t-36.5 107.5q0 110 102 167q96 51 332 66v14q0 98 -39 145q-40 48 -126 48q-71 0 -141 -36
q-44 -23 -60 -23t-26.5 10.5t-10.5 26.5zM139 182q0 -65 51 -95t124 -30q99 0 173 50v241q-191 -13 -260 -44q-88 -39 -88 -122zM438 862q0 -49 -33.5 -82.5t-81.5 -33.5t-82 33.5t-34 82.5q0 48 34 82t82 34t81.5 -34t33.5 -82zM402 862q0 33 -23 56.5t-56 23.5t-56 -23.5
t-23 -56.5q0 -34 23 -57t56 -23t56 23t23 57z" />
    <glyph glyph-name="Aring.calt" unicode="&#xe01d;" horiz-adv-x="617" 
d="M308 587l-141 -354h282zM529 19l-59 149h-323l-61 -149q-11 -29 -40 -29q-17 0 -27.5 10.5t-10.5 26.5q0 7 6 21l240 601q16 41 55 41q40 0 56 -41l239 -601q5 -10 5 -21q0 -17 -11 -27t-29 -10q-29 0 -40 29zM423 862q0 -49 -33.5 -82.5t-81.5 -33.5t-82 33.5t-34 82.5
q0 48 34 82t82 34t81.5 -34t33.5 -82zM387 862q0 33 -23 56.5t-56 23.5t-56 -23.5t-23 -56.5q0 -34 23 -57t56 -23t56 23t23 57z" />
    <glyph glyph-name="Asmall.2" unicode="&#xe01e;" 
d="M295 484q-69 0 -111 -50q-38 -45 -38 -121v-64h300v64q0 75 -39 121q-41 50 -112 50zM519 316v-289q0 -14 -11 -24.5t-26 -10.5t-25.5 10.5t-10.5 24.5v159h-300v-159q0 -14 -11 -24.5t-26 -10.5t-26 10.5t-11 24.5v289q0 102 60 168q63 68 163 68q101 0 164 -68
q60 -66 60 -168z" />
    <glyph glyph-name="Asmall.3" unicode="&#xe01f;" horiz-adv-x="526" 
d="M266 475q80 0 133.5 -38t53.5 -115v-297q0 -15 -10 -25t-24 -10h-223q-65 0 -108 46.5t-43 118.5q0 66 44.5 111t107.5 45h188v14q0 35 -34 58.5t-78 23.5q-58 0 -103 -24q-11 -6 -20 -6q-14 0 -25 13q-8 11 -8 20q0 19 20 31q53 34 129 34zM385 58v185h-186
q-35 0 -60.5 -23.5t-25.5 -64.5q1 -46 24.5 -71.5t61.5 -25.5h186z" />
    <glyph glyph-name="Asmall.calt" unicode="&#xe020;" horiz-adv-x="667" 
d="M380 673l261 -638q3 -9 3 -19q0 -13 -9 -22t-23 -9q-23 0 -33 23l-58 145h-348l-58 -145q-10 -23 -33 -23q-14 0 -23.5 10t-9.5 24q0 9 3 16l262 638q8 22 34 22q23 0 32 -22zM201 221h292l-146 357z" />
    <glyph glyph-name="Asmallacute" unicode="&#xe021;" 
d="M295 484q-69 0 -111 -50q-38 -45 -38 -121v-63h300v63q0 75 -39 121q-41 50 -112 50zM519 316v-289q0 -14 -11 -24.5t-26 -10.5t-25.5 10.5t-10.5 24.5v160h-300v-160q0 -14 -11 -24.5t-26 -10.5t-26 10.5t-11 24.5v289q0 102 60 168q63 68 163 68q101 0 164 -68
q60 -66 60 -168zM225 652q0 8 6 19l76 138q11 21 28 21q13 0 21.5 -8.5t8.5 -19.5q0 -9 -8 -22l-81 -134q-11 -18 -26 -18q-10 0 -17.5 7t-7.5 17z" />
    <glyph glyph-name="Asmallacute.2" unicode="&#xe022;" 
d="M295 484q-69 0 -111 -50q-38 -45 -38 -121v-64h300v64q0 75 -39 121q-41 50 -112 50zM519 316v-289q0 -14 -11 -24.5t-26 -10.5t-25.5 10.5t-10.5 24.5v159h-300v-159q0 -14 -11 -24.5t-26 -10.5t-26 10.5t-11 24.5v289q0 102 60 168q63 68 163 68q101 0 164 -68
q60 -66 60 -168zM232 652q0 8 6 19l76 138q10 21 28 21q13 0 21.5 -8.5t8.5 -19.5q0 -9 -8 -22l-81 -134q-11 -18 -26 -18q-10 0 -17.5 7t-7.5 17z" />
    <glyph glyph-name="Asmallacute.3" unicode="&#xe023;" horiz-adv-x="544" 
d="M57 148q0 99 97 142q79 37 244 41v7q0 78 -29 111q-31 37 -92 37q-45 0 -93 -20q-12 -5 -26 -12.5t-23 -11.5t-16 -4q-16 0 -26 10t-10 25q0 25 43 46q69 33 154 33q101 0 149 -59q42 -51 42 -152v-313q0 -15 -10.5 -25.5t-25.5 -10.5q-16 0 -26.5 10.5t-10.5 25.5v3
q-65 -39 -154 -39q-76 0 -131.5 41t-55.5 115zM263 55q74 0 135 38v178q-142 -7 -196 -30q-70 -29 -70 -90q0 -48 38.5 -72t92.5 -24zM207 652q0 8 6 19l76 138q11 21 28 21q13 0 21.5 -8.5t8.5 -19.5q0 -9 -8 -22l-81 -134q-11 -18 -26 -18q-10 0 -17.5 7t-7.5 17z" />
    <glyph glyph-name="Asmallacute.calt" unicode="&#xe024;" horiz-adv-x="511" 
d="M428 17l-47 115h-252l-46 -115q-10 -25 -36 -25q-15 0 -24.5 9.5t-9.5 24.5q0 9 4 17l191 472q16 37 48 37q35 0 49 -37l189 -472q4 -12 4 -17q0 -14 -9.5 -24t-24.5 -10q-29 0 -36 25zM256 454l-108 -265h215zM176 652q0 8 6 19l76 138q10 21 28 21q13 0 21.5 -8.5
t8.5 -19.5q0 -9 -8 -22l-81 -134q-11 -18 -26 -18q-10 0 -17.5 7t-7.5 17z" />
    <glyph glyph-name="Asmallbreve" unicode="&#xe025;" 
d="M295 484q-69 0 -111 -50q-38 -45 -38 -121v-63h300v63q0 75 -39 121q-41 50 -112 50zM519 316v-289q0 -14 -11 -24.5t-26 -10.5t-25.5 10.5t-10.5 24.5v160h-300v-160q0 -14 -11 -24.5t-26 -10.5t-26 10.5t-11 24.5v289q0 102 60 168q63 68 163 68q101 0 164 -68
q60 -66 60 -168zM294 700q24 0 43.5 13t29.5 29t21.5 29t22.5 13t19.5 -7.5t8.5 -18.5q0 -18 -30 -54q-47 -58 -115 -58t-115 58q-30 36 -30 54q0 11 8.5 18.5t19.5 7.5t22.5 -13t21.5 -29t29.5 -29t43.5 -13z" />
    <glyph glyph-name="Asmallbreve.2" unicode="&#xe026;" 
d="M295 484q-69 0 -111 -50q-38 -45 -38 -121v-64h300v64q0 75 -39 121q-41 50 -112 50zM519 316v-289q0 -14 -11 -24.5t-26 -10.5t-25.5 10.5t-10.5 24.5v159h-300v-159q0 -14 -11 -24.5t-26 -10.5t-26 10.5t-11 24.5v289q0 102 60 168q63 68 163 68q101 0 164 -68
q60 -66 60 -168zM294 700q24 0 43.5 13t29.5 29t21.5 29t22.5 13t19.5 -7.5t8.5 -18.5q0 -18 -30 -54q-47 -58 -115 -58t-115 58q-30 36 -30 54q0 11 8.5 18.5t19.5 7.5t22.5 -13t21.5 -29t29.5 -29t43.5 -13z" />
    <glyph glyph-name="Asmallbreve.3" unicode="&#xe027;" horiz-adv-x="544" 
d="M57 148q0 99 97 142q79 37 244 41v7q0 78 -29 111q-31 37 -92 37q-45 0 -93 -20q-12 -5 -26 -12.5t-23 -11.5t-16 -4q-16 0 -26 10t-10 25q0 25 43 46q69 33 154 33q101 0 149 -59q42 -51 42 -152v-313q0 -15 -10.5 -25.5t-25.5 -10.5q-16 0 -26.5 10.5t-10.5 25.5v3
q-65 -39 -154 -39q-76 0 -131.5 41t-55.5 115zM263 55q74 0 135 38v178q-142 -7 -196 -30q-70 -29 -70 -90q0 -48 38.5 -72t92.5 -24zM272 700q24 0 43.5 13t29.5 29t21.5 29t22.5 13t19.5 -7.5t8.5 -18.5q0 -18 -30 -54q-47 -58 -115 -58t-115 58q-30 36 -30 54
q0 11 8.5 18.5t19.5 7.5t22.5 -13t21.5 -29t29.5 -29t43.5 -13z" />
    <glyph glyph-name="Asmallbreve.calt" unicode="&#xe028;" horiz-adv-x="511" 
d="M428 17l-47 115h-252l-46 -115q-10 -25 -36 -25q-15 0 -24.5 9.5t-9.5 24.5q0 9 4 17l191 472q16 37 48 37q35 0 49 -37l189 -472q4 -12 4 -17q0 -14 -9.5 -24t-24.5 -10q-29 0 -36 25zM256 454l-108 -265h215zM253 700q24 0 43.5 13t29.5 29t21.5 29t22.5 13t19.5 -7.5
t8.5 -18.5q0 -18 -30 -54q-47 -58 -115 -58t-115 58q-30 36 -30 54q0 11 8.5 18.5t19.5 7.5t22.5 -13t21.5 -29t29.5 -29t43.5 -13z" />
    <glyph glyph-name="Asmallcircumflex" unicode="&#xe029;" 
d="M295 484q-69 0 -111 -50q-38 -45 -38 -121v-63h300v63q0 75 -39 121q-41 50 -112 50zM519 316v-289q0 -14 -11 -24.5t-26 -10.5t-25.5 10.5t-10.5 24.5v160h-300v-160q0 -14 -11 -24.5t-26 -10.5t-26 10.5t-11 24.5v289q0 102 60 168q63 68 163 68q101 0 164 -68
q60 -66 60 -168zM295 829q12 0 24 -12l123 -127q13 -15 13 -22q0 -12 -8 -19.5t-19 -7.5t-19 8l-114 117l-113 -117q-8 -8 -19 -8q-12 0 -19.5 7.5t-7.5 19.5q0 10 12 22l124 127q12 12 23 12z" />
    <glyph glyph-name="Asmallcircumflex.2" unicode="&#xe02a;" 
d="M295 484q-69 0 -111 -50q-38 -45 -38 -121v-64h300v64q0 75 -39 121q-41 50 -112 50zM519 316v-289q0 -14 -11 -24.5t-26 -10.5t-25.5 10.5t-10.5 24.5v159h-300v-159q0 -14 -11 -24.5t-26 -10.5t-26 10.5t-11 24.5v289q0 102 60 168q63 68 163 68q101 0 164 -68
q60 -66 60 -168zM297 829q12 0 24 -12l123 -127q13 -15 13 -22q0 -12 -8 -19.5t-19 -7.5t-19 8l-114 117l-113 -117q-8 -8 -19 -8q-12 0 -19.5 7.5t-7.5 19.5q0 10 12 22l124 127q12 12 23 12z" />
    <glyph glyph-name="Asmallcircumflex.3" unicode="&#xe02b;" horiz-adv-x="544" 
d="M57 148q0 99 97 142q79 37 244 41v7q0 78 -29 111q-31 37 -92 37q-45 0 -93 -20q-12 -5 -26 -12.5t-23 -11.5t-16 -4q-16 0 -26 10t-10 25q0 25 43 46q69 33 154 33q101 0 149 -59q42 -51 42 -152v-313q0 -15 -10.5 -25.5t-25.5 -10.5q-16 0 -26.5 10.5t-10.5 25.5v3
q-65 -39 -154 -39q-76 0 -131.5 41t-55.5 115zM263 55q74 0 135 38v178q-142 -7 -196 -30q-70 -29 -70 -90q0 -48 38.5 -72t92.5 -24zM269 829q12 0 24 -12l123 -127q13 -15 13 -22q0 -12 -8 -19.5t-19 -7.5t-19 8l-114 117l-113 -117q-8 -8 -19 -8q-12 0 -19.5 7.5
t-7.5 19.5q0 10 12 22l124 127q12 12 23 12z" />
    <glyph glyph-name="Asmallcircumflex.calt" unicode="&#xe02c;" horiz-adv-x="511" 
d="M428 17l-47 115h-252l-46 -115q-10 -25 -36 -25q-15 0 -24.5 9.5t-9.5 24.5q0 9 4 17l191 472q16 37 48 37q35 0 49 -37l189 -472q4 -12 4 -17q0 -14 -9.5 -24t-24.5 -10q-29 0 -36 25zM256 454l-108 -265h215zM254 829q12 0 24 -12l123 -127q13 -15 13 -22
q0 -12 -8 -19.5t-19 -7.5t-19 8l-114 117l-113 -117q-8 -8 -19 -8q-12 0 -19.5 7.5t-7.5 19.5q0 10 12 22l124 127q12 12 23 12z" />
    <glyph glyph-name="Asmalldieresis" unicode="&#xe02d;" 
d="M295 484q-69 0 -111 -50q-38 -45 -38 -121v-63h300v63q0 75 -39 121q-41 50 -112 50zM519 316v-289q0 -14 -11 -24.5t-26 -10.5t-25.5 10.5t-10.5 24.5v160h-300v-160q0 -14 -11 -24.5t-26 -10.5t-26 10.5t-11 24.5v289q0 102 60 168q63 68 163 68q101 0 164 -68
q60 -66 60 -168zM201 683q-18 0 -31 13t-13 32q0 18 13 30.5t31 12.5q19 0 31.5 -12.5t12.5 -30.5q0 -19 -12.5 -32t-31.5 -13zM389 683q-18 0 -31 13t-13 32q0 18 13 30.5t31 12.5t31 -12.5t13 -30.5q0 -19 -13 -32t-31 -13z" />
    <glyph glyph-name="Asmalldieresis.2" unicode="&#xe02e;" 
d="M295 484q-69 0 -111 -50q-38 -45 -38 -121v-64h300v64q0 75 -39 121q-41 50 -112 50zM519 316v-289q0 -14 -11 -24.5t-26 -10.5t-25.5 10.5t-10.5 24.5v159h-300v-159q0 -14 -11 -24.5t-26 -10.5t-26 10.5t-11 24.5v289q0 102 60 168q63 68 163 68q101 0 164 -68
q60 -66 60 -168zM204 683q-18 0 -31 13t-13 32q0 18 13 30.5t31 12.5q19 0 31.5 -12.5t12.5 -30.5q0 -19 -12.5 -32t-31.5 -13zM392 683q-18 0 -31 13t-13 32q0 18 13 30.5t31 12.5t31 -12.5t13 -30.5q0 -19 -13 -32t-31 -13z" />
    <glyph glyph-name="Asmalldieresis.3" unicode="&#xe02f;" horiz-adv-x="544" 
d="M57 148q0 99 97 142q79 37 244 41v7q0 78 -29 111q-31 37 -92 37q-45 0 -93 -20q-12 -5 -26 -12.5t-23 -11.5t-16 -4q-16 0 -26 10t-10 25q0 25 43 46q69 33 154 33q101 0 149 -59q42 -51 42 -152v-313q0 -15 -10.5 -25.5t-25.5 -10.5q-16 0 -26.5 10.5t-10.5 25.5v3
q-65 -39 -154 -39q-76 0 -131.5 41t-55.5 115zM263 55q74 0 135 38v178q-142 -7 -196 -30q-70 -29 -70 -90q0 -48 38.5 -72t92.5 -24zM178 683q-18 0 -31 13t-13 32q0 18 13 30.5t31 12.5q19 0 31.5 -12.5t12.5 -30.5q0 -19 -12.5 -32t-31.5 -13zM366 683q-18 0 -31 13
t-13 32q0 18 13 30.5t31 12.5t31 -12.5t13 -30.5q0 -19 -13 -32t-31 -13z" />
    <glyph glyph-name="Asmalldieresis.calt" unicode="&#xe030;" horiz-adv-x="511" 
d="M428 17l-47 115h-252l-46 -115q-10 -25 -36 -25q-15 0 -24.5 9.5t-9.5 24.5q0 9 4 17l191 472q16 37 48 37q35 0 49 -37l189 -472q4 -12 4 -17q0 -14 -9.5 -24t-24.5 -10q-29 0 -36 25zM256 454l-108 -265h215zM161 683q-18 0 -31 13t-13 32q0 18 13 30.5t31 12.5
q19 0 31.5 -12.5t12.5 -30.5q0 -19 -12.5 -32t-31.5 -13zM349 683q-18 0 -31 13t-13 32q0 18 13 30.5t31 12.5t31 -12.5t13 -30.5q0 -19 -13 -32t-31 -13z" />
    <glyph glyph-name="Asmallgrave" unicode="&#xe031;" 
d="M295 484q-69 0 -111 -50q-38 -45 -38 -121v-63h300v63q0 75 -39 121q-41 50 -112 50zM519 316v-289q0 -14 -11 -24.5t-26 -10.5t-25.5 10.5t-10.5 24.5v160h-300v-160q0 -14 -11 -24.5t-26 -10.5t-26 10.5t-11 24.5v289q0 102 60 168q63 68 163 68q101 0 164 -68
q60 -66 60 -168zM366 652q0 -10 -7.5 -17t-18.5 -7q-16 0 -26 18l-81 134q-8 13 -8 22q0 11 9 19.5t21 8.5q17 0 28 -21l77 -138q6 -11 6 -19z" />
    <glyph glyph-name="Asmallgrave.2" unicode="&#xe032;" 
d="M295 484q-69 0 -111 -50q-38 -45 -38 -121v-64h300v64q0 75 -39 121q-41 50 -112 50zM519 316v-289q0 -14 -11 -24.5t-26 -10.5t-25.5 10.5t-10.5 24.5v159h-300v-159q0 -14 -11 -24.5t-26 -10.5t-26 10.5t-11 24.5v289q0 102 60 168q63 68 163 68q101 0 164 -68
q60 -66 60 -168zM369 652q0 -10 -7.5 -17t-18.5 -7q-15 0 -26 18l-81 134q-8 13 -8 22q0 11 9 19.5t21 8.5q17 0 28 -21l77 -138q6 -11 6 -19z" />
    <glyph glyph-name="Asmallgrave.3" unicode="&#xe033;" horiz-adv-x="544" 
d="M57 148q0 99 97 142q79 37 244 41v7q0 78 -29 111q-31 37 -92 37q-45 0 -93 -20q-12 -5 -26 -12.5t-23 -11.5t-16 -4q-16 0 -26 10t-10 25q0 25 43 46q69 33 154 33q101 0 149 -59q42 -51 42 -152v-313q0 -15 -10.5 -25.5t-25.5 -10.5q-16 0 -26.5 10.5t-10.5 25.5v3
q-65 -39 -154 -39q-76 0 -131.5 41t-55.5 115zM263 55q74 0 135 38v178q-142 -7 -196 -30q-70 -29 -70 -90q0 -48 38.5 -72t92.5 -24zM350 652q0 -10 -7.5 -17t-18.5 -7q-15 0 -26 18l-81 134q-8 13 -8 22q0 11 9 19.5t21 8.5q17 0 28 -21l77 -138q6 -11 6 -19z" />
    <glyph glyph-name="Asmallgrave.calt" unicode="&#xe034;" horiz-adv-x="511" 
d="M428 17l-47 115h-252l-46 -115q-10 -25 -36 -25q-15 0 -24.5 9.5t-9.5 24.5q0 9 4 17l191 472q16 37 48 37q35 0 49 -37l189 -472q4 -12 4 -17q0 -14 -9.5 -24t-24.5 -10q-29 0 -36 25zM256 454l-108 -265h215zM331 652q0 -10 -7.5 -17t-18.5 -7q-15 0 -26 18l-81 134
q-8 13 -8 22q0 11 9 19.5t21 8.5q17 0 28 -21l77 -138q6 -11 6 -19z" />
    <glyph glyph-name="Asmallmacron" unicode="&#xe035;" 
d="M295 484q-69 0 -111 -50q-38 -45 -38 -121v-63h300v63q0 75 -39 121q-41 50 -112 50zM519 316v-289q0 -14 -11 -24.5t-26 -10.5t-25.5 10.5t-10.5 24.5v160h-300v-160q0 -14 -11 -24.5t-26 -10.5t-26 10.5t-11 24.5v289q0 102 60 168q63 68 163 68q101 0 164 -68
q60 -66 60 -168zM428 718q0 -13 -8.5 -21.5t-21.5 -8.5h-206q-12 0 -21 8.5t-9 21.5q0 12 9 21t21 9h206q13 0 21.5 -9t8.5 -21z" />
    <glyph glyph-name="Asmallmacron.2" unicode="&#xe036;" 
d="M295 484q-69 0 -111 -50q-38 -45 -38 -121v-64h300v64q0 75 -39 121q-41 50 -112 50zM519 316v-289q0 -14 -11 -24.5t-26 -10.5t-25.5 10.5t-10.5 24.5v159h-300v-159q0 -14 -11 -24.5t-26 -10.5t-26 10.5t-11 24.5v289q0 102 60 168q63 68 163 68q101 0 164 -68
q60 -66 60 -168zM431 718q0 -13 -8.5 -21.5t-21.5 -8.5h-206q-12 0 -21 8.5t-9 21.5q0 12 9 21t21 9h206q13 0 21.5 -9t8.5 -21z" />
    <glyph glyph-name="Asmallmacron.3" unicode="&#xe037;" horiz-adv-x="544" 
d="M57 148q0 99 97 142q79 37 244 41v7q0 78 -29 111q-31 37 -92 37q-45 0 -93 -20q-12 -5 -26 -12.5t-23 -11.5t-16 -4q-16 0 -26 10t-10 25q0 25 43 46q69 33 154 33q101 0 149 -59q42 -51 42 -152v-313q0 -15 -10.5 -25.5t-25.5 -10.5q-16 0 -26.5 10.5t-10.5 25.5v3
q-65 -39 -154 -39q-76 0 -131.5 41t-55.5 115zM263 55q74 0 135 38v178q-142 -7 -196 -30q-70 -29 -70 -90q0 -48 38.5 -72t92.5 -24zM407 718q0 -13 -8.5 -21.5t-21.5 -8.5h-206q-12 0 -21 8.5t-9 21.5q0 12 9 21t21 9h206q13 0 21.5 -9t8.5 -21z" />
    <glyph glyph-name="Asmallmacron.calt" unicode="&#xe038;" horiz-adv-x="511" 
d="M428 17l-47 115h-252l-46 -115q-10 -25 -36 -25q-15 0 -24.5 9.5t-9.5 24.5q0 9 4 17l191 472q16 37 48 37q35 0 49 -37l189 -472q4 -12 4 -17q0 -14 -9.5 -24t-24.5 -10q-29 0 -36 25zM256 454l-108 -265h215zM388 718q0 -13 -8.5 -21.5t-21.5 -8.5h-206q-12 0 -21 8.5
t-9 21.5q0 12 9 21t21 9h206q13 0 21.5 -9t8.5 -21z" />
    <glyph glyph-name="Asmallogonek" unicode="&#xe039;" 
d="M519 316v-289q0 -13 -9 -22.5t-23 -11.5q-20 -50 -20 -80q0 -25 15 -41.5t60 -16.5q15 0 30 3.5t19 3.5q22 0 22 -22q0 -20 -23 -28q-25 -9 -53 -9q-119 0 -119 93q0 43 34 111q-6 8 -6 20v160h-300v-160q0 -14 -11 -24.5t-26 -10.5t-26 10.5t-11 24.5v289q0 102 60 168
q63 68 163 68q101 0 164 -68q60 -66 60 -168zM295 484q-69 0 -111 -50q-38 -45 -38 -121v-63h300v63q0 75 -39 121q-41 50 -112 50z" />
    <glyph glyph-name="Asmallogonek.2" unicode="&#xe03a;" 
d="M519 316v-289q0 -13 -9.5 -23t-23.5 -12q-20 -48 -20 -79q0 -25 15 -41.5t60 -16.5q15 0 30 3.5t19 3.5q22 0 22 -22q0 -20 -23 -28q-25 -9 -53 -9q-119 0 -119 93q0 43 35 111q-6 9 -6 20v159h-300v-159q0 -14 -11 -24.5t-26 -10.5t-26 10.5t-11 24.5v289q0 102 60 168
q63 68 163 68q101 0 164 -68q60 -66 60 -168zM295 484q-69 0 -111 -50q-38 -45 -38 -121v-64h300v64q0 75 -39 121q-41 50 -112 50z" />
    <glyph glyph-name="Asmallogonek.3" unicode="&#xe03b;" horiz-adv-x="544" 
d="M280 552q101 0 149 -59q42 -51 42 -152v-313q0 -28 -27 -35q-20 -49 -20 -80q0 -58 74 -58q15 0 30 3.5t19 3.5q22 0 22 -22q0 -21 -23 -28q-25 -9 -53 -9q-119 0 -119 93q0 45 31 109q-7 8 -7 23v3q-65 -39 -154 -39q-76 0 -131.5 41t-55.5 115q0 99 97 142
q79 37 244 41v7q0 78 -29 111q-31 37 -92 37q-45 0 -93 -20q-12 -5 -26 -12.5t-23 -11.5t-16 -4q-16 0 -26 10t-10 25q0 25 43 46q69 33 154 33zM263 55q74 0 135 38v178q-142 -7 -196 -30q-70 -29 -70 -90q0 -48 38.5 -72t92.5 -24z" />
    <glyph glyph-name="Asmallogonek.calt" unicode="&#xe03c;" horiz-adv-x="511" 
d="M428 17l-47 115h-252l-46 -115q-10 -25 -36 -25q-15 0 -24.5 9.5t-9.5 24.5q0 9 4 17l191 472q16 37 48 37q35 0 49 -37l189 -472q4 -12 4 -17q0 -14 -9.5 -23.5t-23.5 -10.5q-20 -48 -20 -79q0 -25 15 -41.5t60 -16.5q15 0 30 3.5t19 3.5q22 0 22 -22q0 -20 -23 -28
q-25 -9 -53 -9q-119 0 -119 93q0 42 35 112zM256 454l-108 -265h215z" />
    <glyph glyph-name="Asmallring" unicode="&#xe03d;" 
d="M295 484q-69 0 -111 -50q-38 -45 -38 -121v-63h300v63q0 75 -39 121q-41 50 -112 50zM519 316v-289q0 -14 -11 -24.5t-26 -10.5t-25.5 10.5t-10.5 24.5v160h-300v-160q0 -14 -11 -24.5t-26 -10.5t-26 10.5t-11 24.5v289q0 102 60 168q63 68 163 68q101 0 164 -68
q60 -66 60 -168zM411 722q0 -49 -33.5 -82.5t-81.5 -33.5t-82 33.5t-34 82.5q0 48 34 82t82 34t81.5 -34t33.5 -82zM375 722q0 33 -23 56.5t-56 23.5t-56 -23.5t-23 -56.5q0 -34 23 -57t56 -23t56 23t23 57z" />
    <glyph glyph-name="Asmallring.2" unicode="&#xe03e;" 
d="M295 484q-69 0 -111 -50q-38 -45 -38 -121v-64h300v64q0 75 -39 121q-41 50 -112 50zM519 316v-289q0 -14 -11 -24.5t-26 -10.5t-25.5 10.5t-10.5 24.5v159h-300v-159q0 -14 -11 -24.5t-26 -10.5t-26 10.5t-11 24.5v289q0 102 60 168q63 68 163 68q101 0 164 -68
q60 -66 60 -168zM413 722q0 -49 -33.5 -82.5t-81.5 -33.5t-82 33.5t-34 82.5q0 48 34 82t82 34t81.5 -34t33.5 -82zM377 722q0 33 -23 56.5t-56 23.5t-56 -23.5t-23 -56.5q0 -34 23 -57t56 -23t56 23t23 57z" />
    <glyph glyph-name="Asmallring.3" unicode="&#xe03f;" horiz-adv-x="544" 
d="M57 148q0 99 97 142q79 37 244 41v7q0 78 -29 111q-31 37 -92 37q-45 0 -93 -20q-12 -5 -26 -12.5t-23 -11.5t-16 -4q-16 0 -26 10t-10 25q0 25 43 46q69 33 154 33q101 0 149 -59q42 -51 42 -152v-313q0 -15 -10.5 -25.5t-25.5 -10.5q-16 0 -26.5 10.5t-10.5 25.5v3
q-65 -39 -154 -39q-76 0 -131.5 41t-55.5 115zM263 55q74 0 135 38v178q-142 -7 -196 -30q-70 -29 -70 -90q0 -48 38.5 -72t92.5 -24zM389 722q0 -49 -33.5 -82.5t-81.5 -33.5t-82 33.5t-34 82.5q0 48 34 82t82 34t81.5 -34t33.5 -82zM353 722q0 33 -23 56.5t-56 23.5
t-56 -23.5t-23 -56.5q0 -34 23 -57t56 -23t56 23t23 57z" />
    <glyph glyph-name="Asmallring.calt" unicode="&#xe040;" horiz-adv-x="511" 
d="M428 17l-47 115h-252l-46 -115q-10 -25 -36 -25q-15 0 -24.5 9.5t-9.5 24.5q0 9 4 17l191 472q16 37 48 37q35 0 49 -37l189 -472q4 -12 4 -17q0 -14 -9.5 -24t-24.5 -10q-29 0 -36 25zM256 454l-108 -265h215zM370 722q0 -49 -33.5 -82.5t-81.5 -33.5t-82 33.5t-34 82.5
q0 48 34 82t82 34t81.5 -34t33.5 -82zM334 722q0 33 -23 56.5t-56 23.5t-56 -23.5t-23 -56.5q0 -34 23 -57t56 -23t56 23t23 57z" />
    <glyph glyph-name="Asmalltilde" unicode="&#xe041;" 
d="M295 484q-69 0 -111 -50q-38 -45 -38 -121v-63h300v63q0 75 -39 121q-41 50 -112 50zM519 316v-289q0 -14 -11 -24.5t-26 -10.5t-25.5 10.5t-10.5 24.5v160h-300v-160q0 -14 -11 -24.5t-26 -10.5t-26 10.5t-11 24.5v289q0 102 60 168q63 68 163 68q101 0 164 -68
q60 -66 60 -168zM460 744q0 -21 -21 -42q-26 -28 -70 -28q-37 0 -79 27q-3 2 -12 7.5t-12.5 8t-11 5.5t-13.5 4.5t-13 1.5q-23 0 -41.5 -22t-30.5 -22q-11 0 -18 7.5t-7 18.5q0 20 22 42q27 29 70 29q39 0 79 -26q4 -3 12.5 -8.5t12.5 -8t11 -6t13 -5t13 -1.5q22 0 41 22.5
t31 22.5q11 0 17.5 -7.5t6.5 -19.5z" />
    <glyph glyph-name="Asmalltilde.2" unicode="&#xe042;" 
d="M295 484q-69 0 -111 -50q-38 -45 -38 -121v-64h300v64q0 75 -39 121q-41 50 -112 50zM519 316v-289q0 -14 -11 -24.5t-26 -10.5t-25.5 10.5t-10.5 24.5v159h-300v-159q0 -14 -11 -24.5t-26 -10.5t-26 10.5t-11 24.5v289q0 102 60 168q63 68 163 68q101 0 164 -68
q60 -66 60 -168zM462 744q0 -21 -21 -42q-26 -28 -70 -28q-37 0 -79 27q-3 2 -12 7.5t-12.5 8t-11 5.5t-13.5 4.5t-13 1.5q-23 0 -41.5 -22t-30.5 -22q-11 0 -18 7.5t-7 18.5q0 20 22 42q27 29 70 29q39 0 79 -26q4 -3 12.5 -8.5t12.5 -8t11 -6t13 -5t13 -1.5q22 0 41 22.5
t31 22.5q11 0 17.5 -7.5t6.5 -19.5z" />
    </font>
</defs>
</svg>
